<!-- AIVD Headquarters - Formal Debrief Conference Room -->
<!-- Modern government building, Zoetermeer near Den Haag -->
<svg width="1920" height="1080" viewBox="0 0 1920 1080" xmlns="http://www.w3.org/2000/svg">
  <defs>
    <style>
      .sp-stroke { stroke: #000; stroke-width: 3px; stroke-linecap: round; stroke-linejoin: round; }
    </style>

    <!-- Floor gradient (polished concrete/stone) -->
    <linearGradient id="floorGrad" x1="0%" y1="0%" x2="0%" y2="100%">
      <stop offset="0%" style="stop-color:#b0b0b0;stop-opacity:1" />
      <stop offset="100%" style="stop-color:#909090;stop-opacity:1" />
    </linearGradient>

    <!-- Wall gradient (cool government grey-blue) -->
    <linearGradient id="wallGrad" x1="0%" y1="0%" x2="0%" y2="100%">
      <stop offset="0%" style="stop-color:#e8ecf0;stop-opacity:1" />
      <stop offset="100%" style="stop-color:#d0d8e0;stop-opacity:1" />
    </linearGradient>

    <!-- Table gradient (dark conference table) -->
    <linearGradient id="tableGrad" x1="0%" y1="0%" x2="0%" y2="100%">
      <stop offset="0%" style="stop-color:#2c2c2c;stop-opacity:1" />
      <stop offset="50%" style="stop-color:#1a1a1a;stop-opacity:1" />
      <stop offset="100%" style="stop-color:#0f0f0f;stop-opacity:1" />
    </linearGradient>

    <!-- Window sky gradient -->
    <linearGradient id="skyGrad" x1="0%" y1="0%" x2="0%" y2="100%">
      <stop offset="0%" style="stop-color:#87CEEB;stop-opacity:1" />
      <stop offset="100%" style="stop-color:#b0d4e8;stop-opacity:1" />
    </linearGradient>

    <!-- Chair leather gradient -->
    <linearGradient id="chairLeather" x1="0%" y1="0%" x2="0%" y2="100%">
      <stop offset="0%" style="stop-color:#2a2a2a;stop-opacity:1" />
      <stop offset="100%" style="stop-color:#1a1a1a;stop-opacity:1" />
    </linearGradient>

    <!-- Coffee gradient -->
    <radialGradient id="coffeeGrad" cx="50%" cy="50%" r="50%">
      <stop offset="0%" style="stop-color:#4a2f1a" />
      <stop offset="100%" style="stop-color:#2d1a0e" />
    </radialGradient>

    <!-- Floor reflection -->
    <linearGradient id="floorReflect" x1="0%" y1="0%" x2="0%" y2="100%">
      <stop offset="0%" style="stop-color:#fff;stop-opacity:0.06" />
      <stop offset="100%" style="stop-color:#fff;stop-opacity:0" />
    </linearGradient>

    <!-- Panel accent -->
    <linearGradient id="panelGrad" x1="0%" y1="0%" x2="0%" y2="100%">
      <stop offset="0%" style="stop-color:#c8d0d8;stop-opacity:1" />
      <stop offset="100%" style="stop-color:#b0b8c4;stop-opacity:1" />
    </linearGradient>

    <!-- Screen glow -->
    <filter id="screenGlow" x="-5%" y="-5%" width="110%" height="110%">
      <feGaussianBlur in="SourceGraphic" stdDeviation="2" />
    </filter>

    <!-- Soft light -->
    <filter id="softLight" x="-10%" y="-10%" width="120%" height="120%">
      <feGaussianBlur in="SourceGraphic" stdDeviation="6" />
    </filter>
  </defs>

  <!-- ========== WALLS ========== -->
  <!-- Back wall -->
  <rect x="0" y="0" width="1920" height="660" fill="url(#wallGrad)"/>

  <!-- Subtle wall panels (modern government style) -->
  <rect x="0" y="0" width="1920" height="660" fill="none" stroke="#c0c8d0" stroke-width="1"/>
  <!-- Horizontal wall division -->
  <line x1="0" y1="80" x2="1920" y2="80" stroke="#c8d0d8" stroke-width="2"/>
  <!-- Upper wall accent strip (dark blue-grey) -->
  <rect x="0" y="0" width="1920" height="80" fill="#3a4a5c" opacity="0.15"/>

  <!-- Vertical wall panel lines -->
  <line x1="480" y1="80" x2="480" y2="660" stroke="#c0c8d0" stroke-width="1" opacity="0.6"/>
  <line x1="960" y1="80" x2="960" y2="660" stroke="#c0c8d0" stroke-width="1" opacity="0.6"/>
  <line x1="1440" y1="80" x2="1440" y2="660" stroke="#c0c8d0" stroke-width="1" opacity="0.6"/>

  <!-- ========== FLOOR ========== -->
  <rect x="0" y="660" width="1920" height="420" fill="url(#floorGrad)"/>
  <!-- Floor tile lines -->
  <line x1="0" y1="730" x2="1920" y2="730" stroke="#999" stroke-width="1" opacity="0.3"/>
  <line x1="0" y1="810" x2="1920" y2="810" stroke="#999" stroke-width="1" opacity="0.3"/>
  <line x1="0" y1="900" x2="1920" y2="900" stroke="#999" stroke-width="1" opacity="0.3"/>
  <line x1="0" y1="1000" x2="1920" y2="1000" stroke="#999" stroke-width="1" opacity="0.3"/>
  <line x1="384" y1="660" x2="384" y2="1080" stroke="#999" stroke-width="1" opacity="0.2"/>
  <line x1="768" y1="660" x2="768" y2="1080" stroke="#999" stroke-width="1" opacity="0.2"/>
  <line x1="1152" y1="660" x2="1152" y2="1080" stroke="#999" stroke-width="1" opacity="0.2"/>
  <line x1="1536" y1="660" x2="1536" y2="1080" stroke="#999" stroke-width="1" opacity="0.2"/>
  <!-- Floor reflection strip -->
  <rect x="0" y="660" width="1920" height="60" fill="url(#floorReflect)"/>

  <!-- ========== WINDOWS (wide, modern) ========== -->
  <!-- Left window bank -->
  <g id="windowLeft">
    <rect x="60" y="120" width="360" height="480" fill="url(#skyGrad)" stroke="#6a7a8a" stroke-width="4"/>
    <!-- Window mullions -->
    <line x1="180" y1="120" x2="180" y2="600" stroke="#6a7a8a" stroke-width="3"/>
    <line x1="300" y1="120" x2="300" y2="600" stroke="#6a7a8a" stroke-width="3"/>
    <line x1="60" y1="360" x2="420" y2="360" stroke="#6a7a8a" stroke-width="3"/>

    <!-- Sky and clouds -->
    <ellipse cx="150" cy="200" rx="60" ry="20" fill="#fff" opacity="0.6"/>
    <ellipse cx="170" cy="195" rx="40" ry="15" fill="#fff" opacity="0.7"/>
    <ellipse cx="340" cy="240" rx="45" ry="16" fill="#fff" opacity="0.5"/>

    <!-- Distant Den Haag skyline visible -->
    <!-- Tall buildings silhouette -->
    <rect x="70" y="420" width="30" height="120" fill="#8899aa" opacity="0.4"/>
    <rect x="108" y="440" width="24" height="100" fill="#8899aa" opacity="0.35"/>
    <rect x="140" y="400" width="20" height="140" fill="#8899aa" opacity="0.45"/>
    <rect x="170" y="430" width="35" height="110" fill="#8899aa" opacity="0.35"/>
    <rect x="220" y="450" width="28" height="90" fill="#8899aa" opacity="0.3"/>
    <rect x="260" y="410" width="18" height="130" fill="#8899aa" opacity="0.4"/>
    <rect x="290" y="460" width="40" height="80" fill="#8899aa" opacity="0.3"/>
    <rect x="340" y="440" width="22" height="100" fill="#8899aa" opacity="0.35"/>
    <rect x="370" y="470" width="30" height="70" fill="#8899aa" opacity="0.25"/>
    <!-- The Hague skyline marker - church spire -->
    <path d="M 155 400 L 160 370 L 165 400" fill="#7a8a9a" opacity="0.4"/>

    <!-- Trees/greenery at base -->
    <rect x="60" y="530" width="360" height="70" fill="#5a8a5a" opacity="0.35"/>
    <ellipse cx="120" cy="520" rx="40" ry="25" fill="#4a7a4a" opacity="0.35"/>
    <ellipse cx="240" cy="530" rx="50" ry="20" fill="#4a7a4a" opacity="0.3"/>
    <ellipse cx="360" cy="525" rx="35" ry="22" fill="#4a7a4a" opacity="0.35"/>

    <!-- Window sill -->
    <rect x="50" y="598" width="380" height="10" fill="#8090a0" stroke="#6a7a8a" stroke-width="2"/>
  </g>

  <!-- ========== AIVD LOGO / COAT OF ARMS on Wall (center) ========== -->
  <g id="aivdWallSeal" transform="translate(960, 280)">
    <!-- Frame -->
    <rect x="-100" y="-120" width="200" height="240" rx="4" fill="#e0e4e8" stroke="#8090a0" stroke-width="3"/>
    <rect x="-92" y="-112" width="184" height="224" fill="#f0f2f5" stroke="#a0a8b0" stroke-width="1"/>

    <!-- Dutch Royal Coat of Arms (simplified) -->
    <!-- Shield -->
    <path d="M -50 -70 L -50 10 Q 0 60 50 10 L 50 -70 Z" fill="#003DA5" stroke="#c0981e" stroke-width="3"/>
    <!-- Lion (simplified heraldic) -->
    <g fill="#c0981e" stroke="#8a6e14" stroke-width="1">
      <!-- Body -->
      <ellipse cx="0" cy="-20" rx="28" ry="22"/>
      <!-- Head -->
      <circle cx="-5" cy="-50" r="16"/>
      <!-- Crown on lion -->
      <path d="M -16 -64 L -16 -72 L -10 -66 L -5 -76 L 0 -66 L 6 -72 L 6 -64 Z" fill="#c0981e"/>
      <!-- Mane -->
      <ellipse cx="-5" cy="-42" rx="12" ry="8" fill="#a07a14"/>
      <!-- Raised paw (left) -->
      <path d="M -24 -30 L -40 -55 L -35 -58 L -20 -35" fill="#c0981e" stroke="#8a6e14" stroke-width="1.5"/>
      <!-- Raised paw (right) -->
      <path d="M 20 -30 L 36 -55 L 31 -58 L 16 -35" fill="#c0981e" stroke="#8a6e14" stroke-width="1.5"/>
      <!-- Tail -->
      <path d="M 25 -10 Q 42 -25 35 -45" fill="none" stroke="#c0981e" stroke-width="4"/>
      <!-- Hind legs -->
      <path d="M -15 2 L -20 20 L -12 20" fill="#c0981e" stroke="#8a6e14" stroke-width="1"/>
      <path d="M 15 2 L 20 20 L 12 20" fill="#c0981e" stroke="#8a6e14" stroke-width="1"/>
    </g>
    <!-- Shield motto banner -->
    <path d="M -55 25 Q 0 35 55 25 Q 0 42 -55 25" fill="#c0981e" stroke="#8a6e14" stroke-width="1"/>

    <!-- AIVD text -->
    <text x="0" y="68" font-family="Arial, sans-serif" font-size="22" fill="#2a3a4a" font-weight="bold" text-anchor="middle" letter-spacing="6">AIVD</text>
    <!-- Full name -->
    <text x="0" y="88" font-family="Arial, sans-serif" font-size="9" fill="#5a6a7a" text-anchor="middle" letter-spacing="1">ALGEMENE INLICHTINGEN- EN VEILIGHEIDSDIENST</text>
  </g>

  <!-- ========== RIGHT WINDOW BANK ========== -->
  <g id="windowRight">
    <rect x="1480" y="120" width="380" height="480" fill="url(#skyGrad)" stroke="#6a7a8a" stroke-width="4"/>
    <!-- Mullions -->
    <line x1="1607" y1="120" x2="1607" y2="600" stroke="#6a7a8a" stroke-width="3"/>
    <line x1="1733" y1="120" x2="1733" y2="600" stroke="#6a7a8a" stroke-width="3"/>
    <line x1="1480" y1="360" x2="1860" y2="360" stroke="#6a7a8a" stroke-width="3"/>

    <!-- Clouds -->
    <ellipse cx="1550" cy="220" rx="50" ry="18" fill="#fff" opacity="0.5"/>
    <ellipse cx="1750" cy="190" rx="55" ry="20" fill="#fff" opacity="0.6"/>

    <!-- Parking lot with black government cars visible -->
    <rect x="1480" y="480" width="380" height="120" fill="#707070" opacity="0.4"/>
    <!-- Parked black cars (tiny, far away) -->
    <rect x="1510" y="510" width="30" height="14" rx="2" fill="#111" opacity="0.5"/>
    <rect x="1555" y="510" width="30" height="14" rx="2" fill="#111" opacity="0.5"/>
    <rect x="1600" y="510" width="30" height="14" rx="2" fill="#111" opacity="0.5"/>
    <rect x="1510" y="535" width="30" height="14" rx="2" fill="#111" opacity="0.5"/>
    <rect x="1555" y="535" width="30" height="14" rx="2" fill="#111" opacity="0.5"/>
    <!-- White line markings -->
    <line x1="1545" y1="500" x2="1545" y2="560" stroke="#fff" stroke-width="1" opacity="0.3"/>
    <line x1="1590" y1="500" x2="1590" y2="560" stroke="#fff" stroke-width="1" opacity="0.3"/>
    <line x1="1635" y1="500" x2="1635" y2="560" stroke="#fff" stroke-width="1" opacity="0.3"/>

    <!-- Trees -->
    <ellipse cx="1700" cy="520" rx="45" ry="28" fill="#4a7a4a" opacity="0.35"/>
    <ellipse cx="1800" cy="530" rx="40" ry="22" fill="#4a7a4a" opacity="0.3"/>

    <!-- Window sill -->
    <rect x="1470" y="598" width="400" height="10" fill="#8090a0" stroke="#6a7a8a" stroke-width="2"/>
  </g>

  <!-- ========== FLAT SCREEN TV / PRESENTATION SCREEN (left of seal) ========== -->
  <g id="flatscreen" transform="translate(620, 340)">
    <!-- Screen bezel -->
    <rect x="-130" y="-120" width="260" height="180" rx="4" fill="#111" stroke="#333" stroke-width="3"/>
    <!-- Screen -->
    <rect x="-122" y="-112" width="244" height="164" fill="#1a2a3a"/>
    <!-- "CLASSIFIED" screen content -->
    <rect x="-100" y="-90" width="200" height="30" fill="#003DA5" opacity="0.6"/>
    <text x="0" y="-70" font-family="Courier, monospace" font-size="14" fill="#fff" text-anchor="middle" opacity="0.8">OPERATION DOSSIER</text>
    <!-- Data lines on screen -->
    <line x1="-100" y1="-50" x2="-10" y2="-50" stroke="#4a90e2" stroke-width="2" opacity="0.5"/>
    <line x1="-100" y1="-35" x2="30" y2="-35" stroke="#4a90e2" stroke-width="2" opacity="0.5"/>
    <line x1="-100" y1="-20" x2="-30" y2="-20" stroke="#4a90e2" stroke-width="2" opacity="0.5"/>
    <line x1="-100" y1="-5" x2="60" y2="-5" stroke="#4a90e2" stroke-width="2" opacity="0.5"/>
    <line x1="-100" y1="10" x2="10" y2="10" stroke="#4a90e2" stroke-width="2" opacity="0.5"/>
    <!-- Map outline (Netherlands) -->
    <rect x="40" y="-50" width="60" height="50" fill="#0a1a2a" stroke="#4a90e2" stroke-width="1" opacity="0.4"/>
    <circle cx="70" cy="-25" r="4" fill="#ff4444" opacity="0.7"/>
    <!-- Red classification bar -->
    <rect x="-100" y="25" width="200" height="16" fill="#cc0000" opacity="0.5"/>
    <text x="0" y="37" font-family="Courier, monospace" font-size="10" fill="#fff" text-anchor="middle" opacity="0.8">STAATSGEHEIM</text>
    <!-- Screen glow effect -->
    <rect x="-130" y="-120" width="260" height="180" fill="#4a90e2" opacity="0.03" filter="url(#screenGlow)"/>
    <!-- Wall mount -->
    <rect x="-15" y="62" width="30" height="20" fill="#444" stroke="#333" stroke-width="1"/>
  </g>

  <!-- ========== PRESENTATION SCREEN (right of seal) ========== -->
  <g id="flatscreen2" transform="translate(1300, 340)">
    <rect x="-130" y="-120" width="260" height="180" rx="4" fill="#111" stroke="#333" stroke-width="3"/>
    <rect x="-122" y="-112" width="244" height="164" fill="#1a2a3a"/>
    <!-- Signal analysis display -->
    <rect x="-100" y="-90" width="200" height="30" fill="#003DA5" opacity="0.6"/>
    <text x="0" y="-70" font-family="Courier, monospace" font-size="14" fill="#fff" text-anchor="middle" opacity="0.8">SIGNAL ANALYSIS</text>
    <!-- Waveform -->
    <polyline points="-100,-40 -80,-30 -60,-50 -40,-25 -20,-45 0,-30 20,-50 40,-28 60,-42 80,-30 100,-40"
              fill="none" stroke="#4aff4a" stroke-width="2" opacity="0.6"/>
    <!-- Frequency bars -->
    <rect x="-90" y="-5" width="12" height="30" fill="#4a90e2" opacity="0.4"/>
    <rect x="-70" y="5" width="12" height="20" fill="#4a90e2" opacity="0.4"/>
    <rect x="-50" y="-10" width="12" height="35" fill="#4a90e2" opacity="0.4"/>
    <rect x="-30" y="0" width="12" height="25" fill="#4a90e2" opacity="0.4"/>
    <rect x="-10" y="-15" width="12" height="40" fill="#4a90e2" opacity="0.4"/>
    <rect x="10" y="5" width="12" height="20" fill="#4a90e2" opacity="0.4"/>
    <rect x="30" y="-5" width="12" height="30" fill="#4a90e2" opacity="0.4"/>
    <rect x="50" y="10" width="12" height="15" fill="#4a90e2" opacity="0.4"/>
    <rect x="70" y="-8" width="12" height="33" fill="#4a90e2" opacity="0.4"/>
    <!-- Red bar -->
    <rect x="-100" y="30" width="200" height="16" fill="#cc0000" opacity="0.5"/>
    <text x="0" y="42" font-family="Courier, monospace" font-size="10" fill="#fff" text-anchor="middle" opacity="0.8">VERTROUWELIJK</text>
    <rect x="-130" y="-120" width="260" height="180" fill="#4a90e2" opacity="0.03" filter="url(#screenGlow)"/>
    <rect x="-15" y="62" width="30" height="20" fill="#444" stroke="#333" stroke-width="1"/>
  </g>

  <!-- ========== CEILING LIGHTS (recessed modern strips) ========== -->
  <rect x="300" y="0" width="8" height="80" fill="#fff" opacity="0.3"/>
  <rect x="600" y="0" width="8" height="80" fill="#fff" opacity="0.3"/>
  <rect x="900" y="0" width="8" height="80" fill="#fff" opacity="0.3"/>
  <rect x="1200" y="0" width="8" height="80" fill="#fff" opacity="0.3"/>
  <rect x="1500" y="0" width="8" height="80" fill="#fff" opacity="0.3"/>
  <!-- Ambient light pools on table area -->
  <ellipse cx="700" cy="600" rx="200" ry="40" fill="#fff" opacity="0.04" filter="url(#softLight)"/>
  <ellipse cx="1200" cy="600" rx="200" ry="40" fill="#fff" opacity="0.04" filter="url(#softLight)"/>

  <!-- ========== FAR-SIDE CHAIRS (modern office, dark leather) ========== -->
  <!-- Chair 1 far -->
  <g transform="translate(500, 510)">
    <!-- Chrome base -->
    <ellipse cx="0" cy="70" rx="24" ry="6" fill="#888" stroke="#666" stroke-width="1"/>
    <!-- Seat -->
    <rect x="-24" y="30" width="48" height="40" rx="4" fill="url(#chairLeather)" stroke="#333" stroke-width="2"/>
    <!-- Back rest -->
    <rect x="-22" y="-30" width="44" height="64" rx="6" fill="url(#chairLeather)" stroke="#333" stroke-width="2"/>
    <rect x="-16" y="-22" width="32" height="48" rx="3" fill="#2a2a2a" stroke="#3a3a3a" stroke-width="1"/>
    <!-- Arm rests -->
    <rect x="-28" y="20" width="8" height="30" rx="2" fill="#333" stroke="#222" stroke-width="1"/>
    <rect x="20" y="20" width="8" height="30" rx="2" fill="#333" stroke="#222" stroke-width="1"/>
  </g>

  <!-- Chair 2 far -->
  <g transform="translate(720, 510)">
    <ellipse cx="0" cy="70" rx="24" ry="6" fill="#888" stroke="#666" stroke-width="1"/>
    <rect x="-24" y="30" width="48" height="40" rx="4" fill="url(#chairLeather)" stroke="#333" stroke-width="2"/>
    <rect x="-22" y="-30" width="44" height="64" rx="6" fill="url(#chairLeather)" stroke="#333" stroke-width="2"/>
    <rect x="-16" y="-22" width="32" height="48" rx="3" fill="#2a2a2a" stroke="#3a3a3a" stroke-width="1"/>
    <rect x="-28" y="20" width="8" height="30" rx="2" fill="#333" stroke="#222" stroke-width="1"/>
    <rect x="20" y="20" width="8" height="30" rx="2" fill="#333" stroke="#222" stroke-width="1"/>
  </g>

  <!-- Chair 3 far -->
  <g transform="translate(960, 510)">
    <ellipse cx="0" cy="70" rx="24" ry="6" fill="#888" stroke="#666" stroke-width="1"/>
    <rect x="-24" y="30" width="48" height="40" rx="4" fill="url(#chairLeather)" stroke="#333" stroke-width="2"/>
    <rect x="-22" y="-30" width="44" height="64" rx="6" fill="url(#chairLeather)" stroke="#333" stroke-width="2"/>
    <rect x="-16" y="-22" width="32" height="48" rx="3" fill="#2a2a2a" stroke="#3a3a3a" stroke-width="1"/>
    <rect x="-28" y="20" width="8" height="30" rx="2" fill="#333" stroke="#222" stroke-width="1"/>
    <rect x="20" y="20" width="8" height="30" rx="2" fill="#333" stroke="#222" stroke-width="1"/>
  </g>

  <!-- Chair 4 far -->
  <g transform="translate(1200, 510)">
    <ellipse cx="0" cy="70" rx="24" ry="6" fill="#888" stroke="#666" stroke-width="1"/>
    <rect x="-24" y="30" width="48" height="40" rx="4" fill="url(#chairLeather)" stroke="#333" stroke-width="2"/>
    <rect x="-22" y="-30" width="44" height="64" rx="6" fill="url(#chairLeather)" stroke="#333" stroke-width="2"/>
    <rect x="-16" y="-22" width="32" height="48" rx="3" fill="#2a2a2a" stroke="#3a3a3a" stroke-width="1"/>
    <rect x="-28" y="20" width="8" height="30" rx="2" fill="#333" stroke="#222" stroke-width="1"/>
    <rect x="20" y="20" width="8" height="30" rx="2" fill="#333" stroke="#222" stroke-width="1"/>
  </g>

  <!-- Chair 5 far (head of table right) -->
  <g transform="translate(1420, 510)">
    <ellipse cx="0" cy="70" rx="24" ry="6" fill="#888" stroke="#666" stroke-width="1"/>
    <rect x="-24" y="30" width="48" height="40" rx="4" fill="url(#chairLeather)" stroke="#333" stroke-width="2"/>
    <rect x="-22" y="-30" width="44" height="64" rx="6" fill="url(#chairLeather)" stroke="#333" stroke-width="2"/>
    <rect x="-16" y="-22" width="32" height="48" rx="3" fill="#2a2a2a" stroke="#3a3a3a" stroke-width="1"/>
    <rect x="-28" y="20" width="8" height="30" rx="2" fill="#333" stroke="#222" stroke-width="1"/>
    <rect x="20" y="20" width="8" height="30" rx="2" fill="#333" stroke="#222" stroke-width="1"/>
  </g>

  <!-- ========== CONFERENCE TABLE ========== -->
  <g id="confTable">
    <!-- Table top (large, dark, polished) -->
    <rect x="360" y="590" width="1200" height="50" rx="6" fill="url(#tableGrad)" class="sp-stroke"/>
    <!-- Table surface highlight -->
    <rect x="370" y="595" width="1180" height="14" fill="#fff" opacity="0.06" rx="3"/>
    <!-- Chrome edge trim -->
    <rect x="360" y="638" width="1200" height="4" fill="#888" opacity="0.5"/>

    <!-- Table legs (modern chrome tube) -->
    <rect x="400" y="642" width="16" height="240" rx="2" fill="#999" stroke="#777" stroke-width="1"/>
    <rect x="400" y="642" width="16" height="240" fill="#aaa" opacity="0.3"/>
    <rect x="1504" y="642" width="16" height="240" rx="2" fill="#999" stroke="#777" stroke-width="1"/>
    <rect x="1504" y="642" width="16" height="240" fill="#aaa" opacity="0.3"/>
    <!-- Cross bar -->
    <rect x="410" y="760" width="1100" height="6" rx="2" fill="#888" stroke="#666" stroke-width="1"/>

    <!-- Table feet -->
    <rect x="380" y="878" width="56" height="6" rx="2" fill="#777" stroke="#555" stroke-width="1"/>
    <rect x="1484" y="878" width="56" height="6" rx="2" fill="#777" stroke="#555" stroke-width="1"/>
  </g>

  <!-- ========== ITEMS ON TABLE ========== -->
  <!-- Water glasses -->
  <g transform="translate(520, 600)">
    <ellipse cx="0" cy="4" rx="10" ry="5" fill="#c8e0f0" opacity="0.5" stroke="#aaa" stroke-width="1"/>
    <rect x="-8" y="-14" width="16" height="18" rx="2" fill="#d0e8f8" opacity="0.3" stroke="#aaa" stroke-width="1"/>
  </g>
  <g transform="translate(740, 600)">
    <ellipse cx="0" cy="4" rx="10" ry="5" fill="#c8e0f0" opacity="0.5" stroke="#aaa" stroke-width="1"/>
    <rect x="-8" y="-14" width="16" height="18" rx="2" fill="#d0e8f8" opacity="0.3" stroke="#aaa" stroke-width="1"/>
  </g>
  <g transform="translate(960, 600)">
    <ellipse cx="0" cy="4" rx="10" ry="5" fill="#c8e0f0" opacity="0.5" stroke="#aaa" stroke-width="1"/>
    <rect x="-8" y="-14" width="16" height="18" rx="2" fill="#d0e8f8" opacity="0.3" stroke="#aaa" stroke-width="1"/>
  </g>
  <g transform="translate(1180, 600)">
    <ellipse cx="0" cy="4" rx="10" ry="5" fill="#c8e0f0" opacity="0.5" stroke="#aaa" stroke-width="1"/>
    <rect x="-8" y="-14" width="16" height="18" rx="2" fill="#d0e8f8" opacity="0.3" stroke="#aaa" stroke-width="1"/>
  </g>
  <g transform="translate(1400, 600)">
    <ellipse cx="0" cy="4" rx="10" ry="5" fill="#c8e0f0" opacity="0.5" stroke="#aaa" stroke-width="1"/>
    <rect x="-8" y="-14" width="16" height="18" rx="2" fill="#d0e8f8" opacity="0.3" stroke="#aaa" stroke-width="1"/>
  </g>

  <!-- Coffee cups (espresso, formal china) -->
  <g transform="translate(580, 605)">
    <ellipse cx="0" cy="5" rx="12" ry="5" fill="#e0e0e0" stroke="#999" stroke-width="1"/>
    <ellipse cx="0" cy="0" rx="14" ry="7" fill="#f0f0f0" stroke="#999" stroke-width="1.5"/>
    <ellipse cx="0" cy="-3" rx="10" ry="5" fill="url(#coffeeGrad)"/>
    <path d="M 14 0 Q 20 0 20 4 Q 20 7 14 7" fill="none" stroke="#999" stroke-width="1.5"/>
  </g>
  <g transform="translate(800, 605)">
    <ellipse cx="0" cy="5" rx="12" ry="5" fill="#e0e0e0" stroke="#999" stroke-width="1"/>
    <ellipse cx="0" cy="0" rx="14" ry="7" fill="#f0f0f0" stroke="#999" stroke-width="1.5"/>
    <ellipse cx="0" cy="-3" rx="10" ry="5" fill="url(#coffeeGrad)"/>
    <path d="M 14 0 Q 20 0 20 4 Q 20 7 14 7" fill="none" stroke="#999" stroke-width="1.5"/>
  </g>
  <g transform="translate(1100, 605)">
    <ellipse cx="0" cy="5" rx="12" ry="5" fill="#e0e0e0" stroke="#999" stroke-width="1"/>
    <ellipse cx="0" cy="0" rx="14" ry="7" fill="#f0f0f0" stroke="#999" stroke-width="1.5"/>
    <ellipse cx="0" cy="-3" rx="10" ry="5" fill="url(#coffeeGrad)"/>
    <path d="M 14 0 Q 20 0 20 4 Q 20 7 14 7" fill="none" stroke="#999" stroke-width="1.5"/>
  </g>
  <g transform="translate(1340, 605)">
    <ellipse cx="0" cy="5" rx="12" ry="5" fill="#e0e0e0" stroke="#999" stroke-width="1"/>
    <ellipse cx="0" cy="0" rx="14" ry="7" fill="#f0f0f0" stroke="#999" stroke-width="1.5"/>
    <ellipse cx="0" cy="-3" rx="10" ry="5" fill="url(#coffeeGrad)"/>
    <path d="M 14 0 Q 20 0 20 4 Q 20 7 14 7" fill="none" stroke="#999" stroke-width="1.5"/>
  </g>

  <!-- AIVD Business card (prominent, center table) -->
  <g transform="translate(960, 618)">
    <rect x="-44" y="-16" width="88" height="54" rx="3" fill="#fff" stroke="#666" stroke-width="1.5"/>
    <!-- Blue AIVD banner -->
    <rect x="-40" y="-12" width="80" height="18" fill="#003DA5"/>
    <text x="0" y="2" font-family="Arial, sans-serif" font-size="12" fill="#fff" font-weight="bold" text-anchor="middle">AIVD</text>
    <!-- Contact lines -->
    <line x1="-34" y1="14" x2="34" y2="14" stroke="#666" stroke-width="0.8"/>
    <line x1="-34" y1="21" x2="34" y2="21" stroke="#666" stroke-width="0.8"/>
    <line x1="-34" y1="28" x2="18" y2="28" stroke="#666" stroke-width="0.8"/>
    <!-- Lion watermark -->
    <circle cx="24" cy="22" r="8" fill="#003DA5" opacity="0.06"/>
  </g>

  <!-- Classified folder -->
  <g transform="translate(680, 614)">
    <rect x="-34" y="-10" width="68" height="46" rx="2" fill="#c8c4b8" stroke="#999" stroke-width="1.5"/>
    <rect x="-30" y="-6" width="60" height="4" fill="#d8d4c8"/>
    <!-- Red diagonal stripe -->
    <line x1="-30" y1="32" x2="30" y2="-6" stroke="#cc0000" stroke-width="3" opacity="0.5"/>
    <rect x="-24" y="8" width="48" height="14" rx="1" fill="none" stroke="#cc0000" stroke-width="1.5"/>
    <text x="0" y="18" font-family="Arial, sans-serif" font-size="8" fill="#cc0000" font-weight="bold" text-anchor="middle">STAATSGEHEIM</text>
  </g>

  <!-- Laptop (partially open, near one seat) -->
  <g transform="translate(1240, 608)">
    <!-- Base -->
    <rect x="-30" y="0" width="60" height="36" rx="3" fill="#333" stroke="#222" stroke-width="1.5"/>
    <!-- Screen (at angle) -->
    <rect x="-28" y="-28" width="56" height="30" rx="2" fill="#1a2a3a" stroke="#444" stroke-width="1"/>
    <rect x="-24" y="-24" width="48" height="22" fill="#0a1520"/>
    <!-- Screen content hint -->
    <line x1="-18" y1="-18" x2="10" y2="-18" stroke="#4a90e2" stroke-width="1" opacity="0.6"/>
    <line x1="-18" y1="-12" x2="18" y2="-12" stroke="#4a90e2" stroke-width="1" opacity="0.6"/>
    <line x1="-18" y1="-6" x2="4" y2="-6" stroke="#4a90e2" stroke-width="1" opacity="0.6"/>
  </g>

  <!-- ========== NEAR-SIDE CHAIRS ========== -->
  <!-- Chair near-left -->
  <g transform="translate(600, 740)">
    <rect x="-24" y="-50" width="48" height="64" rx="6" fill="url(#chairLeather)" stroke="#333" stroke-width="2"/>
    <rect x="-18" y="-42" width="36" height="48" rx="3" fill="#2a2a2a" stroke="#3a3a3a" stroke-width="1"/>
    <!-- Seat bottom and legs peek -->
    <rect x="-26" y="14" width="52" height="10" rx="3" fill="#1a1a1a" stroke="#333" stroke-width="1"/>
    <!-- Chrome legs -->
    <rect x="-22" y="24" width="6" height="180" rx="1" fill="#999" stroke="#777" stroke-width="1"/>
    <rect x="16" y="24" width="6" height="180" rx="1" fill="#999" stroke="#777" stroke-width="1"/>
  </g>

  <!-- Chair near-center-left -->
  <g transform="translate(840, 740)">
    <rect x="-24" y="-50" width="48" height="64" rx="6" fill="url(#chairLeather)" stroke="#333" stroke-width="2"/>
    <rect x="-18" y="-42" width="36" height="48" rx="3" fill="#2a2a2a" stroke="#3a3a3a" stroke-width="1"/>
    <rect x="-26" y="14" width="52" height="10" rx="3" fill="#1a1a1a" stroke="#333" stroke-width="1"/>
    <rect x="-22" y="24" width="6" height="180" rx="1" fill="#999" stroke="#777" stroke-width="1"/>
    <rect x="16" y="24" width="6" height="180" rx="1" fill="#999" stroke="#777" stroke-width="1"/>
  </g>

  <!-- Chair near-center-right -->
  <g transform="translate(1080, 740)">
    <rect x="-24" y="-50" width="48" height="64" rx="6" fill="url(#chairLeather)" stroke="#333" stroke-width="2"/>
    <rect x="-18" y="-42" width="36" height="48" rx="3" fill="#2a2a2a" stroke="#3a3a3a" stroke-width="1"/>
    <rect x="-26" y="14" width="52" height="10" rx="3" fill="#1a1a1a" stroke="#333" stroke-width="1"/>
    <rect x="-22" y="24" width="6" height="180" rx="1" fill="#999" stroke="#777" stroke-width="1"/>
    <rect x="16" y="24" width="6" height="180" rx="1" fill="#999" stroke="#777" stroke-width="1"/>
  </g>

  <!-- Chair near-right -->
  <g transform="translate(1320, 740)">
    <rect x="-24" y="-50" width="48" height="64" rx="6" fill="url(#chairLeather)" stroke="#333" stroke-width="2"/>
    <rect x="-18" y="-42" width="36" height="48" rx="3" fill="#2a2a2a" stroke="#3a3a3a" stroke-width="1"/>
    <rect x="-26" y="14" width="52" height="10" rx="3" fill="#1a1a1a" stroke="#333" stroke-width="1"/>
    <rect x="-22" y="24" width="6" height="180" rx="1" fill="#999" stroke="#777" stroke-width="1"/>
    <rect x="16" y="24" width="6" height="180" rx="1" fill="#999" stroke="#777" stroke-width="1"/>
  </g>

  <!-- ========== SECURITY CAMERA (top right corner) ========== -->
  <g transform="translate(1850, 50)">
    <circle cx="0" cy="0" r="12" fill="#333" stroke="#222" stroke-width="2"/>
    <circle cx="0" cy="0" r="6" fill="#1a1a1a" stroke="#444" stroke-width="1"/>
    <circle cx="2" cy="-2" r="2" fill="#ff0000" opacity="0.6"/>
    <!-- Mount -->
    <rect x="-3" y="12" width="6" height="14" fill="#444" stroke="#333" stroke-width="1"/>
  </g>

  <!-- ========== DOOR (left wall) ========== -->
  <g id="door" transform="translate(440, 300)">
    <!-- Door frame -->
    <rect x="-50" y="-180" width="100" height="360" fill="#8090a0" stroke="#6a7a8a" stroke-width="3"/>
    <!-- Door panel -->
    <rect x="-44" y="-174" width="88" height="348" fill="#a0aab4" stroke="#8090a0" stroke-width="2"/>
    <!-- Upper panel inset -->
    <rect x="-36" y="-164" width="72" height="120" rx="2" fill="#b0bac4" stroke="#8a94a0" stroke-width="1"/>
    <!-- Lower panel inset -->
    <rect x="-36" y="-24" width="72" height="140" rx="2" fill="#b0bac4" stroke="#8a94a0" stroke-width="1"/>
    <!-- Door handle (modern lever) -->
    <rect x="26" y="10" width="12" height="6" rx="2" fill="#c0c0c0" stroke="#888" stroke-width="1.5"/>
    <rect x="32" y="4" width="6" height="18" rx="2" fill="#c0c0c0" stroke="#888" stroke-width="1.5"/>
    <!-- Card reader -->
    <rect x="54" y="-10" width="14" height="28" rx="2" fill="#333" stroke="#222" stroke-width="1"/>
    <rect x="57" y="-4" width="8" height="4" fill="#4CAF50" opacity="0.7"/>
    <circle cx="61" cy="8" r="2" fill="#ff0000" opacity="0.5"/>
  </g>

  <!-- ========== WATER DISPENSER (near door) ========== -->
  <g transform="translate(530, 520)">
    <!-- Body -->
    <rect x="-18" y="-60" width="36" height="120" rx="3" fill="#e0e4e8" stroke="#c0c4c8" stroke-width="2"/>
    <!-- Water bottle on top -->
    <rect x="-10" y="-90" width="20" height="32" rx="8" fill="#c8e8f8" stroke="#a0c0d0" stroke-width="1.5" opacity="0.6"/>
    <ellipse cx="0" cy="-90" rx="10" ry="4" fill="#a0d0e8" opacity="0.4"/>
    <!-- Dispensing area -->
    <rect x="-14" y="-10" width="28" height="20" fill="#333" stroke="#222" stroke-width="1"/>
    <!-- Buttons -->
    <circle cx="-4" cy="20" r="4" fill="#4a90e2" stroke="#3a7ad0" stroke-width="1"/>
    <circle cx="8" cy="20" r="4" fill="#ff6666" stroke="#cc4444" stroke-width="1"/>
    <!-- Drip tray -->
    <rect x="-16" y="46" width="32" height="6" fill="#999" stroke="#777" stroke-width="1"/>
  </g>

  <!-- ========== VISITOR BADGE ON TABLE (Ryan's) ========== -->
  <g transform="translate(840, 622)">
    <!-- Lanyard -->
    <path d="M 0 -20 Q -15 -30 -10 -40" fill="none" stroke="#003DA5" stroke-width="2"/>
    <!-- Badge -->
    <rect x="-16" y="-18" width="32" height="40" rx="2" fill="#fff" stroke="#888" stroke-width="1.5"/>
    <rect x="-12" y="-14" width="24" height="10" fill="#003DA5"/>
    <text x="0" y="-7" font-family="Arial" font-size="5" fill="#fff" text-anchor="middle">BEZOEKER</text>
    <!-- Photo area -->
    <rect x="-8" y="0" width="16" height="14" fill="#ddd" stroke="#bbb" stroke-width="0.5"/>
    <circle cx="0" cy="5" r="4" fill="#aaa"/>
  </g>

  <!-- ========== BASEBOARD / WALL BASE ========== -->
  <rect x="0" y="652" width="1920" height="10" fill="#8090a0" stroke="#6a7a8a" stroke-width="1"/>

  <!-- ========== SUBTLE FLOOR REFLECTIONS ========== -->
  <!-- Table reflection -->
  <rect x="380" y="884" width="1160" height="30" fill="#1a1a1a" opacity="0.05"/>
  <!-- Chair reflections -->
  <ellipse cx="600" cy="930" rx="20" ry="4" fill="#000" opacity="0.04"/>
  <ellipse cx="840" cy="930" rx="20" ry="4" fill="#000" opacity="0.04"/>
  <ellipse cx="1080" cy="930" rx="20" ry="4" fill="#000" opacity="0.04"/>
  <ellipse cx="1320" cy="930" rx="20" ry="4" fill="#000" opacity="0.04"/>
</svg>
