<?xml version="1.0" encoding="UTF-8"?>
<svg xmlns="http://www.w3.org/2000/svg" viewBox="0 0 1920 1080">
  <defs>
    <!-- Gradients -->
    <linearGradient id="skyGrad" x1="0%" y1="0%" x2="0%" y2="100%">
      <stop offset="0%" style="stop-color:#0a0a1a"/>
      <stop offset="50%" style="stop-color:#1a1a2e"/>
      <stop offset="100%" style="stop-color:#0f0f1a"/>
    </linearGradient>
    <linearGradient id="roadGrad" x1="0%" y1="0%" x2="0%" y2="100%">
      <stop offset="0%" style="stop-color:#2a2a2a"/>
      <stop offset="100%" style="stop-color:#0a0a0a"/>
    </linearGradient>
    <linearGradient id="carBody" x1="0%" y1="0%" x2="0%" y2="100%">
      <stop offset="0%" style="stop-color:#3a3a45"/>
      <stop offset="100%" style="stop-color:#1a1a25"/>
    </linearGradient>
    <radialGradient id="headlightBeam">
      <stop offset="0%" style="stop-color:#ffff88;stop-opacity:0.6"/>
      <stop offset="50%" style="stop-color:#ffff44;stop-opacity:0.3"/>
      <stop offset="100%" style="stop-color:#ffff00;stop-opacity:0"/>
    </radialGradient>

    <!-- Filters -->
    <filter id="glow" x="-50%" y="-50%" width="200%" height="200%">
      <feGaussianBlur stdDeviation="3" result="coloredBlur"/>
      <feMerge>
        <feMergeNode in="coloredBlur"/>
        <feMergeNode in="SourceGraphic"/>
      </feMerge>
    </filter>
    <filter id="blur">
      <feGaussianBlur stdDeviation="1"/>
    </filter>

    <!-- Clip to viewport -->
    <clipPath id="viewClip">
      <rect x="0" y="0" width="1920" height="1080"/>
    </clipPath>
  </defs>

  <!-- Night sky (static) -->
  <rect width="1920" height="600" fill="url(#skyGrad)"/>

  <!-- Moon (static, slight pulse) -->
  <circle cx="1700" cy="120" r="50" fill="#e0e0d0" opacity="0.9">
    <animate attributeName="opacity" values="0.9;0.85;0.9" dur="4s" repeatCount="indefinite"/>
  </circle>

  <!-- Stars (static, twinkling) -->
  <circle cx="200" cy="80" r="2" fill="#fff" opacity="0.7">
    <animate attributeName="opacity" values="0.7;0.3;0.7" dur="3s" repeatCount="indefinite"/>
  </circle>
  <circle cx="450" cy="120" r="1.5" fill="#fff" opacity="0.6">
    <animate attributeName="opacity" values="0.6;0.2;0.6" dur="2.5s" repeatCount="indefinite"/>
  </circle>
  <circle cx="820" cy="90" r="2" fill="#fff" opacity="0.8">
    <animate attributeName="opacity" values="0.8;0.4;0.8" dur="3.5s" repeatCount="indefinite"/>
  </circle>
  <circle cx="1100" cy="150" r="1.5" fill="#fff" opacity="0.5">
    <animate attributeName="opacity" values="0.5;0.2;0.5" dur="2s" repeatCount="indefinite"/>
  </circle>
  <circle cx="1450" cy="100" r="2" fill="#fff" opacity="0.7">
    <animate attributeName="opacity" values="0.7;0.3;0.7" dur="3.2s" repeatCount="indefinite"/>
  </circle>
  <circle cx="680" cy="60" r="1" fill="#fff" opacity="0.5">
    <animate attributeName="opacity" values="0.5;0.1;0.5" dur="2.8s" repeatCount="indefinite"/>
  </circle>
  <circle cx="1300" cy="40" r="1.5" fill="#fff" opacity="0.6">
    <animate attributeName="opacity" values="0.6;0.2;0.6" dur="3.4s" repeatCount="indefinite"/>
  </circle>

  <!-- ================================================================ -->
  <!-- ALL SCROLLING LAYERS: continuous right-to-left (2 keyframes only) -->
  <!-- Tile content is duplicated so the loop is seamless.              -->
  <!-- ================================================================ -->

  <!-- ============ LAYER 1: FAR BACKGROUND - windmills (tile=2400, dur=80s) ============ -->
  <g clip-path="url(#viewClip)" opacity="0.45">
    <g>
      <animateTransform attributeName="transform" type="translate"
        values="0,0; -2400,0" dur="80s" repeatCount="indefinite" calcMode="linear"/>

      <!-- Tile A -->
      <!-- Windmill 1 -->
      <path d="M 300,360 L 280,460 L 320,460 Z" fill="#0a0a14"/>
      <g transform="translate(300,360)">
        <animateTransform attributeName="transform" type="rotate"
          values="0 0 0; 360 0 0" dur="8s" repeatCount="indefinite"/>
        <line x1="0" y1="-65" x2="0" y2="0" stroke="#0a0a14" stroke-width="3"/>
        <line x1="0" y1="0" x2="55" y2="15" stroke="#0a0a14" stroke-width="3"/>
        <line x1="0" y1="0" x2="-55" y2="15" stroke="#0a0a14" stroke-width="3"/>
        <line x1="0" y1="0" x2="0" y2="55" stroke="#0a0a14" stroke-width="3"/>
      </g>

      <!-- Distant church spire -->
      <rect x="900" y="390" width="12" height="70" fill="#0a0a14"/>
      <path d="M 895,390 L 906,355 L 917,390" fill="#0a0a14"/>

      <!-- Windmill 2 -->
      <path d="M 1700,370 L 1680,460 L 1720,460 Z" fill="#0a0a14"/>
      <g transform="translate(1700,370)">
        <animateTransform attributeName="transform" type="rotate"
          values="0 0 0; 360 0 0" dur="10s" repeatCount="indefinite"/>
        <line x1="0" y1="-55" x2="0" y2="0" stroke="#0a0a14" stroke-width="3"/>
        <line x1="0" y1="0" x2="48" y2="12" stroke="#0a0a14" stroke-width="3"/>
        <line x1="0" y1="0" x2="-48" y2="12" stroke="#0a0a14" stroke-width="3"/>
        <line x1="0" y1="0" x2="0" y2="48" stroke="#0a0a14" stroke-width="3"/>
      </g>

      <!-- Tile B (duplicate at +2400) -->
      <path d="M 2700,360 L 2680,460 L 2720,460 Z" fill="#0a0a14"/>
      <g transform="translate(2700,360)">
        <animateTransform attributeName="transform" type="rotate"
          values="0 0 0; 360 0 0" dur="8s" repeatCount="indefinite"/>
        <line x1="0" y1="-65" x2="0" y2="0" stroke="#0a0a14" stroke-width="3"/>
        <line x1="0" y1="0" x2="55" y2="15" stroke="#0a0a14" stroke-width="3"/>
        <line x1="0" y1="0" x2="-55" y2="15" stroke="#0a0a14" stroke-width="3"/>
        <line x1="0" y1="0" x2="0" y2="55" stroke="#0a0a14" stroke-width="3"/>
      </g>

      <rect x="3300" y="390" width="12" height="70" fill="#0a0a14"/>
      <path d="M 3295,390 L 3306,355 L 3317,390" fill="#0a0a14"/>

      <path d="M 4100,370 L 4080,460 L 4120,460 Z" fill="#0a0a14"/>
      <g transform="translate(4100,370)">
        <animateTransform attributeName="transform" type="rotate"
          values="0 0 0; 360 0 0" dur="10s" repeatCount="indefinite"/>
        <line x1="0" y1="-55" x2="0" y2="0" stroke="#0a0a14" stroke-width="3"/>
        <line x1="0" y1="0" x2="48" y2="12" stroke="#0a0a14" stroke-width="3"/>
        <line x1="0" y1="0" x2="-48" y2="12" stroke="#0a0a14" stroke-width="3"/>
        <line x1="0" y1="0" x2="0" y2="48" stroke="#0a0a14" stroke-width="3"/>
      </g>
    </g>
  </g>

  <!-- ============ LAYER 2: MID BACKGROUND - tree line + farm (tile=1800, dur=45s) ============ -->
  <g clip-path="url(#viewClip)" opacity="0.55">
    <g>
      <animateTransform attributeName="transform" type="translate"
        values="0,0; -1800,0" dur="45s" repeatCount="indefinite" calcMode="linear"/>

      <!-- Tile A -->
      <!-- Trees cluster 1 -->
      <rect x="100" y="390" width="14" height="70" fill="#0f0f1a"/>
      <ellipse cx="107" cy="380" rx="28" ry="36" fill="#0a0a14"/>
      <rect x="180" y="395" width="12" height="65" fill="#0f0f1a"/>
      <ellipse cx="186" cy="385" rx="24" ry="32" fill="#0a0a14"/>

      <!-- Barn with faint window -->
      <rect x="500" y="400" width="80" height="60" fill="#0a0a14"/>
      <path d="M 495,400 L 540,370 L 585,400 Z" fill="#080810"/>
      <rect x="530" y="420" width="18" height="22" fill="#332200" opacity="0.3"/>

      <!-- Trees cluster 2 -->
      <rect x="850" y="385" width="16" height="75" fill="#0f0f1a"/>
      <ellipse cx="858" cy="372" rx="30" ry="38" fill="#0a0a14"/>

      <!-- Farmhouse -->
      <rect x="1200" y="395" width="60" height="55" fill="#0f0f1a"/>
      <path d="M 1195,395 L 1230,368 L 1265,395 Z" fill="#0a0a14"/>
      <rect x="1215" y="415" width="12" height="16" fill="#ffaa44" opacity="0.35">
        <animate attributeName="opacity" values="0.35;0.2;0.35" dur="3s" repeatCount="indefinite"/>
      </rect>
      <rect x="1240" y="415" width="12" height="16" fill="#ffaa44" opacity="0.25">
        <animate attributeName="opacity" values="0.25;0.15;0.25" dur="2.6s" repeatCount="indefinite"/>
      </rect>

      <!-- Trees cluster 3 -->
      <rect x="1550" y="388" width="13" height="72" fill="#0f0f1a"/>
      <ellipse cx="1556" cy="376" rx="26" ry="34" fill="#0a0a14"/>
      <rect x="1650" y="392" width="15" height="68" fill="#0f0f1a"/>
      <ellipse cx="1657" cy="380" rx="28" ry="36" fill="#0a0a14"/>

      <!-- Tile B (duplicate at +1800) -->
      <rect x="1900" y="390" width="14" height="70" fill="#0f0f1a"/>
      <ellipse cx="1907" cy="380" rx="28" ry="36" fill="#0a0a14"/>
      <rect x="1980" y="395" width="12" height="65" fill="#0f0f1a"/>
      <ellipse cx="1986" cy="385" rx="24" ry="32" fill="#0a0a14"/>

      <rect x="2300" y="400" width="80" height="60" fill="#0a0a14"/>
      <path d="M 2295,400 L 2340,370 L 2385,400 Z" fill="#080810"/>
      <rect x="2330" y="420" width="18" height="22" fill="#332200" opacity="0.3"/>

      <rect x="2650" y="385" width="16" height="75" fill="#0f0f1a"/>
      <ellipse cx="2658" cy="372" rx="30" ry="38" fill="#0a0a14"/>

      <rect x="3000" y="395" width="60" height="55" fill="#0f0f1a"/>
      <path d="M 2995,395 L 3030,368 L 3065,395 Z" fill="#0a0a14"/>
      <rect x="3015" y="415" width="12" height="16" fill="#ffaa44" opacity="0.35">
        <animate attributeName="opacity" values="0.35;0.2;0.35" dur="3s" repeatCount="indefinite"/>
      </rect>
      <rect x="3040" y="415" width="12" height="16" fill="#ffaa44" opacity="0.25">
        <animate attributeName="opacity" values="0.25;0.15;0.25" dur="2.6s" repeatCount="indefinite"/>
      </rect>

      <rect x="3350" y="388" width="13" height="72" fill="#0f0f1a"/>
      <ellipse cx="3356" cy="376" rx="26" ry="34" fill="#0a0a14"/>
      <rect x="3450" y="392" width="15" height="68" fill="#0f0f1a"/>
      <ellipse cx="3457" cy="380" rx="28" ry="36" fill="#0a0a14"/>
    </g>
  </g>

  <!-- ============ LAYER 3: NEAR BACKGROUND - canal, houses, trees (tile=1600, dur=25s) ============ -->
  <g clip-path="url(#viewClip)" opacity="0.75">
    <g>
      <animateTransform attributeName="transform" type="translate"
        values="0,0; -1600,0" dur="25s" repeatCount="indefinite" calcMode="linear"/>

      <!-- Tile A -->
      <!-- Big tree 1 -->
      <rect x="80" y="440" width="20" height="100" fill="#1a1a2a"/>
      <ellipse cx="90" cy="420" rx="42" ry="50" fill="#0f0f1a"/>

      <!-- Canal with bridge -->
      <rect x="300" y="485" width="200" height="35" fill="#0a0a1a" opacity="0.7"/>
      <line x1="300" y1="495" x2="500" y2="495" stroke="#1a1a2e" stroke-width="1" opacity="0.4"/>
      <line x1="300" y1="508" x2="500" y2="508" stroke="#1a1a2e" stroke-width="1" opacity="0.4"/>
      <rect x="480" y="475" width="28" height="45" fill="#1a1a1a"/>
      <rect x="484" y="480" width="20" height="10" fill="#2a2a2a"/>

      <!-- House by canal -->
      <rect x="520" y="430" width="55" height="55" fill="#1a1a2a"/>
      <path d="M 515,430 L 547,405 L 580,430 Z" fill="#0a0a14"/>
      <rect x="530" y="448" width="14" height="18" fill="#ffaa44" opacity="0.55">
        <animate attributeName="opacity" values="0.55;0.35;0.55" dur="2s" repeatCount="indefinite"/>
      </rect>
      <rect x="550" y="448" width="14" height="18" fill="#ffaa44" opacity="0.45">
        <animate attributeName="opacity" values="0.45;0.25;0.45" dur="2.3s" repeatCount="indefinite"/>
      </rect>

      <!-- Big tree 2 -->
      <rect x="800" y="445" width="22" height="95" fill="#1a1a2a"/>
      <ellipse cx="811" cy="425" rx="45" ry="48" fill="#0f0f1a"/>

      <!-- Power line pole -->
      <rect x="1100" y="380" width="8" height="160" fill="#1a1a1a"/>
      <line x1="1060" y1="390" x2="1140" y2="390" stroke="#1a1a1a" stroke-width="2"/>
      <line x1="1070" y1="400" x2="1130" y2="400" stroke="#1a1a1a" stroke-width="2"/>

      <!-- Big tree 3 -->
      <rect x="1350" y="442" width="18" height="98" fill="#1a1a2a"/>
      <ellipse cx="1359" cy="422" rx="40" ry="46" fill="#0f0f1a"/>

      <!-- Tile B (duplicate at +1600) -->
      <rect x="1680" y="440" width="20" height="100" fill="#1a1a2a"/>
      <ellipse cx="1690" cy="420" rx="42" ry="50" fill="#0f0f1a"/>

      <rect x="1900" y="485" width="200" height="35" fill="#0a0a1a" opacity="0.7"/>
      <line x1="1900" y1="495" x2="2100" y2="495" stroke="#1a1a2e" stroke-width="1" opacity="0.4"/>
      <line x1="1900" y1="508" x2="2100" y2="508" stroke="#1a1a2e" stroke-width="1" opacity="0.4"/>
      <rect x="2080" y="475" width="28" height="45" fill="#1a1a1a"/>
      <rect x="2084" y="480" width="20" height="10" fill="#2a2a2a"/>

      <rect x="2120" y="430" width="55" height="55" fill="#1a1a2a"/>
      <path d="M 2115,430 L 2147,405 L 2180,430 Z" fill="#0a0a14"/>
      <rect x="2130" y="448" width="14" height="18" fill="#ffaa44" opacity="0.55">
        <animate attributeName="opacity" values="0.55;0.35;0.55" dur="2s" repeatCount="indefinite"/>
      </rect>
      <rect x="2150" y="448" width="14" height="18" fill="#ffaa44" opacity="0.45">
        <animate attributeName="opacity" values="0.45;0.25;0.45" dur="2.3s" repeatCount="indefinite"/>
      </rect>

      <rect x="2400" y="445" width="22" height="95" fill="#1a1a2a"/>
      <ellipse cx="2411" cy="425" rx="45" ry="48" fill="#0f0f1a"/>

      <rect x="2700" y="380" width="8" height="160" fill="#1a1a1a"/>
      <line x1="2660" y1="390" x2="2740" y2="390" stroke="#1a1a1a" stroke-width="2"/>
      <line x1="2670" y1="400" x2="2730" y2="400" stroke="#1a1a1a" stroke-width="2"/>

      <rect x="2950" y="442" width="18" height="98" fill="#1a1a2a"/>
      <ellipse cx="2959" cy="422" rx="40" ry="46" fill="#0f0f1a"/>
    </g>
  </g>

  <!-- ============ LAYER 4: ROADSIDE - fence posts + signs (tile=800, dur=10s) ============ -->
  <g clip-path="url(#viewClip)" opacity="0.9">
    <g>
      <animateTransform attributeName="transform" type="translate"
        values="0,0; -800,0" dur="10s" repeatCount="indefinite" calcMode="linear"/>

      <!-- Tile A: fence posts every 160px, rail connecting them -->
      <rect x="0" y="660" width="8" height="42" fill="#2a2a2a"/>
      <rect x="160" y="660" width="8" height="42" fill="#2a2a2a"/>
      <rect x="320" y="660" width="8" height="42" fill="#2a2a2a"/>
      <rect x="480" y="660" width="8" height="42" fill="#2a2a2a"/>
      <rect x="640" y="660" width="8" height="42" fill="#2a2a2a"/>
      <!-- Horizontal rails -->
      <rect x="0" y="670" width="800" height="3" fill="#1a1a1a"/>
      <rect x="0" y="688" width="800" height="2" fill="#1a1a1a" opacity="0.6"/>

      <!-- Road sign (in one tile) -->
      <rect x="400" y="620" width="6" height="80" fill="#3a3a3a"/>
      <rect x="385" y="616" width="36" height="24" rx="2" fill="#003DA5" stroke="#fff" stroke-width="1" opacity="0.7"/>

      <!-- Tile B (duplicate at +800) -->
      <rect x="800" y="660" width="8" height="42" fill="#2a2a2a"/>
      <rect x="960" y="660" width="8" height="42" fill="#2a2a2a"/>
      <rect x="1120" y="660" width="8" height="42" fill="#2a2a2a"/>
      <rect x="1280" y="660" width="8" height="42" fill="#2a2a2a"/>
      <rect x="1440" y="660" width="8" height="42" fill="#2a2a2a"/>
      <rect x="800" y="670" width="800" height="3" fill="#1a1a1a"/>
      <rect x="800" y="688" width="800" height="2" fill="#1a1a1a" opacity="0.6"/>

      <rect x="1200" y="620" width="6" height="80" fill="#3a3a3a"/>
      <rect x="1185" y="616" width="36" height="24" rx="2" fill="#003DA5" stroke="#fff" stroke-width="1" opacity="0.7"/>
    </g>
  </g>

  <!-- ============ ROAD (static base) ============ -->
  <rect y="700" width="1920" height="380" fill="url(#roadGrad)"/>

  <!-- Road edge line -->
  <rect x="0" y="700" width="1920" height="3" fill="#444" opacity="0.6"/>

  <!-- Road shoulder gravel -->
  <rect x="0" y="696" width="1920" height="6" fill="#1a1a1a"/>

  <!-- ============ ROAD CENTER DASHES (tile=250, dur=1.5s) ============ -->
  <g clip-path="url(#viewClip)" opacity="0.7">
    <g>
      <animateTransform attributeName="transform" type="translate"
        values="0,0; -250,0" dur="1.5s" repeatCount="indefinite" calcMode="linear"/>

      <!-- Dashes every 250px (100px dash + 150px gap), covering 1920 + 250 = 2170px -->
      <rect x="0"    y="840" width="100" height="5" fill="#ffaa00"/>
      <rect x="250"  y="840" width="100" height="5" fill="#ffaa00"/>
      <rect x="500"  y="840" width="100" height="5" fill="#ffaa00"/>
      <rect x="750"  y="840" width="100" height="5" fill="#ffaa00"/>
      <rect x="1000" y="840" width="100" height="5" fill="#ffaa00"/>
      <rect x="1250" y="840" width="100" height="5" fill="#ffaa00"/>
      <rect x="1500" y="840" width="100" height="5" fill="#ffaa00"/>
      <rect x="1750" y="840" width="100" height="5" fill="#ffaa00"/>
      <rect x="2000" y="840" width="100" height="5" fill="#ffaa00"/>
    </g>
  </g>

  <!-- ============ ROAD EDGE DASHES - right side (tile=250, dur=1.5s) ============ -->
  <g clip-path="url(#viewClip)" opacity="0.4">
    <g>
      <animateTransform attributeName="transform" type="translate"
        values="0,0; -250,0" dur="1.5s" repeatCount="indefinite" calcMode="linear"/>

      <rect x="0"    y="1058" width="60" height="4" fill="#fff"/>
      <rect x="250"  y="1058" width="60" height="4" fill="#fff"/>
      <rect x="500"  y="1058" width="60" height="4" fill="#fff"/>
      <rect x="750"  y="1058" width="60" height="4" fill="#fff"/>
      <rect x="1000" y="1058" width="60" height="4" fill="#fff"/>
      <rect x="1250" y="1058" width="60" height="4" fill="#fff"/>
      <rect x="1500" y="1058" width="60" height="4" fill="#fff"/>
      <rect x="1750" y="1058" width="60" height="4" fill="#fff"/>
      <rect x="2000" y="1058" width="60" height="4" fill="#fff"/>
    </g>
  </g>

  <!-- ============ ROAD SURFACE TEXTURE (tile=600, dur=2.5s) ============ -->
  <g clip-path="url(#viewClip)" opacity="0.08">
    <g>
      <animateTransform attributeName="transform" type="translate"
        values="0,0; -600,0" dur="2.5s" repeatCount="indefinite" calcMode="linear"/>

      <!-- Subtle road texture / tar patches -->
      <rect x="50"  y="750" width="40" height="15" fill="#1a1a1a"/>
      <rect x="200" y="900" width="60" height="12" fill="#1a1a1a"/>
      <rect x="380" y="800" width="30" height="18" fill="#1a1a1a"/>
      <rect x="520" y="970" width="50" height="14" fill="#1a1a1a"/>

      <!-- Tile B -->
      <rect x="650"  y="750" width="40" height="15" fill="#1a1a1a"/>
      <rect x="800"  y="900" width="60" height="12" fill="#1a1a1a"/>
      <rect x="980"  y="800" width="30" height="18" fill="#1a1a1a"/>
      <rect x="1120" y="970" width="50" height="14" fill="#1a1a1a"/>
    </g>
  </g>

  <!-- ============ VOLVO CAR (static position, subtle suspension bob) ============ -->
  <g transform="translate(700, 740)">
    <animateTransform attributeName="transform" type="translate"
      values="700,740; 700,742; 700,740; 700,739; 700,740" dur="0.8s" repeatCount="indefinite" calcMode="linear"/>

    <!-- Headlight beams -->
    <ellipse cx="380" cy="50" rx="500" ry="200" fill="url(#headlightBeam)" opacity="0.4"/>

    <!-- Car body shadow -->
    <ellipse cx="200" cy="180" rx="180" ry="15" fill="#000" opacity="0.3"/>

    <!-- Wheels -->
    <g>
      <!-- Rear wheel -->
      <circle cx="80" cy="160" r="35" fill="#1a1a1a" stroke="#333" stroke-width="4"/>
      <circle cx="80" cy="160" r="20" fill="#2a2a2a"/>
      <circle cx="80" cy="160" r="8" fill="#444"/>
      <!-- Wheel spin -->
      <g transform="translate(80,160)">
        <animateTransform attributeName="transform" type="rotate"
          values="0 0 0; 360 0 0" dur="0.5s" repeatCount="indefinite"/>
        <line x1="0" y1="-16" x2="0" y2="16" stroke="#3a3a3a" stroke-width="2"/>
        <line x1="-16" y1="0" x2="16" y2="0" stroke="#3a3a3a" stroke-width="2"/>
        <line x1="-11" y1="-11" x2="11" y2="11" stroke="#3a3a3a" stroke-width="2"/>
        <line x1="11" y1="-11" x2="-11" y2="11" stroke="#3a3a3a" stroke-width="2"/>
      </g>

      <!-- Front wheel -->
      <circle cx="320" cy="160" r="35" fill="#1a1a1a" stroke="#333" stroke-width="4"/>
      <circle cx="320" cy="160" r="20" fill="#2a2a2a"/>
      <circle cx="320" cy="160" r="8" fill="#444"/>
      <!-- Wheel spin -->
      <g transform="translate(320,160)">
        <animateTransform attributeName="transform" type="rotate"
          values="0 0 0; 360 0 0" dur="0.5s" repeatCount="indefinite"/>
        <line x1="0" y1="-16" x2="0" y2="16" stroke="#3a3a3a" stroke-width="2"/>
        <line x1="-16" y1="0" x2="16" y2="0" stroke="#3a3a3a" stroke-width="2"/>
        <line x1="-11" y1="-11" x2="11" y2="11" stroke="#3a3a3a" stroke-width="2"/>
        <line x1="11" y1="-11" x2="-11" y2="11" stroke="#3a3a3a" stroke-width="2"/>
      </g>
    </g>

    <!-- Car body (classic Volvo 240/740 boxy shape) -->
    <g>
      <!-- Lower body -->
      <path d="M 30,160 L 30,120 L 60,100 L 340,100 L 370,120 L 370,160 Z" fill="url(#carBody)" stroke="#0a0a0a" stroke-width="2"/>

      <!-- Upper body/cabin -->
      <path d="M 70,100 L 90,60 L 150,50 L 250,50 L 310,60 L 330,100 Z" fill="url(#carBody)" stroke="#0a0a0a" stroke-width="2"/>

      <!-- Roof -->
      <rect x="90" y="48" width="220" height="4" fill="#2a2a35"/>

      <!-- Windows (dark, reflective) -->
      <path d="M 95,60 L 155,52 L 155,95 L 95,95 Z" fill="#0a0a1a" opacity="0.9"/>
      <path d="M 160,52 L 200,52 L 200,95 L 160,95 Z" fill="#0a0a1a" opacity="0.95"/>
      <path d="M 205,52 L 245,52 L 245,95 L 205,95 Z" fill="#0a0a1a" opacity="0.95"/>
      <path d="M 250,52 L 305,60 L 305,95 L 250,95 Z" fill="#0a0a1a" opacity="0.9"/>

      <!-- Window trim -->
      <path d="M 90,60 L 150,50 L 250,50 L 310,60" fill="none" stroke="#1a1a1a" stroke-width="3"/>
      <path d="M 90,95 L 310,95" fill="none" stroke="#1a1a1a" stroke-width="2"/>

      <!-- Door lines -->
      <line x1="170" y1="100" x2="170" y2="155" stroke="#1a1a1a" stroke-width="2"/>
      <line x1="230" y1="100" x2="230" y2="155" stroke="#1a1a1a" stroke-width="2"/>

      <!-- Door handles -->
      <rect x="165" y="125" width="12" height="4" fill="#1a1a1a"/>
      <rect x="225" y="125" width="12" height="4" fill="#1a1a1a"/>

      <!-- Side mirror -->
      <rect x="65" y="75" width="8" height="15" fill="#2a2a35"/>
      <rect x="60" y="78" width="5" height="9" fill="#0a0a1a" opacity="0.7"/>

      <!-- Front bumper -->
      <rect x="340" y="115" width="35" height="30" fill="#2a2a35"/>
      <rect x="370" y="120" width="8" height="20" fill="#1a1a1a"/>

      <!-- Rear bumper -->
      <rect x="25" y="115" width="12" height="30" fill="#2a2a35"/>

      <!-- Headlights -->
      <rect x="362" y="108" width="18" height="24" fill="#ffff99" opacity="0.9" filter="url(#glow)">
        <animate attributeName="opacity" values="0.9;0.85;0.9" dur="0.5s" repeatCount="indefinite"/>
      </rect>

      <!-- Taillights -->
      <rect x="28" y="125" width="10" height="15" fill="#ff3333" opacity="0.6">
        <animate attributeName="opacity" values="0.6;0.4;0.6" dur="1s" repeatCount="indefinite"/>
      </rect>

      <!-- Body highlights -->
      <path d="M 60,102 L 340,102" stroke="#4a4a55" stroke-width="1" opacity="0.3"/>
      <path d="M 70,108 L 330,108" stroke="#3a3a45" stroke-width="1" opacity="0.5"/>
    </g>
  </g>

  <!-- Road bottom edge subtle green -->
  <rect x="0" y="1065" width="1920" height="15" fill="#0a1a0a" opacity="0.3"/>
</svg>
