<svg xmlns="http://www.w3.org/2000/svg" viewBox="0 0 1920 1080">
  <defs>
    <!-- Server room dark ambient -->
    <linearGradient id="roomBg" x1="0" y1="0" x2="0" y2="1">
      <stop offset="0%" stop-color="#0e1014"/>
      <stop offset="100%" stop-color="#141820"/>
    </linearGradient>
    <linearGradient id="rackGrad" x1="0" y1="0" x2="0" y2="1">
      <stop offset="0%" stop-color="#282c30"/>
      <stop offset="100%" stop-color="#1a1c20"/>
    </linearGradient>
    <linearGradient id="rackSide" x1="0" y1="0" x2="1" y2="0">
      <stop offset="0%" stop-color="#1e2024"/>
      <stop offset="100%" stop-color="#282c30"/>
    </linearGradient>
    <linearGradient id="floorGrad" x1="0" y1="0" x2="0" y2="1">
      <stop offset="0%" stop-color="#252830"/>
      <stop offset="100%" stop-color="#1a1c22"/>
    </linearGradient>
    <linearGradient id="ceilingGrad" x1="0" y1="0" x2="0" y2="1">
      <stop offset="0%" stop-color="#0c0e12"/>
      <stop offset="100%" stop-color="#12151a"/>
    </linearGradient>
    <linearGradient id="terminalScreen" x1="0" y1="0" x2="0" y2="1">
      <stop offset="0%" stop-color="#001a00"/>
      <stop offset="60%" stop-color="#002200"/>
      <stop offset="100%" stop-color="#001800"/>
    </linearGradient>
    <linearGradient id="deskGrad" x1="0" y1="0" x2="0" y2="1">
      <stop offset="0%" stop-color="#3a3e42"/>
      <stop offset="100%" stop-color="#2a2e32"/>
    </linearGradient>
    <linearGradient id="doorGrad" x1="0" y1="0" x2="0" y2="1">
      <stop offset="0%" stop-color="#3a3c40"/>
      <stop offset="100%" stop-color="#2a2c30"/>
    </linearGradient>
    <linearGradient id="coolerGrad" x1="0" y1="0" x2="0" y2="1">
      <stop offset="0%" stop-color="#383c42"/>
      <stop offset="100%" stop-color="#2a2e34"/>
    </linearGradient>

    <!-- LED glow radials -->
    <radialGradient id="blueGlow" cx="50%" cy="50%" r="50%">
      <stop offset="0%" stop-color="rgba(0,170,255,0.8)"/>
      <stop offset="50%" stop-color="rgba(0,170,255,0.15)"/>
      <stop offset="100%" stop-color="rgba(0,170,255,0)"/>
    </radialGradient>
    <radialGradient id="greenGlow" cx="50%" cy="50%" r="50%">
      <stop offset="0%" stop-color="rgba(0,255,0,0.8)"/>
      <stop offset="50%" stop-color="rgba(0,255,0,0.15)"/>
      <stop offset="100%" stop-color="rgba(0,255,0,0)"/>
    </radialGradient>
    <radialGradient id="redEmergency" cx="50%" cy="50%" r="50%">
      <stop offset="0%" stop-color="rgba(255,60,40,0.6)"/>
      <stop offset="50%" stop-color="rgba(255,40,30,0.12)"/>
      <stop offset="100%" stop-color="rgba(255,30,20,0)"/>
    </radialGradient>
    <radialGradient id="terminalGlow" cx="50%" cy="30%" r="80%">
      <stop offset="0%" stop-color="rgba(0,255,0,0.2)"/>
      <stop offset="100%" stop-color="rgba(0,255,0,0)"/>
    </radialGradient>
    <radialGradient id="overrideGlow" cx="50%" cy="50%" r="50%">
      <stop offset="0%" stop-color="rgba(0,170,255,0.5)"/>
      <stop offset="100%" stop-color="rgba(0,170,255,0)"/>
    </radialGradient>

    <!-- Vignette -->
    <radialGradient id="vignette" cx="50%" cy="50%" r="60%">
      <stop offset="0%" stop-color="transparent"/>
      <stop offset="60%" stop-color="rgba(0,0,0,0.2)"/>
      <stop offset="100%" stop-color="rgba(0,0,0,0.65)"/>
    </radialGradient>

    <!-- Filters -->
    <filter id="glow" x="-30%" y="-30%" width="160%" height="160%">
      <feGaussianBlur stdDeviation="3" result="blur"/>
      <feMerge><feMergeNode in="blur"/><feMergeNode in="SourceGraphic"/></feMerge>
    </filter>
    <filter id="strongGlow" x="-50%" y="-50%" width="200%" height="200%">
      <feGaussianBlur stdDeviation="8" result="blur"/>
      <feMerge><feMergeNode in="blur"/><feMergeNode in="SourceGraphic"/></feMerge>
    </filter>
    <filter id="screenGlow" x="-50%" y="-50%" width="200%" height="200%">
      <feGaussianBlur stdDeviation="12" result="blur"/>
      <feMerge><feMergeNode in="blur"/><feMergeNode in="SourceGraphic"/></feMerge>
    </filter>
    <filter id="shadow" x="-5%" y="-5%" width="115%" height="115%">
      <feDropShadow dx="4" dy="6" stdDeviation="8" flood-color="rgba(0,0,0,0.6)"/>
    </filter>
    <filter id="filmGrain">
      <feTurbulence type="fractalNoise" baseFrequency="0.6" numOctaves="3" result="noise"/>
      <feColorMatrix type="saturate" values="0" in="noise" result="grayNoise"/>
      <feBlend in="SourceGraphic" in2="grayNoise" mode="multiply"/>
    </filter>
    <filter id="scanlines">
      <feTurbulence type="turbulence" baseFrequency="0,0.9" numOctaves="1" result="scan"/>
      <feColorMatrix type="saturate" values="0" in="scan" result="grayScan"/>
      <feBlend in="SourceGraphic" in2="grayScan" mode="multiply"/>
    </filter>

    <!-- Raised floor tile pattern -->
    <pattern id="floorTile" patternUnits="userSpaceOnUse" width="100" height="100">
      <rect width="100" height="100" fill="#1e2228"/>
      <rect x="2" y="2" width="96" height="96" fill="#222630" rx="1"/>
      <line x1="0" y1="0" x2="100" y2="0" stroke="#2a2e35" stroke-width="1"/>
      <line x1="0" y1="0" x2="0" y2="100" stroke="#2a2e35" stroke-width="1"/>
    </pattern>

    <!-- CRT scanline overlay -->
    <pattern id="crtLines" patternUnits="userSpaceOnUse" width="2" height="4">
      <rect width="2" height="4" fill="transparent"/>
      <rect width="2" height="2" fill="rgba(0,0,0,0.15)"/>
    </pattern>
  </defs>

  <!-- ============ ROOM BACKGROUND ============ -->
  <rect width="1920" height="1080" fill="url(#roomBg)"/>

  <!-- Ceiling -->
  <rect width="1920" height="120" fill="url(#ceilingGrad)"/>

  <!-- Ceiling infrastructure (cable trays) -->
  <g stroke="#2a2e32" stroke-width="6" opacity="0.6">
    <line x1="0" y1="80" x2="1920" y2="80"/>
    <line x1="0" y1="60" x2="1920" y2="60"/>
  </g>
  <g stroke="#252830" stroke-width="2" opacity="0.4">
    <line x1="300" y1="55" x2="300" y2="85"/>
    <line x1="600" y1="55" x2="600" y2="85"/>
    <line x1="900" y1="55" x2="900" y2="85"/>
    <line x1="1200" y1="55" x2="1200" y2="85"/>
    <line x1="1500" y1="55" x2="1500" y2="85"/>
  </g>

  <!-- ============ EMERGENCY LIGHTS (ceiling) ============ -->
  <g>
    <!-- Main emergency light (center) - red pulsing -->
    <circle cx="960" cy="100" r="12" fill="#ff3333" filter="url(#strongGlow)">
      <animate attributeName="opacity" values="0.5;0.9;0.5" dur="2.5s" repeatCount="indefinite"/>
    </circle>
    <ellipse cx="960" cy="100" rx="160" ry="80" fill="url(#redEmergency)" opacity="0.25">
      <animate attributeName="opacity" values="0.25;0.15;0.25" dur="2.5s" repeatCount="indefinite"/>
    </ellipse>

    <!-- Dim ambient ceiling lights -->
    <g opacity="0.15">
      <circle cx="300" cy="95" r="35" fill="#4a6080"/>
      <circle cx="700" cy="95" r="35" fill="#4a6080"/>
      <circle cx="1200" cy="95" r="35" fill="#4a6080"/>
      <circle cx="1650" cy="95" r="35" fill="#4a6080"/>
    </g>
    <!-- Light housings -->
    <g fill="#1a1e24">
      <rect x="280" y="88" width="40" height="14" rx="3"/>
      <rect x="680" y="88" width="40" height="14" rx="3"/>
      <rect x="1180" y="88" width="40" height="14" rx="3"/>
      <rect x="1630" y="88" width="40" height="14" rx="3"/>
    </g>
  </g>

  <!-- ============ RAISED FLOOR ============ -->
  <rect y="800" width="1920" height="280" fill="url(#floorTile)"/>

  <!-- Floor grid lines (raised floor panels) -->
  <g stroke="rgba(50,55,65,0.5)" stroke-width="1">
    <line x1="0" y1="850" x2="1920" y2="850"/>
    <line x1="0" y1="900" x2="1920" y2="900"/>
    <line x1="0" y1="950" x2="1920" y2="950"/>
    <line x1="0" y1="1000" x2="1920" y2="1000"/>
    <line x1="0" y1="1050" x2="1920" y2="1050"/>
    <line x1="200" y1="800" x2="200" y2="1080"/>
    <line x1="400" y1="800" x2="400" y2="1080"/>
    <line x1="600" y1="800" x2="600" y2="1080"/>
    <line x1="800" y1="800" x2="800" y2="1080"/>
    <line x1="1000" y1="800" x2="1000" y2="1080"/>
    <line x1="1200" y1="800" x2="1200" y2="1080"/>
    <line x1="1400" y1="800" x2="1400" y2="1080"/>
    <line x1="1600" y1="800" x2="1600" y2="1080"/>
    <line x1="1800" y1="800" x2="1800" y2="1080"/>
  </g>

  <!-- Floor reflections from LEDs -->
  <g opacity="0.06">
    <ellipse cx="350" cy="850" rx="200" ry="40" fill="#00aaff"/>
    <ellipse cx="750" cy="850" rx="200" ry="40" fill="#00ff44"/>
    <ellipse cx="1150" cy="850" rx="200" ry="40" fill="#00aaff"/>
    <ellipse cx="1600" cy="850" rx="200" ry="40" fill="#00ff44"/>
  </g>

  <!-- ============ SERVER RACK 1 (LEFT) ============ -->
  <g transform="translate(200, 200)" filter="url(#shadow)">
    <!-- Rack body -->
    <rect width="300" height="600" fill="url(#rackGrad)" stroke="#3a3e44" stroke-width="2" rx="2"/>
    <!-- Side panel visible edge -->
    <rect x="-20" y="5" width="20" height="590" fill="url(#rackSide)"/>

    <!-- Top ventilation -->
    <rect x="10" y="8" width="280" height="30" fill="#1e2024">
      <g><rect x="15" y="12" width="270" height="5" rx="1"/></g>
    </rect>
    <g fill="#16181c">
      <rect x="20" y="14" width="260" height="3" rx="1"/>
      <rect x="20" y="20" width="260" height="3" rx="1"/>
      <rect x="20" y="26" width="260" height="3" rx="1"/>
    </g>

    <!-- Status LED row -->
    <g transform="translate(0, 48)">
      <circle cx="22" cy="0" r="4" fill="#00ff00" filter="url(#glow)"><animate attributeName="opacity" values="1;0.4;1" dur="2s" repeatCount="indefinite"/></circle>
      <circle cx="38" cy="0" r="4" fill="#00ff00" filter="url(#glow)"><animate attributeName="opacity" values="0.4;1;0.4" dur="1.8s" repeatCount="indefinite"/></circle>
      <circle cx="54" cy="0" r="4" fill="#00aaff" filter="url(#glow)"><animate attributeName="opacity" values="1;0.3;1" dur="1.5s" repeatCount="indefinite"/></circle>
      <circle cx="70" cy="0" r="4" fill="#00aaff" filter="url(#glow)"><animate attributeName="opacity" values="0.3;1;0.3" dur="1.3s" repeatCount="indefinite"/></circle>
      <circle cx="86" cy="0" r="4" fill="#ffaa00" filter="url(#glow)"><animate attributeName="opacity" values="0.7;0.3;0.7" dur="2.2s" repeatCount="indefinite"/></circle>
    </g>

    <!-- Server units (1U/2U blanks) -->
    <g>
      <rect x="8" y="65" width="284" height="42" fill="#222428" stroke="#33363a" stroke-width="1" rx="1"/>
      <rect x="8" y="114" width="284" height="42" fill="#1e2024" stroke="#33363a" stroke-width="1" rx="1"/>
      <rect x="8" y="163" width="284" height="42" fill="#222428" stroke="#33363a" stroke-width="1" rx="1"/>
      <rect x="8" y="212" width="284" height="42" fill="#1e2024" stroke="#33363a" stroke-width="1" rx="1"/>
      <rect x="8" y="261" width="284" height="42" fill="#222428" stroke="#33363a" stroke-width="1" rx="1"/>
      <rect x="8" y="310" width="284" height="42" fill="#1e2024" stroke="#33363a" stroke-width="1" rx="1"/>
      <rect x="8" y="359" width="284" height="42" fill="#222428" stroke="#33363a" stroke-width="1" rx="1"/>
      <rect x="8" y="408" width="284" height="60" fill="#1e2024" stroke="#33363a" stroke-width="1" rx="1"/>
      <rect x="8" y="475" width="284" height="55" fill="#222428" stroke="#33363a" stroke-width="1" rx="1"/>
      <rect x="8" y="537" width="284" height="55" fill="#1e2024" stroke="#33363a" stroke-width="1" rx="1"/>
    </g>

    <!-- Activity LEDs on server units -->
    <g>
      <rect x="262" y="78" width="6" height="6" fill="#00ff00" rx="1"><animate attributeName="opacity" values="1;0;1" dur="0.4s" repeatCount="indefinite"/></rect>
      <rect x="262" y="127" width="6" height="6" fill="#00aaff" rx="1"><animate attributeName="opacity" values="0;1;0" dur="0.6s" repeatCount="indefinite"/></rect>
      <rect x="262" y="176" width="6" height="6" fill="#00ff00" rx="1"><animate attributeName="opacity" values="1;0;1" dur="0.35s" repeatCount="indefinite"/></rect>
      <rect x="262" y="225" width="6" height="6" fill="#00aaff" rx="1"><animate attributeName="opacity" values="0;1;0" dur="0.5s" repeatCount="indefinite"/></rect>
      <rect x="262" y="274" width="6" height="6" fill="#00ff00" rx="1"><animate attributeName="opacity" values="1;0;1" dur="0.7s" repeatCount="indefinite"/></rect>
      <rect x="262" y="323" width="6" height="6" fill="#00aaff" rx="1"><animate attributeName="opacity" values="0;1;0" dur="0.3s" repeatCount="indefinite"/></rect>
      <!-- HDD activity -->
      <rect x="248" y="78" width="6" height="6" fill="#ffaa00" rx="1"><animate attributeName="opacity" values="1;0;1;0;1;0;1" dur="1.5s" repeatCount="indefinite"/></rect>
    </g>

    <!-- Mounting screws detail -->
    <g fill="#444" opacity="0.5">
      <circle cx="14" cy="72" r="2"/><circle cx="14" cy="121" r="2"/><circle cx="14" cy="170" r="2"/>
      <circle cx="14" cy="219" r="2"/><circle cx="14" cy="268" r="2"/><circle cx="14" cy="317" r="2"/>
      <circle cx="286" cy="72" r="2"/><circle cx="286" cy="121" r="2"/><circle cx="286" cy="170" r="2"/>
      <circle cx="286" cy="219" r="2"/><circle cx="286" cy="268" r="2"/><circle cx="286" cy="317" r="2"/>
    </g>

    <!-- LED ambient glow on floor -->
    <ellipse cx="150" cy="650" rx="200" ry="40" fill="url(#blueGlow)" opacity="0.06"/>
  </g>

  <!-- ============ SERVER RACK 2 (CENTER) ============ -->
  <g transform="translate(600, 200)" filter="url(#shadow)">
    <rect width="300" height="600" fill="url(#rackGrad)" stroke="#3a3e44" stroke-width="2" rx="2"/>
    <rect x="-20" y="5" width="20" height="590" fill="url(#rackSide)"/>

    <!-- Top vent -->
    <g fill="#16181c">
      <rect x="20" y="14" width="260" height="3" rx="1"/>
      <rect x="20" y="20" width="260" height="3" rx="1"/>
      <rect x="20" y="26" width="260" height="3" rx="1"/>
    </g>

    <!-- Status LEDs -->
    <g transform="translate(0, 48)">
      <circle cx="22" cy="0" r="4" fill="#00aaff" filter="url(#glow)"><animate attributeName="opacity" values="1;0.3;1" dur="1.7s" repeatCount="indefinite"/></circle>
      <circle cx="38" cy="0" r="4" fill="#00ff00" filter="url(#glow)"><animate attributeName="opacity" values="0.3;1;0.3" dur="1.4s" repeatCount="indefinite"/></circle>
      <circle cx="54" cy="0" r="4" fill="#00ff00" filter="url(#glow)"><animate attributeName="opacity" values="1;0.5;1" dur="2.1s" repeatCount="indefinite"/></circle>
      <circle cx="70" cy="0" r="4" fill="#00aaff" filter="url(#glow)"><animate attributeName="opacity" values="0.5;1;0.5" dur="1.6s" repeatCount="indefinite"/></circle>
    </g>

    <!-- Server units -->
    <g>
      <rect x="8" y="65" width="284" height="42" fill="#222428" stroke="#33363a" stroke-width="1" rx="1"/>
      <rect x="8" y="114" width="284" height="42" fill="#1e2024" stroke="#33363a" stroke-width="1" rx="1"/>
      <rect x="8" y="163" width="284" height="42" fill="#222428" stroke="#33363a" stroke-width="1" rx="1"/>
      <rect x="8" y="212" width="284" height="42" fill="#1e2024" stroke="#33363a" stroke-width="1" rx="1"/>
      <rect x="8" y="261" width="284" height="42" fill="#222428" stroke="#33363a" stroke-width="1" rx="1"/>
      <rect x="8" y="310" width="284" height="42" fill="#1e2024" stroke="#33363a" stroke-width="1" rx="1"/>
      <rect x="8" y="359" width="284" height="60" fill="#222428" stroke="#33363a" stroke-width="1" rx="1"/>
      <rect x="8" y="426" width="284" height="55" fill="#1e2024" stroke="#33363a" stroke-width="1" rx="1"/>
      <rect x="8" y="488" width="284" height="50" fill="#222428" stroke="#33363a" stroke-width="1" rx="1"/>
      <rect x="8" y="545" width="284" height="47" fill="#1e2024" stroke="#33363a" stroke-width="1" rx="1"/>
    </g>

    <!-- Activity LEDs -->
    <g>
      <rect x="262" y="78" width="6" height="6" fill="#00aaff" rx="1"><animate attributeName="opacity" values="0;1;0" dur="0.45s" repeatCount="indefinite"/></rect>
      <rect x="262" y="127" width="6" height="6" fill="#00ff00" rx="1"><animate attributeName="opacity" values="1;0;1" dur="0.55s" repeatCount="indefinite"/></rect>
      <rect x="262" y="176" width="6" height="6" fill="#00aaff" rx="1"><animate attributeName="opacity" values="0;1;0" dur="0.38s" repeatCount="indefinite"/></rect>
      <rect x="262" y="225" width="6" height="6" fill="#00ff00" rx="1"><animate attributeName="opacity" values="1;0;1" dur="0.62s" repeatCount="indefinite"/></rect>
      <rect x="262" y="274" width="6" height="6" fill="#00aaff" rx="1"><animate attributeName="opacity" values="0;1;0" dur="0.42s" repeatCount="indefinite"/></rect>
      <rect x="248" y="127" width="6" height="6" fill="#ffaa00" rx="1"><animate attributeName="opacity" values="1;0;1;0;1" dur="1.2s" repeatCount="indefinite"/></rect>
    </g>

    <!-- Glow on floor -->
    <ellipse cx="150" cy="650" rx="200" ry="40" fill="url(#greenGlow)" opacity="0.05"/>
  </g>

  <!-- ============ SERVER RACK 3 (RIGHT CENTER) ============ -->
  <g transform="translate(1000, 200)" filter="url(#shadow)">
    <rect width="300" height="600" fill="url(#rackGrad)" stroke="#3a3e44" stroke-width="2" rx="2"/>
    <rect x="300" y="5" width="20" height="590" fill="url(#rackSide)"/>

    <!-- Top vent -->
    <g fill="#16181c">
      <rect x="20" y="14" width="260" height="3" rx="1"/>
      <rect x="20" y="20" width="260" height="3" rx="1"/>
      <rect x="20" y="26" width="260" height="3" rx="1"/>
    </g>

    <!-- Status LEDs -->
    <g transform="translate(0, 48)">
      <circle cx="22" cy="0" r="4" fill="#00ff00" filter="url(#glow)"><animate attributeName="opacity" values="1;0.5;1" dur="1.9s" repeatCount="indefinite"/></circle>
      <circle cx="38" cy="0" r="4" fill="#00aaff" filter="url(#glow)"><animate attributeName="opacity" values="0.5;1;0.5" dur="1.6s" repeatCount="indefinite"/></circle>
      <circle cx="54" cy="0" r="4" fill="#ff4444" filter="url(#glow)"><animate attributeName="opacity" values="0.6;0.2;0.6" dur="3s" repeatCount="indefinite"/></circle>
    </g>

    <!-- Server units -->
    <g>
      <rect x="8" y="65" width="284" height="42" fill="#222428" stroke="#33363a" stroke-width="1" rx="1"/>
      <rect x="8" y="114" width="284" height="42" fill="#1e2024" stroke="#33363a" stroke-width="1" rx="1"/>
      <rect x="8" y="163" width="284" height="42" fill="#222428" stroke="#33363a" stroke-width="1" rx="1"/>
      <rect x="8" y="212" width="284" height="42" fill="#1e2024" stroke="#33363a" stroke-width="1" rx="1"/>
      <rect x="8" y="261" width="284" height="42" fill="#222428" stroke="#33363a" stroke-width="1" rx="1"/>
      <rect x="8" y="310" width="284" height="80" fill="#1e2024" stroke="#33363a" stroke-width="1" rx="1"/>
      <rect x="8" y="397" width="284" height="55" fill="#222428" stroke="#33363a" stroke-width="1" rx="1"/>
      <rect x="8" y="459" width="284" height="50" fill="#1e2024" stroke="#33363a" stroke-width="1" rx="1"/>
    </g>

    <!-- Activity LEDs -->
    <g>
      <rect x="262" y="78" width="6" height="6" fill="#00ff00" rx="1"><animate attributeName="opacity" values="1;0;1" dur="0.48s" repeatCount="indefinite"/></rect>
      <rect x="262" y="127" width="6" height="6" fill="#00aaff" rx="1"><animate attributeName="opacity" values="0;1;0" dur="0.52s" repeatCount="indefinite"/></rect>
      <rect x="262" y="176" width="6" height="6" fill="#00ff00" rx="1"><animate attributeName="opacity" values="1;0;1" dur="0.38s" repeatCount="indefinite"/></rect>
      <rect x="262" y="225" width="6" height="6" fill="#00aaff" rx="1"><animate attributeName="opacity" values="0;1;0" dur="0.65s" repeatCount="indefinite"/></rect>
    </g>

    <ellipse cx="150" cy="650" rx="200" ry="40" fill="url(#blueGlow)" opacity="0.05"/>
  </g>

  <!-- ============ CABLE MANAGEMENT ============ -->
  <!-- Cables from ceiling to racks (thick bundles) -->
  <g stroke-linecap="round" fill="none" opacity="0.55">
    <path d="M300,85 Q320,120 350,200" stroke="#333" stroke-width="14"/>
    <path d="M300,85 Q340,140 370,200" stroke="#2a2a2a" stroke-width="10"/>
    <path d="M700,85 Q720,120 750,200" stroke="#333" stroke-width="14"/>
    <path d="M700,85 Q740,140 770,200" stroke="#2a2a2a" stroke-width="10"/>
    <path d="M1100,85 Q1120,120 1150,200" stroke="#333" stroke-width="14"/>
    <path d="M1100,85 Q1140,140 1170,200" stroke="#2a2a2a" stroke-width="10"/>
  </g>

  <!-- Under-floor cable exits -->
  <g fill="none" stroke="#333" stroke-width="10" opacity="0.3">
    <path d="M350,800 Q350,820 400,830"/>
    <path d="M750,800 Q750,820 800,830"/>
    <path d="M1150,800 Q1150,820 1200,830"/>
  </g>

  <!-- ============ COOLING SYSTEM (LEFT CORNER) ============ -->
  <g transform="translate(40, 140)" filter="url(#shadow)">
    <rect width="130" height="660" fill="url(#coolerGrad)" stroke="#3a3e44" stroke-width="2" rx="3"/>

    <!-- Vent grilles -->
    <g fill="#1e2228">
      <rect x="10" y="12" width="110" height="35" rx="2"/>
      <rect x="10" y="55" width="110" height="35" rx="2"/>
      <rect x="10" y="98" width="110" height="35" rx="2"/>
    </g>
    <g stroke="#2a2e34" stroke-width="2" opacity="0.6">
      <line x1="15" y1="22" x2="115" y2="22"/>
      <line x1="15" y1="29" x2="115" y2="29"/>
      <line x1="15" y1="36" x2="115" y2="36"/>
      <line x1="15" y1="65" x2="115" y2="65"/>
      <line x1="15" y1="72" x2="115" y2="72"/>
      <line x1="15" y1="79" x2="115" y2="79"/>
      <line x1="15" y1="108" x2="115" y2="108"/>
      <line x1="15" y1="115" x2="115" y2="115"/>
      <line x1="15" y1="122" x2="115" y2="122"/>
    </g>

    <!-- Fan housings -->
    <g transform="translate(65, 200)">
      <circle r="40" fill="#1e2024" stroke="#33363a" stroke-width="2"/>
      <g stroke="#444" stroke-width="3">
        <line x1="0" y1="-30" x2="0" y2="30">
          <animateTransform attributeName="transform" type="rotate" from="0" to="360" dur="1.5s" repeatCount="indefinite"/>
        </line>
        <line x1="-30" y1="0" x2="30" y2="0">
          <animateTransform attributeName="transform" type="rotate" from="0" to="360" dur="1.5s" repeatCount="indefinite"/>
        </line>
        <line x1="-21" y1="-21" x2="21" y2="21">
          <animateTransform attributeName="transform" type="rotate" from="0" to="360" dur="1.5s" repeatCount="indefinite"/>
        </line>
      </g>
      <circle r="6" fill="#33363a"/>
    </g>

    <g transform="translate(65, 330)">
      <circle r="40" fill="#1e2024" stroke="#33363a" stroke-width="2"/>
      <g stroke="#444" stroke-width="3">
        <line x1="0" y1="-30" x2="0" y2="30">
          <animateTransform attributeName="transform" type="rotate" from="0" to="360" dur="1.8s" repeatCount="indefinite"/>
        </line>
        <line x1="-30" y1="0" x2="30" y2="0">
          <animateTransform attributeName="transform" type="rotate" from="0" to="360" dur="1.8s" repeatCount="indefinite"/>
        </line>
        <line x1="-21" y1="-21" x2="21" y2="21">
          <animateTransform attributeName="transform" type="rotate" from="0" to="360" dur="1.8s" repeatCount="indefinite"/>
        </line>
      </g>
      <circle r="6" fill="#33363a"/>
    </g>

    <!-- Status panel -->
    <rect x="15" y="420" width="100" height="60" fill="#111" stroke="#333" stroke-width="1" rx="2"/>
    <text x="65" y="442" fill="#00ff00" font-family="'Courier New', monospace" font-size="9" text-anchor="middle">COOLING</text>
    <text x="65" y="455" fill="#00aaff" font-family="'Courier New', monospace" font-size="10" text-anchor="middle">18.2°C</text>
    <circle cx="95" cy="465" r="4" fill="#00ff00" opacity="0.7">
      <animate attributeName="opacity" values="0.7;0.3;0.7" dur="3s" repeatCount="indefinite"/>
    </circle>

    <!-- Coolant pipes -->
    <rect x="20" y="500" width="15" height="160" fill="#3a5a7a" rx="4"/>
    <rect x="95" y="500" width="15" height="160" fill="#3a5a7a" rx="4"/>
    <rect x="20" y="530" width="90" height="10" fill="#3a5a7a" rx="3"/>
  </g>

  <!-- ============ DOOR WITH OVERRIDE PANEL ============ -->
  <g transform="translate(100, 700)">
    <!-- Heavy blast door -->
    <rect x="-10" y="-10" width="200" height="340" fill="#2a2c30" stroke="#444" stroke-width="3" rx="3"/>
    <rect width="180" height="320" fill="url(#doorGrad)" rx="2"/>

    <!-- Door reinforcement lines -->
    <g stroke="rgba(255,255,255,0.03)" stroke-width="1">
      <line x1="0" y1="80" x2="180" y2="80"/>
      <line x1="0" y1="160" x2="180" y2="160"/>
      <line x1="0" y1="240" x2="180" y2="240"/>
    </g>

    <!-- Window (small, reinforced) -->
    <rect x="12" y="100" width="75" height="100" fill="#0c0e14" stroke="#2a2a2a" stroke-width="3" rx="1"/>
    <!-- Wire mesh in glass -->
    <g stroke="rgba(80,80,80,0.2)" stroke-width="0.5">
      <line x1="22" y1="100" x2="22" y2="200"/>
      <line x1="37" y1="100" x2="37" y2="200"/>
      <line x1="52" y1="100" x2="52" y2="200"/>
      <line x1="67" y1="100" x2="67" y2="200"/>
      <line x1="12" y1="125" x2="87" y2="125"/>
      <line x1="12" y1="150" x2="87" y2="150"/>
      <line x1="12" y1="175" x2="87" y2="175"/>
    </g>

    <!-- Handle (heavy-duty) -->
    <rect x="140" y="148" width="30" height="14" fill="#666" rx="4"/>
    <circle cx="160" cy="155" r="7" fill="#777" stroke="#555" stroke-width="1.5"/>

    <!-- "AUSGANG" text -->
    <rect x="25" y="15" width="130" height="35" fill="#333" rx="3"/>
    <text x="90" y="38" fill="#888" font-family="'Courier New', monospace" font-size="14" text-anchor="middle" letter-spacing="2">AUSGANG</text>

    <!-- Override panel (biometric + keypad) -->
    <g transform="translate(-65, 120)">
      <rect width="45" height="80" fill="#0e1a2a" stroke="#00aaff" stroke-width="2" rx="3"/>
      <!-- Biometric scanner -->
      <rect x="5" y="5" width="35" height="25" fill="#061428" stroke="#0066aa" stroke-width="1" rx="2"/>
      <text x="22" y="22" fill="#0088cc" font-family="sans-serif" font-size="7" text-anchor="middle">SCAN</text>
      <!-- Main indicator -->
      <circle cx="22" cy="44" r="9" fill="#ff0000" filter="url(#strongGlow)">
        <animate attributeName="fill" values="#ff0000;#ff0000;#ff0000" dur="4s" repeatCount="indefinite"/>
      </circle>
      <!-- Keypad -->
      <g fill="#1a2a3a">
        <rect x="6" y="58" width="9" height="8" rx="1"/>
        <rect x="18" y="58" width="9" height="8" rx="1"/>
        <rect x="30" y="58" width="9" height="8" rx="1"/>
        <rect x="6" y="68" width="9" height="8" rx="1"/>
        <rect x="18" y="68" width="9" height="8" rx="1"/>
        <rect x="30" y="68" width="9" height="8" rx="1"/>
      </g>
      <!-- Panel glow -->
      <ellipse cx="22" cy="44" rx="35" ry="35" fill="url(#overrideGlow)" opacity="0.2"/>
    </g>
  </g>

  <!-- ============ AIR-GAPPED TERMINAL (FAR RIGHT) ============ -->
  <g transform="translate(1450, 350)">
    <!-- Terminal green glow on environment -->
    <ellipse cx="150" cy="100" rx="250" ry="180" fill="url(#terminalGlow)" opacity="0.15" filter="url(#screenGlow)"/>

    <!-- Desk -->
    <rect x="-10" y="340" width="320" height="25" fill="url(#deskGrad)" rx="2"/>
    <!-- Desk legs -->
    <rect x="8" y="365" width="12" height="190" fill="#2a2e32"/>
    <rect x="280" y="365" width="12" height="190" fill="#2a2e32"/>
    <!-- Desk cross bar -->
    <rect x="8" y="480" width="284" height="8" fill="#252830"/>

    <!-- Monitor housing -->
    <rect x="35" y="170" width="230" height="175" fill="#111" stroke="#2a2a2a" stroke-width="3" rx="3"/>
    <!-- Monitor bezel inner -->
    <rect x="42" y="177" width="216" height="156" fill="#0a0a0a" rx="2"/>

    <!-- CRT-style screen -->
    <rect x="48" y="183" width="204" height="144" fill="url(#terminalScreen)" rx="2"/>
    <!-- Scanlines overlay on screen -->
    <rect x="48" y="183" width="204" height="144" fill="url(#crtLines)" opacity="0.4"/>

    <!-- Terminal text -->
    <g font-family="'Courier New', monospace" fill="#00ff00">
      <text x="58" y="206" font-size="12" opacity="0.9">root@airgap:~# _</text>
      <text x="58" y="222" font-size="10" opacity="0.7">SYSTEM: SECURE TERMINAL v4.2</text>
      <text x="58" y="238" font-size="10" opacity="0.7">STATUS: STANDBY</text>
      <text x="58" y="254" font-size="10" opacity="0.7">ACCESS: LEVEL 3 REQUIRED</text>
      <text x="58" y="270" font-size="10" opacity="0.6">NETWORK: ISOLATED</text>
      <text x="58" y="286" font-size="10" opacity="0.6">ENCRYPT: AES-256-GCM</text>
      <!-- Cursor blink -->
      <rect x="175" y="196" width="8" height="12" fill="#00ff00" opacity="0.8">
        <animate attributeName="opacity" values="0.8;0;0.8" dur="1s" repeatCount="indefinite"/>
      </rect>
    </g>

    <!-- Screen reflection highlight -->
    <rect x="48" y="183" width="204" height="30" fill="rgba(255,255,255,0.02)" rx="2"/>

    <!-- Monitor stand -->
    <rect x="120" y="345" width="60" height="10" fill="#222" rx="2"/>
    <rect x="135" y="340" width="30" height="8" fill="#1a1a1a"/>

    <!-- Power LED -->
    <circle cx="240" cy="338" r="4" fill="#00ff00" filter="url(#glow)">
      <animate attributeName="opacity" values="0.8;1;0.8" dur="2s" repeatCount="indefinite"/>
    </circle>
    <!-- Manufacturer label -->
    <text x="55" y="338" fill="#333" font-family="sans-serif" font-size="7">SIEMENS</text>

    <!-- Keyboard -->
    <g transform="translate(30, 370)">
      <rect width="240" height="65" fill="#1e1e22" stroke="#333" stroke-width="1.5" rx="3"/>
      <!-- Key rows -->
      <g fill="#2a2a30">
        <rect x="8" y="8" width="18" height="14" rx="2"/>
        <rect x="30" y="8" width="18" height="14" rx="2"/>
        <rect x="52" y="8" width="18" height="14" rx="2"/>
        <rect x="74" y="8" width="18" height="14" rx="2"/>
        <rect x="96" y="8" width="18" height="14" rx="2"/>
        <rect x="118" y="8" width="18" height="14" rx="2"/>
        <rect x="140" y="8" width="18" height="14" rx="2"/>
        <rect x="162" y="8" width="18" height="14" rx="2"/>
        <rect x="184" y="8" width="18" height="14" rx="2"/>
        <rect x="206" y="8" width="26" height="14" rx="2"/>
      </g>
      <g fill="#282830">
        <rect x="12" y="26" width="18" height="14" rx="2"/>
        <rect x="34" y="26" width="18" height="14" rx="2"/>
        <rect x="56" y="26" width="18" height="14" rx="2"/>
        <rect x="78" y="26" width="18" height="14" rx="2"/>
        <rect x="100" y="26" width="18" height="14" rx="2"/>
        <rect x="122" y="26" width="18" height="14" rx="2"/>
        <rect x="144" y="26" width="18" height="14" rx="2"/>
        <rect x="166" y="26" width="18" height="14" rx="2"/>
        <rect x="188" y="26" width="44" height="14" rx="2"/>
      </g>
      <g fill="#2a2a30">
        <rect x="50" y="44" width="140" height="14" rx="2"/> <!-- Spacebar -->
      </g>
      <!-- Num lock LED -->
      <circle cx="224" cy="50" r="2" fill="#00ff00" opacity="0.5"/>
    </g>

    <!-- Mouse -->
    <rect x="272" y="385" width="28" height="42" fill="#1e1e22" stroke="#333" stroke-width="1" rx="8"/>
    <line x1="286" y1="388" x2="286" y2="400" stroke="#333" stroke-width="0.8"/>
    <!-- Mouse cable -->
    <path d="M286,385 Q286,375 278,370 Q265,362 260,358" fill="none" stroke="#333" stroke-width="1.5"/>
  </g>

  <!-- ============ ROOM LABEL (emergency marking) ============ -->
  <g transform="translate(50, 50)">
    <rect x="-5" y="-5" width="365" height="70" fill="rgba(0,0,0,0.6)" rx="5"/>
    <rect width="355" height="60" fill="#1a1c20" stroke="#ffaa00" stroke-width="3" rx="3"/>
    <text x="178" y="28" fill="#ffdd00" font-family="'Courier New', monospace" font-size="22" text-anchor="middle" font-weight="bold" letter-spacing="2">SERVERRAUM</text>
    <text x="178" y="50" fill="#cc8800" font-family="'Courier New', monospace" font-size="14" text-anchor="middle" letter-spacing="1">BASEMENT LEVEL B</text>
  </g>

  <!-- ============ FLOOR MARKERS / SAFETY LINES ============ -->
  <g opacity="0.35">
    <!-- Safety walkway -->
    <rect x="0" y="810" width="1920" height="5" fill="#ffaa00"/>
    <text x="150" y="870" fill="#ff8800" font-family="'Courier New', monospace" font-size="16" font-weight="bold">← EXIT</text>
    <text x="650" y="870" fill="#ffaa00" font-family="'Courier New', monospace" font-size="14">SERVER ZONE A</text>
    <text x="1480" y="870" fill="#00ff88" font-family="'Courier New', monospace" font-size="14">TERMINAL →</text>
  </g>

  <!-- Anti-static warning -->
  <g transform="translate(1380, 820)" opacity="0.4">
    <polygon points="0,-15 13,10 -13,10" fill="#ffcc00" stroke="#222" stroke-width="1.5"/>
    <text x="0" y="7" fill="#000" font-family="sans-serif" font-size="12" text-anchor="middle" font-weight="bold">⚡</text>
    <text x="25" y="5" fill="#aaa" font-family="sans-serif" font-size="8">ESD</text>
  </g>

  <!-- ============ ATMOSPHERE ============ -->

  <!-- Blue/green LED ambient wash on walls -->
  <g opacity="0.05">
    <rect x="180" y="200" width="320" height="600" fill="#0066ff"/>
    <rect x="580" y="200" width="320" height="600" fill="#00ff44"/>
    <rect x="980" y="200" width="320" height="600" fill="#0066ff"/>
  </g>

  <!-- Haze / cold air from cooling -->
  <g opacity="0.04">
    <ellipse cx="105" cy="500" rx="200" ry="300" fill="#6688aa">
      <animateTransform attributeName="transform" type="translate" values="0,0;20,-10;0,0" dur="8s" repeatCount="indefinite"/>
    </ellipse>
  </g>

  <!-- ============ CINEMATIC OVERLAYS ============ -->
  <!-- Vignette -->
  <rect width="1920" height="1080" fill="url(#vignette)"/>

  <!-- Film grain -->
  <rect width="1920" height="1080" fill="transparent" filter="url(#filmGrain)" opacity="0.04"/>

  <!-- Letterbox -->
  <rect x="0" y="0" width="1920" height="30" fill="rgba(0,0,0,0.8)"/>
  <rect x="0" y="1050" width="1920" height="30" fill="rgba(0,0,0,0.8)"/>

  <!-- Subtle scanline sweep -->
  <rect x="0" y="0" width="1920" height="2" fill="rgba(0,200,255,0.015)">
    <animateTransform attributeName="transform" type="translate" values="0,0;0,1080;0,0" dur="8s" repeatCount="indefinite"/>
  </rect>
</svg>
