<svg xmlns="http://www.w3.org/2000/svg" viewBox="0 0 1920 1080">
  <defs>
    <!-- Night sky with moonlight influence -->
    <linearGradient id="nightSky" x1="0" y1="0" x2="0" y2="1">
      <stop offset="0%" stop-color="#020308"/>
      <stop offset="30%" stop-color="#060a18"/>
      <stop offset="60%" stop-color="#0a0f25"/>
      <stop offset="100%" stop-color="#0f1530"/>
    </linearGradient>
    <linearGradient id="ground" x1="0" y1="0" x2="0" y2="1">
      <stop offset="0%" stop-color="#0e100e"/>
      <stop offset="100%" stop-color="#060806"/>
    </linearGradient>
    <linearGradient id="buildingGrad" x1="0" y1="0" x2="0" y2="1">
      <stop offset="0%" stop-color="#2a2c2e"/>
      <stop offset="100%" stop-color="#16181a"/>
    </linearGradient>
    <linearGradient id="concreteGrad" x1="0" y1="0" x2="0" y2="1">
      <stop offset="0%" stop-color="#484a4c"/>
      <stop offset="100%" stop-color="#34363a"/>
    </linearGradient>
    <linearGradient id="asphaltGrad" x1="0" y1="0" x2="0" y2="1">
      <stop offset="0%" stop-color="#1a1c1a"/>
      <stop offset="100%" stop-color="#0c0e0c"/>
    </linearGradient>

    <!-- Moon glow -->
    <radialGradient id="moonGlow" cx="85%" cy="12%" r="20%">
      <stop offset="0%" stop-color="rgba(200,210,240,0.15)"/>
      <stop offset="50%" stop-color="rgba(150,170,210,0.05)"/>
      <stop offset="100%" stop-color="rgba(100,120,160,0)"/>
    </radialGradient>

    <!-- Searchlight beam -->
    <radialGradient id="searchBeam" cx="50%" cy="0%" r="100%">
      <stop offset="0%" stop-color="rgba(255,255,240,0.25)"/>
      <stop offset="30%" stop-color="rgba(255,255,240,0.08)"/>
      <stop offset="100%" stop-color="rgba(255,255,240,0)"/>
    </radialGradient>

    <!-- Window warm glow -->
    <radialGradient id="windowWarm" cx="50%" cy="50%" r="50%">
      <stop offset="0%" stop-color="rgba(255,220,140,0.5)"/>
      <stop offset="100%" stop-color="rgba(255,200,100,0)"/>
    </radialGradient>

    <!-- Red alert glow -->
    <radialGradient id="redGlow" cx="50%" cy="50%" r="50%">
      <stop offset="0%" stop-color="rgba(255,0,0,0.7)"/>
      <stop offset="50%" stop-color="rgba(255,0,0,0.2)"/>
      <stop offset="100%" stop-color="rgba(255,0,0,0)"/>
    </radialGradient>

    <!-- Gate light -->
    <radialGradient id="gateLightGlow" cx="50%" cy="30%" r="60%">
      <stop offset="0%" stop-color="rgba(255,200,50,0.4)"/>
      <stop offset="100%" stop-color="rgba(255,200,50,0)"/>
    </radialGradient>

    <!-- Vignette -->
    <radialGradient id="vignette" cx="50%" cy="50%" r="65%">
      <stop offset="0%" stop-color="transparent"/>
      <stop offset="70%" stop-color="rgba(0,0,0,0.2)"/>
      <stop offset="100%" stop-color="rgba(0,0,0,0.65)"/>
    </radialGradient>

    <!-- Filters -->
    <filter id="glow" x="-30%" y="-30%" width="160%" height="160%">
      <feGaussianBlur stdDeviation="3" result="blur"/>
      <feMerge><feMergeNode in="blur"/><feMergeNode in="SourceGraphic"/></feMerge>
    </filter>
    <filter id="strongGlow" x="-50%" y="-50%" width="200%" height="200%">
      <feGaussianBlur stdDeviation="8" result="blur"/>
      <feMerge><feMergeNode in="blur"/><feMergeNode in="SourceGraphic"/></feMerge>
    </filter>
    <filter id="shadow" x="-5%" y="-5%" width="115%" height="115%">
      <feDropShadow dx="4" dy="6" stdDeviation="8" flood-color="rgba(0,0,0,0.7)"/>
    </filter>
    <filter id="filmGrain">
      <feTurbulence type="fractalNoise" baseFrequency="0.65" numOctaves="3" result="noise"/>
      <feColorMatrix type="saturate" values="0" in="noise" result="grayNoise"/>
      <feBlend in="SourceGraphic" in2="grayNoise" mode="multiply"/>
    </filter>

    <!-- Fence wire pattern -->
    <pattern id="fenceWire" patternUnits="userSpaceOnUse" width="24" height="24">
      <line x1="0" y1="0" x2="24" y2="24" stroke="#555" stroke-width="0.8"/>
      <line x1="24" y1="0" x2="0" y2="24" stroke="#555" stroke-width="0.8"/>
    </pattern>

    <!-- Rain drop pattern -->
    <pattern id="rain" patternUnits="userSpaceOnUse" width="80" height="120" patternTransform="rotate(-8)">
      <line x1="10" y1="0" x2="10" y2="15" stroke="rgba(180,200,220,0.12)" stroke-width="0.8"/>
      <line x1="40" y1="30" x2="40" y2="45" stroke="rgba(180,200,220,0.08)" stroke-width="0.6"/>
      <line x1="65" y1="60" x2="65" y2="72" stroke="rgba(180,200,220,0.1)" stroke-width="0.7"/>
      <line x1="25" y1="90" x2="25" y2="105" stroke="rgba(180,200,220,0.07)" stroke-width="0.6"/>
    </pattern>
  </defs>

  <!-- ============ NIGHT SKY ============ -->
  <rect width="1920" height="640" fill="url(#nightSky)"/>

  <!-- Stars (sparse, light-polluted) -->
  <g fill="#fff">
    <circle cx="120" cy="45" r="0.8" opacity="0.4"/>
    <circle cx="340" cy="80" r="1" opacity="0.5"/>
    <circle cx="580" cy="35" r="0.7" opacity="0.35"/>
    <circle cx="720" cy="95" r="1.2" opacity="0.55"><animate attributeName="opacity" values="0.55;0.3;0.55" dur="4s" repeatCount="indefinite"/></circle>
    <circle cx="1050" cy="50" r="0.9" opacity="0.4"/>
    <circle cx="1280" cy="70" r="1.1" opacity="0.5"><animate attributeName="opacity" values="0.5;0.25;0.5" dur="5s" repeatCount="indefinite"/></circle>
    <circle cx="1500" cy="40" r="0.8" opacity="0.3"/>
    <circle cx="1780" cy="85" r="0.7" opacity="0.4"/>
    <circle cx="1880" cy="30" r="1" opacity="0.45"/>
    <circle cx="280" cy="120" r="0.6" opacity="0.3"/>
    <circle cx="950" cy="110" r="0.8" opacity="0.35"/>
  </g>

  <!-- Moon -->
  <g transform="translate(1620, 80)">
    <circle cx="0" cy="0" r="45" fill="#c8d0e0" opacity="0.9"/>
    <circle cx="8" cy="-5" r="45" fill="url(#nightSky)" opacity="0.25"/>
    <!-- Craters -->
    <circle cx="-12" cy="5" r="6" fill="rgba(160,170,190,0.3)"/>
    <circle cx="10" cy="-15" r="4" fill="rgba(160,170,190,0.25)"/>
    <circle cx="5" cy="18" r="8" fill="rgba(160,170,190,0.2)"/>
  </g>
  <rect width="1920" height="1080" fill="url(#moonGlow)"/>

  <!-- Low clouds/haze -->
  <g opacity="0.15">
    <ellipse cx="400" cy="200" rx="500" ry="60" fill="#1a2040">
      <animateTransform attributeName="transform" type="translate" values="0,0;80,0;0,0" dur="40s" repeatCount="indefinite"/>
    </ellipse>
    <ellipse cx="1300" cy="160" rx="400" ry="45" fill="#151a35">
      <animateTransform attributeName="transform" type="translate" values="0,0;-60,0;0,0" dur="35s" repeatCount="indefinite"/>
    </ellipse>
  </g>

  <!-- ============ FAR TREE LINE (forest perimeter) ============ -->
  <g opacity="0.8">
    <path d="M0,350 Q40,310 80,350 Q120,280 160,350 Q200,300 240,350 Q280,290 320,350 Q360,310 400,350 Q440,275 480,350 Q520,305 560,350 Q600,285 640,350 Q680,310 720,350 Q760,295 800,350 Q840,315 880,350 Q920,280 960,350 Q1000,305 1040,350 Q1080,290 1120,350 Q1160,310 1200,350 Q1240,285 1280,350 Q1320,300 1360,350 Q1400,290 1440,350 Q1480,315 1520,350 Q1560,280 1600,350 Q1640,305 1680,350 Q1720,290 1760,350 Q1800,310 1840,350 Q1880,295 1920,350 L1920,400 L0,400 Z"
          fill="#0a0e0a"/>
    <path d="M0,370 Q50,340 100,370 Q150,330 200,370 Q250,340 300,370 Q350,335 400,370 L400,400 L0,400 Z" fill="#080c08"/>
    <path d="M1500,360 Q1550,330 1600,360 Q1650,340 1700,360 Q1750,325 1800,360 Q1850,340 1920,360 L1920,400 L1500,400 Z" fill="#080c08"/>
  </g>

  <!-- ============ MAIN R&D BUILDING (FORSCHUNGSZENTRUM) ============ -->
  <g transform="translate(550, 130)" filter="url(#shadow)">
    <!-- Building mass -->
    <rect width="650" height="420" fill="url(#buildingGrad)" rx="2"/>
    <!-- Concrete panel lines -->
    <g stroke="rgba(60,60,65,0.4)" stroke-width="1" fill="none">
      <line x1="0" y1="105" x2="650" y2="105"/>
      <line x1="0" y1="210" x2="650" y2="210"/>
      <line x1="0" y1="315" x2="650" y2="315"/>
      <line x1="325" y1="0" x2="325" y2="420"/>
    </g>
    <!-- Moonlight edge highlight (left) -->
    <rect x="0" y="0" width="3" height="420" fill="rgba(150,170,200,0.06)"/>

    <!-- Windows - 4 rows x 6 cols, some lit with warm glow -->
    <g>
      <!-- Row 1 -->
      <rect x="30" y="25" width="65" height="45" fill="#0a0c18" rx="1"/>
      <rect x="120" y="25" width="65" height="45" fill="#ffdd88" opacity="0.35" rx="1"><animate attributeName="opacity" values="0.35;0.55;0.35" dur="6s" repeatCount="indefinite"/></rect>
      <rect x="210" y="25" width="65" height="45" fill="#0a0c18" rx="1"/>
      <rect x="360" y="25" width="65" height="45" fill="#ffdd88" opacity="0.25" rx="1"/>
      <rect x="450" y="25" width="65" height="45" fill="#0a0c18" rx="1"/>
      <rect x="540" y="25" width="65" height="45" fill="#ffdd88" opacity="0.45" rx="1"><animate attributeName="opacity" values="0.45;0.25;0.45" dur="5s" repeatCount="indefinite"/></rect>

      <!-- Row 2 -->
      <rect x="30" y="120" width="65" height="45" fill="#ffdd88" opacity="0.3" rx="1"/>
      <rect x="120" y="120" width="65" height="45" fill="#0a0c18" rx="1"/>
      <rect x="210" y="120" width="65" height="45" fill="#0a0c18" rx="1"/>
      <rect x="360" y="120" width="65" height="45" fill="#0a0c18" rx="1"/>
      <rect x="450" y="120" width="65" height="45" fill="#ffdd88" opacity="0.28" rx="1"><animate attributeName="opacity" values="0.28;0.5;0.28" dur="7s" repeatCount="indefinite"/></rect>
      <rect x="540" y="120" width="65" height="45" fill="#0a0c18" rx="1"/>

      <!-- Row 3 -->
      <rect x="30" y="225" width="65" height="45" fill="#0a0c18" rx="1"/>
      <rect x="120" y="225" width="65" height="45" fill="#0a0c18" rx="1"/>
      <rect x="210" y="225" width="65" height="45" fill="#ffdd88" opacity="0.35" rx="1"/>
      <rect x="360" y="225" width="65" height="45" fill="#ffdd88" opacity="0.4" rx="1"/>
      <rect x="450" y="225" width="65" height="45" fill="#0a0c18" rx="1"/>
      <rect x="540" y="225" width="65" height="45" fill="#0a0c18" rx="1"/>

      <!-- Row 4 -->
      <rect x="30" y="330" width="65" height="45" fill="#ffdd88" opacity="0.22" rx="1"/>
      <rect x="120" y="330" width="65" height="45" fill="#0a0c18" rx="1"/>
      <rect x="210" y="330" width="65" height="45" fill="#0a0c18" rx="1"/>
      <rect x="360" y="330" width="65" height="45" fill="#0a0c18" rx="1"/>
      <rect x="450" y="330" width="65" height="45" fill="#0a0c18" rx="1"/>
      <rect x="540" y="330" width="65" height="45" fill="#ffdd88" opacity="0.3" rx="1"><animate attributeName="opacity" values="0.3;0.15;0.3" dur="4s" repeatCount="indefinite"/></rect>
    </g>

    <!-- Window light spill on ground -->
    <g opacity="0.15">
      <rect x="115" y="420" width="80" height="30" fill="#ffdd88"/>
      <rect x="445" y="420" width="80" height="30" fill="#ffdd88"/>
    </g>

    <!-- Building sign (illuminated) -->
    <rect x="180" y="380" width="290" height="32" fill="#222" rx="2"/>
    <text x="200" y="402" fill="#8a9aaa" font-family="'Courier New', monospace" font-size="16" font-weight="bold" letter-spacing="3">FORSCHUNGSZENTRUM</text>

    <!-- Roof equipment silhouettes -->
    <rect x="130" y="-35" width="110" height="35" fill="#1e2022" rx="2"/>
    <rect x="350" y="-25" width="85" height="25" fill="#1e2022" rx="2"/>
    <!-- AC units -->
    <rect x="470" y="-45" width="65" height="45" fill="#2a2c30" rx="2"/>
    <g fill="rgba(80,80,85,0.5)">
      <rect x="475" y="-40" width="55" height="5" rx="1"/>
      <rect x="475" y="-30" width="55" height="5" rx="1"/>
      <rect x="475" y="-20" width="55" height="5" rx="1"/>
    </g>
    <!-- Satellite dish on roof -->
    <g transform="translate(260,-50)">
      <ellipse cx="0" cy="0" rx="18" ry="22" fill="#3a3a40" transform="rotate(-20)"/>
      <line x1="0" y1="0" x2="12" y2="-12" stroke="#555" stroke-width="1.5"/>
      <circle cx="12" cy="-12" r="2.5" fill="#444"/>
      <line x1="-3" y1="22" x2="-3" y2="50" stroke="#444" stroke-width="2.5"/>
    </g>
  </g>

  <!-- ============ RADAR/ANTENNA ARRAY ============ -->
  <g transform="translate(150, 180)">
    <!-- Lattice tower -->
    <g stroke="#3a3c40" stroke-width="2.5" fill="none">
      <line x1="40" y1="370" x2="55" y2="60"/>
      <line x1="80" y1="370" x2="65" y2="60"/>
      <!-- Cross bracing -->
      <line x1="45" y1="120" x2="75" y2="180"/>
      <line x1="75" y1="120" x2="45" y2="180"/>
      <line x1="47" y1="200" x2="73" y2="260"/>
      <line x1="73" y1="200" x2="47" y2="260"/>
      <line x1="48" y1="280" x2="72" y2="340"/>
      <line x1="72" y1="280" x2="48" y2="340"/>
    </g>
    <!-- Horizontal platforms -->
    <rect x="38" y="115" width="44" height="4" fill="#3a3c40"/>
    <rect x="40" y="195" width="40" height="4" fill="#3a3c40"/>

    <!-- Radar dish with slow rotation -->
    <g transform="translate(60, 70)">
      <g>
        <animateTransform attributeName="transform" type="rotate" values="0;6;0;-6;0" dur="10s" repeatCount="indefinite"/>
        <ellipse rx="85" ry="28" fill="#3a3c40" transform="rotate(-12)"/>
        <ellipse rx="72" ry="22" fill="#2a2c30" transform="rotate(-12)"/>
        <!-- Feed horn -->
        <rect x="-4" y="0" width="8" height="40" fill="#333"/>
      </g>
    </g>

    <!-- Red warning light top -->
    <circle cx="60" cy="40" r="6" fill="#ff0000" filter="url(#strongGlow)">
      <animate attributeName="opacity" values="1;0.15;1" dur="1.8s" repeatCount="indefinite"/>
    </circle>
    <!-- Mid light -->
    <circle cx="60" cy="195" r="4" fill="#ff0000" filter="url(#glow)">
      <animate attributeName="opacity" values="0.2;1;0.2" dur="1.8s" repeatCount="indefinite"/>
    </circle>
  </g>

  <!-- ============ HANGAR B-7 ============ -->
  <g transform="translate(1280, 280)" filter="url(#shadow)">
    <!-- Quonset hut shape -->
    <path d="M0,270 L0,0 Q160,-60 320,0 L320,270 Z" fill="url(#buildingGrad)"/>
    <!-- Edge highlight -->
    <path d="M0,270 L0,0 Q160,-60 320,0" fill="none" stroke="rgba(150,170,200,0.04)" stroke-width="2"/>

    <!-- Hangar door -->
    <rect x="45" y="100" width="230" height="170" fill="#0e1010" rx="1"/>
    <!-- Door vertical guides -->
    <g stroke="#2a2a2a" stroke-width="2.5">
      <line x1="120" y1="100" x2="120" y2="270"/>
      <line x1="195" y1="100" x2="195" y2="270"/>
    </g>
    <!-- Warning stripes -->
    <g>
      <polygon points="45,100 65,100 45,120" fill="#ffaa00" opacity="0.6"/>
      <polygon points="65,100 85,100 65,120 45,120" fill="#ffaa00" opacity="0.6"/>
      <polygon points="255,100 275,100 275,120 255,120" fill="#ffaa00" opacity="0.6"/>
    </g>

    <!-- Drone silhouette barely visible inside -->
    <g transform="translate(115, 170)" opacity="0.2">
      <ellipse cx="45" cy="15" rx="55" ry="12" fill="#1a1a1a"/>
      <rect x="15" y="10" width="60" height="8" fill="#1a1a1a"/>
      <polygon points="-5,15 -35,8 -35,22" fill="#1a1a1a"/>
      <polygon points="95,15 125,8 125,22" fill="#1a1a1a"/>
    </g>

    <!-- Hangar ID -->
    <text x="95" y="295" fill="#555" font-family="'Courier New', monospace" font-size="20" letter-spacing="4">HANGAR B-7</text>
  </g>

  <!-- ============ GUARD TOWER ============ -->
  <g transform="translate(40, 320)">
    <!-- Tower legs -->
    <rect x="22" y="120" width="14" height="280" fill="#333"/>
    <rect x="64" y="120" width="14" height="280" fill="#333"/>
    <!-- Cross braces -->
    <line x1="28" y1="180" x2="72" y2="240" stroke="#3a3a3a" stroke-width="2"/>
    <line x1="72" y1="180" x2="28" y2="240" stroke="#3a3a3a" stroke-width="2"/>
    <line x1="28" y1="280" x2="72" y2="340" stroke="#3a3a3a" stroke-width="2"/>
    <line x1="72" y1="280" x2="28" y2="340" stroke="#3a3a3a" stroke-width="2"/>

    <!-- Guard cabin -->
    <rect x="0" y="55" width="100" height="70" fill="url(#concreteGrad)" filter="url(#shadow)"/>
    <!-- Roof -->
    <rect x="-5" y="48" width="110" height="10" fill="#3a3a40"/>
    <!-- Windows (dark, guard inside) -->
    <rect x="12" y="65" width="32" height="30" fill="#0a0c18" rx="1"/>
    <rect x="56" y="65" width="32" height="30" fill="#0a0c18" rx="1"/>
    <!-- Faint guard silhouette in window -->
    <path d="M62,90 Q72,75 82,90" fill="rgba(20,25,35,0.5)"/>

    <!-- Searchlight housing -->
    <g transform="translate(50, 50)">
      <rect x="-18" y="0" width="36" height="20" fill="#3a3a40" rx="3"/>
      <ellipse cx="0" cy="24" rx="14" ry="6" fill="rgba(255,255,240,0.7)" filter="url(#strongGlow)"/>

      <!-- Sweeping search beam -->
      <polygon points="-25,30 25,30 120,500 -120,500" fill="url(#searchBeam)" opacity="0.6">
        <animateTransform attributeName="transform" type="rotate" values="-25;25;-25" dur="7s" repeatCount="indefinite"/>
      </polygon>
    </g>

    <!-- Tower top red light -->
    <circle cx="50" cy="40" r="5" fill="#ff0000" filter="url(#strongGlow)">
      <animate attributeName="opacity" values="1;0.2;1" dur="1.3s" repeatCount="indefinite"/>
    </circle>
  </g>

  <!-- ============ SECURITY FENCE ============ -->
  <g transform="translate(0, 540)">
    <!-- Concrete base -->
    <rect width="1920" height="20" fill="#2a2a2a" y="130"/>

    <!-- Fence posts (heavy duty) -->
    <g fill="#444">
      <rect x="0" y="-20" width="12" height="170"/>
      <rect x="240" y="-20" width="12" height="170"/>
      <rect x="480" y="-20" width="12" height="170"/>
      <rect x="720" y="-20" width="12" height="170"/>
      <rect x="960" y="-20" width="12" height="170"/>
      <rect x="1200" y="-20" width="12" height="170"/>
      <rect x="1440" y="-20" width="12" height="170"/>
      <rect x="1680" y="-20" width="12" height="170"/>
      <rect x="1910" y="-20" width="12" height="170"/>
    </g>

    <!-- Chain link mesh -->
    <rect width="1920" height="130" fill="url(#fenceWire)" opacity="0.5"/>

    <!-- Horizontal tension wires -->
    <g stroke="#555" stroke-width="1.5">
      <line x1="0" y1="10" x2="1920" y2="10"/>
      <line x1="0" y1="65" x2="1920" y2="65"/>
      <line x1="0" y1="120" x2="1920" y2="120"/>
    </g>

    <!-- Razor wire coils on top -->
    <g stroke="#777" stroke-width="1.2" fill="none" opacity="0.7">
      <path d="M0,-15 Q15,-25 30,-15 Q45,-5 60,-15 Q75,-25 90,-15 Q105,-5 120,-15 Q135,-25 150,-15 Q165,-5 180,-15 Q195,-25 210,-15 Q225,-5 240,-15"/>
      <path d="M240,-15 Q255,-25 270,-15 Q285,-5 300,-15 Q315,-25 330,-15 Q345,-5 360,-15 Q375,-25 390,-15 Q405,-5 420,-15 Q435,-25 450,-15 Q465,-5 480,-15"/>
      <path d="M480,-15 Q495,-25 510,-15 Q525,-5 540,-15 Q555,-25 570,-15 Q585,-5 600,-15 Q615,-25 630,-15 Q645,-5 660,-15 Q675,-25 690,-15 Q705,-5 720,-15"/>
      <path d="M720,-15 Q735,-25 750,-15 Q765,-5 780,-15 Q795,-25 810,-15 Q825,-5 840,-15 Q855,-25 870,-15 Q885,-5 900,-15 Q915,-25 930,-15 Q945,-5 960,-15"/>
      <path d="M960,-15 Q975,-25 990,-15 Q1005,-5 1020,-15 Q1035,-25 1050,-15 Q1065,-5 1080,-15 Q1095,-25 1110,-15 Q1125,-5 1140,-15 Q1155,-25 1170,-15 Q1185,-5 1200,-15"/>
      <path d="M1200,-15 Q1215,-25 1230,-15 Q1245,-5 1260,-15 Q1275,-25 1290,-15 Q1305,-5 1320,-15 Q1335,-25 1350,-15 Q1365,-5 1380,-15 Q1395,-25 1410,-15 Q1425,-5 1440,-15"/>
      <path d="M1440,-15 Q1455,-25 1470,-15 Q1485,-5 1500,-15 Q1515,-25 1530,-15 Q1545,-5 1560,-15 Q1575,-25 1590,-15 Q1605,-5 1620,-15 Q1635,-25 1650,-15 Q1665,-5 1680,-15"/>
      <path d="M1680,-15 Q1695,-25 1710,-15 Q1725,-5 1740,-15 Q1755,-25 1770,-15 Q1785,-5 1800,-15 Q1815,-25 1830,-15 Q1845,-5 1860,-15 Q1875,-25 1890,-15 Q1905,-5 1920,-15"/>
    </g>

    <!-- Razor barb details (random metal glints) -->
    <g fill="#999" opacity="0.4">
      <circle cx="30" cy="-18" r="1.5"/>
      <circle cx="90" cy="-12" r="1.5"/>
      <circle cx="210" cy="-20" r="1.5"/>
      <circle cx="450" cy="-12" r="1.5"/>
      <circle cx="720" cy="-18" r="1.5"/>
      <circle cx="1050" cy="-14" r="1.5"/>
      <circle cx="1440" cy="-20" r="1.5"/>
      <circle cx="1680" cy="-16" r="1.5"/>
    </g>

    <!-- Sensor wires on fence (barely visible red) -->
    <line x1="0" y1="40" x2="1920" y2="40" stroke="rgba(255,0,0,0.08)" stroke-width="1"/>
    <line x1="0" y1="90" x2="1920" y2="90" stroke="rgba(255,0,0,0.08)" stroke-width="1"/>
  </g>

  <!-- ============ GROUND / ASPHALT ============ -->
  <rect y="690" width="1920" height="390" fill="url(#ground)"/>

  <!-- Wet asphalt patches (rain reflections) -->
  <g opacity="0.08">
    <ellipse cx="400" cy="800" rx="200" ry="30" fill="#4a6a8a"/>
    <ellipse cx="950" cy="820" rx="300" ry="25" fill="#4a6a8a"/>
    <ellipse cx="1500" cy="790" rx="180" ry="20" fill="#4a6a8a"/>
  </g>

  <!-- Road markings -->
  <g fill="#ffcc00" opacity="0.35">
    <rect x="0" y="850" width="55" height="4"/>
    <rect x="95" y="850" width="55" height="4"/>
    <rect x="190" y="850" width="55" height="4"/>
    <rect x="285" y="850" width="55" height="4"/>
    <rect x="380" y="850" width="55" height="4"/>
    <rect x="475" y="850" width="55" height="4"/>
    <rect x="570" y="850" width="55" height="4"/>
    <rect x="665" y="850" width="55" height="4"/>
    <rect x="760" y="850" width="55" height="4"/>
    <rect x="855" y="850" width="55" height="4"/>
    <rect x="950" y="850" width="55" height="4"/>
    <rect x="1045" y="850" width="55" height="4"/>
    <rect x="1140" y="850" width="55" height="4"/>
    <rect x="1235" y="850" width="55" height="4"/>
    <rect x="1330" y="850" width="55" height="4"/>
    <rect x="1425" y="850" width="55" height="4"/>
    <rect x="1520" y="850" width="55" height="4"/>
    <rect x="1615" y="850" width="55" height="4"/>
    <rect x="1710" y="850" width="55" height="4"/>
    <rect x="1805" y="850" width="55" height="4"/>
  </g>

  <!-- ============ WARNING SIGNS ============ -->
  <g transform="translate(480, 615)">
    <rect x="-4" y="0" width="8" height="120" fill="#444"/>
    <!-- Sign board -->
    <rect x="-65" y="-65" width="130" height="80" rx="3" fill="#cc0000" stroke="#ffcc00" stroke-width="3"/>
    <text x="0" y="-35" fill="#fff" font-family="'Courier New', monospace" font-size="13" font-weight="bold" text-anchor="middle">SPERRGEBIET</text>
    <text x="0" y="-18" fill="#fff" font-family="sans-serif" font-size="11" text-anchor="middle">BETRETEN</text>
    <text x="0" y="-4" fill="#fff" font-family="sans-serif" font-size="11" text-anchor="middle">VERBOTEN!</text>
  </g>

  <g transform="translate(1100, 635)">
    <rect x="-4" y="0" width="8" height="100" fill="#444"/>
    <rect x="-55" y="-55" width="110" height="65" rx="3" fill="#1a1a1a" stroke="#555" stroke-width="2"/>
    <text x="0" y="-30" fill="#ff3030" font-family="sans-serif" font-size="13" font-weight="bold" text-anchor="middle">⚠ ACHTUNG</text>
    <text x="0" y="-12" fill="#ccc" font-family="sans-serif" font-size="9" text-anchor="middle">MILITÄRISCHES</text>
    <text x="0" y="0" fill="#ccc" font-family="sans-serif" font-size="9" text-anchor="middle">SPERRGEBIET</text>
  </g>

  <!-- ============ SECURITY CAMERAS ============ -->
  <!-- Camera 1 (on fence post) -->
  <g transform="translate(350, 500)">
    <rect x="-4" y="0" width="8" height="45" fill="#3a3a3a"/>
    <rect x="-22" y="-18" width="44" height="24" fill="#2a2a2a" rx="3"/>
    <rect x="18" y="-14" width="28" height="14" fill="#1a1a1a" rx="2"/>
    <!-- Lens -->
    <circle cx="38" cy="-7" r="5" fill="#111" stroke="#333" stroke-width="1"/>
    <!-- Recording LED -->
    <circle cx="-12" cy="-6" r="4" fill="#ff0000" filter="url(#glow)">
      <animate attributeName="opacity" values="0.9;0.2;0.9" dur="2s" repeatCount="indefinite"/>
    </circle>
    <!-- IR illuminator -->
    <circle cx="-12" cy="-6" r="8" fill="rgba(255,0,0,0.05)" filter="url(#strongGlow)">
      <animate attributeName="opacity" values="0.05;0.15;0.05" dur="2s" repeatCount="indefinite"/>
    </circle>
  </g>

  <!-- Camera 2 -->
  <g transform="translate(1000, 510)">
    <rect x="-4" y="0" width="8" height="30" fill="#3a3a3a"/>
    <rect x="-20" y="-16" width="40" height="22" fill="#2a2a2a" rx="3"/>
    <rect x="16" y="-12" width="24" height="12" fill="#1a1a1a" rx="2"/>
    <circle cx="34" cy="-6" r="4" fill="#111" stroke="#333" stroke-width="1"/>
    <circle cx="-10" cy="-5" r="4" fill="#ff0000" filter="url(#glow)">
      <animate attributeName="opacity" values="0.2;0.9;0.2" dur="2s" repeatCount="indefinite"/>
    </circle>
  </g>

  <!-- ============ TRASH BIN (north entrance) ============ -->
  <g transform="translate(300, 650)">
    <ellipse cx="0" cy="88" rx="40" ry="8" fill="rgba(0,0,0,0.3)"/>
    <path d="M-35,8 L-30,78 L30,78 L35,8 Z" fill="#1e2a1e" stroke="#152015" stroke-width="2"/>
    <ellipse cx="0" cy="8" rx="38" ry="11" fill="#253525" stroke="#1e2a1e" stroke-width="2"/>
    <ellipse cx="0" cy="3" rx="30" ry="7" fill="#2a3a2a"/>
    <!-- Dent marks -->
    <path d="M-18,25 Q-15,40 -18,50" stroke="#152015" stroke-width="1.5" fill="none"/>
    <path d="M15,30 Q18,42 15,52" stroke="#152015" stroke-width="1.5" fill="none"/>
    <!-- Municipal mark -->
    <text x="-6" y="48" fill="#152015" font-family="sans-serif" font-size="11" font-weight="bold">M</text>
  </g>

  <!-- ============ GATE / CHECKPOINT ============ -->
  <g transform="translate(790, 540)">
    <!-- Gate pillars -->
    <rect x="0" y="0" width="28" height="200" fill="#404244" rx="2"/>
    <rect x="260" y="0" width="28" height="200" fill="#404244" rx="2"/>
    <!-- Pillar top lights -->
    <circle cx="14" cy="-8" r="5" fill="#ffaa00" filter="url(#glow)">
      <animate attributeName="opacity" values="0.7;1;0.7" dur="3s" repeatCount="indefinite"/>
    </circle>
    <circle cx="274" cy="-8" r="5" fill="#ffaa00" filter="url(#glow)">
      <animate attributeName="opacity" values="1;0.7;1" dur="3s" repeatCount="indefinite"/>
    </circle>

    <!-- Gate light pool on ground -->
    <ellipse cx="144" cy="200" rx="200" ry="40" fill="url(#gateLightGlow)" opacity="0.3"/>

    <!-- Barrier arm (animated red/white) -->
    <rect x="28" y="78" width="232" height="14" rx="3">
      <animate attributeName="fill" values="#cc0000;#ffcc00;#cc0000" dur="1.2s" repeatCount="indefinite"/>
    </rect>
    <rect x="28" y="92" width="232" height="10" fill="#fff" opacity="0.7"/>
    <!-- Stripes on arm -->
    <g fill="#cc0000" opacity="0.6">
      <rect x="60" y="78" width="20" height="14"/>
      <rect x="110" y="78" width="20" height="14"/>
      <rect x="160" y="78" width="20" height="14"/>
      <rect x="210" y="78" width="20" height="14"/>
    </g>

    <!-- Control booth -->
    <rect x="288" y="40" width="90" height="160" fill="url(#concreteGrad)" rx="2"/>
    <rect x="296" y="52" width="60" height="40" fill="#ffdd88" opacity="0.35"/>
    <rect x="296" y="110" width="60" height="35" fill="#1a1a20"/>
    <!-- Booth equipment glow -->
    <circle cx="310" cy="125" r="3" fill="#00ff00" opacity="0.4">
      <animate attributeName="opacity" values="0.4;0.8;0.4" dur="2s" repeatCount="indefinite"/>
    </circle>
    <text x="300" y="30" fill="#888" font-family="sans-serif" font-size="12" font-weight="bold">CHECKPOINT</text>
  </g>

  <!-- ============ COMMUNICATION TOWER ============ -->
  <g transform="translate(1700, 80)">
    <!-- Lattice structure -->
    <g stroke="#444" stroke-width="2.5" fill="none">
      <line x1="45" y1="0" x2="20" y2="520"/>
      <line x1="55" y1="0" x2="80" y2="520"/>
      <line x1="50" y1="0" x2="50" y2="520"/>
    </g>
    <g stroke="#3a3a3a" stroke-width="1.5">
      <line x1="25" y1="100" x2="75" y2="100"/>
      <line x1="28" y1="200" x2="72" y2="200"/>
      <line x1="30" y1="300" x2="70" y2="300"/>
      <line x1="33" y1="400" x2="67" y2="400"/>
    </g>

    <!-- Antenna arrays -->
    <rect x="30" y="45" width="40" height="25" fill="#2a2a30"/>
    <rect x="28" y="145" width="44" height="15" fill="#2a2a30"/>
    <rect x="32" y="245" width="36" height="15" fill="#2a2a30"/>

    <!-- Warning lights -->
    <circle cx="50" cy="8" r="7" fill="#ff0000" filter="url(#strongGlow)">
      <animate attributeName="opacity" values="1;0.15;1" dur="1s" repeatCount="indefinite"/>
    </circle>
    <circle cx="50" cy="250" r="4" fill="#ff0000" filter="url(#glow)">
      <animate attributeName="opacity" values="0.15;1;0.15" dur="1s" repeatCount="indefinite"/>
    </circle>
  </g>

  <!-- ============ MILITARY VEHICLE ============ -->
  <g transform="translate(1500, 775)">
    <!-- Body -->
    <rect y="28" width="210" height="62" fill="#2e3a2e" rx="5"/>
    <rect x="18" y="8" width="170" height="35" fill="#2e3a2e" rx="4"/>
    <!-- Windshield -->
    <rect x="28" y="12" width="55" height="24" fill="#1a2a20" rx="2"/>
    <!-- Cargo -->
    <rect x="100" y="12" width="78" height="24" fill="#253525" rx="2"/>
    <!-- Wheels -->
    <circle cx="42" cy="95" r="18" fill="#111"/>
    <circle cx="42" cy="95" r="10" fill="#2a2a2a"/>
    <circle cx="165" cy="95" r="18" fill="#111"/>
    <circle cx="165" cy="95" r="10" fill="#2a2a2a"/>
    <!-- Bundeswehr cross -->
    <g transform="translate(185, 48)" fill="#1a1a1a">
      <rect x="-7" y="-2" width="14" height="4"/>
      <rect x="-2" y="-7" width="4" height="14"/>
    </g>
    <!-- Headlights off but reflective -->
    <circle cx="5" cy="50" r="6" fill="rgba(255,255,200,0.03)"/>
  </g>

  <!-- ============ AMBIENT RED GLOW (security alert) ============ -->
  <ellipse cx="180" cy="380" rx="130" ry="180" fill="url(#redGlow)" opacity="0.12">
    <animate attributeName="opacity" values="0.12;0.05;0.12" dur="4s" repeatCount="indefinite"/>
  </ellipse>
  <ellipse cx="1720" cy="280" rx="80" ry="120" fill="url(#redGlow)" opacity="0.08">
    <animate attributeName="opacity" values="0.08;0.03;0.08" dur="3s" repeatCount="indefinite"/>
  </ellipse>

  <!-- ============ FACILITY NAME (ground stencil) ============ -->
  <g transform="translate(680, 945)">
    <rect x="-15" y="-28" width="530" height="55" fill="rgba(10,10,10,0.7)" rx="3"/>
    <text x="0" y="0" fill="#555" font-family="'Courier New', monospace" font-size="22" letter-spacing="5">STECKERDOSER HEIDE</text>
    <text x="30" y="18" fill="#444" font-family="sans-serif" font-size="11">BUNDESWEHR FORSCHUNGSGELÄNDE</text>
  </g>

  <!-- ============ RAIN OVERLAY ============ -->
  <rect width="1920" height="1080" fill="url(#rain)" opacity="0.7">
    <animateTransform attributeName="transform" type="translate" values="0,0;-10,30;0,0" dur="0.5s" repeatCount="indefinite"/>
  </rect>

  <!-- ============ CINEMATIC OVERLAYS ============ -->
  <!-- Vignette -->
  <rect width="1920" height="1080" fill="url(#vignette)"/>

  <!-- Film grain -->
  <rect width="1920" height="1080" fill="transparent" filter="url(#filmGrain)" opacity="0.04"/>

  <!-- Letterbox bars -->
  <rect x="0" y="0" width="1920" height="35" fill="rgba(0,0,0,0.8)"/>
  <rect x="0" y="1045" width="1920" height="35" fill="rgba(0,0,0,0.8)"/>

  <!-- Scan line -->
  <rect x="0" y="0" width="1920" height="2" fill="rgba(255,255,255,0.015)">
    <animateTransform attributeName="transform" type="translate" values="0,0;0,1080;0,0" dur="10s" repeatCount="indefinite"/>
  </rect>
</svg>
