<?xml version="1.0" encoding="UTF-8"?>
<svg xmlns="http://www.w3.org/2000/svg" viewBox="0 0 1920 1080">
  <defs>
    <!-- Projector screen glow -->
    <radialGradient id="screenGlow" cx="50%" cy="50%" r="65%">
      <stop offset="0%" stop-color="#E3F2FD" stop-opacity="0.15"/>
      <stop offset="100%" stop-color="#E3F2FD" stop-opacity="0"/>
    </radialGradient>
    <!-- Ceiling light -->
    <radialGradient id="classLightGlow" cx="50%" cy="0%" r="50%">
      <stop offset="0%" stop-color="#FFFDE7" stop-opacity="0.2"/>
      <stop offset="100%" stop-color="#FFFDE7" stop-opacity="0"/>
    </radialGradient>
    <!-- Laptop screen glow -->
    <linearGradient id="laptopScreen" x1="0" y1="0" x2="0" y2="1">
      <stop offset="0%" stop-color="#BBDEFB"/>
      <stop offset="100%" stop-color="#E3F2FD"/>
    </linearGradient>
    <!-- Whiteboard -->
    <linearGradient id="whiteboardGrad" x1="0" y1="0" x2="0" y2="1">
      <stop offset="0%" stop-color="#FAFAFA"/>
      <stop offset="100%" stop-color="#EEEEEE"/>
    </linearGradient>
  </defs>

  <!-- ================================================================ -->
  <!-- ===== ROOM — Old classroom with high ceiling ===== -->
  <!-- ================================================================ -->

  <!-- Back wall -->
  <rect x="0" y="0" width="1920" height="680" fill="#E0DDD8"/>
  <!-- Slight colour difference where old chalkboard used to be -->
  <rect x="300" y="100" width="1320" height="500" rx="4" fill="#D7D4CF" opacity="0.5"/>

  <!-- Side walls (perspective hint) -->
  <rect x="0" y="0" width="15" height="1080" fill="#D5D2CD"/>
  <rect x="1905" y="0" width="15" height="1080" fill="#D5D2CD"/>

  <!-- Floor (linoleum, old school) -->
  <rect x="0" y="680" width="1920" height="400" fill="#8D8070"/>
  <!-- Floor pattern (tiles) -->
  <g opacity="0.1">
    <line x1="0" y1="780" x2="1920" y2="780" stroke="#6D6050" stroke-width="1"/>
    <line x1="0" y1="880" x2="1920" y2="880" stroke="#6D6050" stroke-width="1"/>
    <line x1="0" y1="980" x2="1920" y2="980" stroke="#6D6050" stroke-width="1"/>
    <line x1="240" y1="680" x2="240" y2="1080" stroke="#6D6050" stroke-width="1"/>
    <line x1="480" y1="680" x2="480" y2="1080" stroke="#6D6050" stroke-width="1"/>
    <line x1="720" y1="680" x2="720" y2="1080" stroke="#6D6050" stroke-width="1"/>
    <line x1="960" y1="680" x2="960" y2="1080" stroke="#6D6050" stroke-width="1"/>
    <line x1="1200" y1="680" x2="1200" y2="1080" stroke="#6D6050" stroke-width="1"/>
    <line x1="1440" y1="680" x2="1440" y2="1080" stroke="#6D6050" stroke-width="1"/>
    <line x1="1680" y1="680" x2="1680" y2="1080" stroke="#6D6050" stroke-width="1"/>
  </g>

  <!-- Ceiling -->
  <rect x="0" y="0" width="1920" height="15" fill="#B0ADA8"/>

  <!-- High windows (left wall) -->
  <g>
    <rect x="150" y="50" width="100" height="180" rx="4" fill="#87CEEB" opacity="0.5"/>
    <line x1="200" y1="50" x2="200" y2="230" stroke="#B0BEC5" stroke-width="3"/>
    <line x1="150" y1="140" x2="250" y2="140" stroke="#B0BEC5" stroke-width="3"/>
    <rect x="150" y="50" width="100" height="180" rx="4" fill="none" stroke="#78909C" stroke-width="4"/>
    <rect x="150" y="280" width="100" height="180" rx="4" fill="#87CEEB" opacity="0.5"/>
    <line x1="200" y1="280" x2="200" y2="460" stroke="#B0BEC5" stroke-width="3"/>
    <line x1="150" y1="370" x2="250" y2="370" stroke="#B0BEC5" stroke-width="3"/>
    <rect x="150" y="280" width="100" height="180" rx="4" fill="none" stroke="#78909C" stroke-width="4"/>
  </g>
  <!-- Light beams from windows -->
  <g opacity="0.05">
    <polygon points="150,230 250,230 470,680 80,680" fill="#FFFDE7"/>
    <polygon points="150,460 250,460 470,680 80,680" fill="#FFFDE7"/>
  </g>

  <!-- ================================================================ -->
  <!-- ===== CEILING LIGHTS ===== -->
  <!-- ================================================================ -->
  <g>
    <g transform="translate(480, 0)">
      <line x1="0" y1="15" x2="0" y2="45" stroke="#333" stroke-width="2"/>
      <rect x="-50" y="45" width="100" height="10" rx="3" fill="#37474F"/>
      <rect x="-45" y="55" width="90" height="3" fill="#FFF9C4" opacity="0.9"/>
      <ellipse cx="0" cy="70" rx="70" ry="30" fill="url(#classLightGlow)"/>
    </g>
    <g transform="translate(960, 0)">
      <line x1="0" y1="15" x2="0" y2="45" stroke="#333" stroke-width="2"/>
      <rect x="-50" y="45" width="100" height="10" rx="3" fill="#37474F"/>
      <rect x="-45" y="55" width="90" height="3" fill="#FFF9C4" opacity="0.9"/>
      <ellipse cx="0" cy="70" rx="70" ry="30" fill="url(#classLightGlow)"/>
    </g>
    <g transform="translate(1440, 0)">
      <line x1="0" y1="15" x2="0" y2="45" stroke="#333" stroke-width="2"/>
      <rect x="-50" y="45" width="100" height="10" rx="3" fill="#37474F"/>
      <rect x="-45" y="55" width="90" height="3" fill="#FFF9C4" opacity="0.9"/>
      <ellipse cx="0" cy="70" rx="70" ry="30" fill="url(#classLightGlow)"/>
    </g>
  </g>

  <!-- ================================================================ -->
  <!-- ===== PROJECTOR SCREEN (front wall, large) ===== -->
  <!-- ================================================================ -->
  <g transform="translate(400, 110)">
    <!-- Screen housing -->
    <rect x="0" y="-10" width="1120" height="20" rx="4" fill="#455A64"/>
    <!-- Pull-down screen -->
    <rect x="10" y="10" width="1100" height="480" rx="2" fill="#F5F5F5"/>
    <rect x="10" y="10" width="1100" height="480" rx="2" fill="none" stroke="#BDBDBD" stroke-width="2"/>
    <!-- Screen content placeholder glow -->
    <rect x="30" y="30" width="1060" height="440" fill="url(#screenGlow)"/>
    <!-- Default slide content (will be conceptually overridden by scene dialogue) -->
    <text x="560" y="180" fill="#1565C0" font-family="'Courier New', monospace" font-size="42" font-weight="bold" text-anchor="middle">HACKERSPACE DRENTHE</text>
    <text x="560" y="230" fill="#37474F" font-family="sans-serif" font-size="22" text-anchor="middle">Presentation Night · Classroom</text>
    <line x1="360" y1="250" x2="760" y2="250" stroke="#1565C0" stroke-width="2" opacity="0.4"/>
    <!-- Topic list on screen -->
    <text x="560" y="290" fill="#455A64" font-family="sans-serif" font-size="16" text-anchor="middle">LoRa · LoRaWAN · Meshtastic · MeshCore</text>
    <text x="560" y="320" fill="#455A64" font-family="sans-serif" font-size="16" text-anchor="middle">Home Automation · Cybersecurity · Blockchain</text>
    <text x="560" y="350" fill="#455A64" font-family="sans-serif" font-size="16" text-anchor="middle">AI · Machine Learning · IoT</text>
    <text x="560" y="400" fill="#00897B" font-family="'Courier New', monospace" font-size="18" text-anchor="middle">▶ A different presentation every night</text>
    <!-- Projector beam (subtle) -->
    <polygon points="560,-80 530,10 590,10" fill="#FFFDE7" opacity="0.04"/>
  </g>

  <!-- Ceiling-mounted projector -->
  <g transform="translate(940, 25)">
    <rect x="-30" y="0" width="60" height="35" rx="4" fill="#37474F"/>
    <rect x="-25" y="35" width="50" height="20" rx="3" fill="#263238"/>
    <!-- Lens -->
    <circle cx="0" cy="45" r="8" fill="#1B2631"/>
    <circle cx="0" cy="45" r="4" fill="#42A5F5" opacity="0.3">
      <animate attributeName="opacity" values="0.3;0.5;0.3" dur="3s" repeatCount="indefinite"/>
    </circle>
    <!-- Mount arm -->
    <rect x="-5" y="-10" width="10" height="12" fill="#455A64"/>
  </g>

  <!-- ================================================================ -->
  <!-- ===== PRESENTER AREA ===== -->
  <!-- ================================================================ -->

  <!-- Presenter's table (front) -->
  <g transform="translate(750, 610)">
    <rect x="0" y="0" width="420" height="18" rx="3" fill="#5D4037"/>
    <rect x="10" y="18" width="8" height="60" fill="#4E342E"/>
    <rect x="402" y="18" width="8" height="60" fill="#4E342E"/>
    <!-- Laptop -->
    <g transform="translate(160, -30)">
      <!-- Screen -->
      <rect x="0" y="0" width="80" height="50" rx="3" fill="#263238"/>
      <rect x="4" y="4" width="72" height="42" rx="2" fill="url(#laptopScreen)"/>
      <!-- Slide content on laptop -->
      <text x="40" y="22" fill="#1565C0" font-family="monospace" font-size="6" text-anchor="middle">SLIDES</text>
      <rect x="15" y="28" width="50" height="3" rx="1" fill="#90CAF9"/>
      <rect x="20" y="34" width="40" height="2" rx="1" fill="#BBDEFB"/>
      <!-- Base -->
      <rect x="-5" y="50" width="90" height="5" rx="2" fill="#37474F"/>
      <!-- Keyboard area -->
      <rect x="5" y="52" width="70" height="2" fill="#455A64" opacity="0.5"/>
    </g>
    <!-- Clicker/pointer -->
    <rect x="280" y="-8" width="6" height="20" rx="3" fill="#212121"/>
    <!-- Water bottle -->
    <g transform="translate(80, -22)">
      <rect x="0" y="0" width="12" height="25" rx="4" fill="#42A5F5" opacity="0.4"/>
      <rect x="2" y="-3" width="8" height="5" rx="2" fill="#90CAF9" opacity="0.3"/>
    </g>
    <!-- Notes/papers -->
    <rect x="320" y="-10" width="50" height="35" rx="1" fill="#FFF9C4" opacity="0.6" transform="rotate(-5,345,-5)"/>
    <rect x="330" y="-8" width="45" height="30" rx="1" fill="#FFFFFF" opacity="0.7" transform="rotate(3,352,-3)"/>
  </g>

  <!-- ================================================================ -->
  <!-- ===== AUDIENCE SEATING — 4 rows of chairs with small tables ==== -->
  <!-- ================================================================ -->

  <!-- Row 1 (closest to screen) -->
  <g transform="translate(200, 710)">
    <!-- Folding tables -->
    <rect x="0" y="0" width="1520" height="10" rx="2" fill="#795548" opacity="0.7"/>
    <!-- Chairs (simple folding chairs) -->
    <g>
      <rect x="30" y="15" width="30" height="30" rx="3" fill="#455A64"/>
      <rect x="31" y="12" width="28" height="5" rx="2" fill="#546E7A"/>
      <rect x="140" y="15" width="30" height="30" rx="3" fill="#455A64"/>
      <rect x="141" y="12" width="28" height="5" rx="2" fill="#546E7A"/>
      <rect x="260" y="15" width="30" height="30" rx="3" fill="#455A64"/>
      <rect x="261" y="12" width="28" height="5" rx="2" fill="#546E7A"/>
      <rect x="400" y="15" width="30" height="30" rx="3" fill="#455A64"/>
      <rect x="401" y="12" width="28" height="5" rx="2" fill="#546E7A"/>
      <rect x="530" y="15" width="30" height="30" rx="3" fill="#455A64"/>
      <rect x="531" y="12" width="28" height="5" rx="2" fill="#546E7A"/>
      <rect x="670" y="15" width="30" height="30" rx="3" fill="#455A64"/>
      <rect x="671" y="12" width="28" height="5" rx="2" fill="#546E7A"/>
      <rect x="810" y="15" width="30" height="30" rx="3" fill="#455A64"/>
      <rect x="811" y="12" width="28" height="5" rx="2" fill="#546E7A"/>
      <rect x="960" y="15" width="30" height="30" rx="3" fill="#455A64"/>
      <rect x="961" y="12" width="28" height="5" rx="2" fill="#546E7A"/>
      <rect x="1100" y="15" width="30" height="30" rx="3" fill="#455A64"/>
      <rect x="1101" y="12" width="28" height="5" rx="2" fill="#546E7A"/>
      <rect x="1250" y="15" width="30" height="30" rx="3" fill="#455A64"/>
      <rect x="1251" y="12" width="28" height="5" rx="2" fill="#546E7A"/>
      <rect x="1400" y="15" width="30" height="30" rx="3" fill="#455A64"/>
      <rect x="1401" y="12" width="28" height="5" rx="2" fill="#546E7A"/>
    </g>
    <!-- Some laptops/notebooks on tables -->
    <rect x="55" y="-8" width="20" height="14" rx="2" fill="#263238" opacity="0.6"/>
    <rect x="56" y="-6" width="18" height="10" rx="1" fill="#BBDEFB" opacity="0.4"/>
    <rect x="420" y="-6" width="15" height="10" rx="1" fill="#FFF9C4" opacity="0.5"/>
    <rect x="830" y="-8" width="20" height="14" rx="2" fill="#263238" opacity="0.6"/>
    <rect x="831" y="-6" width="18" height="10" rx="1" fill="#BBDEFB" opacity="0.4"/>
    <rect x="1120" y="-6" width="15" height="10" rx="1" fill="#FFF9C4" opacity="0.5"/>
  </g>

  <!-- Row 2 -->
  <g transform="translate(200, 790)">
    <rect x="0" y="0" width="1520" height="10" rx="2" fill="#795548" opacity="0.7"/>
    <g>
      <rect x="60" y="15" width="30" height="30" rx="3" fill="#455A64"/>
      <rect x="61" y="12" width="28" height="5" rx="2" fill="#546E7A"/>
      <rect x="200" y="15" width="30" height="30" rx="3" fill="#455A64"/>
      <rect x="201" y="12" width="28" height="5" rx="2" fill="#546E7A"/>
      <rect x="350" y="15" width="30" height="30" rx="3" fill="#455A64"/>
      <rect x="351" y="12" width="28" height="5" rx="2" fill="#546E7A"/>
      <rect x="500" y="15" width="30" height="30" rx="3" fill="#455A64"/>
      <rect x="501" y="12" width="28" height="5" rx="2" fill="#546E7A"/>
      <rect x="650" y="15" width="30" height="30" rx="3" fill="#455A64"/>
      <rect x="651" y="12" width="28" height="5" rx="2" fill="#546E7A"/>
      <rect x="800" y="15" width="30" height="30" rx="3" fill="#455A64"/>
      <rect x="801" y="12" width="28" height="5" rx="2" fill="#546E7A"/>
      <rect x="960" y="15" width="30" height="30" rx="3" fill="#455A64"/>
      <rect x="961" y="12" width="28" height="5" rx="2" fill="#546E7A"/>
      <rect x="1120" y="15" width="30" height="30" rx="3" fill="#455A64"/>
      <rect x="1121" y="12" width="28" height="5" rx="2" fill="#546E7A"/>
      <rect x="1300" y="15" width="30" height="30" rx="3" fill="#455A64"/>
      <rect x="1301" y="12" width="28" height="5" rx="2" fill="#546E7A"/>
      <rect x="1440" y="15" width="30" height="30" rx="3" fill="#455A64"/>
      <rect x="1441" y="12" width="28" height="5" rx="2" fill="#546E7A"/>
    </g>
    <rect x="220" y="-8" width="20" height="14" rx="2" fill="#263238" opacity="0.6"/>
    <rect x="221" y="-6" width="18" height="10" rx="1" fill="#BBDEFB" opacity="0.4"/>
    <rect x="670" y="-6" width="15" height="10" rx="1" fill="#FFF9C4" opacity="0.5"/>
    <rect x="1140" y="-8" width="20" height="14" rx="2" fill="#263238" opacity="0.6"/>
    <rect x="1141" y="-6" width="18" height="10" rx="1" fill="#BBDEFB" opacity="0.4"/>
  </g>

  <!-- Row 3 -->
  <g transform="translate(200, 870)">
    <rect x="0" y="0" width="1520" height="10" rx="2" fill="#795548" opacity="0.7"/>
    <g>
      <rect x="40" y="15" width="30" height="30" rx="3" fill="#455A64"/>
      <rect x="41" y="12" width="28" height="5" rx="2" fill="#546E7A"/>
      <rect x="180" y="15" width="30" height="30" rx="3" fill="#455A64"/>
      <rect x="181" y="12" width="28" height="5" rx="2" fill="#546E7A"/>
      <rect x="320" y="15" width="30" height="30" rx="3" fill="#455A64"/>
      <rect x="321" y="12" width="28" height="5" rx="2" fill="#546E7A"/>
      <rect x="480" y="15" width="30" height="30" rx="3" fill="#455A64"/>
      <rect x="481" y="12" width="28" height="5" rx="2" fill="#546E7A"/>
      <rect x="640" y="15" width="30" height="30" rx="3" fill="#455A64"/>
      <rect x="641" y="12" width="28" height="5" rx="2" fill="#546E7A"/>
      <rect x="800" y="15" width="30" height="30" rx="3" fill="#455A64"/>
      <rect x="801" y="12" width="28" height="5" rx="2" fill="#546E7A"/>
      <rect x="980" y="15" width="30" height="30" rx="3" fill="#455A64"/>
      <rect x="981" y="12" width="28" height="5" rx="2" fill="#546E7A"/>
      <rect x="1160" y="15" width="30" height="30" rx="3" fill="#455A64"/>
      <rect x="1161" y="12" width="28" height="5" rx="2" fill="#546E7A"/>
      <rect x="1340" y="15" width="30" height="30" rx="3" fill="#455A64"/>
      <rect x="1341" y="12" width="28" height="5" rx="2" fill="#546E7A"/>
      <rect x="1480" y="15" width="30" height="30" rx="3" fill="#455A64"/>
      <rect x="1481" y="12" width="28" height="5" rx="2" fill="#546E7A"/>
    </g>
  </g>

  <!-- Row 4 (back row, furthest) -->
  <g transform="translate(200, 950)">
    <rect x="0" y="0" width="1520" height="10" rx="2" fill="#795548" opacity="0.7"/>
    <g>
      <rect x="80" y="15" width="30" height="30" rx="3" fill="#455A64"/>
      <rect x="81" y="12" width="28" height="5" rx="2" fill="#546E7A"/>
      <rect x="250" y="15" width="30" height="30" rx="3" fill="#455A64"/>
      <rect x="251" y="12" width="28" height="5" rx="2" fill="#546E7A"/>
      <rect x="430" y="15" width="30" height="30" rx="3" fill="#455A64"/>
      <rect x="431" y="12" width="28" height="5" rx="2" fill="#546E7A"/>
      <rect x="610" y="15" width="30" height="30" rx="3" fill="#455A64"/>
      <rect x="611" y="12" width="28" height="5" rx="2" fill="#546E7A"/>
      <rect x="800" y="15" width="30" height="30" rx="3" fill="#455A64"/>
      <rect x="801" y="12" width="28" height="5" rx="2" fill="#546E7A"/>
      <rect x="1000" y="15" width="30" height="30" rx="3" fill="#455A64"/>
      <rect x="1001" y="12" width="28" height="5" rx="2" fill="#546E7A"/>
      <rect x="1200" y="15" width="30" height="30" rx="3" fill="#455A64"/>
      <rect x="1201" y="12" width="28" height="5" rx="2" fill="#546E7A"/>
      <rect x="1400" y="15" width="30" height="30" rx="3" fill="#455A64"/>
      <rect x="1401" y="12" width="28" height="5" rx="2" fill="#546E7A"/>
    </g>
  </g>

  <!-- ================================================================ -->
  <!-- ===== WHITEBOARD (side wall, right) ===== -->
  <!-- ================================================================ -->
  <g transform="translate(1750, 150)">
    <rect x="0" y="0" width="150" height="350" rx="4" fill="url(#whiteboardGrad)" stroke="#BDBDBD" stroke-width="2"/>
    <!-- Whiteboard markers tray -->
    <rect x="10" y="350" width="130" height="12" rx="3" fill="#E0E0E0"/>
    <!-- Marker pens -->
    <rect x="20" y="345" width="6" height="18" rx="2" fill="#D32F2F"/>
    <rect x="35" y="345" width="6" height="18" rx="2" fill="#1565C0"/>
    <rect x="50" y="345" width="6" height="18" rx="2" fill="#2E7D32"/>
    <rect x="65" y="345" width="6" height="18" rx="2" fill="#212121"/>
    <!-- Some scribbles left from previous session -->
    <g opacity="0.15">
      <text x="30" y="50" fill="#1565C0" font-family="sans-serif" font-size="14" transform="rotate(-3,30,50)">IoT gateway</text>
      <text x="20" y="90" fill="#D32F2F" font-family="sans-serif" font-size="12">MQTT → Node-RED</text>
      <rect x="30" y="110" width="80" height="50" rx="3" fill="none" stroke="#2E7D32" stroke-width="1.5"/>
      <text x="70" y="140" fill="#2E7D32" font-family="monospace" font-size="10" text-anchor="middle">LoRa</text>
      <path d="M110,135 L130,120 L130,150" fill="none" stroke="#1565C0" stroke-width="1"/>
      <text x="40" y="200" fill="#212121" font-family="sans-serif" font-size="11">868 MHz EU</text>
      <text x="30" y="230" fill="#D32F2F" font-family="monospace" font-size="10">SF7-SF12</text>
      <text x="40" y="270" fill="#1565C0" font-family="sans-serif" font-size="12">chirp spread</text>
      <text x="30" y="300" fill="#2E7D32" font-family="sans-serif" font-size="10">spectrum</text>
    </g>
  </g>

  <!-- ================================================================ -->
  <!-- ===== POSTERS & DECORATIONS ===== -->
  <!-- ================================================================ -->

  <!-- Poster: "Open Source" (left wall, under window) -->
  <g transform="translate(155, 480)">
    <rect x="0" y="0" width="90" height="120" rx="3" fill="#1B5E20" opacity="0.8"/>
    <text x="45" y="30" fill="#00E676" font-family="'Courier New', monospace" font-size="11" font-weight="bold" text-anchor="middle">OPEN</text>
    <text x="45" y="50" fill="#00E676" font-family="'Courier New', monospace" font-size="11" font-weight="bold" text-anchor="middle">SOURCE</text>
    <text x="45" y="75" fill="#A5D6A7" font-family="sans-serif" font-size="8" text-anchor="middle">Sharing is</text>
    <text x="45" y="90" fill="#A5D6A7" font-family="sans-serif" font-size="8" text-anchor="middle">Caring</text>
    <!-- Tux penguin (simple) -->
    <circle cx="45" cy="108" r="8" fill="#FFD54F"/>
    <circle cx="45" cy="105" r="6" fill="#212121"/>
  </g>

  <!-- Poster: Meshtastic logo area -->
  <g transform="translate(1750, 550)">
    <rect x="0" y="0" width="140" height="90" rx="3" fill="#0D47A1" opacity="0.7"/>
    <text x="70" y="30" fill="#64B5F6" font-family="'Courier New', monospace" font-size="14" font-weight="bold" text-anchor="middle">MESHTASTIC</text>
    <text x="70" y="50" fill="#90CAF9" font-family="sans-serif" font-size="9" text-anchor="middle">Off-grid mesh network</text>
    <text x="70" y="65" fill="#90CAF9" font-family="sans-serif" font-size="9" text-anchor="middle">Long range · Low power</text>
    <!-- Simple mesh nodes -->
    <circle cx="30" cy="80" r="3" fill="#64B5F6"/>
    <circle cx="70" cy="78" r="3" fill="#64B5F6"/>
    <circle cx="110" cy="80" r="3" fill="#64B5F6"/>
    <line x1="30" y1="80" x2="70" y2="78" stroke="#64B5F6" stroke-width="1" opacity="0.5"/>
    <line x1="70" y1="78" x2="110" y2="80" stroke="#64B5F6" stroke-width="1" opacity="0.5"/>
    <line x1="30" y1="80" x2="110" y2="80" stroke="#64B5F6" stroke-width="0.5" opacity="0.3"/>
  </g>

  <!-- Hackerspace clock -->
  <g transform="translate(1800, 60)">
    <circle cx="0" cy="0" r="35" fill="#263238" stroke="#455A64" stroke-width="3"/>
    <circle cx="0" cy="0" r="2" fill="#CFD8DC"/>
    <!-- Clock hands -->
    <line x1="0" y1="0" x2="0" y2="-22" stroke="#CFD8DC" stroke-width="2.5" stroke-linecap="round">
      <animateTransform attributeName="transform" type="rotate" values="0,0,0;360,0,0" dur="720s" repeatCount="indefinite"/>
    </line>
    <line x1="0" y1="0" x2="15" y2="-15" stroke="#CFD8DC" stroke-width="1.5" stroke-linecap="round">
      <animateTransform attributeName="transform" type="rotate" values="0,0,0;360,0,0" dur="60s" repeatCount="indefinite"/>
    </line>
    <!-- Hour markers -->
    <g fill="#607D8B">
      <circle cx="0" cy="-28" r="2"/>
      <circle cx="24" cy="0" r="2"/>
      <circle cx="0" cy="28" r="2"/>
      <circle cx="-24" cy="0" r="2"/>
    </g>
  </g>

  <!-- ================================================================ -->
  <!-- ===== DOOR (back to workshop) ===== -->
  <!-- ================================================================ -->
  <g transform="translate(0, 420)">
    <!-- Door frame -->
    <rect x="0" y="0" width="60" height="260" rx="3" fill="#3E2723"/>
    <rect x="5" y="5" width="50" height="125" rx="2" fill="#5D4037"/>
    <rect x="5" y="135" width="50" height="120" rx="2" fill="#5D4037"/>
    <!-- Door handle -->
    <rect x="38" y="145" width="12" height="6" rx="2" fill="#B0BEC5"/>
    <!-- Sign -->
    <rect x="5" y="-22" width="50" height="18" rx="2" fill="#455A64"/>
    <text x="30" y="-8" fill="#CFD8DC" font-family="sans-serif" font-size="9" font-weight="bold" text-anchor="middle">← WORKSHOP</text>
  </g>

  <!-- ================================================================ -->
  <!-- ===== COFFEE CORNER (back of room) ===== -->
  <!-- ================================================================ -->
  <g transform="translate(1600, 620)">
    <!-- Small table -->
    <rect x="0" y="0" width="100" height="10" rx="2" fill="#5D4037"/>
    <rect x="5" y="10" width="6" height="50" fill="#4E342E"/>
    <rect x="89" y="10" width="6" height="50" fill="#4E342E"/>
    <!-- Thermos -->
    <rect x="15" y="-25" width="16" height="28" rx="5" fill="#D32F2F" opacity="0.8"/>
    <rect x="18" y="-30" width="10" height="8" rx="3" fill="#B71C1C"/>
    <!-- Cups -->
    <rect x="45" y="-12" width="12" height="14" rx="2" fill="#FAFAFA" stroke="#BDBDBD" stroke-width="1"/>
    <rect x="62" y="-12" width="12" height="14" rx="2" fill="#FAFAFA" stroke="#BDBDBD" stroke-width="1"/>
    <rect x="79" y="-12" width="12" height="14" rx="2" fill="#FAFAFA" stroke="#BDBDBD" stroke-width="1"/>
    <!-- Cookies plate -->
    <ellipse cx="50" cy="-18" rx="15" ry="5" fill="#D7CCC8" opacity="0.6"/>
    <circle cx="45" cy="-20" r="3" fill="#8D6E63" opacity="0.5"/>
    <circle cx="52" cy="-19" r="3" fill="#8D6E63" opacity="0.5"/>
    <circle cx="55" cy="-22" r="3" fill="#A1887F" opacity="0.4"/>
  </g>

  <!-- (People are dynamically placed by scene.js on each visit) -->

  <!-- ================================================================ -->
  <!-- ===== SUBTLE DUST / ATMOSPHERE ===== -->
  <!-- ================================================================ -->
  <g opacity="0.12">
    <circle cx="400" cy="400" r="2" fill="#FFF9C4">
      <animate attributeName="cy" values="400;340;400" dur="9s" repeatCount="indefinite"/>
    </circle>
    <circle cx="1100" cy="350" r="1.5" fill="#FFF9C4">
      <animate attributeName="cy" values="350;290;350" dur="11s" repeatCount="indefinite"/>
      <animate attributeName="cx" values="1100;1110;1100" dur="11s" repeatCount="indefinite"/>
    </circle>
    <circle cx="1500" cy="420" r="1.5" fill="#FFF9C4">
      <animate attributeName="cy" values="420;360;420" dur="8s" repeatCount="indefinite"/>
    </circle>
  </g>

</svg>