<?xml version="1.0" encoding="UTF-8"?>
<svg xmlns="http://www.w3.org/2000/svg" viewBox="0 0 1920 1080">
  <defs>
    <!-- === GRADIENTS === -->
    <linearGradient id="nightSkyGrad" x1="0%" y1="0%" x2="0%" y2="100%">
      <stop offset="0%" style="stop-color:#050510"/>
      <stop offset="40%" style="stop-color:#0d0d25"/>
      <stop offset="70%" style="stop-color:#151535"/>
      <stop offset="100%" style="stop-color:#1a1a3a"/>
    </linearGradient>
    <linearGradient id="stoneWallGrad" x1="0%" y1="0%" x2="0%" y2="100%">
      <stop offset="0%" style="stop-color:#5D5D5D"/>
      <stop offset="50%" style="stop-color:#4A4A4A"/>
      <stop offset="100%" style="stop-color:#3D3D3D"/>
    </linearGradient>
    <linearGradient id="darkStoneGrad" x1="0%" y1="0%" x2="0%" y2="100%">
      <stop offset="0%" style="stop-color:#3D3D3D"/>
      <stop offset="100%" style="stop-color:#2A2A2A"/>
    </linearGradient>
    <linearGradient id="groundGrad" x1="0%" y1="0%" x2="0%" y2="100%">
      <stop offset="0%" style="stop-color:#2D2D2D"/>
      <stop offset="100%" style="stop-color:#1A1A1A"/>
    </linearGradient>
    <linearGradient id="moonGrad" x1="0%" y1="0%" x2="100%" y2="100%">
      <stop offset="0%" style="stop-color:#F5F5DC"/>
      <stop offset="100%" style="stop-color:#E8E8C8"/>
    </linearGradient>
    <radialGradient id="moonGlow" cx="50%" cy="50%" r="50%">
      <stop offset="0%" style="stop-color:#F5F5DC;stop-opacity:0.35"/>
      <stop offset="60%" style="stop-color:#C0C0A0;stop-opacity:0.12"/>
      <stop offset="100%" style="stop-color:#F5F5DC;stop-opacity:0"/>
    </radialGradient>
    <radialGradient id="moonHalo" cx="50%" cy="50%" r="50%">
      <stop offset="0%" style="stop-color:#8888AA;stop-opacity:0.08"/>
      <stop offset="100%" style="stop-color:#8888AA;stop-opacity:0"/>
    </radialGradient>
    <radialGradient id="lampGlow" cx="50%" cy="50%" r="50%">
      <stop offset="0%" style="stop-color:#FFD54F;stop-opacity:0.6"/>
      <stop offset="50%" style="stop-color:#FFD54F;stop-opacity:0.2"/>
      <stop offset="100%" style="stop-color:#FFD54F;stop-opacity:0"/>
    </radialGradient>
    <radialGradient id="lampGlowFlicker" cx="50%" cy="50%" r="50%">
      <stop offset="0%" style="stop-color:#FFCC33;stop-opacity:0.7"/>
      <stop offset="30%" style="stop-color:#FFD54F;stop-opacity:0.4"/>
      <stop offset="70%" style="stop-color:#FF8800;stop-opacity:0.1"/>
      <stop offset="100%" style="stop-color:#FFD54F;stop-opacity:0"/>
    </radialGradient>
    <radialGradient id="redEyeGlow" cx="50%" cy="50%" r="50%">
      <stop offset="0%" style="stop-color:#FF2200;stop-opacity:0.9"/>
      <stop offset="40%" style="stop-color:#FF0000;stop-opacity:0.4"/>
      <stop offset="100%" style="stop-color:#FF0000;stop-opacity:0"/>
    </radialGradient>
    <linearGradient id="windowGlowGrad" x1="0%" y1="0%" x2="0%" y2="100%">
      <stop offset="0%" style="stop-color:#FFD54F;stop-opacity:0.4"/>
      <stop offset="100%" style="stop-color:#FFA000;stop-opacity:0.2"/>
    </linearGradient>
    <linearGradient id="fogGrad1" x1="0%" y1="0%" x2="100%" y2="0%">
      <stop offset="0%" style="stop-color:#8888AA;stop-opacity:0"/>
      <stop offset="30%" style="stop-color:#8888AA;stop-opacity:0.12"/>
      <stop offset="70%" style="stop-color:#8888AA;stop-opacity:0.12"/>
      <stop offset="100%" style="stop-color:#8888AA;stop-opacity:0"/>
    </linearGradient>
    <linearGradient id="fogGrad2" x1="0%" y1="0%" x2="100%" y2="0%">
      <stop offset="0%" style="stop-color:#9999BB;stop-opacity:0"/>
      <stop offset="40%" style="stop-color:#9999BB;stop-opacity:0.08"/>
      <stop offset="60%" style="stop-color:#9999BB;stop-opacity:0.08"/>
      <stop offset="100%" style="stop-color:#9999BB;stop-opacity:0"/>
    </linearGradient>
    <linearGradient id="vignetteH" x1="0%" y1="0%" x2="100%" y2="0%">
      <stop offset="0%" style="stop-color:#000;stop-opacity:0.7"/>
      <stop offset="15%" style="stop-color:#000;stop-opacity:0"/>
      <stop offset="85%" style="stop-color:#000;stop-opacity:0"/>
      <stop offset="100%" style="stop-color:#000;stop-opacity:0.7"/>
    </linearGradient>
    <linearGradient id="vignetteV" x1="0%" y1="0%" x2="0%" y2="100%">
      <stop offset="0%" style="stop-color:#000;stop-opacity:0.5"/>
      <stop offset="20%" style="stop-color:#000;stop-opacity:0"/>
      <stop offset="80%" style="stop-color:#000;stop-opacity:0"/>
      <stop offset="100%" style="stop-color:#000;stop-opacity:0.6"/>
    </linearGradient>
    <radialGradient id="vignetteRadial" cx="50%" cy="50%" r="55%">
      <stop offset="0%" style="stop-color:#000;stop-opacity:0"/>
      <stop offset="70%" style="stop-color:#000;stop-opacity:0"/>
      <stop offset="100%" style="stop-color:#000;stop-opacity:0.65"/>
    </radialGradient>
    <!-- Moon ray gradient -->
    <linearGradient id="moonRayGrad" x1="0%" y1="0%" x2="0%" y2="100%">
      <stop offset="0%" style="stop-color:#C0C0DD;stop-opacity:0.06"/>
      <stop offset="100%" style="stop-color:#C0C0DD;stop-opacity:0"/>
    </linearGradient>

    <!-- === FILTERS === -->
    <filter id="moonBlur">
      <feGaussianBlur stdDeviation="10"/>
    </filter>
    <filter id="shadow">
      <feDropShadow dx="5" dy="5" stdDeviation="8" flood-opacity="0.5"/>
    </filter>
    <filter id="glow">
      <feGaussianBlur stdDeviation="4" result="blur"/>
      <feMerge>
        <feMergeNode in="blur"/>
        <feMergeNode in="SourceGraphic"/>
      </feMerge>
    </filter>
    <filter id="strongGlow">
      <feGaussianBlur stdDeviation="8" result="blur"/>
      <feMerge>
        <feMergeNode in="blur"/>
        <feMergeNode in="SourceGraphic"/>
      </feMerge>
    </filter>
    <filter id="softGlow">
      <feGaussianBlur stdDeviation="3" result="blur"/>
      <feMerge>
        <feMergeNode in="blur"/>
        <feMergeNode in="SourceGraphic"/>
      </feMerge>
    </filter>
    <!-- Film grain noise -->
    <filter id="filmGrain" x="0%" y="0%" width="100%" height="100%">
      <feTurbulence type="fractalNoise" baseFrequency="0.85" numOctaves="4" stitchTiles="stitch" result="noise"/>
      <feColorMatrix type="saturate" values="0" in="noise" result="grayNoise"/>
      <feBlend in="SourceGraphic" in2="grayNoise" mode="multiply" result="blend"/>
      <feComponentTransfer in="blend">
        <feFuncA type="linear" slope="1"/>
      </feComponentTransfer>
    </filter>
    <!-- Fog blur -->
    <filter id="fogBlur">
      <feGaussianBlur stdDeviation="20"/>
    </filter>
    <filter id="mistBlur">
      <feGaussianBlur stdDeviation="12"/>
    </filter>
  </defs>

  <!-- ============ NIGHT SKY ============ -->
  <rect width="1920" height="1080" fill="url(#nightSkyGrad)"/>

  <!-- Nebula / faint clouds in sky -->
  <ellipse cx="400" cy="200" rx="350" ry="100" fill="#1a1a3a" opacity="0.15" filter="url(#fogBlur)"/>
  <ellipse cx="1300" cy="120" rx="280" ry="80" fill="#1a1a3a" opacity="0.1" filter="url(#fogBlur)"/>

  <!-- ============ STARS ============ -->
  <g fill="#fff">
    <!-- Bright stars with glow -->
    <circle cx="150" cy="80" r="2" filter="url(#glow)"/>
    <circle cx="350" cy="150" r="1.5" filter="url(#glow)"/>
    <circle cx="500" cy="60" r="2" filter="url(#glow)"/>
    <circle cx="700" cy="120" r="1.8" filter="url(#glow)"/>
    <circle cx="900" cy="50" r="2.2" filter="url(#glow)"/>
    <circle cx="1100" cy="100" r="1.5" filter="url(#glow)"/>
    <circle cx="1300" cy="180" r="2" filter="url(#glow)"/>
    <circle cx="1500" cy="70" r="1.8" filter="url(#glow)"/>
    <circle cx="1700" cy="130" r="2" filter="url(#glow)"/>

    <!-- Dim stars -->
    <circle cx="100" cy="200" r="1" opacity="0.5"/>
    <circle cx="250" cy="100" r="0.8" opacity="0.4"/>
    <circle cx="400" cy="220" r="1" opacity="0.6"/>
    <circle cx="550" cy="180" r="0.8" opacity="0.5"/>
    <circle cx="650" cy="250" r="1" opacity="0.4"/>
    <circle cx="800" cy="200" r="0.8" opacity="0.6"/>
    <circle cx="950" cy="150" r="1" opacity="0.5"/>
    <circle cx="1050" cy="220" r="0.8" opacity="0.4"/>
    <circle cx="1200" cy="80" r="1" opacity="0.6"/>
    <circle cx="1400" cy="250" r="0.8" opacity="0.5"/>
    <circle cx="1600" cy="200" r="1" opacity="0.4"/>
    <circle cx="1800" cy="250" r="0.8" opacity="0.6"/>
    <circle cx="60" cy="40" r="0.7" opacity="0.3"/>
    <circle cx="1760" cy="60" r="0.9" opacity="0.35"/>
    <circle cx="1850" cy="180" r="0.8" opacity="0.4"/>
    <circle cx="450" cy="300" r="0.6" opacity="0.25"/>
    <circle cx="1020" cy="30" r="0.9" opacity="0.5"/>

    <!-- Twinkling stars (slow eerie pulse) -->
    <circle cx="300" cy="50" r="1.2" opacity="0.8">
      <animate attributeName="opacity" values="0.8;0.2;0.8" dur="3.5s" repeatCount="indefinite"/>
    </circle>
    <circle cx="600" cy="90" r="1" opacity="0.7">
      <animate attributeName="opacity" values="0.7;0.1;0.7" dur="4.2s" repeatCount="indefinite"/>
    </circle>
    <circle cx="1000" cy="170" r="1.2" opacity="0.8">
      <animate attributeName="opacity" values="0.8;0.15;0.8" dur="5s" repeatCount="indefinite"/>
    </circle>
    <circle cx="1450" cy="120" r="1" opacity="0.7">
      <animate attributeName="opacity" values="0.7;0.1;0.7" dur="3s" repeatCount="indefinite"/>
    </circle>
    <circle cx="200" cy="280" r="0.8" opacity="0.6">
      <animate attributeName="opacity" values="0.6;0.05;0.6" dur="6s" repeatCount="indefinite"/>
    </circle>
    <circle cx="1550" cy="250" r="0.9" opacity="0.5">
      <animate attributeName="opacity" values="0.5;0.1;0.5" dur="4.8s" repeatCount="indefinite"/>
    </circle>
    <!-- Rare bright flash star -->
    <circle cx="820" cy="35" r="1.5" opacity="0" filter="url(#glow)">
      <animate attributeName="opacity" values="0;0;0;0.9;0;0;0" dur="12s" repeatCount="indefinite"/>
    </circle>
  </g>

  <!-- ============ MOON WITH PASSING CLOUDS ============ -->
  <!-- Moon halo (large atmospheric ring) -->
  <circle cx="1650" cy="150" r="200" fill="url(#moonHalo)">
    <animate attributeName="opacity" values="0.6;0.8;0.6" dur="8s" repeatCount="indefinite"/>
  </circle>
  <!-- Moon outer glow -->
  <circle cx="1650" cy="150" r="90" fill="url(#moonGlow)" filter="url(#moonBlur)"/>
  <!-- Moon disc -->
  <circle cx="1650" cy="150" r="50" fill="url(#moonGrad)"/>
  <!-- Moon craters -->
  <g fill="#D0D0B8" opacity="0.3">
    <circle cx="1635" cy="135" r="8"/>
    <circle cx="1665" cy="155" r="12"/>
    <circle cx="1640" cy="170" r="6"/>
    <circle cx="1670" cy="130" r="5"/>
    <circle cx="1628" cy="158" r="4"/>
  </g>
  <!-- Moon rays (volumetric light beams) -->
  <g opacity="0.06">
    <polygon points="1650,200 1500,1080 1550,1080" fill="#C0C0DD">
      <animate attributeName="opacity" values="1;0.5;1" dur="7s" repeatCount="indefinite"/>
    </polygon>
    <polygon points="1650,200 1700,1080 1780,1080" fill="#C0C0DD">
      <animate attributeName="opacity" values="0.7;1;0.7" dur="9s" repeatCount="indefinite"/>
    </polygon>
    <polygon points="1650,200 1350,1080 1420,1080" fill="#C0C0DD">
      <animate attributeName="opacity" values="0.5;0.8;0.5" dur="11s" repeatCount="indefinite"/>
    </polygon>
  </g>
  <!-- Passing cloud over moon (slow drift) -->
  <g opacity="0">
    <ellipse cx="1650" cy="150" rx="120" ry="35" fill="#0d0d25"/>
    <ellipse cx="1610" cy="140" rx="80" ry="28" fill="#0d0d25"/>
    <ellipse cx="1690" cy="160" rx="90" ry="25" fill="#0d0d25"/>
    <animate attributeName="opacity" values="0;0;0.6;0.7;0.6;0;0;0;0;0" dur="30s" repeatCount="indefinite"/>
    <animateTransform attributeName="transform" type="translate" values="-300,0;0,0;300,0" dur="30s" repeatCount="indefinite"/>
  </g>

  <!-- ============ DEAD TREES SILHOUETTES (far background) ============ -->
  <g fill="#0a0a15" opacity="0.7">
    <!-- Left dead tree -->
    <g transform="translate(30,320)">
      <rect x="-4" y="0" width="8" height="380" rx="2"/>
      <line x1="0" y1="60" x2="-45" y2="10" stroke="#0a0a15" stroke-width="5" stroke-linecap="round"/>
      <line x1="0" y1="120" x2="55" y2="50" stroke="#0a0a15" stroke-width="4" stroke-linecap="round"/>
      <line x1="0" y1="180" x2="-35" y2="140" stroke="#0a0a15" stroke-width="3" stroke-linecap="round"/>
      <line x1="-45" y1="10" x2="-65" y2="-15" stroke="#0a0a15" stroke-width="3" stroke-linecap="round"/>
      <line x1="55" y1="50" x2="75" y2="25" stroke="#0a0a15" stroke-width="2" stroke-linecap="round"/>
    </g>
    <!-- Right far tree -->
    <g transform="translate(1880,280)">
      <rect x="-5" y="0" width="10" height="420" rx="2"/>
      <line x1="0" y1="50" x2="50" y2="-10" stroke="#0a0a15" stroke-width="5" stroke-linecap="round"/>
      <line x1="0" y1="130" x2="-60" y2="70" stroke="#0a0a15" stroke-width="4" stroke-linecap="round"/>
      <line x1="0" y1="200" x2="40" y2="160" stroke="#0a0a15" stroke-width="3" stroke-linecap="round"/>
      <line x1="50" y1="-10" x2="70" y2="-35" stroke="#0a0a15" stroke-width="3" stroke-linecap="round"/>
      <line x1="-60" y1="70" x2="-80" y2="40" stroke="#0a0a15" stroke-width="2" stroke-linecap="round"/>
    </g>
  </g>

  <!-- ============ MONASTERY BUILDING ============ -->
  <!-- Main building left wing -->
  <g transform="translate(100, 200)">
    <rect width="400" height="500" fill="url(#stoneWallGrad)" filter="url(#shadow)"/>

    <!-- Stone texture -->
    <g stroke="#555" stroke-width="1" opacity="0.3">
      <line x1="0" y1="50" x2="400" y2="50"/>
      <line x1="0" y1="100" x2="400" y2="100"/>
      <line x1="0" y1="150" x2="400" y2="150"/>
      <line x1="0" y1="200" x2="400" y2="200"/>
      <line x1="0" y1="250" x2="400" y2="250"/>
      <line x1="0" y1="300" x2="400" y2="300"/>
      <line x1="0" y1="350" x2="400" y2="350"/>
      <line x1="0" y1="400" x2="400" y2="400"/>
      <line x1="0" y1="450" x2="400" y2="450"/>
    </g>

    <!-- Gothic windows with flickering interior light -->
    <g transform="translate(50, 80)">
      <path d="M0,150 L0,0 Q40,-40 80,0 L80,150 Z" fill="#1a1a2a" stroke="#3D3D3D" stroke-width="4"/>
      <path d="M5,145 L5,5 Q40,-30 75,5 L75,145 Z" fill="url(#windowGlowGrad)">
        <animate attributeName="opacity" values="1;0.6;0.8;1;0.7;1" dur="7s" repeatCount="indefinite"/>
      </path>
      <line x1="40" y1="-30" x2="40" y2="145" stroke="#3D3D3D" stroke-width="3"/>
      <line x1="5" y1="70" x2="75" y2="70" stroke="#3D3D3D" stroke-width="3"/>
    </g>

    <g transform="translate(170, 80)">
      <path d="M0,150 L0,0 Q40,-40 80,0 L80,150 Z" fill="#1a1a2a" stroke="#3D3D3D" stroke-width="4"/>
      <path d="M5,145 L5,5 Q40,-30 75,5 L75,145 Z" fill="url(#windowGlowGrad)">
        <animate attributeName="opacity" values="0.8;1;0.6;0.9;1;0.7" dur="5.5s" repeatCount="indefinite"/>
      </path>
      <line x1="40" y1="-30" x2="40" y2="145" stroke="#3D3D3D" stroke-width="3"/>
      <line x1="5" y1="70" x2="75" y2="70" stroke="#3D3D3D" stroke-width="3"/>
    </g>

    <g transform="translate(290, 80)">
      <path d="M0,150 L0,0 Q40,-40 80,0 L80,150 Z" fill="#1a1a2a" stroke="#3D3D3D" stroke-width="4"/>
      <path d="M5,145 L5,5 Q40,-30 75,5 L75,145 Z" fill="url(#windowGlowGrad)">
        <animate attributeName="opacity" values="0.7;0.9;1;0.5;0.8;1" dur="8s" repeatCount="indefinite"/>
      </path>
      <line x1="40" y1="-30" x2="40" y2="145" stroke="#3D3D3D" stroke-width="3"/>
      <line x1="5" y1="70" x2="75" y2="70" stroke="#3D3D3D" stroke-width="3"/>
    </g>

    <!-- Roof -->
    <polygon points="-20,0 200,-100 420,0" fill="url(#darkStoneGrad)"/>

    <!-- Gargoyle silhouette on roof edge -->
    <g transform="translate(350,-10)" fill="#2A2A2A">
      <path d="M0,0 L-8,-20 L-15,-15 L-12,-30 L-5,-25 L0,-35 L5,-25 L12,-30 L15,-15 L8,-20 Z"/>
      <rect x="-4" y="0" width="8" height="10"/>
    </g>
  </g>

  <!-- Central tower -->
  <g transform="translate(450, 50)">
    <rect y="100" width="250" height="600" fill="url(#stoneWallGrad)" filter="url(#shadow)"/>

    <!-- Tower top -->
    <polygon points="0,100 125,-50 250,100" fill="url(#darkStoneGrad)"/>

    <!-- Cross with eerie glow -->
    <g transform="translate(125, -80)" fill="#4A4A4A">
      <rect x="-5" y="0" width="10" height="50"/>
      <rect x="-20" y="10" width="40" height="10"/>
      <!-- Subtle cross glow -->
      <rect x="-7" y="-2" width="14" height="54" fill="#8888AA" opacity="0" filter="url(#softGlow)">
        <animate attributeName="opacity" values="0;0.15;0;0;0" dur="10s" repeatCount="indefinite"/>
      </rect>
    </g>

    <!-- Large rose window with pulsing glow -->
    <g transform="translate(50, 150)">
      <circle r="60" cx="75" cy="60" fill="#1a1a2a" stroke="#3D3D3D" stroke-width="5"/>
      <circle r="50" cx="75" cy="60" fill="url(#windowGlowGrad)">
        <animate attributeName="opacity" values="1;0.5;0.8;0.3;0.9;1" dur="12s" repeatCount="indefinite"/>
      </circle>
      <!-- Rose window pattern -->
      <g stroke="#3D3D3D" stroke-width="2" fill="none">
        <circle r="25" cx="75" cy="60"/>
        <line x1="75" y1="10" x2="75" y2="110"/>
        <line x1="25" y1="60" x2="125" y2="60"/>
        <line x1="40" y1="25" x2="110" y2="95"/>
        <line x1="40" y1="95" x2="110" y2="25"/>
      </g>
    </g>

    <!-- Main entrance (Gothic arch) -->
    <g transform="translate(50, 350)">
      <path d="M0,250 L0,0 Q75,-80 150,0 L150,250 Z" fill="#0a0a15"/>
      <path d="M10,240 L10,10 Q75,-60 140,10 L140,240 Z" fill="#1a1a25" stroke="#3D3D3D" stroke-width="3"/>

      <!-- Door -->
      <rect x="20" y="80" width="110" height="160" fill="#2a2a2a"/>
      <rect x="25" y="85" width="50" height="150" fill="#1a1a1a" stroke="#333" stroke-width="2"/>
      <rect x="80" y="85" width="50" height="150" fill="#1a1a1a" stroke="#333" stroke-width="2"/>

      <!-- Door handles -->
      <circle cx="70" cy="160" r="6" fill="#8B7355"/>
      <circle cx="85" cy="160" r="6" fill="#8B7355"/>

      <!-- Cobweb in arch corner -->
      <g stroke="#666" stroke-width="0.5" opacity="0.35" fill="none">
        <path d="M10,10 Q30,10 30,30"/>
        <path d="M10,10 Q25,15 25,35"/>
        <path d="M10,10 Q20,18 18,38"/>
        <path d="M10,10 Q15,22 12,40"/>
        <line x1="10" y1="10" x2="10" y2="40"/>
        <path d="M12,18 Q22,18 28,16"/>
        <path d="M11,28 Q18,27 24,24"/>
      </g>
    </g>

    <!-- Small windows on tower -->
    <g transform="translate(90, 280)">
      <path d="M0,50 L0,0 Q15,-15 30,0 L30,50 Z" fill="#1a1a2a" stroke="#3D3D3D" stroke-width="2"/>
    </g>
    <g transform="translate(130, 280)">
      <path d="M0,50 L0,0 Q15,-15 30,0 L30,50 Z" fill="#1a1a2a" stroke="#3D3D3D" stroke-width="2"/>
    </g>

    <!-- Gargoyle on tower -->
    <g transform="translate(20, 95)" fill="#3D3D3D">
      <path d="M0,0 L-20,-5 L-25,5 L-18,0 L-22,-12 L-10,-8 L0,0 Z"/>
    </g>
  </g>

  <!-- Main building right wing -->
  <g transform="translate(650, 200)">
    <rect width="400" height="500" fill="url(#stoneWallGrad)" filter="url(#shadow)"/>

    <!-- Stone texture -->
    <g stroke="#555" stroke-width="1" opacity="0.3">
      <line x1="0" y1="50" x2="400" y2="50"/>
      <line x1="0" y1="100" x2="400" y2="100"/>
      <line x1="0" y1="150" x2="400" y2="150"/>
      <line x1="0" y1="200" x2="400" y2="200"/>
      <line x1="0" y1="250" x2="400" y2="250"/>
      <line x1="0" y1="300" x2="400" y2="300"/>
      <line x1="0" y1="350" x2="400" y2="350"/>
      <line x1="0" y1="400" x2="400" y2="400"/>
      <line x1="0" y1="450" x2="400" y2="450"/>
    </g>

    <!-- Gothic windows with flickering light -->
    <g transform="translate(30, 80)">
      <path d="M0,150 L0,0 Q40,-40 80,0 L80,150 Z" fill="#1a1a2a" stroke="#3D3D3D" stroke-width="4"/>
      <path d="M5,145 L5,5 Q40,-30 75,5 L75,145 Z" fill="url(#windowGlowGrad)">
        <animate attributeName="opacity" values="1;0.7;0.9;0.5;1" dur="6s" repeatCount="indefinite"/>
      </path>
      <line x1="40" y1="-30" x2="40" y2="145" stroke="#3D3D3D" stroke-width="3"/>
      <line x1="5" y1="70" x2="75" y2="70" stroke="#3D3D3D" stroke-width="3"/>
    </g>

    <g transform="translate(150, 80)">
      <path d="M0,150 L0,0 Q40,-40 80,0 L80,150 Z" fill="#1a1a2a" stroke="#3D3D3D" stroke-width="4"/>
      <path d="M5,145 L5,5 Q40,-30 75,5 L75,145 Z" fill="url(#windowGlowGrad)">
        <animate attributeName="opacity" values="0.6;1;0.7;0.9;0.5;0.8" dur="9s" repeatCount="indefinite"/>
      </path>
      <line x1="40" y1="-30" x2="40" y2="145" stroke="#3D3D3D" stroke-width="3"/>
      <line x1="5" y1="70" x2="75" y2="70" stroke="#3D3D3D" stroke-width="3"/>
    </g>

    <g transform="translate(270, 80)">
      <path d="M0,150 L0,0 Q40,-40 80,0 L80,150 Z" fill="#1a1a2a" stroke="#3D3D3D" stroke-width="4"/>
      <path d="M5,145 L5,5 Q40,-30 75,5 L75,145 Z" fill="url(#windowGlowGrad)">
        <animate attributeName="opacity" values="0.9;0.5;1;0.6;0.8;1" dur="7.5s" repeatCount="indefinite"/>
      </path>
      <line x1="40" y1="-30" x2="40" y2="145" stroke="#3D3D3D" stroke-width="3"/>
      <line x1="5" y1="70" x2="75" y2="70" stroke="#3D3D3D" stroke-width="3"/>
    </g>

    <!-- Roof -->
    <polygon points="-20,0 200,-100 420,0" fill="url(#darkStoneGrad)"/>

    <!-- Gargoyle on right roof -->
    <g transform="translate(30,-10)" fill="#2A2A2A">
      <path d="M0,0 L8,-20 L15,-15 L12,-30 L5,-25 L0,-35 L-5,-25 L-12,-30 L-15,-15 L-8,-20 Z"/>
      <rect x="-4" y="0" width="8" height="10"/>
    </g>
  </g>

  <!-- ============ COURTYARD ============ -->
  <rect x="100" y="700" width="950" height="380" fill="url(#groundGrad)"/>

  <!-- Cobblestone pattern -->
  <g fill="#3A3A3A" opacity="0.5">
    <ellipse cx="200" cy="750" rx="30" ry="15"/>
    <ellipse cx="280" cy="760" rx="35" ry="18"/>
    <ellipse cx="370" cy="745" rx="32" ry="16"/>
    <ellipse cx="450" cy="770" rx="28" ry="14"/>
    <ellipse cx="540" cy="755" rx="34" ry="17"/>
    <ellipse cx="630" cy="780" rx="30" ry="15"/>
    <ellipse cx="720" cy="760" rx="35" ry="18"/>
    <ellipse cx="810" cy="745" rx="32" ry="16"/>
    <ellipse cx="900" cy="770" rx="28" ry="14"/>

    <ellipse cx="150" cy="820" rx="33" ry="16"/>
    <ellipse cx="250" cy="835" rx="30" ry="15"/>
    <ellipse cx="350" cy="810" rx="36" ry="18"/>
    <ellipse cx="460" cy="840" rx="32" ry="16"/>
    <ellipse cx="570" cy="825" rx="34" ry="17"/>
    <ellipse cx="680" cy="850" rx="30" ry="15"/>
    <ellipse cx="780" cy="830" rx="35" ry="18"/>
    <ellipse cx="880" cy="815" rx="32" ry="16"/>
    <ellipse cx="970" cy="845" rx="28" ry="14"/>
  </g>

  <!-- Wet cobblestone glints (moonlight reflections) -->
  <g fill="#8888BB" opacity="0">
    <ellipse cx="350" cy="810" rx="6" ry="2">
      <animate attributeName="opacity" values="0;0.2;0;0;0" dur="5s" repeatCount="indefinite"/>
    </ellipse>
    <ellipse cx="630" cy="780" rx="5" ry="2">
      <animate attributeName="opacity" values="0;0;0.15;0;0" dur="7s" repeatCount="indefinite"/>
    </ellipse>
    <ellipse cx="810" cy="745" rx="4" ry="1.5">
      <animate attributeName="opacity" values="0;0;0;0.2;0" dur="6s" repeatCount="indefinite"/>
    </ellipse>
    <ellipse cx="460" cy="840" rx="5" ry="2">
      <animate attributeName="opacity" values="0;0.18;0;0;0;0" dur="8s" repeatCount="indefinite"/>
    </ellipse>
  </g>

  <!-- ============ ANCIENT WELL ============ -->
  <g transform="translate(400, 750)">
    <!-- Well base -->
    <ellipse cx="75" cy="80" rx="80" ry="25" fill="#4A4A4A"/>
    <rect x="0" y="30" width="150" height="50" fill="url(#stoneWallGrad)"/>
    <ellipse cx="75" cy="30" rx="75" ry="22" fill="#5D5D5D"/>
    <ellipse cx="75" cy="30" rx="55" ry="16" fill="#050510"/>

    <!-- Well frame -->
    <rect x="20" y="-60" width="10" height="90" fill="#5D4037"/>
    <rect x="120" y="-60" width="10" height="90" fill="#5D4037"/>
    <rect x="15" y="-70" width="120" height="15" fill="#5D4037"/>

    <!-- Rope and bucket (swaying) -->
    <g>
      <line x1="75" y1="-55" x2="75" y2="10" stroke="#8D6E63" stroke-width="3"/>
      <rect x="60" y="10" width="30" height="20" fill="#5D4037"/>
      <animateTransform attributeName="transform" type="rotate" values="-1,75,-30;1,75,-30;-1,75,-30" dur="4s" repeatCount="indefinite"/>
    </g>

    <!-- Eerie green glow from inside well -->
    <ellipse cx="75" cy="30" rx="40" ry="12" fill="#225533" opacity="0" filter="url(#softGlow)">
      <animate attributeName="opacity" values="0;0;0.15;0.1;0;0;0;0;0;0" dur="15s" repeatCount="indefinite"/>
    </ellipse>
  </g>

  <!-- ============ LAMP POSTS (with dramatic flickering) ============ -->
  <g transform="translate(200, 600)">
    <rect x="-5" y="0" width="10" height="150" fill="#2A2A2A"/>
    <rect x="-20" y="-30" width="40" height="40" fill="#333"/>
    <rect x="-15" y="-25" width="30" height="30" fill="#FFD54F" filter="url(#strongGlow)">
      <animate attributeName="opacity" values="0.8;0.9;0.3;0.8;1;0.7;0.85;0.4;0.9;0.8" dur="4s" repeatCount="indefinite"/>
    </rect>
    <!-- Lamp glow pool on ground -->
    <circle cx="0" cy="-10" r="50" fill="url(#lampGlow)" opacity="0.5">
      <animate attributeName="opacity" values="0.5;0.6;0.2;0.5;0.65;0.4;0.55;0.25;0.6;0.5" dur="4s" repeatCount="indefinite"/>
    </circle>
    <ellipse cx="0" cy="155" rx="70" ry="20" fill="#FFD54F" opacity="0.04">
      <animate attributeName="opacity" values="0.04;0.06;0.01;0.04;0.05;0.03" dur="4s" repeatCount="indefinite"/>
    </ellipse>
    <!-- Moths circling lamp -->
    <circle cx="0" cy="-10" r="3" fill="#CCCCAA" opacity="0.4">
      <animateMotion path="M0,0 C15,-15 20,10 0,0 C-15,15 -20,-10 0,0" dur="2.5s" repeatCount="indefinite"/>
      <animate attributeName="opacity" values="0.4;0.1;0.4;0.3;0.1;0.4" dur="2.5s" repeatCount="indefinite"/>
    </circle>
    <circle cx="5" cy="-5" r="2" fill="#CCCCAA" opacity="0.3">
      <animateMotion path="M0,0 C-12,12 18,-8 0,0 C12,-18 -18,12 0,0" dur="3.2s" repeatCount="indefinite"/>
      <animate attributeName="opacity" values="0.3;0.05;0.3;0.15;0.3" dur="3.2s" repeatCount="indefinite"/>
    </circle>
  </g>

  <g transform="translate(850, 600)">
    <rect x="-5" y="0" width="10" height="150" fill="#2A2A2A"/>
    <rect x="-20" y="-30" width="40" height="40" fill="#333"/>
    <rect x="-15" y="-25" width="30" height="30" fill="#FFD54F" filter="url(#strongGlow)">
      <animate attributeName="opacity" values="1;0.75;0.9;0.4;0.8;1;0.6;0.85;0.95;1" dur="3.5s" repeatCount="indefinite"/>
    </rect>
    <circle cx="0" cy="-10" r="50" fill="url(#lampGlow)" opacity="0.5">
      <animate attributeName="opacity" values="0.5;0.35;0.55;0.2;0.45;0.5;0.3;0.5" dur="3.5s" repeatCount="indefinite"/>
    </circle>
    <ellipse cx="0" cy="155" rx="70" ry="20" fill="#FFD54F" opacity="0.04">
      <animate attributeName="opacity" values="0.04;0.02;0.05;0.01;0.04" dur="3.5s" repeatCount="indefinite"/>
    </ellipse>
    <!-- Moth -->
    <circle cx="0" cy="-10" r="2.5" fill="#CCCCAA" opacity="0.35">
      <animateMotion path="M0,0 C18,-10 -5,20 0,0 C-18,10 5,-20 0,0" dur="2.8s" repeatCount="indefinite"/>
      <animate attributeName="opacity" values="0.35;0.1;0.35;0.2;0.35" dur="2.8s" repeatCount="indefinite"/>
    </circle>
  </g>

  <!-- ============ STONE BENCH ============ -->
  <g transform="translate(600, 850)">
    <rect y="20" width="180" height="15" fill="#5D5D5D" filter="url(#shadow)"/>
    <rect x="10" y="35" width="30" height="30" fill="#4A4A4A"/>
    <rect x="140" y="35" width="30" height="30" fill="#4A4A4A"/>
    <rect x="5" y="10" width="170" height="15" fill="#6D6D6D"/>
  </g>

  <!-- ============ HEDGE/GARDEN ============ -->
  <g transform="translate(1100, 450)">
    <rect width="300" height="350" fill="#1a3d1a" filter="url(#shadow)"/>
    <ellipse cx="150" cy="0" rx="160" ry="60" fill="#2E5D2E"/>
    <ellipse cx="80" cy="20" rx="100" ry="50" fill="#1a4d1a"/>
    <ellipse cx="220" cy="20" rx="100" ry="50" fill="#1a4d1a"/>

    <!-- Hedge sway in wind -->
    <g>
      <ellipse cx="150" cy="-5" rx="155" ry="55" fill="#2a5a2a" opacity="0.4">
        <animateTransform attributeName="transform" type="translate" values="0,0;3,-1;0,0;-2,1;0,0" dur="6s" repeatCount="indefinite"/>
      </ellipse>
    </g>

    <!-- Entrance to hedge maze (darker, more ominous) -->
    <rect x="120" y="150" width="60" height="200" fill="#030308"/>
    <!-- Something moving in the maze? -->
    <rect x="135" y="200" width="30" height="3" fill="#1a1a1a" opacity="0">
      <animate attributeName="opacity" values="0;0;0;0;0.3;0;0;0;0;0;0;0" dur="20s" repeatCount="indefinite"/>
    </rect>
    <text x="130" y="400" fill="#555" font-family="serif" font-size="12">GARDEN →</text>
  </g>

  <!-- ============ MYSTERIOUS FIGURE SILHOUETTE (Eva) ============ -->
  <g transform="translate(750, 750)" opacity="0.7">
    <!-- Shadow figure -->
    <ellipse cx="0" cy="100" rx="25" ry="8" fill="#0a0a0a" opacity="0.5"/>
    <path d="M-15,100 L-20,40 Q0,-10 20,40 L15,100 Z" fill="#1a1a1a"/>
    <circle cy="30" r="12" fill="#1a1a1a"/>
    <!-- Breathing/swaying animation -->
    <animate attributeName="opacity" values="0.7;0.5;0.3;0.5;0.7" dur="6s" repeatCount="indefinite"/>
    <animateTransform attributeName="transform" type="translate" values="750,750;752,750;750,750;748,750;750,750" dur="8s" repeatCount="indefinite"/>
  </g>

  <!-- Second shadow glimpse (far background, appears rarely) -->
  <g transform="translate(1050, 680)" opacity="0">
    <path d="M0,40 L-6,15 Q0,-5 6,15 Z" fill="#0d0d0d"/>
    <circle cy="10" r="5" fill="#0d0d0d"/>
    <animate attributeName="opacity" values="0;0;0;0;0;0;0;0.25;0.3;0;0;0;0;0;0;0;0;0;0;0" dur="25s" repeatCount="indefinite"/>
  </g>

  <!-- ============ PARKING AREA ============ -->
  <g transform="translate(1450, 700)">
    <rect width="400" height="300" fill="#2a2a2a"/>

    <!-- Parked car (Ryan's Volvo) -->
    <g transform="translate(50, 100)">
      <rect y="30" width="150" height="50" fill="#1a1a1a" rx="5"/>
      <rect x="20" y="10" width="110" height="40" fill="#1a1a1a" rx="10"/>
      <rect x="30" y="15" width="40" height="25" fill="#4a6080" rx="3"/>
      <rect x="80" y="15" width="40" height="25" fill="#4a6080" rx="3"/>
      <ellipse cx="40" cy="85" rx="20" ry="10" fill="#1a1a1a"/>
      <ellipse cx="110" cy="85" rx="20" ry="10" fill="#1a1a1a"/>
      <!-- Headlights off -->
      <rect x="5" y="45" width="15" height="10" fill="#333" rx="2"/>
      <rect x="130" y="45" width="15" height="10" fill="#333" rx="2"/>
      <!-- Moonlight reflection on car roof -->
      <rect x="35" y="10" width="80" height="3" fill="#6666AA" opacity="0.1" rx="1">
        <animate attributeName="opacity" values="0.1;0.15;0.08;0.12;0.1" dur="7s" repeatCount="indefinite"/>
      </rect>
    </g>

    <!-- Another car (darker, abandoned feel) -->
    <g transform="translate(220, 120)" opacity="0.5">
      <rect y="30" width="120" height="40" fill="#222" rx="5"/>
      <rect x="15" y="15" width="90" height="30" fill="#222" rx="8"/>
    </g>

    <!-- Exit sign -->
    <rect x="350" y="50" width="40" height="60" fill="#333"/>
    <text x="355" y="85" fill="#888" font-family="sans-serif" font-size="10">EXIT</text>
    <text x="360" y="100" fill="#888" font-family="sans-serif" font-size="14">↓</text>
  </g>

  <!-- ============ BATS ============ -->
  <!-- Bat 1 - long swooping flight path -->
  <g opacity="0.6">
    <g>
      <path d="M0,-2 L-8,-6 L-12,-2 L-8,-3 L0,0 L8,-3 L12,-2 L8,-6 Z" fill="#0a0a0a"/>
      <animateMotion path="M500,100 C600,80 700,120 850,90 C1000,60 1100,130 1300,100 C1400,70 1500,110 1600,80 C1700,50 1800,100 1920,70 C1920,70 0,150 200,120 C300,100 400,130 500,100" dur="22s" repeatCount="indefinite"/>
    </g>
    <!-- Wing flap -->
    <animateTransform attributeName="transform" type="scale" values="1,1;1.1,0.7;1,1;0.9,1.2;1,1" dur="0.4s" repeatCount="indefinite"/>
  </g>
  <!-- Bat 2 - shorter erratic path near tower -->
  <g opacity="0.5">
    <g>
      <path d="M0,-1.5 L-6,-4 L-9,-1 L-6,-2 L0,0 L6,-2 L9,-1 L6,-4 Z" fill="#080808"/>
      <animateMotion path="M550,150 C580,120 620,170 580,200 C540,230 510,180 550,150" dur="5s" repeatCount="indefinite"/>
    </g>
    <animateTransform attributeName="transform" type="scale" values="1,1;1.15,0.6;1,1;0.85,1.3;1,1" dur="0.35s" repeatCount="indefinite"/>
  </g>
  <!-- Bat 3 - far background, slower -->
  <g opacity="0.3">
    <g>
      <path d="M0,-1 L-5,-3 L-7,-1 L-5,-1.5 L0,0 L5,-1.5 L7,-1 L5,-3 Z" fill="#0a0a0a"/>
      <animateMotion path="M100,200 C300,180 500,220 700,190 C900,160 1100,210 1300,180 C1500,150 1700,200 1900,170 C1900,170 -100,250 100,200" dur="35s" repeatCount="indefinite"/>
    </g>
    <animateTransform attributeName="transform" type="scale" values="1,1;1.1,0.7;1,1" dur="0.5s" repeatCount="indefinite"/>
  </g>

  <!-- ============ OWL SILHOUETTE ON ROOF ============ -->
  <g transform="translate(980, 175)" fill="#1a1a1a">
    <!-- Owl body -->
    <ellipse cx="0" cy="0" rx="12" ry="16"/>
    <!-- Ear tufts -->
    <polygon points="-10,-14 -7,-22 -4,-14"/>
    <polygon points="4,-14 7,-22 10,-14"/>
    <!-- Eyes (occasionally blink / glow) -->
    <circle cx="-5" cy="-4" r="3" fill="#FFD54F" opacity="0.6">
      <animate attributeName="opacity" values="0.6;0.6;0.6;0;0.6;0.6;0.6;0.6;0.6;0.6;0.6;0;0;0.6" dur="8s" repeatCount="indefinite"/>
    </circle>
    <circle cx="5" cy="-4" r="3" fill="#FFD54F" opacity="0.6">
      <animate attributeName="opacity" values="0.6;0.6;0.6;0;0.6;0.6;0.6;0.6;0.6;0.6;0.6;0;0;0.6" dur="8s" repeatCount="indefinite"/>
    </circle>
    <circle cx="-5" cy="-4" r="1.5" fill="#111"/>
    <circle cx="5" cy="-4" r="1.5" fill="#111"/>
    <!-- Occasional head rotation -->
    <animateTransform attributeName="transform" type="rotate" values="0,980,175;0,980,175;0,980,175;-15,980,175;0,980,175;0,980,175;0,980,175;0,980,175;12,980,175;0,980,175;0,980,175" dur="12s" repeatCount="indefinite"/>
  </g>

  <!-- ============ DRIFTING FOG LAYERS ============ -->
  <!-- Low ground fog - slow drift left to right -->
  <g filter="url(#mistBlur)">
    <ellipse cx="300" cy="900" rx="400" ry="50" fill="#8888AA" opacity="0.08">
      <animateTransform attributeName="transform" type="translate" values="0,0;200,5;0,0;-150,-5;0,0" dur="20s" repeatCount="indefinite"/>
      <animate attributeName="opacity" values="0.08;0.12;0.06;0.1;0.08" dur="20s" repeatCount="indefinite"/>
    </ellipse>
    <ellipse cx="800" cy="930" rx="500" ry="60" fill="#8888AA" opacity="0.06">
      <animateTransform attributeName="transform" type="translate" values="0,0;-180,8;0,0;220,-3;0,0" dur="25s" repeatCount="indefinite"/>
      <animate attributeName="opacity" values="0.06;0.1;0.04;0.08;0.06" dur="25s" repeatCount="indefinite"/>
    </ellipse>
    <ellipse cx="1400" cy="880" rx="350" ry="45" fill="#8888AA" opacity="0.07">
      <animateTransform attributeName="transform" type="translate" values="0,0;150,-5;0,0;-200,8;0,0" dur="18s" repeatCount="indefinite"/>
      <animate attributeName="opacity" values="0.07;0.04;0.09;0.05;0.07" dur="18s" repeatCount="indefinite"/>
    </ellipse>
  </g>

  <!-- Mid-level mist wisps -->
  <g filter="url(#fogBlur)">
    <ellipse cx="500" cy="750" rx="250" ry="30" fill="#7777AA" opacity="0.05">
      <animateTransform attributeName="transform" type="translate" values="0,0;100,0;200,0;100,0;0,0" dur="30s" repeatCount="indefinite"/>
      <animate attributeName="opacity" values="0.05;0.03;0.07;0.04;0.05" dur="30s" repeatCount="indefinite"/>
    </ellipse>
    <ellipse cx="1200" cy="720" rx="200" ry="25" fill="#7777AA" opacity="0.04">
      <animateTransform attributeName="transform" type="translate" values="0,0;-120,0;0,0;80,0;0,0" dur="22s" repeatCount="indefinite"/>
    </ellipse>
  </g>

  <!-- ============ FLOATING DUST/PARTICLES IN LAMPLIGHT ============ -->
  <g>
    <circle cx="200" cy="590" r="1" fill="#FFD54F" opacity="0.15">
      <animateMotion path="M0,0 C10,-20 -15,-40 5,-60 C20,-80 -10,-100 0,-120" dur="8s" repeatCount="indefinite"/>
      <animate attributeName="opacity" values="0.15;0.05;0.15;0.1;0.15" dur="8s" repeatCount="indefinite"/>
    </circle>
    <circle cx="210" cy="580" r="0.8" fill="#FFD54F" opacity="0.1">
      <animateMotion path="M0,0 C-8,-15 12,-35 -5,-55 C-15,-75 8,-95 0,-110" dur="10s" repeatCount="indefinite"/>
      <animate attributeName="opacity" values="0.1;0.02;0.1;0.06;0.1" dur="10s" repeatCount="indefinite"/>
    </circle>
    <circle cx="850" cy="585" r="1" fill="#FFD54F" opacity="0.12">
      <animateMotion path="M0,0 C-12,-18 8,-38 -3,-58 C12,-78 -8,-98 0,-115" dur="9s" repeatCount="indefinite"/>
      <animate attributeName="opacity" values="0.12;0.04;0.12;0.08;0.12" dur="9s" repeatCount="indefinite"/>
    </circle>
  </g>

  <!-- ============ MUSEUM SIGN ============ -->
  <g transform="translate(1050, 680)">
    <rect width="200" height="40" fill="#333" filter="url(#shadow)"/>
    <text x="15" y="27" fill="#ccc" font-family="serif" font-size="16">TER APEL KLOOSTER</text>
  </g>

  <!-- ============ SHADOW MOVEMENT ON WALL ============ -->
  <!-- Undefined shadow that slides across the left wall - could be a tree branch, or... -->
  <g transform="translate(100,200)" opacity="0" clip-path="inset(0)">
    <g>
      <path d="M50,200 Q80,180 60,150 Q90,130 70,100 Q100,80 80,50 Q110,30 90,10 L95,10 Q115,30 95,55 Q120,80 95,105 Q130,130 100,155 Q110,180 85,200 Z" fill="#000" opacity="0.15"/>
      <animateTransform attributeName="transform" type="translate" values="-100,0;400,0" dur="40s" repeatCount="indefinite"/>
    </g>
    <animate attributeName="opacity" values="0;0;0;0.5;0.7;0.5;0;0;0;0" dur="40s" repeatCount="indefinite"/>
  </g>

  <!-- ============ WIND-BLOWN LEAVES ============ -->
  <g>
    <!-- Leaf 1 -->
    <path d="M0,0 Q3,-4 6,0 Q3,4 0,0" fill="#3a3520" opacity="0.5">
      <animateMotion path="M100,600 C200,580 350,620 500,590 C650,560 800,600 950,580" dur="12s" repeatCount="indefinite"/>
      <animateTransform attributeName="transform" type="rotate" values="0;90;180;270;360" dur="3s" repeatCount="indefinite"/>
      <animate attributeName="opacity" values="0.5;0.3;0.5;0.4;0.5" dur="12s" repeatCount="indefinite"/>
    </path>
    <!-- Leaf 2 -->
    <path d="M0,0 Q2,-3 4,0 Q2,3 0,0" fill="#2a2518" opacity="0.4">
      <animateMotion path="M1600,500 C1400,520 1200,490 1000,510 C800,530 600,500 400,520" dur="15s" repeatCount="indefinite"/>
      <animateTransform attributeName="transform" type="rotate" values="45;135;225;315;45" dur="2.5s" repeatCount="indefinite"/>
      <animate attributeName="opacity" values="0.4;0.2;0.4;0.3;0.4" dur="15s" repeatCount="indefinite"/>
    </path>
    <!-- Leaf 3 - tumbling near ground -->
    <path d="M0,0 Q4,-3 8,0 Q4,3 0,0" fill="#332d1a" opacity="0.35">
      <animateMotion path="M200,850 C300,845 400,855 500,848 C600,842 700,852 800,846" dur="10s" repeatCount="indefinite"/>
      <animateTransform attributeName="transform" type="rotate" values="0;120;240;360" dur="1.8s" repeatCount="indefinite"/>
    </path>
  </g>

  <!-- ============ CROWS ON ROOFTOPS ============ -->
  <g fill="#060608">
    <!-- Crow 1 - perched on left wing roof, ruffles feathers -->
    <g transform="translate(270,193)">
      <path d="M0,0 C-3,-4 -7,-5 -10,-3 L-13,-1 L-10,1 C-6,3 -1,4 3,3 C6,2 8,0 6,-2 C4,-4 2,-3 0,0Z"/>
      <path d="M-13,-1 L-16,-3 L-14,0"/>
      <circle cx="-10" cy="-3" r="0.6" fill="#1a1a1a"/>
      <animateTransform attributeName="transform" type="scale"
        values="1,1;1,1;1,1;1,1;1.04,0.93;1,1.05;1,1;1,1;1,1;1,1"
        dur="7s" repeatCount="indefinite"/>
    </g>
    <!-- Crow 2 - perched on left wing roof, turns head -->
    <g transform="translate(320,196)">
      <path d="M0,0 C-3,-4 -7,-5 -10,-3 L-13,-1 L-10,1 C-6,3 -1,4 3,3 C6,2 8,0 6,-2 C4,-4 2,-3 0,0Z"/>
      <path d="M-13,-1 L-16,-3 L-14,0"/>
      <circle cx="-10" cy="-3" r="0.6" fill="#1a1a1a"/>
      <animateTransform attributeName="transform" type="rotate"
        values="0;0;0;0;-12;0;0;0;0;10;0;0;0;0;0;0"
        dur="11s" repeatCount="indefinite"/>
    </g>
    <!-- Crow 3 - right wing roof, vanishes when taking flight -->
    <g transform="translate(730,194)">
      <path d="M0,0 C-3,-4 -7,-5 -10,-3 L-13,-1 L-10,1 C-6,3 -1,4 3,3 C6,2 8,0 6,-2 C4,-4 2,-3 0,0Z"/>
      <path d="M-13,-1 L-16,-3 L-14,0"/>
      <circle cx="-10" cy="-3" r="0.6" fill="#1a1a1a"/>
      <animate attributeName="opacity"
        values="1;1;1;1;1;1;1;1;1;1;1;0;0;0;0;0;0;0;0;1"
        dur="45s" repeatCount="indefinite"/>
    </g>
    <!-- Crow 4 - tower ledge near cross, caws (head bobs) -->
    <g transform="translate(555,148)">
      <path d="M0,0 C-3,-4 -7,-5 -10,-3 L-13,-1 L-10,1 C-6,3 -1,4 3,3 C6,2 8,0 6,-2 C4,-4 2,-3 0,0Z"/>
      <path d="M-13,-1 L-16,-3 L-14,0"/>
      <circle cx="-10" cy="-3" r="0.6" fill="#1a1a1a"/>
      <animateTransform attributeName="transform" type="rotate"
        values="0;0;0;0;0;0;0;0;0;0;0;0;0;18;-5;15;-3;10;0;0;0;0;0;0;0;0;0;0;0;0;0;0;0;0;0"
        dur="18s" repeatCount="indefinite"/>
    </g>
  </g>

  <!-- Crow 3 in flight (synced with perched crow 3 vanishing) -->
  <g opacity="0" fill="#060608">
    <g>
      <path d="M0,0 L-16,-6 L-22,-1 L-16,-3 L0,2 L16,-3 L22,-1 L16,-6 Z"/>
      <animateTransform attributeName="transform" type="scale"
        values="1,1;1.1,0.55;1,1;0.9,1.3;1,1" dur="0.45s" repeatCount="indefinite"/>
    </g>
    <animate attributeName="opacity"
      values="0;0;0;0;0;0;0;0;0;0;0;0.7;0.65;0.6;0.5;0.4;0.3;0.15;0;0"
      dur="45s" repeatCount="indefinite"/>
    <animateMotion
      path="M730,194 C710,170 640,135 560,110 C470,85 370,105 260,130 C150,155 50,120 -80,140"
      dur="45s" repeatCount="indefinite"/>
  </g>

  <!-- Distant crow flock crossing sky (rare, ominous V-formation) -->
  <g opacity="0" fill="#0a0a0a">
    <g>
      <path d="M0,0 L-6,-2.5 L-8,0 L-6,-1 L0,1.5 L6,-1 L8,0 L6,-2.5Z"/>
      <path d="M-20,-9 L-25,-11 L-26.5,-9 L-25,-9.5 L-20,-7.5 L-15,-9.5 L-13.5,-9 L-15,-11Z"/>
      <path d="M22,-8 L17,-10 L15.5,-8 L17,-8.5 L22,-6.5 L27,-8.5 L28.5,-8 L27,-10Z"/>
      <path d="M-38,-19 L-42,-20.5 L-43,-19 L-42,-19.3 L-38,-17.5 L-34,-19.3 L-33,-19 L-34,-20.5Z" opacity="0.7"/>
      <path d="M40,-18 L36,-19.5 L35,-18 L36,-18.3 L40,-16.5 L44,-18.3 L45,-18 L44,-19.5Z" opacity="0.7"/>
      <path d="M-54,-30 L-57,-31 L-57.5,-30 L-57,-30.2 L-54,-29 L-51,-30.2 L-50.5,-30 L-51,-31Z" opacity="0.5"/>
      <path d="M56,-28 L53,-29 L52.5,-28 L53,-28.2 L56,-27 L59,-28.2 L59.5,-28 L59,-29Z" opacity="0.5"/>
      <animateTransform attributeName="transform" type="scale"
        values="1,1;1.05,0.65;1,1;0.95,1.25;1,1" dur="0.5s" repeatCount="indefinite"/>
    </g>
    <animate attributeName="opacity"
      values="0;0;0;0;0;0;0;0;0;0;0;0;0;0;0;0;0;0;0.35;0.45;0.5;0.5;0.5;0.45;0.35;0;0;0;0;0;0;0;0;0;0;0;0;0;0;0"
      dur="65s" repeatCount="indefinite"/>
    <animateMotion path="M2100,160 L-200,210" dur="65s" repeatCount="indefinite"/>
  </g>

  <!-- ============ WOLF CROSSING ============ -->
  <!-- Lone wolf silhouette slowly crossing the foreground -->
  <g opacity="0">
    <g fill="#0a0a10">
      <!-- Wolf body facing left -->
      <ellipse cx="0" cy="-14" rx="30" ry="11"/>
      <!-- Head -->
      <ellipse cx="-32" cy="-20" rx="14" ry="10" transform="rotate(-8,-32,-20)"/>
      <!-- Snout -->
      <path d="M-44,-22 Q-52,-19 -48,-15 Q-44,-12 -40,-16 Z"/>
      <!-- Ears -->
      <polygon points="-34,-30 -30,-42 -27,-30"/>
      <polygon points="-27,-30 -24,-41 -21,-29"/>
      <!-- Bushy tail held low -->
      <path d="M28,-8 C36,-6 42,-10 46,-18 C48,-22 44,-18 40,-14 C36,-10 30,-12 28,-10Z"/>
      <path d="M30,-9 C38,-7 44,-11 47,-16" fill="none" stroke="#0a0a10" stroke-width="5" stroke-linecap="round"/>
      <!-- Front-left leg (forward phase) -->
      <g>
        <rect x="-22" y="-5" width="5" height="18" rx="2" fill="#0a0a10"/>
        <animateTransform attributeName="transform" type="rotate"
          values="15 -19.5 -5;-15 -19.5 -5;15 -19.5 -5" dur="0.8s" repeatCount="indefinite"/>
      </g>
      <!-- Front-right leg (backward phase) -->
      <g>
        <rect x="-12" y="-5" width="5" height="18" rx="2" fill="#0a0a10"/>
        <animateTransform attributeName="transform" type="rotate"
          values="-15 -9.5 -5;15 -9.5 -5;-15 -9.5 -5" dur="0.8s" repeatCount="indefinite"/>
      </g>
      <!-- Rear-left leg (backward phase) -->
      <g>
        <rect x="12" y="-5" width="5" height="18" rx="2" fill="#0a0a10"/>
        <animateTransform attributeName="transform" type="rotate"
          values="-12 14.5 -5;12 14.5 -5;-12 14.5 -5" dur="0.8s" repeatCount="indefinite"/>
      </g>
      <!-- Rear-right leg (forward phase) -->
      <g>
        <rect x="22" y="-5" width="5" height="18" rx="2" fill="#0a0a10"/>
        <animateTransform attributeName="transform" type="rotate"
          values="12 24.5 -5;-12 24.5 -5;12 24.5 -5" dur="0.8s" repeatCount="indefinite"/>
      </g>
      <!-- Amber eye -->
      <circle cx="-38" cy="-22" r="1.5" fill="#FFAA00" opacity="0.8"/>
      <circle cx="-38" cy="-22" r="5" fill="#FF8800" opacity="0.12" filter="url(#softGlow)"/>
    </g>
    <!-- Subtle walking bob -->
    <animateTransform attributeName="transform" type="translate"
      values="0,0;0,-2;0,0;0,-2;0,0" dur="0.8s" repeatCount="indefinite"/>
    <!-- Crosses right-to-left, visible ~18s out of 90s cycle -->
    <animate attributeName="opacity"
      values="0;0;0;0;0;0;0;0;0;0;0;0;0;0;0;0;0;0;0;0;0;0;0;0;0;0;0;0;0;0;0;0;0.3;0.5;0.6;0.6;0.6;0.6;0.6;0.6;0.6;0.6;0.5;0.3;0;0;0;0;0;0"
      dur="90s" repeatCount="indefinite"/>
    <animateMotion path="M2050,880 L-150,880" dur="90s" repeatCount="indefinite"/>
  </g>

  <!-- ============ RED EYES IN HEDGE MAZE ============ -->
  <!-- Something watches from the dark entrance of the hedge maze -->
  <g transform="translate(1250,660)" opacity="0">
    <circle cx="-5" cy="0" r="2.5" fill="url(#redEyeGlow)"/>
    <circle cx="5" cy="0" r="2.5" fill="url(#redEyeGlow)"/>
    <circle cx="-5" cy="0" r="1.2" fill="#FF2200"/>
    <circle cx="5" cy="0" r="1.2" fill="#FF2200"/>
    <!-- Appear very briefly with a slow blink -->
    <animate attributeName="opacity"
      values="0;0;0;0;0;0;0;0;0;0;0;0;0;0;0;0;0;0;0;0;0;0;0;0;0;0;0;0;0;0;0;0;0;0;0;0;0;0;0.5;0.7;0.8;0.7;0.3;0;0;0;0;0;0;0"
      dur="55s" repeatCount="indefinite"/>
  </g>

  <!-- ============ DISTANT LIGHTNING ============ -->
  <!-- Rare heat lightning flash on the horizon -->
  <rect x="0" y="0" width="1920" height="500" fill="#9999DD" opacity="0">
    <animate attributeName="opacity"
      values="0;0;0;0;0;0;0;0;0;0;0;0;0;0;0;0;0;0;0;0;0;0;0;0;0;0;0;0;0;0;0;0;0;0;0;0;0;0.06;0.1;0.03;0.08;0;0;0;0;0;0;0;0;0"
      dur="75s" repeatCount="indefinite"/>
  </rect>
  <!-- Lightning bolt silhouette (brief) -->
  <g opacity="0">
    <path d="M260,50 L240,120 L260,115 L235,200 L265,140 L248,148 L270,80 Z" fill="#CCCCFF" filter="url(#softGlow)"/>
    <animate attributeName="opacity"
      values="0;0;0;0;0;0;0;0;0;0;0;0;0;0;0;0;0;0;0;0;0;0;0;0;0;0;0;0;0;0;0;0;0;0;0;0;0;0.5;0.8;0;0.4;0;0;0;0;0;0;0;0;0"
      dur="75s" repeatCount="indefinite"/>
  </g>

  <!-- ============ CREAKING IRON GATE ============ -->
  <!-- Old iron gate at courtyard edge, swaying in wind -->
  <g transform="translate(88,700)">
    <!-- Gate post -->
    <rect x="0" y="-5" width="5" height="55" fill="#3a3a3a"/>
    <circle cx="2.5" cy="-5" r="4" fill="#3a3a3a"/>
    <!-- Swinging gate -->
    <g transform-origin="2.5 0">
      <rect x="5" y="3" width="45" height="2.5" fill="#2a2a2a"/>
      <rect x="5" y="15" width="45" height="2.5" fill="#2a2a2a"/>
      <rect x="5" y="27" width="45" height="2.5" fill="#2a2a2a"/>
      <rect x="5" y="39" width="45" height="2.5" fill="#2a2a2a"/>
      <rect x="18" y="1" width="2" height="43" fill="#2a2a2a"/>
      <rect x="32" y="1" width="2" height="43" fill="#2a2a2a"/>
      <!-- Spear tips -->
      <polygon points="17,0 19,0 18,-5" fill="#2a2a2a"/>
      <polygon points="31,0 33,0 32,-5" fill="#2a2a2a"/>
      <polygon points="46,0 50,0 48,-5" fill="#2a2a2a"/>
      <!-- Creaking swing -->
      <animateTransform attributeName="transform" type="rotate"
        values="0,2.5,0;0,2.5,0;0,2.5,0;0,2.5,0;-3,2.5,0;-5,2.5,0;-3,2.5,0;2,2.5,0;-1,2.5,0;0,2.5,0;0,2.5,0;0,2.5,0;0,2.5,0;0,2.5,0;0,2.5,0;0,2.5,0;0,2.5,0;0,2.5,0;0,2.5,0;0,2.5,0"
        dur="22s" repeatCount="indefinite"/>
    </g>
  </g>

  <!-- ============ ATMOSPHERIC OVERLAYS ============ -->
  <!-- Film grain -->
  <rect width="1920" height="1080" fill="#000" opacity="0.03" filter="url(#filmGrain)"/>

  <!-- Ambient darkness overlay -->
  <rect width="1920" height="1080" fill="url(#nightSkyGrad)" opacity="0.15"/>

  <!-- Vignette (radial) -->
  <rect width="1920" height="1080" fill="url(#vignetteRadial)"/>
  <!-- Vignette (horizontal edges) -->
  <rect width="1920" height="1080" fill="url(#vignetteH)" opacity="0.5"/>
  <!-- Vignette (vertical edges) -->
  <rect width="1920" height="1080" fill="url(#vignetteV)" opacity="0.4"/>

  <!-- Scan line overlay (subtle) -->
  <g opacity="0.02">
    <line x1="0" y1="0" x2="1920" y2="0" stroke="#000" stroke-width="1"/>
    <line x1="0" y1="3" x2="1920" y2="3" stroke="#000" stroke-width="1"/>
    <line x1="0" y1="6" x2="1920" y2="6" stroke="#000" stroke-width="1"/>
    <line x1="0" y1="9" x2="1920" y2="9" stroke="#000" stroke-width="1"/>
    <line x1="0" y1="12" x2="1920" y2="12" stroke="#000" stroke-width="1"/>
  </g>

  <!-- Letterbox bars (cinematic) -->
  <rect x="0" y="0" width="1920" height="40" fill="#000" opacity="0.8"/>
  <rect x="0" y="1040" width="1920" height="40" fill="#000" opacity="0.8"/>

</svg>
