<svg xmlns="http://www.w3.org/2000/svg" viewBox="0 0 1200 800" width="1200" height="800">
  <!-- Living room scene - Enhanced South Park style -->
  
  <defs>
    <!-- Gradients for depth -->
    <linearGradient id="wallGradient" x1="0%" y1="0%" x2="0%" y2="100%">
      <stop offset="0%" style="stop-color:#F5E6D3;stop-opacity:1" />
      <stop offset="100%" style="stop-color:#E8DCC0;stop-opacity:1" />
    </linearGradient>
    
    <linearGradient id="floorGradient" x1="0%" y1="0%" x2="0%" y2="100%">
      <stop offset="0%" style="stop-color:#9B8568;stop-opacity:1" />
      <stop offset="100%" style="stop-color:#8B7355;stop-opacity:1" />
    </linearGradient>
    
    <linearGradient id="couchGradient" x1="0%" y1="0%" x2="0%" y2="100%">
      <stop offset="0%" style="stop-color:#A0522D;stop-opacity:1" />
      <stop offset="50%" style="stop-color:#8B4513;stop-opacity:1" />
      <stop offset="100%" style="stop-color:#6B3410;stop-opacity:1" />
    </linearGradient>
    
    <linearGradient id="chairGradient" x1="0%" y1="0%" x2="0%" y2="100%">
      <stop offset="0%" style="stop-color:#8B5A3C;stop-opacity:1" />
      <stop offset="50%" style="stop-color:#654321;stop-opacity:1" />
      <stop offset="100%" style="stop-color:#4A2F1A;stop-opacity:1" />
    </linearGradient>
    
    <radialGradient id="tvGlow" cx="50%" cy="50%" r="50%">
      <stop offset="0%" style="stop-color:#4A90E2;stop-opacity:0.3" />
      <stop offset="100%" style="stop-color:#001a33;stop-opacity:0" />
    </radialGradient>
    
    <linearGradient id="tvFrame" x1="0%" y1="0%" x2="0%" y2="100%">
      <stop offset="0%" style="stop-color:#3A3A3A;stop-opacity:1" />
      <stop offset="100%" style="stop-color:#1A1A1A;stop-opacity:1" />
    </linearGradient>
  </defs>
  
  <!-- Background wall with gradient -->
  <rect x="0" y="0" width="1200" height="600" fill="url(#wallGradient)"/>
  
  <!-- Baseboard -->
  <rect x="0" y="580" width="1200" height="20" fill="#8B7355" stroke="#5C4033" stroke-width="2"/>
  
  <!-- Floor with gradient -->
  <rect x="0" y="600" width="1200" height="200" fill="url(#floorGradient)"/>
  
  <!-- Door to kitchen (left side) -->
  <g id="doorToKitchen">
    <!-- Door frame -->
    <rect x="10" y="380" width="110" height="220" rx="8" fill="#654321" stroke="#3D2817" stroke-width="5"/>
    <!-- Door panel -->
    <rect x="20" y="390" width="90" height="200" rx="5" fill="#8B6F47" stroke="#654321" stroke-width="3"/>
    <!-- Door panels detail -->
    <rect x="30" y="405" width="70" height="75" rx="3" fill="#A0826D" stroke="#654321" stroke-width="2"/>
    <rect x="30" y="495" width="70" height="85" rx="3" fill="#A0826D" stroke="#654321" stroke-width="2"/>
    <!-- Door handle -->
    <ellipse cx="95" cy="490" rx="6" ry="8" fill="#C0C0C0" stroke="#888" stroke-width="2"/>
    <circle cx="95" cy="490" r="3" fill="#FFD700"/>
    <!-- Door shadow -->
    <rect x="15" y="395" width="8" height="190" fill="#000" opacity="0.2"/>
  </g>
  
  <!-- Enhanced wood floor planks with depth -->
  <g id="floorPlanks">
    <line x1="0" y1="630" x2="1200" y2="630" stroke="#6B5845" stroke-width="3" opacity="0.8"/>
    <line x1="0" y1="660" x2="1200" y2="660" stroke="#7B6855" stroke-width="2" opacity="0.6"/>
    <line x1="0" y1="690" x2="1200" y2="690" stroke="#6B5845" stroke-width="3" opacity="0.8"/>
    <line x1="0" y1="720" x2="1200" y2="720" stroke="#7B6855" stroke-width="2" opacity="0.6"/>
    <line x1="0" y1="750" x2="1200" y2="750" stroke="#6B5845" stroke-width="3" opacity="0.8"/>
    <line x1="0" y1="780" x2="1200" y2="780" stroke="#7B6855" stroke-width="2" opacity="0.6"/>
    
    <!-- Vertical wood planks variation -->
    <line x1="150" y1="600" x2="150" y2="800" stroke="#6B5845" stroke-width="2" opacity="0.5"/>
    <line x1="350" y1="600" x2="350" y2="800" stroke="#6B5845" stroke-width="2" opacity="0.5"/>
    <line x1="550" y1="600" x2="550" y2="800" stroke="#6B5845" stroke-width="2" opacity="0.5"/>
    <line x1="750" y1="600" x2="750" y2="800" stroke="#6B5845" stroke-width="2" opacity="0.5"/>
    <line x1="950" y1="600" x2="950" y2="800" stroke="#6B5845" stroke-width="2" opacity="0.5"/>
  </g>
  
  <!-- Enhanced window with better frame -->
  <g id="window">
    <!-- Window frame outer -->
    <rect x="40" y="90" width="220" height="270" rx="8" fill="#654321" stroke="#3D2817" stroke-width="5"/>
    <!-- Window glass -->
    <rect x="55" y="105" width="190" height="240" rx="5" fill="#87CEEB" stroke="#5C8FB7" stroke-width="3"/>
    <!-- Sky reflection -->
    <rect x="60" y="110" width="85" height="110" fill="#A0D5F5" opacity="0.6"/>
    <!-- Window cross bars (South Park style) -->
    <line x1="150" y1="105" x2="150" y2="345" stroke="#654321" stroke-width="8"/>
    <line x1="55" y1="225" x2="245" y2="225" stroke="#654321" stroke-width="8"/>
    <!-- Glass highlights -->
    <rect x="65" y="115" width="30" height="40" fill="#FFFFFF" opacity="0.4"/>
    <rect x="160" y="120" width="25" height="35" fill="#FFFFFF" opacity="0.4"/>
  </g>
  
  <!-- Enhanced curtains -->
  <g id="curtains">
    <path d="M 35 85 Q 42 110 35 140 Q 42 170 35 200 Q 42 230 35 260 Q 42 290 35 320 Q 42 350 35 365 L 52 365 L 52 85 Z" 
          fill="#A0522D" stroke="#654321" stroke-width="3" opacity="0.85"/>
    <path d="M 265 85 Q 258 110 265 140 Q 258 170 265 200 Q 258 230 265 260 Q 258 290 265 320 Q 258 350 265 365 L 248 365 L 248 85 Z" 
          fill="#A0522D" stroke="#654321" stroke-width="3" opacity="0.85"/>
    <!-- Curtain rod -->
    <rect x="25" y="80" width="255" height="8" rx="4" fill="#654321" stroke="#3D2817" stroke-width="2"/>
  </g>
  
  <!-- Enhanced TV setup -->
  <g id="television">
    <!-- TV outer frame with gradient -->
    <rect x="440" y="140" width="400" height="300" rx="12" fill="url(#tvFrame)" stroke="#000" stroke-width="6"/>
    <!-- TV bezel -->
    <rect x="455" y="155" width="370" height="270" rx="8" fill="#1a1a1a" stroke="#0D0D0D" stroke-width="3"/>
    <!-- TV screen glow effect -->
    <ellipse cx="640" cy="290" rx="200" ry="150" fill="url(#tvGlow)"/>
    <!-- TV screen -->
    <rect x="470" y="170" width="340" height="240" rx="5" fill="#001a33" stroke="#00274D" stroke-width="2"/>
    
    <!-- Enhanced documentary content -->
    <g id="documentary">
      <!-- Background -->
      <rect x="475" y="175" width="330" height="230" fill="#001a33"/>
      
      <!-- LOFAR antenna illustration with more detail -->
      <g id="lofar-antenna">
        <!-- Antenna dish -->
        <ellipse cx="550" cy="250" rx="45" ry="40" fill="#3A6EA5" opacity="0.7"/>
        <ellipse cx="550" cy="250" rx="35" ry="30" fill="#4A90E2" opacity="0.8"/>
        <ellipse cx="550" cy="250" rx="20" ry="18" fill="#5AA5FF" opacity="0.9"/>
        <!-- Antenna structure -->
        <line x1="550" y1="210" x2="550" y2="295" stroke="#E0E0E0" stroke-width="4"/>
        <line x1="515" y1="250" x2="585" y2="250" stroke="#E0E0E0" stroke-width="4"/>
        <line x1="530" y1="225" x2="570" y2="275" stroke="#E0E0E0" stroke-width="3"/>
        <line x1="530" y1="275" x2="570" y2="225" stroke="#E0E0E0" stroke-width="3"/>
        <!-- Center receiver -->
        <circle cx="550" cy="250" r="18" fill="#FFFFFF" stroke="#CCC" stroke-width="2"/>
        <circle cx="550" cy="250" r="10" fill="#4A90E2"/>
        <!-- Signal waves -->
        <path d="M 520 230 Q 530 220 540 230" stroke="#00FF00" stroke-width="2" fill="none" opacity="0.7"/>
        <path d="M 560 230 Q 570 220 580 230" stroke="#00FF00" stroke-width="2" fill="none" opacity="0.7"/>
      </g>
      
      <!-- Documentary title and info -->
      <g id="doc-text">
        <rect x="615" y="195" width="175" height="185" fill="#000033" opacity="0.7" rx="5"/>
        <text x="628" y="215" font-family="Arial, sans-serif" font-size="19" fill="#FFFFFF" font-weight="bold">DRENTHE:</text>
        <text x="628" y="240" font-family="Arial, sans-serif" font-size="16" fill="#00FF41" font-weight="bold">Wireless Tech</text>
        <text x="628" y="261" font-family="Arial, sans-serif" font-size="16" fill="#00FF41" font-weight="bold">Revolution</text>
        
        <line x1="625" y1="275" x2="785" y2="275" stroke="#00FF41" stroke-width="1"/>
        
        <text x="628" y="298" font-family="Arial, sans-serif" font-size="13" fill="#FFD700">📡 WSRT</text>
        <text x="628" y="318" font-family="Arial, sans-serif" font-size="13" fill="#87CEEB">🌐 LOFAR</text>
        <text x="628" y="338" font-family="Arial, sans-serif" font-size="13" fill="#90EE90">📱 Bluetooth</text>
        
        <line x1="625" y1="350" x2="785" y2="350" stroke="#444" stroke-width="1"/>
        
        <text x="628" y="370" font-family="Arial, sans-serif" font-size="11" fill="#CCC">Featuring:</text>
        <text x="628" y="385" font-family="Arial, sans-serif" font-size="10" fill="#AAA">Henk • Marieke • Pieter</text>
      </g>
      
      <!-- TV scanlines for realism -->
      <g id="scanlines" opacity="0.1">
        <line x1="470" y1="180" x2="810" y2="180" stroke="#FFFFFF" stroke-width="1"/>
        <line x1="470" y1="190" x2="810" y2="190" stroke="#FFFFFF" stroke-width="1"/>
        <line x1="470" y1="200" x2="810" y2="200" stroke="#FFFFFF" stroke-width="1"/>
        <line x1="470" y1="220" x2="810" y2="220" stroke="#FFFFFF" stroke-width="1"/>
        <line x1="470" y1="240" x2="810" y2="240" stroke="#FFFFFF" stroke-width="1"/>
        <line x1="470" y1="260" x2="810" y2="260" stroke="#FFFFFF" stroke-width="1"/>
        <line x1="470" y1="280" x2="810" y2="280" stroke="#FFFFFF" stroke-width="1"/>
        <line x1="470" y1="300" x2="810" y2="300" stroke="#FFFFFF" stroke-width="1"/>
        <line x1="470" y1="320" x2="810" y2="320" stroke="#FFFFFF" stroke-width="1"/>
        <line x1="470" y1="340" x2="810" y2="340" stroke="#FFFFFF" stroke-width="1"/>
        <line x1="470" y1="360" x2="810" y2="360" stroke="#FFFFFF" stroke-width="1"/>
        <line x1="470" y1="380" x2="810" y2="380" stroke="#FFFFFF" stroke-width="1"/>
        <line x1="470" y1="400" x2="810" y2="400" stroke="#FFFFFF" stroke-width="1"/>
      </g>
    </g>
    
    <!-- TV brand logo -->
    <text x="620" y="430" font-family="Arial" font-size="12" fill="#666" font-weight="bold">SONY</text>
    
    <!-- Enhanced TV stand -->
    <rect x="520" y="440" width="240" height="20" rx="5" fill="#654321" stroke="#3D2817" stroke-width="3"/>
    <rect x="570" y="460" width="140" height="140" fill="#654321" stroke="#3D2817" stroke-width="3"/>
    <!-- Stand wood grain detail -->
    <line x1="580" y1="470" x2="700" y2="470" stroke="#5C4033" stroke-width="1" opacity="0.5"/>
    <line x1="580" y1="490" x2="700" y2="490" stroke="#5C4033" stroke-width="1" opacity="0.5"/>
    <line x1="580" y1="510" x2="700" y2="510" stroke="#5C4033" stroke-width="1" opacity="0.5"/>
    <line x1="580" y1="530" x2="700" y2="530" stroke="#5C4033" stroke-width="1" opacity="0.5"/>
    <line x1="580" y1="550" x2="700" y2="550" stroke="#5C4033" stroke-width="1" opacity="0.5"/>
    <line x1="580" y1="570" x2="700" y2="570" stroke="#5C4033" stroke-width="1" opacity="0.5"/>
  </g>
  
  <!-- Enhanced couch (right side) -->
  <g id="couch">
    <!-- Couch shadow -->
    <ellipse cx="1000" cy="590" rx="160" ry="20" fill="#000" opacity="0.2"/>
    
    <!-- Main couch body -->
    <rect x="840" y="390" width="320" height="190" rx="25" fill="url(#couchGradient)" stroke="#3D2817" stroke-width="5"/>
    
    <!-- Couch back cushions -->
    <rect x="855" y="400" width="85" height="100" rx="12" fill="#A0522D" stroke="#654321" stroke-width="3"/>
    <rect x="955" y="400" width="85" height="100" rx="12" fill="#A0522D" stroke="#654321" stroke-width="3"/>
    <rect x="1055" y="400" width="85" height="100" rx="12" fill="#A0522D" stroke="#654321" stroke-width="3"/>
    
    <!-- Couch seat cushions -->
    <rect x="860" y="500" width="85" height="65" rx="10" fill="#CD853F" stroke="#654321" stroke-width="3"/>
    <ellipse cx="902.5" cy="510" rx="35" ry="20" fill="#DEB887" opacity="0.5"/>
    
    <rect x="960" y="500" width="85" height="65" rx="10" fill="#CD853F" stroke="#654321" stroke-width="3"/>
    <ellipse cx="1002.5" cy="510" rx="35" ry="20" fill="#DEB887" opacity="0.5"/>
    
    <rect x="1060" y="500" width="85" height="65" rx="10" fill="#CD853F" stroke="#654321" stroke-width="3"/>
    <ellipse cx="1102.5" cy="510" rx="35" ry="20" fill="#DEB887" opacity="0.5"/>
    
    <!-- Couch armrests with detail -->
    <rect x="825" y="390" width="50" height="165" rx="12" fill="#8B4513" stroke="#3D2817" stroke-width="4"/>
    <rect x="835" y="405" width="30" height="60" rx="8" fill="#A0522D" opacity="0.7"/>
    
    <rect x="1145" y="390" width="50" height="165" rx="12" fill="#8B4513" stroke="#3D2817" stroke-width="4"/>
    <rect x="1155" y="405" width="30" height="60" rx="8" fill="#A0522D" opacity="0.7"/>
    
    <!-- Couch stitching details -->
    <line x1="945" y1="400" x2="945" y2="500" stroke="#654321" stroke-width="2" stroke-dasharray="5,5" opacity="0.5"/>
    <line x1="1045" y1="400" x2="1045" y2="500" stroke="#654321" stroke-width="2" stroke-dasharray="5,5" opacity="0.5"/>
  </g>
  
  <!-- Enhanced armchair (left side, where Ies sits) -->
  <g id="armchair">
    <!-- Chair shadow -->
    <ellipse cx="190" cy="590" rx="100" ry="15" fill="#000" opacity="0.2"/>
    
    <!-- Chair back -->
    <rect x="95" y="370" width="190" height="60" rx="12" fill="url(#chairGradient)" stroke="#3D2817" stroke-width="4"/>
    <rect x="110" y="380" width="160" height="40" rx="8" fill="#8B5A3C" stroke="#5C4033" stroke-width="2"/>
    
    <!-- Chair main body -->
    <rect x="95" y="415" width="190" height="170" rx="18" fill="url(#chairGradient)" stroke="#3D2817" stroke-width="5"/>
    
    <!-- Chair seat cushion -->
    <rect x="110" y="470" width="160" height="95" rx="12" fill="#8B5A3C" stroke="#5C4033" stroke-width="3"/>
    <rect x="120" y="480" width="140" height="75" rx="10" fill="#A0826D" stroke="#5C4033" stroke-width="2"/>
    <!-- Cushion indent -->
    <ellipse cx="190" cy="505" rx="55" ry="30" fill="#8B5A3C" opacity="0.4"/>
    
    <!-- Chair armrests with detail -->
    <rect x="75" y="415" width="45" height="130" rx="10" fill="#654321" stroke="#3D2817" stroke-width="4"/>
    <rect x="85" y="430" width="25" height="50" rx="6" fill="#8B5A3C" opacity="0.7"/>
    
    <rect x="260" y="415" width="45" height="130" rx="10" fill="#654321" stroke="#3D2817" stroke-width="4"/>
    <rect x="270" y="430" width="25" height="50" rx="6" fill="#8B5A3C" opacity="0.7"/>
    
    <!-- Chair stitching -->
    <line x1="115" y1="425" x2="265" y2="425" stroke="#5C4033" stroke-width="2" stroke-dasharray="5,5" opacity="0.5"/>
    <line x1="190" y1="380" x2="190" y2="420" stroke="#5C4033" stroke-width="2" stroke-dasharray="5,5" opacity="0.5"/>
  </g>
  
  <!-- Enhanced coffee table - Side View -->
  <g id="coffeeTable">
    <!-- Table shadow -->
    <ellipse cx="500" cy="595" rx="140" ry="18" fill="#000" opacity="0.2"/>
    
    <!-- Table top (side view) -->
    <rect x="360" y="510" width="280" height="25" rx="5" fill="#A0522D" stroke="#3D2817" stroke-width="4"/>
    <rect x="365" y="513" width="270" height="19" rx="3" fill="#8B4513" stroke="#654321" stroke-width="2"/>
    <!-- Wood grain lines -->
    <line x1="370" y1="520" x2="630" y2="520" stroke="#654321" stroke-width="1" opacity="0.4"/>
    <line x1="370" y1="525" x2="630" y2="525" stroke="#654321" stroke-width="1" opacity="0.3"/>
    <!-- Table edge highlight -->
    <rect x="365" y="513" width="270" height="5" fill="#CD853F" opacity="0.5"/>
    
    <!-- Table legs (visible from side) -->
    <rect x="390" y="535" width="25" height="65" rx="3" fill="#654321" stroke="#3D2817" stroke-width="3"/>
    <rect x="585" y="535" width="25" height="65" rx="3" fill="#654321" stroke="#3D2817" stroke-width="3"/>
    <!-- Leg detail/shading -->
    <rect x="395" y="540" width="15" height="55" fill="#8B5A3C" opacity="0.5"/>
    <rect x="590" y="540" width="15" height="55" fill="#8B5A3C" opacity="0.5"/>
    
    <!-- Items on table (adjusted for side view) -->
    <!-- Glass of water -->
    <rect x="450" y="490" width="28" height="22" rx="3" fill="#87CEEB" stroke="#4682B4" stroke-width="2" opacity="0.8"/>
    <rect x="453" y="493" width="22" height="16" rx="2" fill="#B0E0E6" opacity="0.6"/>
    <ellipse cx="464" cy="496" rx="6" ry="4" fill="#FFFFFF" opacity="0.7"/>
    
    <!-- Book -->
    <rect x="530" y="488" width="35" height="24" rx="2" fill="#8B0000" stroke="#000" stroke-width="2"/>
    <line x1="535" y1="492" x2="560" y2="492" stroke="#A52A2A" stroke-width="1"/>
    <line x1="535" y1="496" x2="560" y2="496" stroke="#A52A2A" stroke-width="1"/>
    <line x1="535" y1="500" x2="560" y2="500" stroke="#A52A2A" stroke-width="1"/>
    <rect x="532" y="490" width="31" height="4" fill="#A52A2A" opacity="0.5"/>
    
    <!-- Remote control with detail -->
    <rect x="410" y="495" width="32" height="18" rx="4" fill="#2C2C2C" stroke="#000" stroke-width="2"/>
    <rect x="413" y="498" width="26" height="12" rx="2" fill="#1A1A1A"/>
    <!-- Remote buttons -->
    <circle cx="418" cy="504" r="2" fill="#444"/>
    <circle cx="424" cy="504" r="2" fill="#444"/>
    <circle cx="430" cy="504" r="2" fill="#444"/>
    <circle cx="436" cy="504" r="2" fill="#FF0000"/>
  </g>
  
  <!-- Enhanced floor lamp in corner -->
  <g id="floorLamp">
    <!-- Lamp base -->
    <ellipse cx="1107.5" cy="600" rx="35" ry="8" fill="#654321" stroke="#3D2817" stroke-width="2"/>
    <!-- Lamp pole -->
    <rect x="1100" y="495" width="15" height="105" fill="#654321" stroke="#3D2817" stroke-width="2"/>
    <rect x="1102" y="500" width="11" height="95" fill="#8B5A3C"/>
    <!-- Lamp shade -->
    <path d="M 1065 470 L 1100 495 L 1100 500 L 1115 500 L 1115 495 L 1150 470 Z" 
          fill="#FFD700" stroke="#DAA520" stroke-width="3"/>
    <path d="M 1070 475 L 1100 495 L 1115 495 L 1145 475 Z" 
          fill="#FFA500" opacity="0.5"/>
    <!-- Light bulb glow -->
    <ellipse cx="1107.5" cy="485" rx="45" ry="25" fill="#FFFF00" opacity="0.3"/>
    <circle cx="1107.5" cy="485" r="14" fill="#FFFFAA" stroke="#FFD700" stroke-width="2" opacity="0.8"/>
  </g>
  
  <!-- Enhanced picture frame on wall -->
  <g id="pictureFrame">
    <!-- Frame outer -->
    <rect x="940" y="170" width="140" height="105" rx="5" fill="#654321" stroke="#3D2817" stroke-width="5"/>
    <!-- Frame inner -->
    <rect x="952" y="182" width="116" height="81" rx="3" fill="#87CEEB" stroke="#5C4033" stroke-width="2"/>
    
    <!-- Landscape painting -->
    <g id="landscape">
      <!-- Sky -->
      <rect x="955" y="185" width="110" height="40" fill="#87CEEB"/>
      <ellipse cx="980" cy="200" rx="18" ry="16" fill="#FFD700"/>
      <ellipse cx="978" cy="198" rx="15" ry="13" fill="#FFEB3B"/>
      
      <!-- Clouds -->
      <ellipse cx="1025" cy="195" rx="12" ry="8" fill="#FFFFFF" opacity="0.8"/>
      <ellipse cx="1035" cy="198" rx="10" ry="7" fill="#FFFFFF" opacity="0.8"/>
      
      <!-- Mountains/hills -->
      <path d="M 955 225 L 970 205 L 985 220 L 1000 200 L 1020 215 L 1040 205 L 1060 220 L 1065 225 Z" 
            fill="#228B22" stroke="#1B5E1B" stroke-width="1"/>
      <path d="M 955 235 L 975 220 L 995 230 L 1015 218 L 1035 228 L 1050 222 L 1065 235 Z" 
            fill="#32CD32" stroke="#228B22" stroke-width="1"/>
      
      <!-- Ground/grass -->
      <rect x="955" y="235" width="110" height="25" fill="#90EE90"/>
      
      <!-- Tree -->
      <rect x="1005" y="238" width="8" height="20" fill="#654321"/>
      <circle cx="1009" cy="238" r="10" fill="#228B22" stroke="#1B5E1B" stroke-width="1"/>
      <circle cx="1015" cy="235" r="9" fill="#32CD32" stroke="#228B22" stroke-width="1"/>
      <circle cx="1003" cy="233" r="8" fill="#2E7D32" stroke="#1B5E1B" stroke-width="1"/>
    </g>
    
    <!-- Frame highlight -->
    <line x1="945" y1="175" x2="1075" y2="175" stroke="#8B5A3C" stroke-width="2" opacity="0.6"/>
    <line x1="945" y1="175" x2="945" y2="270" stroke="#8B5A3C" stroke-width="2" opacity="0.6"/>
  </g>
  
  <!-- Small plant in corner -->
  <g id="plant">
    <!-- Pot -->
    <ellipse cx="1110" cy="598" rx="25" ry="5" fill="#8B4513"/>
    <path d="M 1085 585 L 1085 598 L 1135 598 L 1135 585 Z" fill="#A0522D" stroke="#654321" stroke-width="2"/>
    <ellipse cx="1110" cy="585" rx="25" ry="8" fill="#CD853F" stroke="#654321" stroke-width="2"/>
    <!-- Soil -->
    <ellipse cx="1110" cy="585" rx="20" ry="5" fill="#654321"/>
    <!-- Plant leaves -->
    <ellipse cx="1100" cy="570" rx="8" ry="20" fill="#228B22" stroke="#1B5E1B" stroke-width="1" transform="rotate(-20 1100 570)"/>
    <ellipse cx="1110" cy="565" rx="8" ry="22" fill="#32CD32" stroke="#228B22" stroke-width="1"/>
    <ellipse cx="1120" cy="570" rx="8" ry="20" fill="#228B22" stroke="#1B5E1B" stroke-width="1" transform="rotate(20 1120 570)"/>
    <ellipse cx="1108" cy="575" rx="7" ry="18" fill="#2E7D32" stroke="#1B5E1B" stroke-width="1" transform="rotate(-10 1108 575)"/>
  </g>
  
  <!-- Ceiling light fixture -->
  <g id="ceilingLight">
    <ellipse cx="600" cy="50" rx="60" ry="15" fill="#F5F5DC" stroke="#DDD" stroke-width="2" opacity="0.8"/>
    <ellipse cx="600" cy="48" rx="55" ry="12" fill="#FFFACD" opacity="0.6"/>
    <rect x="595" y="35" width="10" height="15" fill="#AAA" stroke="#888" stroke-width="1"/>
  </g>
  
  <!-- Room ambient lighting effect -->
  <ellipse cx="600" cy="300" rx="600" ry="400" fill="#FFFFFF" opacity="0.03"/>
  
</svg>
