<svg xmlns="http://www.w3.org/2000/svg" viewBox="0 0 1920 1080">
  <!-- Living room scene - South Park style, native 1920x1080 -->

  <defs>
    <linearGradient id="wallGradient" x1="0%" y1="0%" x2="0%" y2="100%">
      <stop offset="0%" style="stop-color:#F5E6D3;stop-opacity:1" />
      <stop offset="100%" style="stop-color:#E8DCC0;stop-opacity:1" />
    </linearGradient>
    <linearGradient id="floorGradient" x1="0%" y1="0%" x2="0%" y2="100%">
      <stop offset="0%" style="stop-color:#9B8568;stop-opacity:1" />
      <stop offset="100%" style="stop-color:#8B7355;stop-opacity:1" />
    </linearGradient>
    <linearGradient id="couchGradient" x1="0%" y1="0%" x2="0%" y2="100%">
      <stop offset="0%" style="stop-color:#A0522D;stop-opacity:1" />
      <stop offset="50%" style="stop-color:#8B4513;stop-opacity:1" />
      <stop offset="100%" style="stop-color:#6B3410;stop-opacity:1" />
    </linearGradient>
    <linearGradient id="chairGradient" x1="0%" y1="0%" x2="0%" y2="100%">
      <stop offset="0%" style="stop-color:#8B5A3C;stop-opacity:1" />
      <stop offset="50%" style="stop-color:#654321;stop-opacity:1" />
      <stop offset="100%" style="stop-color:#4A2F1A;stop-opacity:1" />
    </linearGradient>
    <radialGradient id="tvGlow" cx="50%" cy="50%" r="50%">
      <stop offset="0%" style="stop-color:#4A90E2;stop-opacity:0.3" />
      <stop offset="100%" style="stop-color:#001a33;stop-opacity:0" />
    </radialGradient>
    <linearGradient id="tvFrame" x1="0%" y1="0%" x2="0%" y2="100%">
      <stop offset="0%" style="stop-color:#3A3A3A;stop-opacity:1" />
      <stop offset="100%" style="stop-color:#1A1A1A;stop-opacity:1" />
    </linearGradient>
  </defs>

  <!-- ==================== ROOM STRUCTURE ==================== -->
  <rect x="0" y="0" width="1920" height="720" fill="url(#wallGradient)"/>
  <rect x="0" y="700" width="1920" height="20" fill="#8B7355" stroke="#5C4033" stroke-width="2"/>
  <rect x="0" y="720" width="1920" height="360" fill="url(#floorGradient)"/>

  <!-- Floor planks -->
  <g id="floorPlanks">
    <line x1="0" y1="770" x2="1920" y2="770" stroke="#6B5845" stroke-width="3" opacity="0.8"/>
    <line x1="0" y1="820" x2="1920" y2="820" stroke="#7B6855" stroke-width="2" opacity="0.6"/>
    <line x1="0" y1="870" x2="1920" y2="870" stroke="#6B5845" stroke-width="3" opacity="0.8"/>
    <line x1="0" y1="920" x2="1920" y2="920" stroke="#7B6855" stroke-width="2" opacity="0.6"/>
    <line x1="0" y1="970" x2="1920" y2="970" stroke="#6B5845" stroke-width="3" opacity="0.8"/>
    <line x1="0" y1="1020" x2="1920" y2="1020" stroke="#7B6855" stroke-width="2" opacity="0.6"/>
    <line x1="240" y1="720" x2="240" y2="1080" stroke="#6B5845" stroke-width="2" opacity="0.5"/>
    <line x1="560" y1="720" x2="560" y2="1080" stroke="#6B5845" stroke-width="2" opacity="0.5"/>
    <line x1="880" y1="720" x2="880" y2="1080" stroke="#6B5845" stroke-width="2" opacity="0.5"/>
    <line x1="1200" y1="720" x2="1200" y2="1080" stroke="#6B5845" stroke-width="2" opacity="0.5"/>
    <line x1="1520" y1="720" x2="1520" y2="1080" stroke="#6B5845" stroke-width="2" opacity="0.5"/>
  </g>

  <!-- ==================== DOOR (left wall, person-sized) ==================== -->
  <g id="doorToKitchen">
    <rect x="25" y="185" width="195" height="535" rx="8" fill="#654321" stroke="#3D2817" stroke-width="5"/>
    <rect x="40" y="200" width="165" height="510" rx="5" fill="#8B6F47" stroke="#654321" stroke-width="3"/>
    <rect x="55" y="225" width="135" height="195" rx="3" fill="#A0826D" stroke="#654321" stroke-width="2"/>
    <rect x="55" y="440" width="135" height="245" rx="3" fill="#A0826D" stroke="#654321" stroke-width="2"/>
    <ellipse cx="175" cy="490" rx="8" ry="12" fill="#C0C0C0" stroke="#888" stroke-width="2"/>
    <circle cx="175" cy="490" r="4" fill="#FFD700"/>
    <rect x="45" y="205" width="10" height="495" fill="#000" opacity="0.2"/>
  </g>

  <!-- ==================== WINDOW ==================== -->
  <g id="window">
    <rect x="320" y="80" width="270" height="340" rx="8" fill="#654321" stroke="#3D2817" stroke-width="5"/>
    <rect x="340" y="100" width="230" height="300" rx="5" fill="#87CEEB" stroke="#5C8FB7" stroke-width="3"/>
    <rect x="345" y="105" width="105" height="140" fill="#A0D5F5" opacity="0.6"/>
    <line x1="455" y1="100" x2="455" y2="400" stroke="#654321" stroke-width="8"/>
    <line x1="340" y1="250" x2="570" y2="250" stroke="#654321" stroke-width="8"/>
    <rect x="350" y="112" width="40" height="50" fill="#FFFFFF" opacity="0.4"/>
    <rect x="465" y="115" width="35" height="45" fill="#FFFFFF" opacity="0.4"/>
  </g>

  <!-- Curtains -->
  <g id="curtains">
    <path d="M 310 72 Q 320 115 310 160 Q 320 205 310 250 Q 320 295 310 340 Q 320 385 310 430 L 338 430 L 338 72 Z"
          fill="#A0522D" stroke="#654321" stroke-width="3" opacity="0.85"/>
    <path d="M 600 72 Q 590 115 600 160 Q 590 205 600 250 Q 590 295 600 340 Q 590 385 600 430 L 572 430 L 572 72 Z"
          fill="#A0522D" stroke="#654321" stroke-width="3" opacity="0.85"/>
    <rect x="300" y="65" width="310" height="10" rx="5" fill="#654321" stroke="#3D2817" stroke-width="2"/>
  </g>

  <!-- ==================== ARMCHAIR (where Ies sits) ==================== -->
  <g id="armchair">
    <ellipse cx="440" cy="720" rx="130" ry="18" fill="#000" opacity="0.2"/>
    <rect x="340" y="400" width="240" height="70" rx="14" fill="url(#chairGradient)" stroke="#3D2817" stroke-width="4"/>
    <rect x="358" y="412" width="204" height="48" rx="9" fill="#8B5A3C" stroke="#5C4033" stroke-width="2"/>
    <rect x="340" y="460" width="240" height="260" rx="20" fill="url(#chairGradient)" stroke="#3D2817" stroke-width="5"/>
    <rect x="360" y="530" width="200" height="170" rx="14" fill="#8B5A3C" stroke="#5C4033" stroke-width="3"/>
    <rect x="375" y="545" width="170" height="140" rx="12" fill="#A0826D" stroke="#5C4033" stroke-width="2"/>
    <ellipse cx="460" cy="590" rx="65" ry="45" fill="#8B5A3C" opacity="0.4"/>
    <rect x="315" y="460" width="55" height="200" rx="12" fill="#654321" stroke="#3D2817" stroke-width="4"/>
    <rect x="328" y="480" width="30" height="70" rx="7" fill="#8B5A3C" opacity="0.7"/>
    <rect x="550" y="460" width="55" height="200" rx="12" fill="#654321" stroke="#3D2817" stroke-width="4"/>
    <rect x="563" y="480" width="30" height="70" rx="7" fill="#8B5A3C" opacity="0.7"/>
    <line x1="365" y1="472" x2="555" y2="472" stroke="#5C4033" stroke-width="2" stroke-dasharray="5,5" opacity="0.5"/>
    <line x1="460" y1="412" x2="460" y2="465" stroke="#5C4033" stroke-width="2" stroke-dasharray="5,5" opacity="0.5"/>
  </g>

  <!-- ==================== IES (sitting on armchair, facing TV) ==================== -->
  <g id="ies-sitting" transform="translate(460, 340)">
    <defs>
      <linearGradient id="iesHairGrad" x1="0" y1="0" x2="0" y2="1">
        <stop offset="0%" stop-color="#7a5c4a"/>
        <stop offset="50%" stop-color="#6b4d3a"/>
        <stop offset="100%" stop-color="#8a8a8a"/>
      </linearGradient>
      <linearGradient id="iesSweaterGrad" x1="0" y1="0" x2="0" y2="1">
        <stop offset="0%" stop-color="#c97a5a"/>
        <stop offset="100%" stop-color="#a85a3a"/>
      </linearGradient>
      <linearGradient id="iesSkinGrad" x1="0" y1="0" x2="0" y2="1">
        <stop offset="0%" stop-color="#ffd9c4"/>
        <stop offset="100%" stop-color="#f5c4aa"/>
      </linearGradient>
    </defs>

    <!-- SEATED LEGS (bent forward on seat cushion) -->
    <!-- Thighs (horizontal on seat) -->
    <rect x="-28" y="190" width="26" height="55" rx="8" fill="#4a5a6a" stroke="#000" stroke-width="2.5"/>
    <rect x="2" y="190" width="26" height="55" rx="8" fill="#4a5a6a" stroke="#000" stroke-width="2.5"/>
    <!-- Shins (dangling down) -->
    <rect x="-28" y="238" width="22" height="40" rx="6" fill="#4a5a6a" stroke="#000" stroke-width="2"/>
    <rect x="6" y="238" width="22" height="40" rx="6" fill="#4a5a6a" stroke="#000" stroke-width="2"/>
    <!-- Shoes (comfortable flats) -->
    <ellipse cx="-17" cy="280" rx="14" ry="6" fill="#5a3a2a" stroke="#000" stroke-width="2"/>
    <ellipse cx="17" cy="280" rx="14" ry="6" fill="#5a3a2a" stroke="#000" stroke-width="2"/>

    <!-- BODY (chubby, round, grandmotherly) -->
    <ellipse cx="0" cy="130" rx="48" ry="60" fill="url(#iesSweaterGrad)" stroke="#000" stroke-width="3"/>
    <ellipse cx="0" cy="130" rx="44" ry="56" fill="#b86a4a" stroke="#000" stroke-width="2"/>

    <!-- Sweater buttons -->
    <circle cx="0" cy="98" r="3.5" fill="#8b5a3a" stroke="#000" stroke-width="1.5"/>
    <circle cx="0" cy="115" r="3.5" fill="#8b5a3a" stroke="#000" stroke-width="1.5"/>
    <circle cx="0" cy="132" r="3.5" fill="#8b5a3a" stroke="#000" stroke-width="1.5"/>
    <circle cx="0" cy="149" r="3.5" fill="#8b5a3a" stroke="#000" stroke-width="1.5"/>

    <!-- Collar -->
    <path d="M-17,78 L-8,88 L-17,98" fill="#9a6a4a" stroke="#000" stroke-width="2"/>
    <path d="M17,78 L8,88 L17,98" fill="#9a6a4a" stroke="#000" stroke-width="2"/>

    <!-- ARMS (resting on armrests, slightly turned toward TV) -->
    <!-- Left arm (on left armrest) -->
    <ellipse cx="-48" cy="118" rx="18" ry="28" fill="url(#iesSweaterGrad)" stroke="#000" stroke-width="2.5"/>
    <!-- Left hand (resting relaxed) -->
    <ellipse cx="-52" cy="148" rx="11" ry="12" fill="url(#iesSkinGrad)" stroke="#000" stroke-width="2"/>
    <!-- Right arm (on right armrest, slightly forward) -->
    <ellipse cx="48" cy="118" rx="18" ry="28" fill="url(#iesSweaterGrad)" stroke="#000" stroke-width="2.5"/>
    <!-- Right hand -->
    <ellipse cx="52" cy="148" rx="11" ry="12" fill="url(#iesSkinGrad)" stroke="#000" stroke-width="2"/>

    <!-- NECK -->
    <rect x="-14" y="62" width="28" height="14" fill="url(#iesSkinGrad)" stroke="#000" stroke-width="2"/>

    <!-- Necklace -->
    <ellipse cx="0" cy="76" rx="16" ry="7" fill="none" stroke="#d4a860" stroke-width="2"/>
    <circle cx="0" cy="82" r="3.5" fill="#d4a860" stroke="#b88840" stroke-width="1.5"/>

    <!-- HEAD (round, friendly, slightly turned right toward TV) -->
    <circle cx="2" cy="18" r="52" fill="url(#iesSkinGrad)" stroke="#000" stroke-width="3"/>

    <!-- HAIR (brown/gray, wavy) -->
    <ellipse cx="2" cy="-22" rx="50" ry="28" fill="url(#iesHairGrad)" stroke="#000" stroke-width="2.5"/>
    <!-- Side hair -->
    <path d="M-44,-16 Q-50,-2 -46,14 Q-48,28 -44,42 Q-42,52 -38,60 Q-36,66 -34,72"
          fill="url(#iesHairGrad)" stroke="#000" stroke-width="2"/>
    <path d="M48,-16 Q54,-2 50,14 Q52,28 48,42 Q46,52 42,60 Q40,66 38,72"
          fill="url(#iesHairGrad)" stroke="#000" stroke-width="2"/>
    <!-- Front hair -->
    <ellipse cx="-28" cy="-12" rx="16" ry="20" fill="#6b4d3a" stroke="#000" stroke-width="2"/>
    <ellipse cx="32" cy="-12" rx="16" ry="20" fill="#6b4d3a" stroke="#000" stroke-width="2"/>
    <!-- Gray streaks -->
    <path d="M-22,-24 Q-24,-6 -22,12" stroke="#989898" stroke-width="2.5" fill="none" opacity="0.6"/>
    <path d="M26,-24 Q28,-6 26,12" stroke="#989898" stroke-width="2.5" fill="none" opacity="0.6"/>
    <path d="M-40,2 Q-42,18 -40,36" stroke="#a8a8a8" stroke-width="2" fill="none" opacity="0.5"/>
    <path d="M44,2 Q46,18 44,36" stroke="#a8a8a8" stroke-width="2" fill="none" opacity="0.5"/>

    <!-- EARS -->
    <ellipse cx="-44" cy="18" rx="9" ry="14" fill="url(#iesSkinGrad)" stroke="#000" stroke-width="2"/>
    <ellipse cx="48" cy="18" rx="9" ry="14" fill="url(#iesSkinGrad)" stroke="#000" stroke-width="2"/>
    <!-- Earrings -->
    <circle cx="-44" cy="24" r="3.5" fill="#e8e8ff" stroke="#c0c0d0" stroke-width="1.5"/>
    <circle cx="48" cy="24" r="3.5" fill="#e8e8ff" stroke="#c0c0d0" stroke-width="1.5"/>

    <!-- GLASSES (round, slightly angled toward TV) -->
    <circle cx="-18" cy="12" r="17" fill="rgba(248,248,255,0.15)" stroke="#5a3a2a" stroke-width="3.5"/>
    <circle cx="22" cy="12" r="17" fill="rgba(248,248,255,0.15)" stroke="#5a3a2a" stroke-width="3.5"/>
    <line x1="-1" y1="12" x2="5" y2="12" stroke="#5a3a2a" stroke-width="3.5"/>
    <line x1="-35" y1="12" x2="-44" y2="14" stroke="#5a3a2a" stroke-width="3" stroke-linecap="round"/>
    <line x1="39" y1="12" x2="48" y2="14" stroke="#5a3a2a" stroke-width="3" stroke-linecap="round"/>
    <!-- Lens reflections -->
    <ellipse cx="-23" cy="7" rx="6" ry="4" fill="#fff" opacity="0.6"/>
    <ellipse cx="17" cy="7" rx="6" ry="4" fill="#fff" opacity="0.6"/>
    <!-- TV reflection in glasses (blue tint) -->
    <ellipse cx="-14" cy="15" rx="5" ry="3" fill="#4A90E2" opacity="0.15"/>
    <ellipse cx="26" cy="15" rx="5" ry="3" fill="#4A90E2" opacity="0.15"/>

    <!-- EYES (warm, watching TV - looking slightly right) -->
    <ellipse cx="-18" cy="12" rx="9" ry="10" fill="#fff" stroke="#000" stroke-width="1"/>
    <ellipse cx="22" cy="12" rx="9" ry="10" fill="#fff" stroke="#000" stroke-width="1"/>
    <!-- Irises (looking toward TV - right) -->
    <circle cx="-15" cy="13" r="5" fill="#8b6a4a"/>
    <circle cx="25" cy="13" r="5" fill="#8b6a4a"/>
    <!-- Pupils -->
    <circle cx="-15" cy="13" r="2.5" fill="#2a2a2a"/>
    <circle cx="25" cy="13" r="2.5" fill="#2a2a2a"/>
    <!-- Eye highlights -->
    <circle cx="-17" cy="11" r="1.8" fill="#fff" opacity="0.9"/>
    <circle cx="23" cy="11" r="1.8" fill="#fff" opacity="0.9"/>

    <!-- EYEBROWS (gentle) -->
    <path d="M-33,-2 Q-18,-6 -6,-2" stroke="#6b4d3a" stroke-width="3.5" fill="none" stroke-linecap="round"/>
    <path d="M10,-2 Q22,-6 38,-2" stroke="#6b4d3a" stroke-width="3.5" fill="none" stroke-linecap="round"/>

    <!-- NOSE -->
    <ellipse cx="2" cy="28" rx="6" ry="8" fill="#eeb895" stroke="#000" stroke-width="2"/>

    <!-- MOUTH (warm, content smile while watching) -->
    <path d="M-16,40 Q2,48 20,40" stroke="#9b5a5a" stroke-width="2.5" fill="none" stroke-linecap="round"/>
    <!-- Smile lines -->
    <path d="M-18,38 Q-21,40 -23,43" stroke="#e5c0a5" stroke-width="1.5" fill="none" opacity="0.5"/>
    <path d="M22,38 Q25,40 27,43" stroke="#e5c0a5" stroke-width="1.5" fill="none" opacity="0.5"/>

    <!-- Rosy cheeks -->
    <ellipse cx="-30" cy="28" rx="10" ry="7" fill="#f5a5a5" opacity="0.35"/>
    <ellipse cx="34" cy="28" rx="10" ry="7" fill="#f5a5a5" opacity="0.35"/>
  </g>

  <!-- ==================== FIREPLACE ==================== -->
  <g id="fireplace">
    <rect x="640" y="250" width="190" height="470" rx="4" fill="#8B7355" stroke="#5C4033" stroke-width="4"/>
    <rect x="652" y="262" width="166" height="380" rx="3" fill="#6B5845" stroke="#4A3B2A" stroke-width="3"/>
    <rect x="664" y="320" width="142" height="310" rx="5" fill="#1A1008" stroke="#2A2010" stroke-width="2"/>
    <rect x="670" y="326" width="130" height="298" rx="3" fill="#2A1A0A"/>
    <!-- Brick pattern -->
    <g stroke="#7A6850" stroke-width="1" opacity="0.5">
      <line x1="646" y1="290" x2="826" y2="290"/>
      <line x1="646" y1="340" x2="664" y2="340"/>
      <line x1="806" y1="340" x2="826" y2="340"/>
      <line x1="646" y1="390" x2="664" y2="390"/>
      <line x1="806" y1="390" x2="826" y2="390"/>
      <line x1="646" y1="440" x2="664" y2="440"/>
      <line x1="806" y1="440" x2="826" y2="440"/>
      <line x1="646" y1="490" x2="664" y2="490"/>
      <line x1="806" y1="490" x2="826" y2="490"/>
      <line x1="646" y1="540" x2="664" y2="540"/>
      <line x1="806" y1="540" x2="826" y2="540"/>
      <line x1="646" y1="590" x2="664" y2="590"/>
      <line x1="806" y1="590" x2="826" y2="590"/>
      <line x1="646" y1="640" x2="826" y2="640"/>
      <line x1="735" y1="262" x2="735" y2="290"/>
      <line x1="710" y1="640" x2="710" y2="720"/>
      <line x1="760" y1="640" x2="760" y2="720"/>
    </g>
    <!-- Mantelpiece -->
    <rect x="625" y="235" width="220" height="22" rx="4" fill="#654321" stroke="#3D2817" stroke-width="3"/>
    <rect x="630" y="239" width="210" height="14" fill="#8B6F47" rx="2"/>
    <!-- Clock -->
    <circle cx="735" cy="226" r="14" fill="#F5F5DC" stroke="#654321" stroke-width="2"/>
    <circle cx="735" cy="226" r="11" fill="#FFFFF0"/>
    <line x1="735" y1="226" x2="735" y2="218" stroke="#333" stroke-width="1.5"/>
    <line x1="735" y1="226" x2="741" y2="226" stroke="#333" stroke-width="1"/>
    <!-- Left candle -->
    <rect x="670" y="220" width="12" height="18" fill="#DAA520" rx="1"/>
    <rect x="673" y="211" width="6" height="12" fill="#F5F5DC" rx="1"/>
    <ellipse cx="676" cy="208" rx="4" ry="6" fill="#FF6600" opacity="0.8">
      <animate attributeName="ry" values="5;7;5.5;6.5;5" dur="0.6s" repeatCount="indefinite"/>
      <animate attributeName="opacity" values="0.7;0.9;0.75;0.85;0.7" dur="0.5s" repeatCount="indefinite"/>
    </ellipse>
    <ellipse cx="676" cy="205" rx="3" ry="4" fill="#FFCC00" opacity="0.9">
      <animate attributeName="ry" values="3.5;5;4;4.5;3.5" dur="0.5s" repeatCount="indefinite"/>
      <animate attributeName="opacity" values="0.8;1;0.85;0.95;0.8" dur="0.45s" repeatCount="indefinite"/>
    </ellipse>
    <!-- Right candle -->
    <rect x="788" y="220" width="12" height="18" fill="#DAA520" rx="1"/>
    <rect x="791" y="211" width="6" height="12" fill="#F5F5DC" rx="1"/>
    <ellipse cx="794" cy="208" rx="4" ry="6" fill="#FF6600" opacity="0.8">
      <animate attributeName="ry" values="6;5;6.5;5.5;6" dur="0.55s" repeatCount="indefinite"/>
      <animate attributeName="opacity" values="0.75;0.9;0.8;0.85;0.75" dur="0.5s" repeatCount="indefinite"/>
    </ellipse>
    <ellipse cx="794" cy="205" rx="3" ry="4" fill="#FFCC00" opacity="0.9">
      <animate attributeName="ry" values="4;3.5;4.5;3.8;4" dur="0.48s" repeatCount="indefinite"/>
      <animate attributeName="opacity" values="0.85;1;0.9;0.95;0.85" dur="0.42s" repeatCount="indefinite"/>
    </ellipse>
    <!-- Logs -->
    <ellipse cx="710" cy="610" rx="35" ry="12" fill="#4A2F1A" stroke="#3D2817" stroke-width="1.5" transform="rotate(-10 710 610)"/>
    <ellipse cx="760" cy="607" rx="30" ry="10" fill="#5C4033" stroke="#3D2817" stroke-width="1.5" transform="rotate(10 760 607)"/>
    <ellipse cx="735" cy="603" rx="28" ry="9" fill="#654321" stroke="#4A2F1A" stroke-width="1"/>
    <!-- Animated Flames -->
    <g id="fireFlames">
      <!-- Flame glow behind flames -->
      <ellipse cx="730" cy="580" rx="55" ry="40" fill="#FF4500" opacity="0.15">
        <animate attributeName="opacity" values="0.12;0.18;0.14;0.2;0.12" dur="1.8s" repeatCount="indefinite"/>
        <animate attributeName="rx" values="52;58;54;56;52" dur="2.2s" repeatCount="indefinite"/>
      </ellipse>

      <!-- FLAME 1 - left tall flame (red-orange) -->
      <path fill="#FF4500" opacity="0.9">
        <animate attributeName="d" dur="0.8s" repeatCount="indefinite"
          values="
            M 700 620 Q 698 590 702 570 Q 706 545 710 535 Q 714 520 716 540 Q 718 555 714 580 Q 710 598 700 620 Z;
            M 700 620 Q 696 585 704 562 Q 708 540 712 528 Q 716 515 718 535 Q 720 552 716 575 Q 712 595 700 620 Z;
            M 700 620 Q 699 592 703 572 Q 707 548 711 538 Q 715 525 717 542 Q 719 560 715 582 Q 711 600 700 620 Z;
            M 700 620 Q 698 590 702 570 Q 706 545 710 535 Q 714 520 716 540 Q 718 555 714 580 Q 710 598 700 620 Z"/>
      </path>

      <!-- FLAME 2 - center-left tall flame (orange) -->
      <path fill="#FF6600" opacity="0.85">
        <animate attributeName="d" dur="0.7s" repeatCount="indefinite"
          values="
            M 715 620 Q 712 582 716 555 Q 720 530 725 518 Q 730 505 732 525 Q 734 545 730 575 Q 726 598 715 620 Z;
            M 715 620 Q 710 578 718 548 Q 722 522 727 510 Q 732 498 734 518 Q 736 540 732 568 Q 728 592 715 620 Z;
            M 715 620 Q 713 585 717 560 Q 721 535 726 522 Q 731 510 733 528 Q 735 548 731 578 Q 727 600 715 620 Z;
            M 715 620 Q 712 582 716 555 Q 720 530 725 518 Q 730 505 732 525 Q 734 545 730 575 Q 726 598 715 620 Z"/>
      </path>

      <!-- FLAME 3 - center main flame (bright orange-yellow, tallest) -->
      <path fill="#FF8C00" opacity="0.9">
        <animate attributeName="d" dur="0.65s" repeatCount="indefinite"
          values="
            M 728 620 Q 724 575 728 545 Q 732 515 735 500 Q 738 485 740 505 Q 742 520 740 548 Q 738 580 745 620 Z;
            M 728 620 Q 722 570 730 538 Q 734 508 737 492 Q 740 478 742 498 Q 744 515 742 542 Q 740 575 745 620 Z;
            M 728 620 Q 725 578 729 550 Q 733 518 736 505 Q 739 490 741 508 Q 743 525 741 552 Q 739 582 745 620 Z;
            M 728 620 Q 724 575 728 545 Q 732 515 735 500 Q 738 485 740 505 Q 742 520 740 548 Q 738 580 745 620 Z"/>
      </path>

      <!-- FLAME 4 - center-right flame (orange) -->
      <path fill="#FF6600" opacity="0.85">
        <animate attributeName="d" dur="0.75s" repeatCount="indefinite"
          values="
            M 742 620 Q 740 585 744 558 Q 748 532 752 520 Q 756 508 758 528 Q 760 548 756 575 Q 752 598 760 620 Z;
            M 742 620 Q 738 580 746 550 Q 750 525 754 512 Q 758 500 760 520 Q 762 542 758 568 Q 754 592 760 620 Z;
            M 742 620 Q 741 588 745 562 Q 749 538 753 525 Q 757 512 759 530 Q 761 550 757 578 Q 753 600 760 620 Z;
            M 742 620 Q 740 585 744 558 Q 748 532 752 520 Q 756 508 758 528 Q 760 548 756 575 Q 752 598 760 620 Z"/>
      </path>

      <!-- FLAME 5 - right flame (red-orange) -->
      <path fill="#FF4500" opacity="0.88">
        <animate attributeName="d" dur="0.85s" repeatCount="indefinite"
          values="
            M 755 620 Q 756 592 760 572 Q 764 548 766 538 Q 768 525 770 542 Q 772 558 768 582 Q 764 600 770 620 Z;
            M 755 620 Q 754 588 762 565 Q 766 542 768 530 Q 770 518 772 535 Q 774 552 770 578 Q 766 598 770 620 Z;
            M 755 620 Q 757 595 761 575 Q 765 550 767 540 Q 769 528 771 545 Q 773 562 769 585 Q 765 602 770 620 Z;
            M 755 620 Q 756 592 760 572 Q 764 548 766 538 Q 768 525 770 542 Q 772 558 768 582 Q 764 600 770 620 Z"/>
      </path>

      <!-- Inner bright yellow core - left -->
      <path fill="#FFB300" opacity="0.9">
        <animate attributeName="d" dur="0.6s" repeatCount="indefinite"
          values="
            M 714 620 Q 714 595 717 578 Q 720 560 723 550 Q 726 540 727 555 Q 728 568 725 590 Q 722 605 720 620 Z;
            M 714 620 Q 712 592 718 575 Q 722 555 725 545 Q 728 535 729 550 Q 730 565 727 585 Q 724 602 720 620 Z;
            M 714 620 Q 715 598 718 580 Q 721 562 724 552 Q 727 542 728 558 Q 729 572 726 592 Q 723 608 720 620 Z;
            M 714 620 Q 714 595 717 578 Q 720 560 723 550 Q 726 540 727 555 Q 728 568 725 590 Q 722 605 720 620 Z"/>
      </path>

      <!-- Inner bright yellow core - center -->
      <path fill="#FFDD00" opacity="0.85">
        <animate attributeName="d" dur="0.55s" repeatCount="indefinite"
          values="
            M 730 620 Q 728 590 731 570 Q 734 548 736 535 Q 738 522 739 540 Q 740 555 738 578 Q 736 598 742 620 Z;
            M 730 620 Q 726 585 733 565 Q 736 542 738 528 Q 740 515 741 533 Q 742 550 740 572 Q 738 594 742 620 Z;
            M 730 620 Q 729 592 732 572 Q 735 550 737 538 Q 739 525 740 542 Q 741 558 739 580 Q 737 600 742 620 Z;
            M 730 620 Q 728 590 731 570 Q 734 548 736 535 Q 738 522 739 540 Q 740 555 738 578 Q 736 598 742 620 Z"/>
      </path>

      <!-- Inner bright yellow core - right -->
      <path fill="#FFB300" opacity="0.88">
        <animate attributeName="d" dur="0.7s" repeatCount="indefinite"
          values="
            M 745 620 Q 746 598 749 580 Q 752 562 754 552 Q 756 542 757 555 Q 758 570 756 590 Q 754 608 758 620 Z;
            M 745 620 Q 744 595 750 575 Q 753 558 755 548 Q 757 538 758 552 Q 759 567 757 586 Q 755 604 758 620 Z;
            M 745 620 Q 747 600 750 582 Q 753 565 755 555 Q 757 545 758 558 Q 759 572 757 592 Q 755 610 758 620 Z;
            M 745 620 Q 746 598 749 580 Q 752 562 754 552 Q 756 542 757 555 Q 758 570 756 590 Q 754 608 758 620 Z"/>
      </path>

      <!-- Hot white core at base -->
      <ellipse cx="735" cy="615" rx="20" ry="8" fill="#FFF8DC" opacity="0.5">
        <animate attributeName="opacity" values="0.4;0.6;0.45;0.55;0.4" dur="0.9s" repeatCount="indefinite"/>
        <animate attributeName="rx" values="18;22;19;21;18" dur="1.1s" repeatCount="indefinite"/>
      </ellipse>

      <!-- Sparks / embers -->
      <circle cx="720" cy="545" r="1.5" fill="#FFDD00" opacity="0">
        <animate attributeName="cy" values="560;520;490;460" dur="2.5s" repeatCount="indefinite"/>
        <animate attributeName="cx" values="720;715;710;708" dur="2.5s" repeatCount="indefinite"/>
        <animate attributeName="opacity" values="0;0.9;0.7;0" dur="2.5s" repeatCount="indefinite"/>
      </circle>
      <circle cx="750" cy="540" r="1.2" fill="#FF8C00" opacity="0">
        <animate attributeName="cy" values="555;515;485;455" dur="3s" repeatCount="indefinite" begin="0.8s"/>
        <animate attributeName="cx" values="750;755;760;762" dur="3s" repeatCount="indefinite" begin="0.8s"/>
        <animate attributeName="opacity" values="0;0.8;0.5;0" dur="3s" repeatCount="indefinite" begin="0.8s"/>
      </circle>
      <circle cx="735" cy="530" r="1" fill="#FFCC00" opacity="0">
        <animate attributeName="cy" values="545;505;475;445" dur="2.8s" repeatCount="indefinite" begin="1.5s"/>
        <animate attributeName="cx" values="735;738;742;745" dur="2.8s" repeatCount="indefinite" begin="1.5s"/>
        <animate attributeName="opacity" values="0;0.7;0.4;0" dur="2.8s" repeatCount="indefinite" begin="1.5s"/>
      </circle>
    </g>

    <!-- Animated floor glow -->
    <ellipse cx="735" cy="730" rx="110" ry="30" fill="#FF6600" opacity="0.06">
      <animate attributeName="opacity" values="0.05;0.08;0.06;0.09;0.05" dur="2s" repeatCount="indefinite"/>
      <animate attributeName="rx" values="105;115;108;112;105" dur="2.5s" repeatCount="indefinite"/>
    </ellipse>
    <ellipse cx="735" cy="722" rx="70" ry="18" fill="#FFCC00" opacity="0.04">
      <animate attributeName="opacity" values="0.03;0.06;0.04;0.05;0.03" dur="1.8s" repeatCount="indefinite"/>
    </ellipse>
    <!-- Hearth -->
    <rect x="630" y="710" width="210" height="14" rx="2" fill="#7A6850" stroke="#5C4033" stroke-width="2"/>
  </g>

  <!-- Fireplace rug -->
  <g id="fireplaceRug">
    <ellipse cx="735" cy="810" rx="110" ry="40" fill="#8B0000" opacity="0.7" stroke="#5C0000" stroke-width="2"/>
    <ellipse cx="735" cy="810" rx="95" ry="32" fill="#A52A2A" opacity="0.5"/>
    <ellipse cx="735" cy="810" rx="75" ry="24" fill="#CD5C5C" opacity="0.3"/>
    <g stroke="#8B0000" stroke-width="1.5" opacity="0.5">
      <line x1="630" y1="810" x2="623" y2="816"/>
      <line x1="638" y1="822" x2="630" y2="830"/>
      <line x1="650" y1="832" x2="642" y2="842"/>
      <line x1="820" y1="832" x2="828" y2="842"/>
      <line x1="832" y1="822" x2="840" y2="830"/>
      <line x1="840" y1="810" x2="847" y2="816"/>
    </g>
  </g>

  <!-- ==================== TV SETUP ==================== -->
  <g id="television">
    <rect x="880" y="80" width="430" height="340" rx="15" fill="url(#tvFrame)" stroke="#000" stroke-width="6"/>
    <rect x="900" y="100" width="390" height="300" rx="10" fill="#1a1a1a" stroke="#0D0D0D" stroke-width="3"/>
    <ellipse cx="1095" cy="250" rx="210" ry="160" fill="url(#tvGlow)"/>
    <rect x="918" y="118" width="354" height="264" rx="5" fill="#001a33" stroke="#00274D" stroke-width="2"/>
    <!-- Documentary content -->
    <g id="documentary">
      <rect x="922" y="122" width="346" height="256" fill="#001a33"/>
      <!-- LOFAR antenna -->
      <g id="lofar-antenna">
        <ellipse cx="1000" cy="210" rx="50" ry="45" fill="#3A6EA5" opacity="0.7"/>
        <ellipse cx="1000" cy="210" rx="40" ry="35" fill="#4A90E2" opacity="0.8"/>
        <ellipse cx="1000" cy="210" rx="24" ry="22" fill="#5AA5FF" opacity="0.9"/>
        <line x1="1000" y1="165" x2="1000" y2="260" stroke="#E0E0E0" stroke-width="4"/>
        <line x1="960" y1="210" x2="1040" y2="210" stroke="#E0E0E0" stroke-width="4"/>
        <line x1="975" y1="183" x2="1025" y2="237" stroke="#E0E0E0" stroke-width="3"/>
        <line x1="975" y1="237" x2="1025" y2="183" stroke="#E0E0E0" stroke-width="3"/>
        <circle cx="1000" cy="210" r="20" fill="#FFFFFF" stroke="#CCC" stroke-width="2"/>
        <circle cx="1000" cy="210" r="12" fill="#4A90E2"/>
        <path d="M 968 188 Q 980 176 992 188" stroke="#00FF00" stroke-width="2" fill="none" opacity="0.7"/>
        <path d="M 1008 188 Q 1020 176 1032 188" stroke="#00FF00" stroke-width="2" fill="none" opacity="0.7"/>
      </g>
      <!-- Documentary text panel -->
      <g id="doc-text">
        <rect x="1068" y="142" width="190" height="215" fill="#000033" opacity="0.7" rx="5"/>
        <text x="1082" y="165" font-family="Arial, sans-serif" font-size="20" fill="#FFFFFF" font-weight="bold">DRENTHE:</text>
        <text x="1082" y="192" font-family="Arial, sans-serif" font-size="17" fill="#00FF41" font-weight="bold">Wireless Tech</text>
        <text x="1082" y="215" font-family="Arial, sans-serif" font-size="17" fill="#00FF41" font-weight="bold">Revolution</text>
        <line x1="1078" y1="228" x2="1248" y2="228" stroke="#00FF41" stroke-width="1"/>
        <text x="1082" y="252" font-family="Arial, sans-serif" font-size="14" fill="#FFD700">📡 WSRT</text>
        <text x="1082" y="274" font-family="Arial, sans-serif" font-size="14" fill="#87CEEB">🌐 LOFAR</text>
        <text x="1082" y="296" font-family="Arial, sans-serif" font-size="14" fill="#90EE90">📱 Bluetooth</text>
        <line x1="1078" y1="308" x2="1248" y2="308" stroke="#444" stroke-width="1"/>
        <text x="1082" y="328" font-family="Arial, sans-serif" font-size="12" fill="#CCC">Featuring:</text>
        <text x="1082" y="345" font-family="Arial, sans-serif" font-size="11" fill="#AAA">David · Cees · Jaap</text>
      </g>
      <!-- Scanlines -->
      <g id="scanlines" opacity="0.1">
        <line x1="918" y1="130" x2="1272" y2="130" stroke="#FFF" stroke-width="1"/>
        <line x1="918" y1="155" x2="1272" y2="155" stroke="#FFF" stroke-width="1"/>
        <line x1="918" y1="180" x2="1272" y2="180" stroke="#FFF" stroke-width="1"/>
        <line x1="918" y1="210" x2="1272" y2="210" stroke="#FFF" stroke-width="1"/>
        <line x1="918" y1="240" x2="1272" y2="240" stroke="#FFF" stroke-width="1"/>
        <line x1="918" y1="270" x2="1272" y2="270" stroke="#FFF" stroke-width="1"/>
        <line x1="918" y1="300" x2="1272" y2="300" stroke="#FFF" stroke-width="1"/>
        <line x1="918" y1="330" x2="1272" y2="330" stroke="#FFF" stroke-width="1"/>
        <line x1="918" y1="360" x2="1272" y2="360" stroke="#FFF" stroke-width="1"/>
      </g>
    </g>
    <!-- TV brand -->
    <text x="1075" y="408" font-family="Arial" font-size="14" fill="#666" font-weight="bold">SONY</text>
    <!-- TV stand shelf -->
    <rect x="960" y="420" width="270" height="24" rx="5" fill="#654321" stroke="#3D2817" stroke-width="3"/>
    <!-- TV stand cabinet -->
    <rect x="990" y="444" width="210" height="276" fill="#654321" stroke="#3D2817" stroke-width="3"/>
    <line x1="1005" y1="460" x2="1185" y2="460" stroke="#5C4033" stroke-width="1" opacity="0.5"/>
    <line x1="1005" y1="490" x2="1185" y2="490" stroke="#5C4033" stroke-width="1" opacity="0.5"/>
    <line x1="1005" y1="520" x2="1185" y2="520" stroke="#5C4033" stroke-width="1" opacity="0.5"/>
    <line x1="1005" y1="550" x2="1185" y2="550" stroke="#5C4033" stroke-width="1" opacity="0.5"/>
    <line x1="1005" y1="580" x2="1185" y2="580" stroke="#5C4033" stroke-width="1" opacity="0.5"/>
    <line x1="1005" y1="610" x2="1185" y2="610" stroke="#5C4033" stroke-width="1" opacity="0.5"/>
    <line x1="1005" y1="640" x2="1185" y2="640" stroke="#5C4033" stroke-width="1" opacity="0.5"/>
    <line x1="1005" y1="670" x2="1185" y2="670" stroke="#5C4033" stroke-width="1" opacity="0.5"/>
    <line x1="1005" y1="700" x2="1185" y2="700" stroke="#5C4033" stroke-width="1" opacity="0.5"/>
  </g>

  <!-- ==================== COUCH (right side) ==================== -->
  <g id="couch">
    <ellipse cx="1530" cy="720" rx="200" ry="22" fill="#000" opacity="0.2"/>
    <rect x="1350" y="380" width="380" height="310" rx="28" fill="url(#couchGradient)" stroke="#3D2817" stroke-width="5"/>
    <!-- Back cushions -->
    <rect x="1370" y="395" width="105" height="140" rx="14" fill="#A0522D" stroke="#654321" stroke-width="3"/>
    <rect x="1490" y="395" width="105" height="140" rx="14" fill="#A0522D" stroke="#654321" stroke-width="3"/>
    <rect x="1610" y="395" width="105" height="140" rx="14" fill="#A0522D" stroke="#654321" stroke-width="3"/>
    <!-- Seat cushions -->
    <rect x="1375" y="535" width="105" height="95" rx="12" fill="#CD853F" stroke="#654321" stroke-width="3"/>
    <ellipse cx="1427" cy="548" rx="42" ry="28" fill="#DEB887" opacity="0.5"/>
    <rect x="1495" y="535" width="105" height="95" rx="12" fill="#CD853F" stroke="#654321" stroke-width="3"/>
    <ellipse cx="1547" cy="548" rx="42" ry="28" fill="#DEB887" opacity="0.5"/>
    <rect x="1615" y="535" width="105" height="95" rx="12" fill="#CD853F" stroke="#654321" stroke-width="3"/>
    <ellipse cx="1667" cy="548" rx="42" ry="28" fill="#DEB887" opacity="0.5"/>
    <!-- Armrests -->
    <rect x="1325" y="380" width="58" height="260" rx="14" fill="#8B4513" stroke="#3D2817" stroke-width="4"/>
    <rect x="1338" y="400" width="34" height="80" rx="10" fill="#A0522D" opacity="0.7"/>
    <rect x="1715" y="380" width="58" height="260" rx="14" fill="#8B4513" stroke="#3D2817" stroke-width="4"/>
    <rect x="1728" y="400" width="34" height="80" rx="10" fill="#A0522D" opacity="0.7"/>
    <!-- Stitching -->
    <line x1="1480" y1="395" x2="1480" y2="535" stroke="#654321" stroke-width="2" stroke-dasharray="5,5" opacity="0.5"/>
    <line x1="1600" y1="395" x2="1600" y2="535" stroke="#654321" stroke-width="2" stroke-dasharray="5,5" opacity="0.5"/>
  </g>

  <!-- ==================== COFFEE TABLE (on floor) ==================== -->
  <g id="coffeeTable">
    <ellipse cx="735" cy="920" rx="170" ry="22" fill="#000" opacity="0.15"/>
    <rect x="580" y="870" width="310" height="28" rx="5" fill="#A0522D" stroke="#3D2817" stroke-width="4"/>
    <rect x="585" y="873" width="300" height="22" rx="3" fill="#8B4513" stroke="#654321" stroke-width="2"/>
    <line x1="590" y1="882" x2="880" y2="882" stroke="#654321" stroke-width="1" opacity="0.4"/>
    <line x1="590" y1="888" x2="880" y2="888" stroke="#654321" stroke-width="1" opacity="0.3"/>
    <rect x="585" y="873" width="300" height="6" fill="#CD853F" opacity="0.5"/>
    <!-- Legs -->
    <rect x="615" y="898" width="26" height="60" rx="3" fill="#654321" stroke="#3D2817" stroke-width="3"/>
    <rect x="829" y="898" width="26" height="60" rx="3" fill="#654321" stroke="#3D2817" stroke-width="3"/>
    <rect x="620" y="903" width="16" height="50" fill="#8B5A3C" opacity="0.5"/>
    <rect x="834" y="903" width="16" height="50" fill="#8B5A3C" opacity="0.5"/>
    <!-- Glass of water -->
    <rect x="680" y="848" width="30" height="24" rx="3" fill="#87CEEB" stroke="#4682B4" stroke-width="2" opacity="0.8"/>
    <rect x="683" y="851" width="24" height="18" rx="2" fill="#B0E0E6" opacity="0.6"/>
    <ellipse cx="695" cy="855" rx="7" ry="5" fill="#FFFFFF" opacity="0.7"/>
    <!-- Book -->
    <rect x="772" y="846" width="38" height="26" rx="2" fill="#8B0000" stroke="#000" stroke-width="2"/>
    <line x1="777" y1="851" x2="805" y2="851" stroke="#A52A2A" stroke-width="1"/>
    <line x1="777" y1="856" x2="805" y2="856" stroke="#A52A2A" stroke-width="1"/>
    <line x1="777" y1="861" x2="805" y2="861" stroke="#A52A2A" stroke-width="1"/>
    <rect x="774" y="848" width="34" height="5" fill="#A52A2A" opacity="0.5"/>
    <!-- Remote control -->
    <rect x="630" y="852" width="34" height="20" rx="4" fill="#2C2C2C" stroke="#000" stroke-width="2"/>
    <rect x="634" y="855" width="26" height="14" rx="2" fill="#1A1A1A"/>
    <circle cx="640" cy="862" r="2.5" fill="#444"/>
    <circle cx="648" cy="862" r="2.5" fill="#444"/>
    <circle cx="656" cy="862" r="2.5" fill="#444"/>
    <circle cx="662" cy="862" r="2.5" fill="#FF0000"/>
  </g>

  <!-- ==================== FLOOR LAMP (right corner) ==================== -->
  <g id="floorLamp">
    <ellipse cx="1800" cy="720" rx="40" ry="10" fill="#654321" stroke="#3D2817" stroke-width="2"/>
    <rect x="1793" y="560" width="15" height="160" fill="#654321" stroke="#3D2817" stroke-width="2"/>
    <rect x="1796" y="566" width="10" height="148" fill="#8B5A3C"/>
    <path d="M 1755 530 L 1793 560 L 1793 566 L 1808 566 L 1808 560 L 1845 530 Z"
          fill="#FFD700" stroke="#DAA520" stroke-width="3"/>
    <path d="M 1760 535 L 1793 560 L 1808 560 L 1840 535 Z"
          fill="#FFA500" opacity="0.5"/>
    <ellipse cx="1800" cy="545" rx="50" ry="28" fill="#FFFF00" opacity="0.3"/>
    <circle cx="1800" cy="545" r="16" fill="#FFFFAA" stroke="#FFD700" stroke-width="2" opacity="0.8"/>
  </g>

  <!-- ==================== PICTURE FRAME (above couch) ==================== -->
  <g id="pictureFrame">
    <rect x="1430" y="110" width="180" height="130" rx="5" fill="#654321" stroke="#3D2817" stroke-width="5"/>
    <rect x="1445" y="125" width="150" height="100" rx="3" fill="#87CEEB" stroke="#5C4033" stroke-width="2"/>
    <g id="landscape">
      <rect x="1448" y="128" width="144" height="50" fill="#87CEEB"/>
      <ellipse cx="1478" cy="148" rx="20" ry="18" fill="#FFD700"/>
      <ellipse cx="1476" cy="146" rx="17" ry="15" fill="#FFEB3B"/>
      <ellipse cx="1535" cy="140" rx="14" ry="9" fill="#FFFFFF" opacity="0.8"/>
      <ellipse cx="1548" cy="143" rx="12" ry="8" fill="#FFFFFF" opacity="0.8"/>
      <path d="M 1448 178 L 1466 155 L 1484 170 L 1502 150 L 1524 165 L 1546 155 L 1568 170 L 1592 178 Z"
            fill="#228B22" stroke="#1B5E1B" stroke-width="1"/>
      <path d="M 1448 190 L 1472 172 L 1496 182 L 1518 170 L 1542 180 L 1562 174 L 1592 190 Z"
            fill="#32CD32" stroke="#228B22" stroke-width="1"/>
      <rect x="1448" y="190" width="144" height="30" fill="#90EE90"/>
      <rect x="1508" y="193" width="9" height="22" fill="#654321"/>
      <circle cx="1512" cy="193" r="12" fill="#228B22" stroke="#1B5E1B" stroke-width="1"/>
      <circle cx="1520" cy="190" r="11" fill="#32CD32" stroke="#228B22" stroke-width="1"/>
      <circle cx="1505" cy="188" r="10" fill="#2E7D32" stroke="#1B5E1B" stroke-width="1"/>
    </g>
    <line x1="1435" y1="115" x2="1605" y2="115" stroke="#8B5A3C" stroke-width="2" opacity="0.6"/>
    <line x1="1435" y1="115" x2="1435" y2="235" stroke="#8B5A3C" stroke-width="2" opacity="0.6"/>
  </g>

  <!-- ==================== PLANT (right corner) ==================== -->
  <g id="plant">
    <ellipse cx="1850" cy="720" rx="28" ry="6" fill="#8B4513"/>
    <path d="M 1822 705 L 1822 720 L 1878 720 L 1878 705 Z" fill="#A0522D" stroke="#654321" stroke-width="2"/>
    <ellipse cx="1850" cy="705" rx="28" ry="9" fill="#CD853F" stroke="#654321" stroke-width="2"/>
    <ellipse cx="1850" cy="705" rx="22" ry="6" fill="#654321"/>
    <ellipse cx="1838" cy="685" rx="10" ry="24" fill="#228B22" stroke="#1B5E1B" stroke-width="1" transform="rotate(-20 1838 685)"/>
    <ellipse cx="1850" cy="678" rx="10" ry="26" fill="#32CD32" stroke="#228B22" stroke-width="1"/>
    <ellipse cx="1862" cy="685" rx="10" ry="24" fill="#228B22" stroke="#1B5E1B" stroke-width="1" transform="rotate(20 1862 685)"/>
    <ellipse cx="1847" cy="690" rx="9" ry="22" fill="#2E7D32" stroke="#1B5E1B" stroke-width="1" transform="rotate(-10 1847 690)"/>
  </g>

  <!-- ==================== CEILING LIGHT ==================== -->
  <g id="ceilingLight">
    <ellipse cx="960" cy="50" rx="75" ry="18" fill="#F5F5DC" stroke="#DDD" stroke-width="2" opacity="0.8"/>
    <ellipse cx="960" cy="48" rx="68" ry="14" fill="#FFFACD" opacity="0.6"/>
    <rect x="954" y="32" width="12" height="18" fill="#AAA" stroke="#888" stroke-width="1"/>
  </g>

  <!-- Ambient light -->
  <ellipse cx="960" cy="400" rx="800" ry="500" fill="#FFFFFF" opacity="0.03"/>

</svg>
