<svg xmlns="http://www.w3.org/2000/svg" viewBox="0 0 1920 1080">
  <defs>
    <!-- ===== SKY — bright Dutch winter afternoon ===== -->
    <linearGradient id="sky" x1="0" y1="0" x2="0" y2="1">
      <stop offset="0%" stop-color="#6ca8d8"/>
      <stop offset="30%" stop-color="#8dbce4"/>
      <stop offset="60%" stop-color="#b0d2ef"/>
      <stop offset="85%" stop-color="#c8dfef"/>
      <stop offset="100%" stop-color="#d5e6f0"/>
    </linearGradient>

    <!-- Ground — flat Drenthe field, green-brown winter grass -->
    <linearGradient id="groundGrad" x1="0" y1="0" x2="0" y2="1">
      <stop offset="0%" stop-color="#6a8050"/>
      <stop offset="20%" stop-color="#5d7245"/>
      <stop offset="50%" stop-color="#546840"/>
      <stop offset="100%" stop-color="#4a5e38"/>
    </linearGradient>

    <!-- Distant treeline -->
    <linearGradient id="treeline" x1="0" y1="0" x2="0" y2="1">
      <stop offset="0%" stop-color="#3a5530"/>
      <stop offset="100%" stop-color="#2e4628"/>
    </linearGradient>

    <!-- Processing cabinet metal -->
    <linearGradient id="cabinetMetal" x1="0" y1="0" x2="0" y2="1">
      <stop offset="0%" stop-color="#808890"/>
      <stop offset="30%" stop-color="#707880"/>
      <stop offset="100%" stop-color="#585e64"/>
    </linearGradient>

    <!-- Path/gravel -->
    <linearGradient id="gravel" x1="0" y1="0" x2="0" y2="1">
      <stop offset="0%" stop-color="#9a9080"/>
      <stop offset="100%" stop-color="#8a8070"/>
    </linearGradient>

    <!-- Cinematic vignette -->
    <radialGradient id="vignette" cx="50%" cy="50%" r="70%">
      <stop offset="0%" stop-color="rgba(0,0,0,0)"/>
      <stop offset="65%" stop-color="rgba(0,0,0,0)"/>
      <stop offset="90%" stop-color="rgba(0,0,0,0.08)"/>
      <stop offset="100%" stop-color="rgba(0,0,0,0.2)"/>
    </radialGradient>

    <!-- Sun glow -->
    <radialGradient id="sunGlow" cx="75%" cy="15%" r="25%">
      <stop offset="0%" stop-color="rgba(255,255,220,0.25)"/>
      <stop offset="40%" stop-color="rgba(255,250,210,0.08)"/>
      <stop offset="100%" stop-color="rgba(255,255,255,0)"/>
    </radialGradient>

    <!-- Lens flare -->
    <radialGradient id="lensFlare" cx="50%" cy="50%" r="50%">
      <stop offset="0%" stop-color="rgba(255,255,240,0.15)"/>
      <stop offset="60%" stop-color="rgba(255,250,220,0.05)"/>
      <stop offset="100%" stop-color="rgba(255,255,255,0)"/>
    </radialGradient>

    <!-- HBA tile surface -->
    <linearGradient id="hbaSurface" x1="0" y1="0" x2="0" y2="1">
      <stop offset="0%" stop-color="#2a2a2e"/>
      <stop offset="100%" stop-color="#1e1e22"/>
    </linearGradient>

    <!-- Filters -->
    <filter id="cloudBlur"><feGaussianBlur stdDeviation="12"/></filter>
    <filter id="softBlur"><feGaussianBlur stdDeviation="3"/></filter>
    <filter id="groundHaze"><feGaussianBlur stdDeviation="6"/></filter>
    <filter id="shadow"><feDropShadow dx="2" dy="3" stdDeviation="3" flood-opacity="0.25"/></filter>
  </defs>

  <!-- ======================================================================== -->
  <!-- ===== THE SKY — BRIGHT WINTER AFTERNOON ===== -->
  <!-- ======================================================================== -->
  <rect width="1920" height="1080" fill="url(#sky)"/>

  <!-- Sun (low winter angle, right side) -->
  <circle cx="1400" cy="140" r="60" fill="#fff8e0" opacity="0.8"/>
  <circle cx="1400" cy="140" r="120" fill="rgba(255,250,220,0.15)"/>
  <circle cx="1400" cy="140" r="220" fill="rgba(255,248,210,0.06)"/>

  <!-- Sun glow overlay -->
  <rect width="1920" height="1080" fill="url(#sunGlow)"/>

  <!-- Clouds — scattered winter cumulus -->
  <g filter="url(#cloudBlur)" opacity="0.55">
    <ellipse cx="250" cy="100" rx="200" ry="40" fill="#e8eef4"/>
    <ellipse cx="350" cy="110" rx="150" ry="30" fill="#e2eaf2"/>
    <ellipse cx="700" cy="70" rx="250" ry="45" fill="#eaf0f6"/>
    <ellipse cx="800" cy="85" rx="180" ry="32" fill="#e4ecf3"/>
    <ellipse cx="1100" cy="120" rx="160" ry="35" fill="#e8eef4"/>
    <ellipse cx="1600" cy="80" rx="220" ry="38" fill="#ecf2f8"/>
    <ellipse cx="1750" cy="95" rx="140" ry="28" fill="#e6eef6"/>
  </g>
  <!-- Slow drifting cloud -->
  <g filter="url(#cloudBlur)" opacity="0.35">
    <ellipse cx="500" cy="150" rx="300" ry="35" fill="#e0e8f0">
      <animate attributeName="cx" values="500;700;500" dur="90s" repeatCount="indefinite"/>
    </ellipse>
    <ellipse cx="1300" cy="130" rx="250" ry="30" fill="#e2eaf2">
      <animate attributeName="cx" values="1300;1100;1300" dur="110s" repeatCount="indefinite"/>
    </ellipse>
  </g>

  <!-- ======================================================================== -->
  <!-- ===== HORIZON — DISTANT TREELINE ===== -->
  <!-- ======================================================================== -->

  <!-- Atmospheric haze at horizon -->
  <rect x="0" y="440" width="1920" height="60" fill="rgba(180,200,220,0.15)" filter="url(#groundHaze)"/>

  <!-- Distant treeline — very flat Drenthe landscape -->
  <g fill="url(#treeline)" opacity="0.65">
    <ellipse cx="100" cy="470" rx="100" ry="18"/>
    <ellipse cx="280" cy="468" rx="120" ry="22"/>
    <ellipse cx="450" cy="472" rx="90" ry="16"/>
    <ellipse cx="600" cy="466" rx="130" ry="20"/>
    <ellipse cx="780" cy="470" rx="100" ry="18"/>
    <ellipse cx="950" cy="468" rx="140" ry="22"/>
    <ellipse cx="1120" cy="472" rx="110" ry="19"/>
    <ellipse cx="1300" cy="467" rx="120" ry="21"/>
    <ellipse cx="1480" cy="471" rx="100" ry="17"/>
    <ellipse cx="1640" cy="469" rx="130" ry="20"/>
    <ellipse cx="1820" cy="472" rx="110" ry="18"/>
  </g>

  <!-- ======================================================================== -->
  <!-- ===== THE FIELD — VAST FLAT DRENTHE GRASSLAND ===== -->
  <!-- ======================================================================== -->

  <rect x="0" y="460" width="1920" height="620" fill="url(#groundGrad)"/>

  <!-- Field texture — grass/stubble patches -->
  <g opacity="0.3">
    <ellipse cx="200" cy="600" rx="150" ry="12" fill="#5a7040"/>
    <ellipse cx="500" cy="650" rx="120" ry="10" fill="#506838"/>
    <ellipse cx="800" cy="580" rx="180" ry="15" fill="#5c7442"/>
    <ellipse cx="1100" cy="700" rx="140" ry="11" fill="#4e6435"/>
    <ellipse cx="1400" cy="620" rx="160" ry="13" fill="#587040"/>
    <ellipse cx="1700" cy="680" rx="130" ry="10" fill="#526a3c"/>
    <ellipse cx="350" cy="750" rx="100" ry="9" fill="#506838"/>
    <ellipse cx="950" cy="780" rx="170" ry="14" fill="#5a7040"/>
    <ellipse cx="1550" cy="760" rx="120" ry="11" fill="#4e6435"/>
  </g>

  <!-- Gravel access path (center, running into the field) -->
  <path d="M920,1080 Q930,900 940,800 Q950,700 960,620 Q965,580 960,550"
        stroke="url(#gravel)" stroke-width="50" fill="none" opacity="0.5"
        stroke-linecap="round"/>
  <path d="M920,1080 Q930,900 940,800 Q950,700 960,620 Q965,580 960,550"
        stroke="#8a8272" stroke-width="2" fill="none" opacity="0.15"
        stroke-dasharray="8,12"/>

  <!-- ======================================================================== -->
  <!-- ===== LBA — LOW BAND ANTENNAS (LEFT FIELD) ===== -->
  <!-- ===== Crossed dipoles on ground — "metal spiders" ===== -->
  <!-- ======================================================================== -->

  <g id="lba-field">
    <!-- Row 1 — distant (small, faded) -->
    <g opacity="0.5" transform="translate(0, -10)">
      <g transform="translate(100, 500)"><line x1="-6" y1="0" x2="6" y2="0" stroke="#6a6a6a" stroke-width="1.5"/><line x1="0" y1="-6" x2="0" y2="6" stroke="#6a6a6a" stroke-width="1.5"/><circle cx="0" cy="0" r="1.5" fill="#7a7a7a"/></g>
      <g transform="translate(140, 498)"><line x1="-6" y1="0" x2="6" y2="0" stroke="#6a6a6a" stroke-width="1.5"/><line x1="0" y1="-6" x2="0" y2="6" stroke="#6a6a6a" stroke-width="1.5"/><circle cx="0" cy="0" r="1.5" fill="#7a7a7a"/></g>
      <g transform="translate(180, 502)"><line x1="-6" y1="0" x2="6" y2="0" stroke="#6a6a6a" stroke-width="1.5"/><line x1="0" y1="-6" x2="0" y2="6" stroke="#6a6a6a" stroke-width="1.5"/><circle cx="0" cy="0" r="1.5" fill="#7a7a7a"/></g>
      <g transform="translate(220, 496)"><line x1="-6" y1="0" x2="6" y2="0" stroke="#6a6a6a" stroke-width="1.5"/><line x1="0" y1="-6" x2="0" y2="6" stroke="#6a6a6a" stroke-width="1.5"/><circle cx="0" cy="0" r="1.5" fill="#7a7a7a"/></g>
      <g transform="translate(260, 504)"><line x1="-6" y1="0" x2="6" y2="0" stroke="#6a6a6a" stroke-width="1.5"/><line x1="0" y1="-6" x2="0" y2="6" stroke="#6a6a6a" stroke-width="1.5"/><circle cx="0" cy="0" r="1.5" fill="#7a7a7a"/></g>
      <g transform="translate(300, 499)"><line x1="-6" y1="0" x2="6" y2="0" stroke="#6a6a6a" stroke-width="1.5"/><line x1="0" y1="-6" x2="0" y2="6" stroke="#6a6a6a" stroke-width="1.5"/><circle cx="0" cy="0" r="1.5" fill="#7a7a7a"/></g>
      <g transform="translate(340, 503)"><line x1="-6" y1="0" x2="6" y2="0" stroke="#6a6a6a" stroke-width="1.5"/><line x1="0" y1="-6" x2="0" y2="6" stroke="#6a6a6a" stroke-width="1.5"/><circle cx="0" cy="0" r="1.5" fill="#7a7a7a"/></g>
      <g transform="translate(380, 497)"><line x1="-6" y1="0" x2="6" y2="0" stroke="#6a6a6a" stroke-width="1.5"/><line x1="0" y1="-6" x2="0" y2="6" stroke="#6a6a6a" stroke-width="1.5"/><circle cx="0" cy="0" r="1.5" fill="#7a7a7a"/></g>
      <g transform="translate(420, 505)"><line x1="-6" y1="0" x2="6" y2="0" stroke="#6a6a6a" stroke-width="1.5"/><line x1="0" y1="-6" x2="0" y2="6" stroke="#6a6a6a" stroke-width="1.5"/><circle cx="0" cy="0" r="1.5" fill="#7a7a7a"/></g>
    </g>

    <!-- Row 2 — mid-distance -->
    <g opacity="0.65">
      <g transform="translate(80, 540)"><line x1="-9" y1="0" x2="9" y2="0" stroke="#606060" stroke-width="2"/><line x1="0" y1="-9" x2="0" y2="9" stroke="#606060" stroke-width="2"/><circle cx="0" cy="0" r="2" fill="#707070"/></g>
      <g transform="translate(130, 545)"><line x1="-9" y1="0" x2="9" y2="0" stroke="#606060" stroke-width="2"/><line x1="0" y1="-9" x2="0" y2="9" stroke="#606060" stroke-width="2"/><circle cx="0" cy="0" r="2" fill="#707070"/></g>
      <g transform="translate(180, 538)"><line x1="-9" y1="0" x2="9" y2="0" stroke="#606060" stroke-width="2"/><line x1="0" y1="-9" x2="0" y2="9" stroke="#606060" stroke-width="2"/><circle cx="0" cy="0" r="2" fill="#707070"/></g>
      <g transform="translate(230, 548)"><line x1="-9" y1="0" x2="9" y2="0" stroke="#606060" stroke-width="2"/><line x1="0" y1="-9" x2="0" y2="9" stroke="#606060" stroke-width="2"/><circle cx="0" cy="0" r="2" fill="#707070"/></g>
      <g transform="translate(285, 542)"><line x1="-9" y1="0" x2="9" y2="0" stroke="#606060" stroke-width="2"/><line x1="0" y1="-9" x2="0" y2="9" stroke="#606060" stroke-width="2"/><circle cx="0" cy="0" r="2" fill="#707070"/></g>
      <g transform="translate(340, 550)"><line x1="-9" y1="0" x2="9" y2="0" stroke="#606060" stroke-width="2"/><line x1="0" y1="-9" x2="0" y2="9" stroke="#606060" stroke-width="2"/><circle cx="0" cy="0" r="2" fill="#707070"/></g>
      <g transform="translate(395, 543)"><line x1="-9" y1="0" x2="9" y2="0" stroke="#606060" stroke-width="2"/><line x1="0" y1="-9" x2="0" y2="9" stroke="#606060" stroke-width="2"/><circle cx="0" cy="0" r="2" fill="#707070"/></g>
      <g transform="translate(450, 552)"><line x1="-9" y1="0" x2="9" y2="0" stroke="#606060" stroke-width="2"/><line x1="0" y1="-9" x2="0" y2="9" stroke="#606060" stroke-width="2"/><circle cx="0" cy="0" r="2" fill="#707070"/></g>
    </g>

    <!-- Row 3 — closer, larger crossed dipoles with support poles -->
    <g opacity="0.8">
      <g transform="translate(60, 600)">
        <line x1="0" y1="0" x2="0" y2="-18" stroke="#555" stroke-width="1.5"/>
        <line x1="-14" y1="-18" x2="14" y2="-18" stroke="#6a6a6a" stroke-width="2.5"/>
        <line x1="0" y1="-32" x2="0" y2="-4" stroke="#6a6a6a" stroke-width="2.5"/>
        <circle cx="0" cy="-18" r="2.5" fill="#787878"/>
      </g>
      <g transform="translate(130, 610)">
        <line x1="0" y1="0" x2="0" y2="-18" stroke="#555" stroke-width="1.5"/>
        <line x1="-14" y1="-18" x2="14" y2="-18" stroke="#6a6a6a" stroke-width="2.5"/>
        <line x1="0" y1="-32" x2="0" y2="-4" stroke="#6a6a6a" stroke-width="2.5"/>
        <circle cx="0" cy="-18" r="2.5" fill="#787878"/>
      </g>
      <g transform="translate(200, 595)">
        <line x1="0" y1="0" x2="0" y2="-18" stroke="#555" stroke-width="1.5"/>
        <line x1="-14" y1="-18" x2="14" y2="-18" stroke="#6a6a6a" stroke-width="2.5"/>
        <line x1="0" y1="-32" x2="0" y2="-4" stroke="#6a6a6a" stroke-width="2.5"/>
        <circle cx="0" cy="-18" r="2.5" fill="#787878"/>
      </g>
      <g transform="translate(275, 615)">
        <line x1="0" y1="0" x2="0" y2="-18" stroke="#555" stroke-width="1.5"/>
        <line x1="-14" y1="-18" x2="14" y2="-18" stroke="#6a6a6a" stroke-width="2.5"/>
        <line x1="0" y1="-32" x2="0" y2="-4" stroke="#6a6a6a" stroke-width="2.5"/>
        <circle cx="0" cy="-18" r="2.5" fill="#787878"/>
      </g>
      <g transform="translate(350, 605)">
        <line x1="0" y1="0" x2="0" y2="-18" stroke="#555" stroke-width="1.5"/>
        <line x1="-14" y1="-18" x2="14" y2="-18" stroke="#6a6a6a" stroke-width="2.5"/>
        <line x1="0" y1="-32" x2="0" y2="-4" stroke="#6a6a6a" stroke-width="2.5"/>
        <circle cx="0" cy="-18" r="2.5" fill="#787878"/>
      </g>
      <g transform="translate(430, 618)">
        <line x1="0" y1="0" x2="0" y2="-18" stroke="#555" stroke-width="1.5"/>
        <line x1="-14" y1="-18" x2="14" y2="-18" stroke="#6a6a6a" stroke-width="2.5"/>
        <line x1="0" y1="-32" x2="0" y2="-4" stroke="#6a6a6a" stroke-width="2.5"/>
        <circle cx="0" cy="-18" r="2.5" fill="#787878"/>
      </g>
    </g>

    <!-- Row 4 — closest / foreground LBA dipoles, fully detailed -->
    <g>
      <g transform="translate(40, 700)">
        <line x1="0" y1="0" x2="0" y2="-30" stroke="#505050" stroke-width="2"/>
        <line x1="-22" y1="-30" x2="22" y2="-30" stroke="#606060" stroke-width="3"/>
        <line x1="0" y1="-52" x2="0" y2="-8" stroke="#606060" stroke-width="3"/>
        <circle cx="0" cy="-30" r="3.5" fill="#707070"/>
        <!-- Guy wires -->
        <line x1="0" y1="-30" x2="-18" y2="0" stroke="#888" stroke-width="0.5" opacity="0.4"/>
        <line x1="0" y1="-30" x2="18" y2="0" stroke="#888" stroke-width="0.5" opacity="0.4"/>
      </g>
      <g transform="translate(150, 720)">
        <line x1="0" y1="0" x2="0" y2="-30" stroke="#505050" stroke-width="2"/>
        <line x1="-22" y1="-30" x2="22" y2="-30" stroke="#606060" stroke-width="3"/>
        <line x1="0" y1="-52" x2="0" y2="-8" stroke="#606060" stroke-width="3"/>
        <circle cx="0" cy="-30" r="3.5" fill="#707070"/>
        <line x1="0" y1="-30" x2="-18" y2="0" stroke="#888" stroke-width="0.5" opacity="0.4"/>
        <line x1="0" y1="-30" x2="18" y2="0" stroke="#888" stroke-width="0.5" opacity="0.4"/>
      </g>
      <g transform="translate(260, 690)">
        <line x1="0" y1="0" x2="0" y2="-30" stroke="#505050" stroke-width="2"/>
        <line x1="-22" y1="-30" x2="22" y2="-30" stroke="#606060" stroke-width="3"/>
        <line x1="0" y1="-52" x2="0" y2="-8" stroke="#606060" stroke-width="3"/>
        <circle cx="0" cy="-30" r="3.5" fill="#707070"/>
        <line x1="0" y1="-30" x2="-18" y2="0" stroke="#888" stroke-width="0.5" opacity="0.4"/>
        <line x1="0" y1="-30" x2="18" y2="0" stroke="#888" stroke-width="0.5" opacity="0.4"/>
      </g>
      <g transform="translate(380, 730)">
        <line x1="0" y1="0" x2="0" y2="-30" stroke="#505050" stroke-width="2"/>
        <line x1="-22" y1="-30" x2="22" y2="-30" stroke="#606060" stroke-width="3"/>
        <line x1="0" y1="-52" x2="0" y2="-8" stroke="#606060" stroke-width="3"/>
        <circle cx="0" cy="-30" r="3.5" fill="#707070"/>
        <line x1="0" y1="-30" x2="-18" y2="0" stroke="#888" stroke-width="0.5" opacity="0.4"/>
        <line x1="0" y1="-30" x2="18" y2="0" stroke="#888" stroke-width="0.5" opacity="0.4"/>
      </g>
    </g>

    <!-- Cables between LBA running along ground -->
    <g opacity="0.25">
      <path d="M60,700 Q110,710 150,720" stroke="#444" stroke-width="1.5" fill="none"/>
      <path d="M150,720 Q210,705 260,690" stroke="#444" stroke-width="1.5" fill="none"/>
      <path d="M260,690 Q320,710 380,730" stroke="#444" stroke-width="1.5" fill="none"/>
    </g>
  </g>

  <!-- ======================================================================== -->
  <!-- ===== HBA — HIGH BAND ANTENNA TILES (CENTER-RIGHT) ===== -->
  <!-- ===== Black polystyrene tiles, 5x5m each, in a grid ===== -->
  <!-- ======================================================================== -->

  <g id="hba-field">
    <!-- Distant HBA tiles (small, perspective) -->
    <g opacity="0.6">
      <rect x="780" y="490" width="28" height="18" rx="1" fill="url(#hbaSurface)" transform="skewX(-5)"/>
      <rect x="820" y="488" width="28" height="18" rx="1" fill="url(#hbaSurface)" transform="skewX(-5)"/>
      <rect x="860" y="492" width="28" height="18" rx="1" fill="url(#hbaSurface)" transform="skewX(-5)"/>
      <rect x="900" y="487" width="28" height="18" rx="1" fill="url(#hbaSurface)" transform="skewX(-5)"/>
      <rect x="940" y="491" width="28" height="18" rx="1" fill="url(#hbaSurface)" transform="skewX(-5)"/>
      <rect x="980" y="489" width="28" height="18" rx="1" fill="url(#hbaSurface)" transform="skewX(-5)"/>
      <rect x="1020" y="493" width="28" height="18" rx="1" fill="url(#hbaSurface)" transform="skewX(-5)"/>
      <rect x="1060" y="488" width="28" height="18" rx="1" fill="url(#hbaSurface)" transform="skewX(-5)"/>
      <rect x="1100" y="492" width="28" height="18" rx="1" fill="url(#hbaSurface)" transform="skewX(-5)"/>
      <rect x="1140" y="490" width="28" height="18" rx="1" fill="url(#hbaSurface)" transform="skewX(-5)"/>
      <rect x="1180" y="494" width="28" height="18" rx="1" fill="url(#hbaSurface)" transform="skewX(-5)"/>
      <rect x="1220" y="489" width="28" height="18" rx="1" fill="url(#hbaSurface)" transform="skewX(-5)"/>
    </g>

    <!-- Mid-distance HBA row -->
    <g opacity="0.75">
      <rect x="760" y="535" width="40" height="25" rx="2" fill="url(#hbaSurface)" transform="skewX(-4)"/>
      <rect x="815" y="532" width="40" height="25" rx="2" fill="url(#hbaSurface)" transform="skewX(-4)"/>
      <rect x="870" y="538" width="40" height="25" rx="2" fill="url(#hbaSurface)" transform="skewX(-4)"/>
      <rect x="925" y="530" width="40" height="25" rx="2" fill="url(#hbaSurface)" transform="skewX(-4)"/>
      <rect x="980" y="536" width="40" height="25" rx="2" fill="url(#hbaSurface)" transform="skewX(-4)"/>
      <rect x="1035" y="533" width="40" height="25" rx="2" fill="url(#hbaSurface)" transform="skewX(-4)"/>
      <rect x="1090" y="539" width="40" height="25" rx="2" fill="url(#hbaSurface)" transform="skewX(-4)"/>
      <rect x="1145" y="531" width="40" height="25" rx="2" fill="url(#hbaSurface)" transform="skewX(-4)"/>
      <rect x="1200" y="537" width="40" height="25" rx="2" fill="url(#hbaSurface)" transform="skewX(-4)"/>
    </g>

    <!-- Closer HBA tiles — show 4x4 grid pattern -->
    <g>
      <!-- Tile 1 -->
      <g transform="translate(770, 590)">
        <rect x="0" y="0" width="55" height="35" rx="2" fill="url(#hbaSurface)"/>
        <g stroke="#3a3a40" stroke-width="0.5" opacity="0.5">
          <line x1="14" y1="0" x2="14" y2="35"/>
          <line x1="28" y1="0" x2="28" y2="35"/>
          <line x1="42" y1="0" x2="42" y2="35"/>
          <line x1="0" y1="9" x2="55" y2="9"/>
          <line x1="0" y1="18" x2="55" y2="18"/>
          <line x1="0" y1="27" x2="55" y2="27"/>
        </g>
      </g>
      <!-- Tile 2 -->
      <g transform="translate(845, 585)">
        <rect x="0" y="0" width="55" height="35" rx="2" fill="url(#hbaSurface)"/>
        <g stroke="#3a3a40" stroke-width="0.5" opacity="0.5">
          <line x1="14" y1="0" x2="14" y2="35"/>
          <line x1="28" y1="0" x2="28" y2="35"/>
          <line x1="42" y1="0" x2="42" y2="35"/>
          <line x1="0" y1="9" x2="55" y2="9"/>
          <line x1="0" y1="18" x2="55" y2="18"/>
          <line x1="0" y1="27" x2="55" y2="27"/>
        </g>
      </g>
      <!-- Tile 3 -->
      <g transform="translate(920, 595)">
        <rect x="0" y="0" width="55" height="35" rx="2" fill="url(#hbaSurface)"/>
        <g stroke="#3a3a40" stroke-width="0.5" opacity="0.5">
          <line x1="14" y1="0" x2="14" y2="35"/>
          <line x1="28" y1="0" x2="28" y2="35"/>
          <line x1="42" y1="0" x2="42" y2="35"/>
          <line x1="0" y1="9" x2="55" y2="9"/>
          <line x1="0" y1="18" x2="55" y2="18"/>
          <line x1="0" y1="27" x2="55" y2="27"/>
        </g>
      </g>
      <!-- Tile 4 -->
      <g transform="translate(1000, 588)">
        <rect x="0" y="0" width="55" height="35" rx="2" fill="url(#hbaSurface)"/>
        <g stroke="#3a3a40" stroke-width="0.5" opacity="0.5">
          <line x1="14" y1="0" x2="14" y2="35"/>
          <line x1="28" y1="0" x2="28" y2="35"/>
          <line x1="42" y1="0" x2="42" y2="35"/>
          <line x1="0" y1="9" x2="55" y2="9"/>
          <line x1="0" y1="18" x2="55" y2="18"/>
          <line x1="0" y1="27" x2="55" y2="27"/>
        </g>
      </g>
      <!-- Tile 5 -->
      <g transform="translate(1080, 592)">
        <rect x="0" y="0" width="55" height="35" rx="2" fill="url(#hbaSurface)"/>
        <g stroke="#3a3a40" stroke-width="0.5" opacity="0.5">
          <line x1="14" y1="0" x2="14" y2="35"/>
          <line x1="28" y1="0" x2="28" y2="35"/>
          <line x1="42" y1="0" x2="42" y2="35"/>
          <line x1="0" y1="9" x2="55" y2="9"/>
          <line x1="0" y1="18" x2="55" y2="18"/>
          <line x1="0" y1="27" x2="55" y2="27"/>
        </g>
      </g>
      <!-- Tile 6 -->
      <g transform="translate(1160, 598)">
        <rect x="0" y="0" width="55" height="35" rx="2" fill="url(#hbaSurface)"/>
        <g stroke="#3a3a40" stroke-width="0.5" opacity="0.5">
          <line x1="14" y1="0" x2="14" y2="35"/>
          <line x1="28" y1="0" x2="28" y2="35"/>
          <line x1="42" y1="0" x2="42" y2="35"/>
          <line x1="0" y1="9" x2="55" y2="9"/>
          <line x1="0" y1="18" x2="55" y2="18"/>
          <line x1="0" y1="27" x2="55" y2="27"/>
        </g>
      </g>
    </g>

    <!-- Foreground HBA tiles — biggest, most detail -->
    <g>
      <g transform="translate(800, 680)">
        <rect x="0" y="0" width="75" height="48" rx="3" fill="url(#hbaSurface)"/>
        <g stroke="#3a3a40" stroke-width="0.8" opacity="0.5">
          <line x1="19" y1="0" x2="19" y2="48"/>
          <line x1="38" y1="0" x2="38" y2="48"/>
          <line x1="57" y1="0" x2="57" y2="48"/>
          <line x1="0" y1="12" x2="75" y2="12"/>
          <line x1="0" y1="24" x2="75" y2="24"/>
          <line x1="0" y1="36" x2="75" y2="36"/>
        </g>
        <!-- Bow-tie element hints -->
        <g fill="#444" opacity="0.3">
          <polygon points="9,6 5,3 5,9"/>
          <polygon points="9,6 13,3 13,9"/>
          <polygon points="28,6 24,3 24,9"/>
          <polygon points="28,6 32,3 32,9"/>
        </g>
      </g>
      <g transform="translate(900, 700)">
        <rect x="0" y="0" width="75" height="48" rx="3" fill="url(#hbaSurface)"/>
        <g stroke="#3a3a40" stroke-width="0.8" opacity="0.5">
          <line x1="19" y1="0" x2="19" y2="48"/>
          <line x1="38" y1="0" x2="38" y2="48"/>
          <line x1="57" y1="0" x2="57" y2="48"/>
          <line x1="0" y1="12" x2="75" y2="12"/>
          <line x1="0" y1="24" x2="75" y2="24"/>
          <line x1="0" y1="36" x2="75" y2="36"/>
        </g>
      </g>
      <g transform="translate(1010, 685)">
        <rect x="0" y="0" width="75" height="48" rx="3" fill="url(#hbaSurface)"/>
        <g stroke="#3a3a40" stroke-width="0.8" opacity="0.5">
          <line x1="19" y1="0" x2="19" y2="48"/>
          <line x1="38" y1="0" x2="38" y2="48"/>
          <line x1="57" y1="0" x2="57" y2="48"/>
          <line x1="0" y1="12" x2="75" y2="12"/>
          <line x1="0" y1="24" x2="75" y2="24"/>
          <line x1="0" y1="36" x2="75" y2="36"/>
        </g>
      </g>
      <g transform="translate(1120, 710)">
        <rect x="0" y="0" width="75" height="48" rx="3" fill="url(#hbaSurface)"/>
        <g stroke="#3a3a40" stroke-width="0.8" opacity="0.5">
          <line x1="19" y1="0" x2="19" y2="48"/>
          <line x1="38" y1="0" x2="38" y2="48"/>
          <line x1="57" y1="0" x2="57" y2="48"/>
          <line x1="0" y1="12" x2="75" y2="12"/>
          <line x1="0" y1="24" x2="75" y2="24"/>
          <line x1="0" y1="36" x2="75" y2="36"/>
        </g>
      </g>
    </g>

    <!-- HBA cables running to processing cabinet -->
    <g opacity="0.2">
      <path d="M875,700 Q1050,680 1350,530" stroke="#333" stroke-width="1.5" fill="none"/>
      <path d="M975,720 Q1100,660 1350,540" stroke="#333" stroke-width="1.5" fill="none"/>
      <path d="M1085,710 Q1200,650 1350,550" stroke="#333" stroke-width="1.5" fill="none"/>
    </g>
  </g>

  <!-- ======================================================================== -->
  <!-- ===== PROCESSING CABINET — Station electronics ===== -->
  <!-- ======================================================================== -->

  <g transform="translate(1330, 465)" filter="url(#shadow)">
    <!-- Cabinet body -->
    <rect x="0" y="0" width="60" height="100" rx="2" fill="url(#cabinetMetal)"/>
    <rect x="3" y="3" width="54" height="94" rx="1" fill="#626a72"/>

    <!-- Door seam -->
    <line x1="30" y1="5" x2="30" y2="95" stroke="#555" stroke-width="1"/>

    <!-- Ventilation grilles -->
    <g stroke="#555" stroke-width="0.8" opacity="0.5">
      <line x1="8" y1="12" x2="25" y2="12"/>
      <line x1="8" y1="15" x2="25" y2="15"/>
      <line x1="8" y1="18" x2="25" y2="18"/>
      <line x1="8" y1="21" x2="25" y2="21"/>
      <line x1="35" y1="12" x2="52" y2="12"/>
      <line x1="35" y1="15" x2="52" y2="15"/>
      <line x1="35" y1="18" x2="52" y2="18"/>
      <line x1="35" y1="21" x2="52" y2="21"/>
    </g>

    <!-- Status LEDs -->
    <circle cx="12" cy="32" r="2" fill="#00cc44">
      <animate attributeName="opacity" values="1;0.3;1" dur="2s" repeatCount="indefinite"/>
    </circle>
    <circle cx="20" cy="32" r="2" fill="#00cc44">
      <animate attributeName="opacity" values="0.3;1;0.3" dur="2s" repeatCount="indefinite"/>
    </circle>
    <circle cx="28" cy="32" r="2" fill="#ffaa00" opacity="0.6">
      <animate attributeName="opacity" values="0.6;0.2;0.6" dur="3s" repeatCount="indefinite"/>
    </circle>

    <!-- Connectors / ports -->
    <rect x="10" y="70" width="8" height="5" rx="1" fill="#3a3a40"/>
    <rect x="22" y="70" width="8" height="5" rx="1" fill="#3a3a40"/>
    <rect x="38" y="70" width="8" height="5" rx="1" fill="#3a3a40"/>

    <!-- Fibre optic cable running out bottom -->
    <path d="M30,100 Q32,115 40,125 Q55,145 70,160" stroke="#ffa500" stroke-width="2" fill="none" opacity="0.4"/>
    <path d="M30,100 Q28,115 22,128 Q15,145 10,165" stroke="#ffa500" stroke-width="2" fill="none" opacity="0.35"/>

    <!-- LOFAR label plate -->
    <rect x="8" y="48" width="44" height="14" rx="1" fill="#475058"/>
    <text x="30" y="58.5" text-anchor="middle" font-family="monospace" font-size="7" fill="#c0c8d0" letter-spacing="1">LOFAR</text>

    <!-- Ground mounting pad -->
    <rect x="-8" y="98" width="76" height="6" rx="1" fill="#5a6068"/>
  </g>

  <!-- ======================================================================== -->
  <!-- ===== CEES BASSA — standing near processing cabinet ===== -->
  <!-- ======================================================================== -->

  <!-- NPC marker (subtle glow to show interactable) -->
  <g transform="translate(1100, 590)">
    <ellipse cx="0" cy="55" rx="12" ry="4" fill="rgba(0,0,0,0.15)"/>
    <!-- Simple figure silhouette — man in jacket -->
    <rect x="-8" y="0" width="16" height="30" rx="3" fill="#2a3548"/>
    <rect x="-6" y="28" width="12" height="22" rx="2" fill="#3a4250"/>
    <circle cx="0" cy="-8" r="8" fill="#d4a878"/>
    <!-- Hair -->
    <ellipse cx="0" cy="-13" rx="7" ry="5" fill="#3a2810"/>
    <!-- Subtle interaction indicator -->
    <circle cx="0" cy="-22" r="3" fill="rgba(100,180,255,0.4)">
      <animate attributeName="r" values="3;5;3" dur="2s" repeatCount="indefinite"/>
      <animate attributeName="opacity" values="0.4;0.15;0.4" dur="2s" repeatCount="indefinite"/>
    </circle>
  </g>

  <!-- ======================================================================== -->
  <!-- ===== INFORMATION SIGN — LOFAR / ASTRON ===== -->
  <!-- ======================================================================== -->

  <g transform="translate(620, 640)">
    <!-- Sign post -->
    <rect x="0" y="0" width="4" height="60" fill="#6a5a4a"/>
    <!-- Sign board -->
    <rect x="-40" y="-5" width="84" height="35" rx="2" fill="#f0ead8"/>
    <rect x="-38" y="-3" width="80" height="31" rx="1" fill="#f5f0e0"/>
    <!-- LOFAR text -->
    <text x="2" y="10" text-anchor="middle" font-family="sans-serif" font-size="9" fill="#1a3a6a" font-weight="bold" letter-spacing="2">LOFAR</text>
    <text x="2" y="20" text-anchor="middle" font-family="sans-serif" font-size="5" fill="#4a5a6a">Low Frequency Array</text>
    <!-- ASTRON logo hint -->
    <circle cx="-25" cy="14" r="6" fill="none" stroke="#1a3a6a" stroke-width="0.8"/>
    <text x="-25" y="16.5" text-anchor="middle" font-family="sans-serif" font-size="4" fill="#1a3a6a" font-weight="bold">A</text>
  </g>

  <!-- ======================================================================== -->
  <!-- ===== DISTANT WSRT DISHES on horizon (Easter egg) ===== -->
  <!-- ======================================================================== -->

  <g opacity="0.25" transform="translate(1550, 458)">
    <!-- Tiny distant WSRT dish silhouettes -->
    <rect x="0" y="0" width="2" height="15" fill="#4a5a4a"/>
    <ellipse cx="1" cy="-2" rx="6" ry="3" fill="#5a6a5a"/>
    <rect x="25" y="2" width="2" height="13" fill="#4a5a4a"/>
    <ellipse cx="26" cy="0" rx="6" ry="3" fill="#5a6a5a"/>
    <rect x="50" y="1" width="2" height="14" fill="#4a5a4a"/>
    <ellipse cx="51" cy="-1" rx="6" ry="3" fill="#5a6a5a"/>
    <rect x="75" y="3" width="2" height="12" fill="#4a5a4a"/>
    <ellipse cx="76" cy="1" rx="6" ry="3" fill="#5a6a5a"/>
    <rect x="100" y="0" width="2" height="15" fill="#4a5a4a"/>
    <ellipse cx="101" cy="-2" rx="6" ry="3" fill="#5a6a5a"/>
  </g>

  <!-- ======================================================================== -->
  <!-- ===== FOREGROUND — Grass, fence, path ===== -->
  <!-- ======================================================================== -->

  <!-- Wire fence along path -->
  <g opacity="0.35">
    <!-- Fence posts -->
    <rect x="880" y="780" width="3" height="45" fill="#5a5040"/>
    <rect x="960" y="760" width="3" height="50" fill="#5a5040"/>
    <rect x="1040" y="740" width="3" height="55" fill="#5a5040"/>
    <!-- Wire between posts -->
    <line x1="881" y1="790" x2="961" y2="770" stroke="#888" stroke-width="0.8"/>
    <line x1="881" y1="800" x2="961" y2="780" stroke="#888" stroke-width="0.8"/>
    <line x1="961" y1="770" x2="1041" y2="750" stroke="#888" stroke-width="0.8"/>
    <line x1="961" y1="780" x2="1041" y2="760" stroke="#888" stroke-width="0.8"/>
  </g>

  <!-- Foreground grass tufts -->
  <g opacity="0.5">
    <path d="M50,1020 Q60,990 70,1020" stroke="#4a6835" stroke-width="2.5" fill="none"/>
    <path d="M65,1020 Q78,985 90,1020" stroke="#3e5c2e" stroke-width="2" fill="none"/>
    <path d="M300,1010 Q315,980 330,1010" stroke="#4a6835" stroke-width="2.5" fill="none"/>
    <path d="M500,1015 Q515,985 530,1015" stroke="#3e5c2e" stroke-width="2" fill="none"/>
    <path d="M1400,1010 Q1415,980 1430,1010" stroke="#4a6835" stroke-width="2" fill="none"/>
    <path d="M1600,1020 Q1615,990 1630,1020" stroke="#3e5c2e" stroke-width="2.5" fill="none"/>
    <path d="M1800,1015 Q1815,985 1830,1015" stroke="#4a6835" stroke-width="2" fill="none"/>
  </g>

  <!-- Foreground vegetation/hedgerow (bottom edges) -->
  <g>
    <ellipse cx="100" cy="1060" rx="120" ry="30" fill="#3a5828" opacity="0.6"/>
    <ellipse cx="280" cy="1070" rx="80" ry="25" fill="#3e5c2e" opacity="0.5"/>
    <ellipse cx="1650" cy="1060" rx="100" ry="28" fill="#3a5828" opacity="0.55"/>
    <ellipse cx="1830" cy="1065" rx="90" ry="22" fill="#3e5c2e" opacity="0.5"/>
  </g>

  <!-- ======================================================================== -->
  <!-- ===== ATMOSPHERE — Haze, birds, wind ===== -->
  <!-- ======================================================================== -->

  <!-- Distant haze layer -->
  <rect x="0" y="440" width="1920" height="80" fill="rgba(180,200,220,0.06)" filter="url(#groundHaze)"/>

  <!-- Birds in flight (distant) -->
  <g opacity="0.35">
    <path d="M600,200 Q605,195 610,200 Q615,195 620,200" stroke="#3a3a3a" stroke-width="1" fill="none"/>
    <path d="M640,210 Q645,205 650,210 Q655,205 660,210" stroke="#3a3a3a" stroke-width="1" fill="none"/>
    <path d="M615,220 Q620,215 625,220" stroke="#3a3a3a" stroke-width="0.8" fill="none"/>
    <animateTransform attributeName="transform" type="translate" values="0,0;40,-5;80,0;40,5;0,0" dur="20s" repeatCount="indefinite"/>
  </g>
  <g opacity="0.25">
    <path d="M1200,180 Q1205,175 1210,180 Q1215,175 1220,180" stroke="#3a3a3a" stroke-width="0.8" fill="none"/>
    <path d="M1230,190 Q1235,185 1240,190" stroke="#3a3a3a" stroke-width="0.8" fill="none"/>
    <animateTransform attributeName="transform" type="translate" values="0,0;-30,-8;-60,0;-30,8;0,0" dur="25s" repeatCount="indefinite"/>
  </g>

  <!-- Subtle wind animation on grass -->
  <g opacity="0.15" filter="url(#groundHaze)">
    <ellipse cx="400" cy="850" rx="300" ry="15" fill="#5a7040">
      <animate attributeName="cx" values="400;500;400" dur="8s" repeatCount="indefinite"/>
    </ellipse>
    <ellipse cx="1200" cy="820" rx="250" ry="12" fill="#506838">
      <animate attributeName="cx" values="1200;1100;1200" dur="10s" repeatCount="indefinite"/>
    </ellipse>
  </g>

  <!-- Cow in distant field (very Dutch) -->
  <g opacity="0.35" transform="translate(1700, 530)">
    <rect x="0" y="0" width="18" height="10" rx="3" fill="#f0f0e8"/>
    <rect x="-3" y="0" width="6" height="4" rx="1" fill="#f0f0e8"/>
    <rect x="2" y="10" width="3" height="5" fill="#f0f0e8"/>
    <rect x="12" y="10" width="3" height="5" fill="#f0f0e8"/>
    <ellipse cx="6" cy="4" rx="4" ry="3" fill="#1a1a18"/>
    <ellipse cx="14" cy="6" rx="3" ry="2" fill="#1a1a18"/>
  </g>

  <!-- ===== Lens flare from sun ===== -->
  <circle cx="1400" cy="140" r="400" fill="url(#lensFlare)" opacity="0.5"/>

  <!-- ===== CINEMATIC VIGNETTE ===== -->
  <rect width="1920" height="1080" fill="url(#vignette)"/>

  <!-- Scene label -->
  <text x="960" y="1065" text-anchor="middle" font-family="monospace" font-size="11" fill="#3a5030" opacity="0.2" letter-spacing="4">LOFAR SUPERTERP — EXLOO</text>
</svg>
