<svg xmlns="http://www.w3.org/2000/svg" viewBox="0 0 1600 900">
  <defs>
    <linearGradient id="roomBg" x1="0" y1="0" x2="0" y2="1">
      <stop offset="0%" stop-color="#060810"/>
      <stop offset="100%" stop-color="#0c1018"/>
    </linearGradient>
    <linearGradient id="deskGrad" x1="0" y1="0" x2="0" y2="1">
      <stop offset="0%" stop-color="#3d2b1a"/>
      <stop offset="100%" stop-color="#2a1d10"/>
    </linearGradient>
    <linearGradient id="screenGrad" x1="0" y1="0" x2="0" y2="1">
      <stop offset="0%" stop-color="#000d1a"/>
      <stop offset="100%" stop-color="#001428"/>
    </linearGradient>
    <radialGradient id="monitorGlowL" cx="47%" cy="45%" r="55%">
      <stop offset="0%" stop-color="#00d9ff" stop-opacity="0.06"/>
      <stop offset="60%" stop-color="#00d9ff" stop-opacity="0.02"/>
      <stop offset="100%" stop-color="#000000" stop-opacity="0"/>
    </radialGradient>
    <radialGradient id="monitorGlowR" cx="53%" cy="45%" r="55%">
      <stop offset="0%" stop-color="#00ff88" stop-opacity="0.05"/>
      <stop offset="60%" stop-color="#00ff88" stop-opacity="0.02"/>
      <stop offset="100%" stop-color="#000000" stop-opacity="0"/>
    </radialGradient>
    <radialGradient id="spikeGlow" cx="50%" cy="50%" r="50%">
      <stop offset="0%" stop-color="#00ff88" stop-opacity="0.6"/>
      <stop offset="100%" stop-color="#00ff88" stop-opacity="0"/>
    </radialGradient>
    <radialGradient id="lampCone" cx="50%" cy="0%" r="100%">
      <stop offset="0%" stop-color="#ffeeaa" stop-opacity="0.08"/>
      <stop offset="100%" stop-color="#ffeeaa" stop-opacity="0"/>
    </radialGradient>
    <filter id="softBlur">
      <feGaussianBlur stdDeviation="3"/>
    </filter>
    <filter id="screenBlur">
      <feGaussianBlur stdDeviation="8"/>
    </filter>
    <filter id="glow6">
      <feGaussianBlur stdDeviation="6" result="g"/>
      <feMerge><feMergeNode in="g"/><feMergeNode in="SourceGraphic"/></feMerge>
    </filter>
    <filter id="glow3">
      <feGaussianBlur stdDeviation="3" result="g"/>
      <feMerge><feMergeNode in="g"/><feMergeNode in="SourceGraphic"/></feMerge>
    </filter>
    <filter id="glow12">
      <feGaussianBlur stdDeviation="12" result="g"/>
      <feMerge><feMergeNode in="g"/><feMergeNode in="SourceGraphic"/></feMerge>
    </filter>
    <!-- Scan line pattern -->
    <pattern id="scanlines" width="4" height="4" patternUnits="userSpaceOnUse">
      <line x1="0" y1="0" x2="4" y2="0" stroke="#000" stroke-width="1" opacity="0.12"/>
    </pattern>
  </defs>

  <style>
    /* ── Scan line sweep ── */
    @keyframes scanDown {
      0%   { transform: translateY(0px); }
      100% { transform: translateY(380px); }
    }
    /* ── Signal spike pulse ── */
    @keyframes spikePulse {
      0%   { opacity: 1; }
      50%  { opacity: 0.6; }
      100% { opacity: 1; }
    }
    @keyframes spikeGlowPulse {
      0%   { opacity: 0.5; }
      50%  { opacity: 0.2; }
      100% { opacity: 0.5; }
    }
    /* ── Noise floor jitter ── */
    @keyframes noiseJitter1 {
      0%   { transform: translateY(0px); }
      25%  { transform: translateY(-2px); }
      50%  { transform: translateY(1px); }
      75%  { transform: translateY(-1px); }
      100% { transform: translateY(0px); }
    }
    @keyframes noiseJitter2 {
      0%   { transform: translateY(0px); }
      20%  { transform: translateY(1.5px); }
      40%  { transform: translateY(-2px); }
      60%  { transform: translateY(0.5px); }
      80%  { transform: translateY(-1.5px); }
      100% { transform: translateY(0px); }
    }
    /* ── LED blink patterns ── */
    @keyframes ledBlink {
      0%, 85%  { opacity: 1; }
      90%      { opacity: 0.2; }
      95%      { opacity: 1; }
      100%     { opacity: 1; }
    }
    @keyframes ledSlow {
      0%   { opacity: 0.3; }
      50%  { opacity: 1; }
      100% { opacity: 0.3; }
    }
    @keyframes ledFast {
      0%   { opacity: 1; }
      50%  { opacity: 0.15; }
      100% { opacity: 1; }
    }
    /* ── Waterfall scroll ── */
    @keyframes waterfallScroll {
      0%   { transform: translateY(0px); }
      100% { transform: translateY(8px); }
    }
    /* ── Subtle screen flicker ── */
    @keyframes screenFlicker {
      0%   { opacity: 1; }
      92%  { opacity: 1; }
      93%  { opacity: 0.92; }
      94%  { opacity: 1; }
      96%  { opacity: 0.97; }
      97%  { opacity: 1; }
      100% { opacity: 1; }
    }
    /* ── Status bar cursor blink ── */
    @keyframes cursorBlink {
      0%, 49%  { opacity: 1; }
      50%, 99% { opacity: 0; }
      100%     { opacity: 1; }
    }
    /* ── Ambient monitor halo ── */
    @keyframes haloPulse {
      0%   { opacity: 0.6; }
      50%  { opacity: 0.9; }
      100% { opacity: 0.6; }
    }
    .scan-line { animation: scanDown 4s linear infinite; }
    .spike-glow { animation: spikeGlowPulse 1.8s ease-in-out infinite; }
    .spike-line { animation: spikePulse 1.8s ease-in-out infinite; }
    .noise-floor-1 { animation: noiseJitter1 0.6s ease-in-out infinite; }
    .noise-floor-2 { animation: noiseJitter2 0.8s ease-in-out infinite; }
    .waterfall-rows { animation: waterfallScroll 0.5s linear infinite; }
    .screen-left { animation: screenFlicker 8s linear infinite; }
    .screen-right { animation: screenFlicker 11s linear 2s infinite; }
    .led-rx { animation: ledFast 0.8s ease-in-out infinite; }
    .led-pwr { animation: ledSlow 3s ease-in-out infinite; }
    .led-data { animation: ledBlink 1.2s linear infinite; }
    .halo-left { animation: haloPulse 5s ease-in-out infinite; }
    .halo-right { animation: haloPulse 6s ease-in-out 1.5s infinite; }
    .cursor { animation: cursorBlink 1s step-end infinite; }
  </style>

  <!-- ═══════════════════════════════════════════════ -->
  <!--  ROOM BACKGROUND                               -->
  <!-- ═══════════════════════════════════════════════ -->
  <rect width="1600" height="900" fill="url(#roomBg)"/>

  <!-- Back wall — subtle texture -->
  <rect x="0" y="0" width="1600" height="580" fill="#0a0e14"/>
  <rect x="0" y="0" width="1600" height="580" fill="url(#scanlines)" opacity="0.3"/>
  <!-- Wall trim line -->
  <rect x="0" y="575" width="1600" height="5" fill="#1a2030" opacity="0.5"/>

  <!-- ═══════════════════════════════════════════════ -->
  <!--  AMBIENT MONITOR GLOW on wall/desk              -->
  <!-- ═══════════════════════════════════════════════ -->
  <!-- Left monitor cyan glow on wall -->
  <ellipse cx="420" cy="360" rx="400" ry="280" fill="#00d9ff" opacity="0.018" class="halo-left" filter="url(#screenBlur)"/>
  <!-- Right monitor green glow on wall -->
  <ellipse cx="1180" cy="360" rx="400" ry="280" fill="#00ff88" opacity="0.015" class="halo-right" filter="url(#screenBlur)"/>

  <!-- ═══════════════════════════════════════════════ -->
  <!--  WALL SHELVES + EQUIPMENT                       -->
  <!-- ═══════════════════════════════════════════════ -->
  <!-- Left shelf -->
  <rect x="100" y="80" width="300" height="20" fill="#2a1d10" rx="3"/>
  <rect x="80" y="60" width="10" height="40" fill="#1a1208"/>
  <rect x="400" y="60" width="10" height="40" fill="#1a1208"/>
  <!-- Shelf items with subtle color variety -->
  <rect x="110" y="40" width="30" height="40" fill="#1a3a5c" rx="2"/>
  <rect x="148" y="45" width="25" height="35" fill="#2a4a6c" rx="2"/>
  <rect x="180" y="38" width="35" height="42" fill="#0f2a40" rx="2"/>
  <!-- Blinking LED on AMP box -->
  <rect x="222" y="50" width="20" height="30" fill="#3a2010" rx="2"/>
  <circle cx="232" cy="73" r="2" fill="#ff3300" class="led-rx"/>
  <rect x="250" y="42" width="40" height="38" fill="#1a1a1a" rx="2"/>
  <text x="255" y="67" font-family="monospace" font-size="9" fill="#00d9ff" opacity="0.7">SDR</text>
  <!-- SDR box LED row -->
  <circle cx="256" cy="74" r="1.5" fill="#00d9ff" class="led-data"/>
  <circle cx="263" cy="74" r="1.5" fill="#00ff44" class="led-pwr"/>
  <circle cx="270" cy="74" r="1.5" fill="#ffaa00" class="led-rx"/>
  <rect x="298" y="48" width="28" height="32" fill="#2a3010" rx="2"/>
  <rect x="333" y="44" width="50" height="36" fill="#1a1a2e" rx="2"/>
  <!-- Spectrum reference book -->
  <text x="338" y="59" font-family="monospace" font-size="6" fill="#334" opacity="0.5">ARRL</text>
  <text x="338" y="69" font-family="monospace" font-size="6" fill="#334" opacity="0.5">HANDBOOK</text>

  <!-- Right shelf -->
  <rect x="1200" y="80" width="300" height="20" fill="#2a1d10" rx="3"/>
  <rect x="1180" y="60" width="10" height="40" fill="#1a1208"/>
  <rect x="1500" y="60" width="10" height="40" fill="#1a1208"/>
  <rect x="1210" y="40" width="40" height="40" fill="#1a2a1a" rx="2"/>
  <circle cx="1230" cy="73" r="2" fill="#00ff44" class="led-pwr"/>
  <rect x="1258" y="46" width="30" height="34" fill="#0a1a0a" rx="2"/>
  <rect x="1296" y="38" width="50" height="42" fill="#2a1020" rx="2"/>
  <circle cx="1321" cy="73" r="2" fill="#ff0044" opacity="0.7">
    <animate attributeName="opacity" values="0.7;0.2;0.7" dur="2.5s" repeatCount="indefinite"/>
  </circle>
  <rect x="1354" y="50" width="25" height="30" fill="#1a3a1a" rx="2"/>
  <!-- Antenna on shelf -->
  <rect x="1440" y="25" width="5" height="75" fill="#888"/>
  <rect x="1435" y="95" width="15" height="8" fill="#555" rx="2"/>
  <!-- Antenna receives — faint pulse -->
  <circle cx="1442" cy="25" r="8" fill="#00ff88" opacity="0" filter="url(#softBlur)">
    <animate attributeName="opacity" values="0;0.25;0" dur="3s" repeatCount="indefinite"/>
  </circle>

  <!-- ═══════════════════════════════════════════════ -->
  <!--  LEFT MONITOR — Spectrum Analyzer               -->
  <!-- ═══════════════════════════════════════════════ -->
  <g class="screen-left">
    <!-- Monitor housing -->
    <rect x="100" y="150" width="640" height="410" fill="#111" stroke="#00d9ff" stroke-width="3" rx="8"/>
    <rect x="100" y="150" width="640" height="410" fill="url(#screenGrad)" rx="8"/>
    <!-- Screen bezel -->
    <rect x="115" y="165" width="610" height="380" fill="#000d1a" rx="4"/>

    <!-- Spectrum header -->
    <text x="420" y="195" font-family="monospace" font-size="16" fill="#00d9ff" text-anchor="middle" font-weight="bold">SPECTRUM ANALYZER — 14.000–14.500 MHz</text>
    <line x1="115" y1="200" x2="725" y2="200" stroke="#00d9ff" stroke-width="1" opacity="0.4"/>

    <!-- Grid lines — horizontal -->
    <line x1="115" y1="260" x2="725" y2="260" stroke="#00d9ff" stroke-width="0.5" opacity="0.12"/>
    <line x1="115" y1="310" x2="725" y2="310" stroke="#00d9ff" stroke-width="0.5" opacity="0.12"/>
    <line x1="115" y1="360" x2="725" y2="360" stroke="#00d9ff" stroke-width="0.5" opacity="0.12"/>
    <line x1="115" y1="410" x2="725" y2="410" stroke="#00d9ff" stroke-width="0.5" opacity="0.12"/>
    <line x1="115" y1="460" x2="725" y2="460" stroke="#00d9ff" stroke-width="0.5" opacity="0.12"/>
    <!-- Grid lines — vertical -->
    <line x1="238" y1="200" x2="238" y2="530" stroke="#00d9ff" stroke-width="0.5" opacity="0.12"/>
    <line x1="360" y1="200" x2="360" y2="530" stroke="#00d9ff" stroke-width="0.5" opacity="0.12"/>
    <line x1="482" y1="200" x2="482" y2="530" stroke="#00d9ff" stroke-width="0.5" opacity="0.12"/>
    <line x1="604" y1="200" x2="604" y2="530" stroke="#00d9ff" stroke-width="0.5" opacity="0.12"/>

    <!-- Noise floor — animated jitter band 1 (left half) -->
    <polyline class="noise-floor-1" points="115,470 135,465 155,468 175,462 195,469 215,464 235,467 255,461 275,466 295,463 305,467 325,461 345,466 365,463 385,467 405,462 418,465" stroke="#004466" stroke-width="1.5" fill="none" opacity="0.8"/>
    <!-- Noise floor — animated jitter band 2 (right half) -->
    <polyline class="noise-floor-2" points="418,465 435,462 455,465 475,460 495,464 515,461 535,464 555,459 575,463 595,461 615,464 635,459 655,462 675,466 695,462 725,468" stroke="#004466" stroke-width="1.5" fill="none" opacity="0.8"/>

    <!-- Smaller background signals (animated) -->
    <g class="noise-floor-1">
      <polyline points="190,462 196,440 202,420 208,440 214,462" stroke="#00aaff" stroke-width="1.5" fill="none" opacity="0.7"/>
    </g>
    <g class="noise-floor-2">
      <polyline points="560,462 566,445 572,435 578,445 584,462" stroke="#00aaff" stroke-width="1.5" fill="none" opacity="0.7"/>
      <polyline points="640,460 646,448 650,442 654,448 660,460" stroke="#0066ff" stroke-width="1.5" fill="none" opacity="0.6"/>
    </g>

    <!-- ── SIGNAL SPIKE at 14.230 MHz ── -->
    <!-- Spike glow halo -->
    <ellipse cx="418" cy="350" rx="40" ry="130" class="spike-glow" fill="#00ff88" opacity="0.08" filter="url(#glow12)"/>
    <!-- Spike fill (faint gradient under curve) -->
    <polygon points="380,462 390,450 400,410 408,330 414,230 418,210 422,230 428,340 435,420 445,455 455,462" fill="#00ff88" opacity="0.06"/>
    <!-- Spike outline — pulsing -->
    <polyline class="spike-line" points="380,462 390,450 400,410 408,330 414,230 418,210 422,230 428,340 435,420 445,455 455,462" stroke="#00ff88" stroke-width="2.5" fill="none" filter="url(#glow3)"/>
    <!-- Peak marker dashed line -->
    <line x1="418" y1="200" x2="418" y2="530" stroke="#00ff88" stroke-width="1" stroke-dasharray="4,3" opacity="0.4"/>
    <!-- Peak label -->
    <text x="418" y="548" font-family="monospace" font-size="12" fill="#00ff88" text-anchor="middle" filter="url(#glow3)">14.23 MHz ▲</text>
    <!-- dBm readout near peak -->
    <text x="438" y="218" font-family="monospace" font-size="10" fill="#00ff88" opacity="0.8">-12.4 dBm</text>

    <!-- Frequency axis labels -->
    <text x="115" y="545" font-family="monospace" font-size="11" fill="#667" text-anchor="start">14.000</text>
    <text x="238" y="545" font-family="monospace" font-size="11" fill="#667" text-anchor="middle">14.125</text>
    <text x="360" y="545" font-family="monospace" font-size="11" fill="#667" text-anchor="middle">14.250</text>
    <text x="482" y="545" font-family="monospace" font-size="11" fill="#667" text-anchor="middle">14.375</text>
    <text x="604" y="545" font-family="monospace" font-size="11" fill="#667" text-anchor="middle">14.425</text>
    <text x="725" y="545" font-family="monospace" font-size="11" fill="#667" text-anchor="end">14.500</text>
    <!-- dBm axis -->
    <text x="108" y="215" font-family="monospace" font-size="10" fill="#445" text-anchor="end">0</text>
    <text x="108" y="265" font-family="monospace" font-size="10" fill="#445" text-anchor="end">-20</text>
    <text x="108" y="315" font-family="monospace" font-size="10" fill="#445" text-anchor="end">-40</text>
    <text x="108" y="365" font-family="monospace" font-size="10" fill="#445" text-anchor="end">-60</text>
    <text x="108" y="415" font-family="monospace" font-size="10" fill="#445" text-anchor="end">-80</text>
    <text x="108" y="465" font-family="monospace" font-size="10" fill="#445" text-anchor="end">-100</text>

    <!-- Scan line sweeping down screen -->
    <rect class="scan-line" x="115" y="165" width="610" height="2" fill="#00d9ff" opacity="0.08"/>

    <!-- CRT scan-line overlay -->
    <rect x="115" y="165" width="610" height="380" fill="url(#scanlines)" opacity="0.15"/>
  </g>

  <!-- ═══════════════════════════════════════════════ -->
  <!--  RIGHT MONITOR — Waterfall Display              -->
  <!-- ═══════════════════════════════════════════════ -->
  <g class="screen-right">
    <rect x="860" y="150" width="640" height="410" fill="#111" stroke="#00d9ff" stroke-width="3" rx="8"/>
    <rect x="875" y="165" width="610" height="380" fill="#000509" rx="4"/>
    <text x="1180" y="195" font-family="monospace" font-size="16" fill="#00d9ff" text-anchor="middle" font-weight="bold">WATERFALL — TIME vs FREQUENCY</text>
    <line x1="875" y1="200" x2="1485" y2="200" stroke="#00d9ff" stroke-width="1" opacity="0.4"/>

    <!-- Waterfall display area (clipped) -->
    <clipPath id="waterfallClip">
      <rect x="875" y="200" width="610" height="340"/>
    </clipPath>

    <g clip-path="url(#waterfallClip)">
      <g class="waterfall-rows" opacity="0.88">
        <!-- Noise background base -->
        <rect x="875" y="192" width="610" height="356" fill="#000510"/>

        <!-- ── FIRST SSTV BURST (recent, top) ── -->
        <!-- Random RF ambient noise specks -->
        <rect x="960" y="200" width="3" height="8" fill="#002210" opacity="0.4"/>
        <rect x="1050" y="208" width="4" height="8" fill="#001a18" opacity="0.3"/>
        <rect x="1300" y="200" width="5" height="8" fill="#001a10" opacity="0.3"/>
        <rect x="920" y="216" width="3" height="8" fill="#001a18" opacity="0.35"/>
        <rect x="1400" y="224" width="4" height="8" fill="#002210" opacity="0.3"/>

        <!-- SSTV signal bright core at 14.23 MHz (x≈1133) -->
        <rect x="1128" y="200" width="30" height="8" fill="#006630" rx="1"/>
        <rect x="1133" y="200" width="20" height="8" fill="#00aa44" rx="1"/>
        <rect x="1128" y="208" width="30" height="8" fill="#007738" rx="1"/>
        <rect x="1133" y="208" width="20" height="8" fill="#00bb55" rx="1"/>
        <rect x="1126" y="216" width="34" height="8" fill="#008840" rx="1"/>
        <rect x="1133" y="216" width="22" height="8" fill="#00cc55" rx="1"/>
        <rect x="1128" y="224" width="30" height="8" fill="#009948" rx="1"/>
        <rect x="1133" y="224" width="18" height="8" fill="#00ee66" rx="1"/>
        <rect x="1125" y="232" width="36" height="8" fill="#00aa50" rx="1"/>
        <rect x="1133" y="232" width="22" height="8" fill="#00ff77" rx="1"/>
        <rect x="1126" y="240" width="34" height="8" fill="#00bb58" rx="1"/>
        <rect x="1133" y="240" width="20" height="8" fill="#00ff88" rx="1"/>
        <!-- Peak brightness w/ glow -->
        <rect x="1124" y="248" width="38" height="8" fill="#00cc60" rx="1"/>
        <rect x="1133" y="248" width="19" height="8" fill="#22ffaa" rx="1"/>
        <rect x="1127" y="256" width="32" height="8" fill="#00aa50" rx="1"/>
        <rect x="1133" y="256" width="21" height="8" fill="#00ee88" rx="1"/>
        <rect x="1129" y="264" width="28" height="8" fill="#008840" rx="1"/>
        <rect x="1133" y="264" width="20" height="8" fill="#00cc66" rx="1"/>
        <rect x="1130" y="272" width="26" height="8" fill="#006630" rx="1"/>
        <rect x="1133" y="272" width="20" height="8" fill="#00bb55" rx="1"/>
        <rect x="1131" y="280" width="24" height="8" fill="#004420" rx="1"/>
        <rect x="1133" y="280" width="18" height="8" fill="#00aa44" rx="1"/>
        <!-- Fading out -->
        <rect x="1133" y="288" width="16" height="8" fill="#006633" rx="1"/>
        <rect x="1133" y="296" width="12" height="8" fill="#004422" rx="1"/>

        <!-- ── QUIET PERIOD ── -->
        <!-- Sparse noise -->
        <rect x="980" y="310" width="3" height="8" fill="#001108" opacity="0.3"/>
        <rect x="1200" y="318" width="4" height="8" fill="#001a10" opacity="0.25"/>
        <rect x="1060" y="326" width="3" height="8" fill="#001108" opacity="0.3"/>
        <rect x="1380" y="334" width="5" height="8" fill="#001a10" opacity="0.2"/>

        <!-- ── SECOND SSTV BURST (earlier, bottom) ── -->
        <rect x="1125" y="368" width="36" height="8" fill="#118844" rx="1"/>
        <rect x="1130" y="368" width="25" height="8" fill="#33ff99" rx="1"/>
        <rect x="1123" y="376" width="40" height="8" fill="#22aa55" rx="1"/>
        <rect x="1130" y="376" width="25" height="8" fill="#55ffaa" rx="1"/>
        <rect x="1122" y="384" width="42" height="8" fill="#22bb60" rx="1"/>
        <rect x="1129" y="384" width="26" height="8" fill="#66ffbb" rx="1"/>
        <rect x="1124" y="392" width="38" height="8" fill="#22cc66" rx="1"/>
        <rect x="1131" y="392" width="24" height="8" fill="#77ffcc" rx="1"/>
        <!-- Peak of second burst -->
        <rect x="1122" y="400" width="42" height="8" fill="#22dd6a" rx="1"/>
        <rect x="1130" y="400" width="25" height="8" fill="#88ffdd" rx="1"/>
        <rect x="1123" y="408" width="40" height="8" fill="#22cc66" rx="1"/>
        <rect x="1130" y="408" width="25" height="8" fill="#66ffbb" rx="1"/>
        <rect x="1125" y="416" width="36" height="8" fill="#11aa50" rx="1"/>
        <rect x="1130" y="416" width="23" height="8" fill="#55ffaa" rx="1"/>
        <rect x="1127" y="424" width="32" height="8" fill="#118840" rx="1"/>
        <rect x="1130" y="424" width="20" height="8" fill="#44ff99" rx="1"/>
        <!-- Fade -->
        <rect x="1130" y="432" width="16" height="8" fill="#33aa66" rx="1"/>
        <rect x="1130" y="440" width="12" height="8" fill="#226644" rx="1"/>

        <!-- Old noise rows -->
        <rect x="1100" y="460" width="3" height="8" fill="#001108" opacity="0.2"/>
        <rect x="950" y="472" width="4" height="8" fill="#001a10" opacity="0.15"/>
        <rect x="1250" y="480" width="3" height="8" fill="#001108" opacity="0.2"/>
        <rect x="1350" y="492" width="5" height="8" fill="#001a10" opacity="0.15"/>
        <rect x="1000" y="504" width="3" height="8" fill="#001108" opacity="0.15"/>
        <rect x="1150" y="516" width="4" height="8" fill="#001a10" opacity="0.12"/>
        <rect x="1400" y="528" width="3" height="8" fill="#001108" opacity="0.12"/>
      </g>
    </g>

    <!-- Marker line at 14.23 MHz -->
    <line x1="1143" y1="200" x2="1143" y2="540" stroke="#00ff88" stroke-width="1" stroke-dasharray="3,3" opacity="0.5"/>
    <text x="1143" y="555" font-family="monospace" font-size="11" fill="#00ff88" text-anchor="middle" filter="url(#glow3)">14.23 MHz — SSTV</text>
    <!-- Time axis -->
    <text x="875" y="555" font-family="monospace" font-size="11" fill="#667">-8 min</text>
    <text x="1180" y="555" font-family="monospace" font-size="11" fill="#667" text-anchor="middle">-4 min</text>
    <text x="1485" y="555" font-family="monospace" font-size="11" fill="#667" text-anchor="end">NOW</text>

    <!-- Scan line sweep -->
    <rect class="scan-line" x="875" y="165" width="610" height="2" fill="#00d9ff" opacity="0.06"/>

    <!-- CRT scanline overlay -->
    <rect x="875" y="165" width="610" height="380" fill="url(#scanlines)" opacity="0.12"/>
  </g>

  <!-- ═══════════════════════════════════════════════ -->
  <!--  DESK SURFACE                                   -->
  <!-- ═══════════════════════════════════════════════ -->
  <rect x="0" y="580" width="1600" height="40" fill="url(#deskGrad)"/>
  <rect x="0" y="617" width="1600" height="18" fill="#1f1208"/>
  <rect x="0" y="580" width="1600" height="4" fill="#5a3d22"/>
  <!-- Subtle desk reflection of monitors -->
  <rect x="100" y="580" width="640" height="4" fill="#00d9ff" opacity="0.04"/>
  <rect x="860" y="580" width="640" height="4" fill="#00ff88" opacity="0.03"/>

  <!-- ═══════════════════════════════════════════════ -->
  <!--  SDR DONGLE                                     -->
  <!-- ═══════════════════════════════════════════════ -->
  <rect x="510" y="595" width="180" height="55" fill="#1a1a1a" stroke="#444" stroke-width="2" rx="6"/>
  <rect x="516" y="601" width="100" height="43" fill="#0a0a0a" rx="3"/>
  <!-- Main activity LED — pulsing cyan -->
  <circle cx="570" cy="622" r="8" fill="#001122" stroke="#00d9ff" stroke-width="1"/>
  <circle cx="570" cy="622" r="4" fill="#00d9ff" class="led-data" filter="url(#glow3)"/>
  <!-- RX indicator -->
  <circle cx="545" cy="612" r="2.5" fill="#00ff44" class="led-rx"/>
  <!-- Data indicator -->
  <circle cx="545" cy="632" r="2.5" fill="#ffaa00" class="led-data"/>
  <text x="624" y="618" font-family="monospace" font-size="10" fill="#888">RTL-SDR</text>
  <text x="624" y="632" font-family="monospace" font-size="9" fill="#555">R820T2</text>
  <!-- USB cable -->
  <path d="M510,622 Q480,622 465,622" stroke="#333" stroke-width="6" fill="none"/>
  <rect x="455" y="616" width="15" height="12" fill="#222" rx="2"/>
  <!-- Antenna SMA connector -->
  <rect x="686" y="615" width="8" height="25" fill="#888" rx="2"/>
  <line x1="690" y1="600" x2="690" y2="615" stroke="#aaa" stroke-width="3"/>
  <line x1="680" y1="595" x2="700" y2="595" stroke="#aaa" stroke-width="2"/>
  <line x1="685" y1="590" x2="695" y2="590" stroke="#aaa" stroke-width="2"/>
  <!-- Antenna receive glow -->
  <circle cx="690" cy="590" r="10" fill="#00ff88" opacity="0" filter="url(#softBlur)">
    <animate attributeName="opacity" values="0;0.18;0" dur="2.2s" repeatCount="indefinite"/>
  </circle>

  <!-- ═══════════════════════════════════════════════ -->
  <!--  SDR CONTROLS PANEL (left lower)                -->
  <!-- ═══════════════════════════════════════════════ -->
  <rect x="100" y="595" width="380" height="160" fill="#0f1520" stroke="#334" stroke-width="2" rx="6"/>
  <text x="290" y="618" font-family="monospace" font-size="14" fill="#00d9ff" text-anchor="middle" font-weight="bold">SDR CONTROLS</text>
  <line x1="110" y1="622" x2="470" y2="622" stroke="#334" stroke-width="1"/>
  <!-- Active tuning LED -->
  <circle cx="115" cy="613" r="4" fill="#00d9ff" class="led-pwr" filter="url(#glow3)"/>

  <!-- Tuning: frequency display with glow -->
  <text x="120" y="645" font-family="monospace" font-size="12" fill="#888">FREQ:</text>
  <rect x="165" y="632" width="180" height="22" fill="#000d1a" stroke="#00d9ff" stroke-width="1" rx="3"/>
  <text x="255" y="648" font-family="monospace" font-size="13" fill="#00ff88" text-anchor="middle" filter="url(#glow3)">14.230.000 Hz</text>
  <text x="355" y="645" font-family="monospace" font-size="11" fill="#555">20 MHz</text>

  <!-- Gain slider -->
  <text x="120" y="672" font-family="monospace" font-size="12" fill="#888">GAIN:</text>
  <rect x="165" y="659" width="200" height="10" fill="#001428" stroke="#334" stroke-width="1" rx="5"/>
  <rect x="165" y="659" width="148" height="10" fill="#0066aa" rx="5"/>
  <circle cx="313" cy="664" r="7" fill="#00d9ff" filter="url(#glow3)"/>
  <text x="375" y="670" font-family="monospace" font-size="11" fill="#667">74%</text>

  <!-- Mode selector with active indicator -->
  <text x="120" y="698" font-family="monospace" font-size="12" fill="#888">MODE:</text>
  <rect x="165" y="685" width="70" height="20" fill="#003344" stroke="#00d9ff" stroke-width="1.5" rx="3"/>
  <text x="200" y="699" font-family="monospace" font-size="12" fill="#00d9ff" text-anchor="middle" font-weight="bold">USB</text>
  <rect x="242" y="685" width="70" height="20" fill="#001a22" stroke="#334" stroke-width="1" rx="3"/>
  <text x="277" y="699" font-family="monospace" font-size="12" fill="#445" text-anchor="middle">AM</text>
  <rect x="319" y="685" width="70" height="20" fill="#001a22" stroke="#334" stroke-width="1" rx="3"/>
  <text x="354" y="699" font-family="monospace" font-size="12" fill="#445" text-anchor="middle">FM</text>
  <rect x="396" y="685" width="70" height="20" fill="#001a22" stroke="#334" stroke-width="1" rx="3"/>
  <text x="431" y="699" font-family="monospace" font-size="12" fill="#445" text-anchor="middle">LSB</text>

  <!-- Bandwidth + squelch row -->
  <text x="120" y="726" font-family="monospace" font-size="12" fill="#888">BW:</text>
  <text x="165" y="726" font-family="monospace" font-size="12" fill="#00aaff">3.0 kHz</text>
  <text x="230" y="726" font-family="monospace" font-size="12" fill="#445">SQUELCH:</text>
  <text x="310" y="726" font-family="monospace" font-size="12" fill="#667">-85 dBm</text>

  <!-- Live S-Meter -->
  <text x="120" y="746" font-family="monospace" font-size="10" fill="#556">S-METER:</text>
  <rect x="190" y="736" width="120" height="8" fill="#001428" stroke="#223" stroke-width="0.5" rx="3"/>
  <rect x="190" y="736" width="85" height="8" fill="#00aa44" rx="3">
    <animate attributeName="width" values="85;78;90;82;85" dur="2s" repeatCount="indefinite"/>
  </rect>
  <rect x="275" y="736" width="0" height="8" fill="#ff4444" rx="3">
    <animate attributeName="width" values="0;6;0;3;0" dur="2s" repeatCount="indefinite"/>
  </rect>
  <text x="318" y="744" font-family="monospace" font-size="9" fill="#667">S7+</text>

  <!-- ═══════════════════════════════════════════════ -->
  <!--  SSTV DECODE PANEL (right lower)                -->
  <!-- ═══════════════════════════════════════════════ -->
  <rect x="860" y="595" width="380" height="160" fill="#0a1208" stroke="#00aa44" stroke-width="2" rx="6"/>
  <text x="1050" y="618" font-family="monospace" font-size="14" fill="#00ff88" text-anchor="middle" font-weight="bold">SSTV DECODER — RX</text>
  <line x1="870" y1="622" x2="1230" y2="622" stroke="#00aa44" stroke-width="1"/>
  <!-- Activity LED for panel -->
  <circle cx="875" cy="613" r="4" fill="#00ff88" class="led-rx" filter="url(#glow3)"/>

  <text x="880" y="642" font-family="monospace" font-size="12" fill="#667">MODE:</text>
  <text x="930" y="642" font-family="monospace" font-size="12" fill="#00ff88">Martin M2</text>
  <text x="1060" y="642" font-family="monospace" font-size="10" fill="#334">114s/frame</text>
  <text x="880" y="660" font-family="monospace" font-size="12" fill="#667">STATUS:</text>
  <text x="935" y="660" font-family="monospace" font-size="12" fill="#ffaa00" font-weight="bold">SIGNAL DETECTED</text>
  <!-- Pulsing alert indicator -->
  <circle cx="1100" cy="655" r="6" fill="#ffaa00" filter="url(#glow3)">
    <animate attributeName="opacity" values="1;0.15;1" dur="0.7s" repeatCount="indefinite"/>
  </circle>
  <circle cx="1100" cy="655" r="12" fill="#ffaa00" opacity="0" filter="url(#glow6)">
    <animate attributeName="opacity" values="0;0.2;0" dur="0.7s" repeatCount="indefinite"/>
  </circle>
  <text x="880" y="678" font-family="monospace" font-size="12" fill="#667">FREQ:</text>
  <text x="930" y="678" font-family="monospace" font-size="12" fill="#00ff88">14.230.000 Hz</text>
  <text x="880" y="696" font-family="monospace" font-size="12" fill="#667">SNR:</text>
  <text x="930" y="696" font-family="monospace" font-size="12" fill="#00ff88">+18.4 dB</text>
  <!-- SNR bar -->
  <rect x="1010" y="688" width="80" height="6" fill="#001428" rx="3"/>
  <rect x="1010" y="688" width="62" height="6" fill="#00cc44" rx="3">
    <animate attributeName="width" values="62;58;65;60;62" dur="3s" repeatCount="indefinite"/>
  </rect>
  <text x="880" y="714" font-family="monospace" font-size="12" fill="#667">CALLSIGN:</text>
  <text x="960" y="714" font-family="monospace" font-size="12" fill="#ff6644" font-weight="bold">UNKNOWN / ENCRYPTED</text>

  <!-- Decode button — glowing border -->
  <rect x="880" y="724" width="120" height="24" fill="#003322" stroke="#00ff88" stroke-width="1.5" rx="4"/>
  <rect x="880" y="724" width="120" height="24" fill="#00ff88" opacity="0" rx="4">
    <animate attributeName="opacity" values="0;0.08;0" dur="2s" repeatCount="indefinite"/>
  </rect>
  <text x="940" y="740" font-family="monospace" font-size="12" fill="#00ff88" text-anchor="middle" font-weight="bold">▶ DECODE</text>
  <!-- Clear button -->
  <rect x="1010" y="724" width="120" height="24" fill="#220011" stroke="#ff3366" stroke-width="1" rx="4"/>
  <text x="1070" y="740" font-family="monospace" font-size="12" fill="#ff3366" text-anchor="middle">■ CLEAR</text>

  <!-- ═══════════════════════════════════════════════ -->
  <!--  DESK ITEMS                                     -->
  <!-- ═══════════════════════════════════════════════ -->
  <!-- Coffee mug -->
  <ellipse cx="760" cy="600" rx="22" ry="10" fill="#1a1010"/>
  <rect x="738" y="575" width="44" height="30" fill="#2a1515" rx="3"/>
  <ellipse cx="760" cy="575" rx="22" ry="6" fill="#3a1515"/>
  <text x="760" y="578" font-family="monospace" font-size="8" fill="#884444" text-anchor="middle">HAM</text>
  <!-- Steam from coffee -->
  <path d="M755,560 Q752,550 758,540" stroke="#ffffff" stroke-width="1" fill="none" opacity="0">
    <animate attributeName="opacity" values="0;0.12;0" dur="4s" repeatCount="indefinite"/>
    <animate attributeName="d" values="M755,560 Q752,550 758,540;M755,560 Q748,545 754,530;M755,560 Q752,550 758,540" dur="4s" repeatCount="indefinite"/>
  </path>
  <path d="M762,562 Q766,548 760,536" stroke="#ffffff" stroke-width="1" fill="none" opacity="0">
    <animate attributeName="opacity" values="0;0.1;0" dur="5s" begin="1.5s" repeatCount="indefinite"/>
    <animate attributeName="d" values="M762,562 Q766,548 760,536;M762,562 Q768,542 763,528;M762,562 Q766,548 760,536" dur="5s" begin="1.5s" repeatCount="indefinite"/>
  </path>

  <!-- Notebook -->
  <rect x="1310" y="572" width="120" height="88" fill="#eee8d0" rx="3" transform="rotate(-5,1370,616)"/>
  <rect x="1312" y="572" width="8" height="88" fill="#cc8844" rx="2" transform="rotate(-5,1370,616)"/>
  <text x="1360" y="598" font-family="monospace" font-size="8" fill="#666" transform="rotate(-5,1370,616)">14.230 MHz</text>
  <text x="1360" y="610" font-family="monospace" font-size="8" fill="#666" transform="rotate(-5,1370,616)">SSTV Martin M2</text>
  <text x="1360" y="622" font-family="monospace" font-size="8" fill="#888" transform="rotate(-5,1370,616)">Who is transmitting?</text>
  <text x="1360" y="634" font-family="monospace" font-size="8" fill="#aa4444" transform="rotate(-5,1370,616)">← Westerbork coords??</text>
  <text x="1360" y="646" font-family="monospace" font-size="8" fill="#888" transform="rotate(-5,1370,616)">steganography??</text>

  <!-- Pen on notebook -->
  <line x1="1425" y1="580" x2="1440" y2="650" stroke="#222" stroke-width="3" stroke-linecap="round" transform="rotate(-5,1370,616)"/>

  <!-- ═══════════════════════════════════════════════ -->
  <!--  DESK LAMP                                      -->
  <!-- ═══════════════════════════════════════════════ -->
  <rect x="1250" y="400" width="8" height="180" fill="#333" rx="3"/>
  <ellipse cx="1254" cy="400" rx="60" ry="18" fill="#444" stroke="#555" stroke-width="2"/>
  <ellipse cx="1254" cy="396" rx="52" ry="13" fill="#ffeeaa" opacity="0.05"/>
  <!-- Warm light cone -->
  <polygon points="1194,418 1314,418 1390,580 1118,580" fill="#ffeeaa" opacity="0.035"/>
  <!-- Lamp base -->
  <rect x="1230" y="575" width="50" height="10" fill="#333" rx="3"/>

  <!-- ═══════════════════════════════════════════════ -->
  <!--  CABLE MESS (with detail)                       -->
  <!-- ═══════════════════════════════════════════════ -->
  <path d="M600,618 Q620,640 700,635 Q800,630 860,625" stroke="#222" stroke-width="4" fill="none"/>
  <path d="M740,618 Q760,650 820,645 Q870,640 900,630" stroke="#1a3300" stroke-width="3" fill="none"/>
  <path d="M480,618 Q500,635 530,628 Q560,620 510,620" stroke="#1a1a2a" stroke-width="3" fill="none"/>

  <!-- ═══════════════════════════════════════════════ -->
  <!--  FLOOR                                          -->
  <!-- ═══════════════════════════════════════════════ -->
  <rect x="0" y="635" width="1600" height="265" fill="#080c10"/>
  <!-- Floor reflection of monitors -->
  <rect x="100" y="635" width="640" height="40" fill="#00d9ff" opacity="0.008"/>
  <rect x="860" y="635" width="640" height="40" fill="#00ff88" opacity="0.006"/>

  <!-- ═══════════════════════════════════════════════ -->
  <!--  STATUS BAR (top)                               -->
  <!-- ═══════════════════════════════════════════════ -->
  <rect x="0" y="0" width="1600" height="35" fill="#050810" opacity="0.95"/>
  <text x="20" y="22" font-family="monospace" font-size="13" fill="#00d9ff">SDR WORKBENCH v2.4</text>
  <!-- Receiving indicator with pulse -->
  <circle cx="625" cy="17" r="5" fill="#00ff88" class="led-rx" filter="url(#glow3)"/>
  <text x="640" y="22" font-family="monospace" font-size="13" fill="#00ff88">RECEIVING</text>
  <text x="760" y="22" font-family="monospace" font-size="13" fill="#00d9ff">14.230.000 MHz</text>
  <text x="920" y="22" font-family="monospace" font-size="13" fill="#667">USB  BW: 3kHz</text>
  <text x="1440" y="22" font-family="monospace" font-size="13" fill="#334">SESSION:</text>
  <text x="1530" y="22" font-family="monospace" font-size="13" fill="#00ff88">ACTIVE</text>
  <!-- Blinking cursor -->
  <rect x="1577" y="12" width="8" height="14" fill="#00ff88" class="cursor" opacity="0.7"/>
  <!-- Timestamp -->
  <text x="1100" y="22" font-family="monospace" font-size="11" fill="#445">UTC 03:42:18</text>
  <!-- Scrolling data ticker -->
  <clipPath id="tickerClip">
    <rect x="0" y="28" width="1600" height="10"/>
  </clipPath>
  <g clip-path="url(#tickerClip)">
    <text y="36" font-family="monospace" font-size="8" fill="#223" opacity="0.6">
      <animate attributeName="x" from="1600" to="-1800" dur="45s" repeatCount="indefinite"/>
      RX: 14.230.000 Hz | MODULATION: SSTV | FORMAT: Martin M2 | SIGNAL: -12.4 dBm | SNR: +18.4 dB | STATUS: ACTIVE TRANSMISSION | CALLSIGN: ENCRYPTED | BANDWIDTH: 2.7 kHz | IONOSPHERE: F2-LAYER PROPAGATION | BEARING: UNKNOWN | AGC: AUTO | SQUELCH: -85 dBm | BUFFER: 94%
    </text>
  </g>

  <!-- ═══════════════════════════════════════════════ -->
  <!--  MONITOR STANDS                                 -->
  <!-- ═══════════════════════════════════════════════ -->
  <!-- Left monitor stand -->
  <rect x="380" y="556" width="80" height="26" fill="#1a1a1a" rx="3"/>
  <rect x="400" y="568" width="40" height="14" fill="#111" rx="2"/>
  <!-- Right monitor stand -->
  <rect x="1140" y="556" width="80" height="26" fill="#1a1a1a" rx="3"/>
  <rect x="1160" y="568" width="40" height="14" fill="#111" rx="2"/>

  <!-- Power strip with LEDs on floor -->
  <rect x="300" y="660" width="200" height="16" fill="#1a1a1a" rx="3"/>
  <circle cx="320" cy="668" r="3" fill="#00ff44" class="led-pwr"/>
  <circle cx="340" cy="668" r="3" fill="#00ff44" class="led-pwr"/>
  <circle cx="360" cy="668" r="3" fill="#ffaa00" class="led-data"/>
  <circle cx="380" cy="668" r="3" fill="#00d9ff" class="led-data"/>
  <circle cx="400" cy="668" r="2.5" fill="#333"/>
  <circle cx="420" cy="668" r="2.5" fill="#333"/>
</svg>
